<svg xmlns="http://www.w3.org/2000/svg" viewBox="0 0 171.3 102.88"><defs><style>.cls-1{fill:#1c1d1b;}.cls-2{fill:#9fa0a0;}</style></defs><title>资源 17</title><g id="图层_2" data-name="图层 2"><g id="图层_1-2" data-name="图层 1"><g id="云"><circle class="cls-1" cx="75.49" cy="51.44" r="51.44"/><path class="cls-2" d="M170.74,83.9a7.39,7.39,0,0,0-7.49-3.44,4,4,0,0,0-2.9,2.23c-.63,1.21-.38,2.2.78,3.23a2.54,2.54,0,0,0,3.23.25,11.18,11.18,0,0,0,.91-.78,1.75,1.75,0,0,1-1.13,1.83,5.33,5.33,0,0,1-4.75-.66,4,4,0,0,1-1.17-4.43,5.36,5.36,0,0,1,3.66-3.33l1.81-.6a6.72,6.72,0,0,0-.29-1.74,8.46,8.46,0,0,0-7.16-5.07c-1-.09-5-.12-7.39,0a3.24,3.24,0,0,0-2.67-2.77,3.83,3.83,0,0,0-4.44,1.6l-1.3,1.87c-.37-1-.61-1.53-.8-2.11-1.11-3.53-3.49-5.3-7.2-5.62A8.65,8.65,0,0,0,123.2,75.2c.55,1.86,1.87,3.16,3.42,1.86.5-.42.56-1.23.85-1.86h0c.4.71.55,1.68.16,2a4.58,4.58,0,0,1-2.51,1.29,2.76,2.76,0,0,1-3-1.9,11.61,11.61,0,0,1-.56-3.86c.12-2.45-.58-3.94-2.93-4.56-3.54-.92-7.09-1.06-10.18.83a3.83,3.83,0,0,1-2.49-.38c-.85-.38-.56-1-.94-1.7a6.17,6.17,0,0,0-1.89-1.61,9,9,0,0,0-7-.47c-1.89.85-2.74,3.87-4.81,2.55-1.14-.66-.85-1-2.55-1S84.28,66.1,83,67.52s-2,6.66-.91,9.26a6,6,0,0,0-2.2,1.56,47.34,47.34,0,0,0-2.86,4,8.07,8.07,0,0,1-1.49,1.86c-1.27.91-2.46.6-4-.81-1.39-1.27-2.43-1.32-4.34.16,2.81-.44,4.09,1.19,5.46,2.74a6.08,6.08,0,0,0,2.16,1.48c2.12.88,3.87-.2,4.2-2.47,0-.07,0-.14,0-.21a6.57,6.57,0,0,0,.52,1.32c1.36,2.61,6.35,4.82,9.17,4a4.13,4.13,0,0,0,3.24-3.19,4.77,4.77,0,0,0-1.22-4.66c-.87-.82-2-1.2-2.89-.17-.48.58-.45,1.6-.66,2.48l2.19.79c-1.61.86-2,.8-2.73-.26a3,3,0,0,1,.71-4c1.4-1,2.89-1.18,4,.3a37.54,37.54,0,0,1,3,4.66c2.71,4.82,7.72,5.42,11.29,1.32.08-.08.3,0,.46,0,1.12,3.22,1.88,3.49,5.18,2l.21-.08a7.54,7.54,0,0,0,2.47-.19,5.35,5.35,0,0,1,.74-.09,3.91,3.91,0,0,0,4.39,1.88c2.35-.47,2.17-2.4,2.43-4.49a16.31,16.31,0,0,0,1.45,1.6,22.62,22.62,0,0,0,3.13,2.32c3.21,1.82,9.43-1.72,10.57-4.78a19.46,19.46,0,0,1,3.18-5.29,4.08,4.08,0,0,1,5.64-.48,3.36,3.36,0,0,1,1.16,3.39,2.81,2.81,0,0,1-1.87,2.6c-1.09.37-2,.22-2.27-1.31l1.49.68c1.57-1.28,2.06-2.54,1.47-3.47a3,3,0,0,0-3.62-.69,5,5,0,0,0-2,1.66,5.08,5.08,0,0,0,.17,5.72,5.22,5.22,0,0,0,5,2.74,16,16,0,0,0,7.13-2.42v.1a1.33,1.33,0,0,0,.19-.14A21.12,21.12,0,0,0,156,91.42a14.48,14.48,0,0,0,12.19-.26A5.5,5.5,0,0,0,170.74,83.9ZM127.5,75.21s0,0,0,0Z"/><path class="cls-2" d="M74.71,29.88a10.64,10.64,0,0,0-9-.19,15.2,15.2,0,0,0-2.64,1.93l-.14-.11s0,0,0,.08a11.74,11.74,0,0,0-5.27-1.79,3.87,3.87,0,0,0-3.73,2,3.6,3.6,0,0,0,1.32,5.46,2.25,2.25,0,0,0,2.68-.52c.44-.68.07-1.61-1.09-2.56l-1.1.5c.24-1.13.87-1.24,1.68-1a2.08,2.08,0,0,1,1.38,1.93,2.48,2.48,0,0,1-.86,2.5,3,3,0,0,1-4.17-.36,14.28,14.28,0,0,1-2.35-3.9,6.14,6.14,0,0,0-2.59-2.71c-.05-.12-.11-.24-.15-.36-.61-1.35-.73-2.6-1.94-3.64C46,26.68,45.39,26.68,45,26c-.25-.41-.12-1.25-.25-1.87-1.69-4.16-8.46-2-10.52.83-.85,1.15-1.21,2.71-2.66,3.12a9.34,9.34,0,0,1-2.42,0,5.69,5.69,0,0,0-4.44,2.5,5.14,5.14,0,0,0-4.63,3A28.8,28.8,0,0,1,17.91,37c-.84,1.09-1.94,1-3,.22a2.21,2.21,0,0,1-.52-3c.5-.78.83-.82,2-.19l-1.62.59a5,5,0,0,0,.49,1.83c.64.77,1.5.48,2.14-.12a3.51,3.51,0,0,0,.9-3.45,3.05,3.05,0,0,0-2.39-2.36c-2.09-.62-5.77,1-6.79,2.94a5.65,5.65,0,0,0-.38,1,.77.77,0,0,1,0-.15,2.13,2.13,0,0,0-3.12-1.83A4.47,4.47,0,0,0,4,33.51c-1,1.15-2,2.35-4,2,1.41,1.1,2.18,1.06,3.21.12s2-1.28,3-.6a5.85,5.85,0,0,1,1.11,1.38A34.39,34.39,0,0,0,9.4,39.35a4.46,4.46,0,0,0,3.19,1.51c0,1.41,0,2.84,1.63,3.41s2.47-.34,3.35-1.82c.39.69.65,1.12.88,1.58a4.88,4.88,0,0,0,6,2.74,5,5,0,0,0,3.26-3.23,15,15,0,0,0,1.89,2c2.48,2.12,5.49,2.09,8.48,1.31,1.73-.46,2.25-1.56,2.16-3.37a8.42,8.42,0,0,1,.42-2.85,2,2,0,0,1,2.19-1.41,3.41,3.41,0,0,1,1.85,1c.29.27.18,1-.12,1.5-.21-.46-.26-1.06-.63-1.37-1.14-1-2.12,0-2.52,1.38a6.39,6.39,0,0,0,6.83,8,5.55,5.55,0,0,0,5.32-4.15c.14-.43.32-.85.59-1.57.42.6.7,1,1,1.39a2.83,2.83,0,0,0,3.28,1.18,2.42,2.42,0,0,0,2-2c1.76,0,4.69,0,5.46,0a6.28,6.28,0,0,0,5.29-3.76,4.75,4.75,0,0,0,.21-1.28L70.05,39a4,4,0,0,1-2.71-2.46,3,3,0,0,1,.87-3.28,4,4,0,0,1,3.51-.48,1.31,1.31,0,0,1,.84,1.35c-.29-.25-.47-.43-.68-.58a1.87,1.87,0,0,0-2.38.19,1.77,1.77,0,0,0-.58,2.39,2.94,2.94,0,0,0,2.14,1.64,5.45,5.45,0,0,0,5.54-2.54A4,4,0,0,0,74.71,29.88Z"/></g></g></g></svg>