<svg xmlns="http://www.w3.org/2000/svg" viewBox="0 0 257.71 106.73"><title>资源 14</title><g id="图层_2" data-name="图层 2"><g id="图层_1-2" data-name="图层 1"><path id="兰" d="M227.92,57a26.66,26.66,0,0,0-3.77-2.27c.34-.11.7-.21,1.06-.31,6.95-1.89,10.51-1.57,13.12-1,1.31.3,2.76.74,3.89,1.1-1.49.13-3.06.32-4.72.56A87.3,87.3,0,0,0,227.92,57ZM212.86,63c-.13-.81-.33-1.8-.59-2.85a50.37,50.37,0,0,1,11.13-5.27,21.4,21.4,0,0,1,3.88,2.21A70.94,70.94,0,0,0,212.86,63Zm-9.35,5.24a22.6,22.6,0,0,0-3.9.46,100,100,0,0,1,9.8-6.85c.83-.48,1.64-1,2.45-1.46.34,1,.61,1.94.81,2.71C210,64.56,207,66.25,203.51,68.28Zm-2.36,1.41A127.57,127.57,0,0,0,180.27,88a.14.14,0,0,1,0-.06c1.68-2.17,3.5-4.48,3.5-4.48s.73-.79,1.85-2c.67-.28.68-.38.28-.29,2.23-2.33,5.73-5.92,8.09-7.94,1.43-1.22,3.36-2.81,5.46-4.44a12.35,12.35,0,0,1,1.72-.15c.56,0,1.09,0,1.62,0ZM182.78,87.35c-1,1.66-2.27,4.22-3.24,6.18a15.9,15.9,0,0,0-3.75.49c.76-1.1,1.52-2.1,2.12-3l.68-.92c.33-.27.67-.55,1-.81a5.79,5.79,0,0,1,.51,1.44,7.79,7.79,0,0,0,.25-2A20.88,20.88,0,0,1,182.78,87.35Zm2-.85a42.85,42.85,0,0,1,4.62-1.25,2.29,2.29,0,0,1-.14.27c-.59.92-3.1,2.84-4.54,4.15a6,6,0,0,0-1.57,1.87,2.09,2.09,0,0,0-1,2c-.35,0-.71,0-1.1,0l-1,0c.33-.62.66-1.21,1-1.7a41.53,41.53,0,0,0,2.14-4.62A14,14,0,0,1,184.78,86.5Zm.89,7a22.5,22.5,0,0,1,3.32.35,1.32,1.32,0,0,1,.34.69c0,.3.33.56.5.67l-.94.42s0,0,0,0c-.16-.43-.43-.4-.43-.4a1.19,1.19,0,0,0-.18-.68l.43-.23a12,12,0,0,0-3.32-.48,17,17,0,0,1-1.79-.06A7.32,7.32,0,0,1,185.67,93.46Zm4.91,1.37.46-.67.76.14Zm-.67-.52c-.26-.2-.48-.34-.65-.46l1.47.26c-.1.17-.23.36-.37.58A2.37,2.37,0,0,0,189.91,94.31Zm-2.55,2.49.7-.36a.48.48,0,0,0,.38.41c.49.15.58-.4.52-.87l.82-.4c-.42.63-.89,1.36-1.4,2.15A5.11,5.11,0,0,0,187.36,96.8Zm2.81,3.1c-1,.93-2.19,2.06-3.2,3.08-.65.38-1.25.77-1.81,1.13a35,35,0,0,1,2-3.73c.29-.49.6-1,.91-1.49A11.35,11.35,0,0,0,190.17,99.9Zm-5.58,5.57c.07-.19.17-.42.28-.68l.92-.59C185.29,104.72,184.87,105.16,184.59,105.47Zm-3.14-1.82a30,30,0,0,1,4-5.81l.39-.22c.22.15.46.29.71.44l1.19.67c-.68,1.09-1.38,2.24-2,3.38-.05.09-.11.18-.15.26Zm-6.2,1.93a16.11,16.11,0,0,1,1.33-1.41c1.8-.9,3.54-1.9,3.54-1.9a15.84,15.84,0,0,0-2.35.82,42.87,42.87,0,0,1,4.37-3.24l2-.66a33,33,0,0,0-3.21,4.62Zm-1.76.21s.66-1.42,1.39-3l.76-.38,1.27,0a12.36,12.36,0,0,0-2.6,2.63A9.14,9.14,0,0,0,173.49,105.79Zm-1.26-.2c.12-.14.25-.31.39-.5l-.21.31Zm-1.43-1.25c.16-.37.33-.79.51-1.23a16.66,16.66,0,0,1,1.67-.37c-.15.25-.3.5-.44.75C171.92,103.77,171.33,104.06,170.8,104.34Zm-1.39,1.83v-.4l.18-.1C169.46,106,169.41,106.16,169.41,106.17Zm-.77-1.34.28-.83,0,0c-.09.79-.16,1.46-.21,1.88C168.73,105.61,168.69,105.25,168.64,104.83Zm-2.31.43.14-1.73c.35-.44.75-.91,1.22-1.41-.06.76-.16,1.64-.25,2.38A12.87,12.87,0,0,0,166.33,105.26Zm-1.42-.44-.35-1.47a22.49,22.49,0,0,1,2.14-3.07l-.54,2.89C165.73,103.69,165.31,104.24,164.91,104.82Zm-.82-1.71.2-.35v.07Zm3-5c.09.3.17.6.25.89-.32.32-.65.65-1,1l-2,2.72,0-.09C165,101.55,166.28,99.25,167.12,98.06Zm-1.21-3.55c-.18,0-.61-.15-1.16-.26a.46.46,0,0,0,.07-.07c.26-.39,0-.62,0-.91s.39-.36.42-.07c0,0,.07.33-.06.42s0,.49,0,.49a1.54,1.54,0,0,1,.29-.42.76.76,0,0,0,.13-.59l.36.21a4,4,0,0,0,.08.4c.27,1,1.91,1.82,2.48,2.13s.67,1.11.73,1.45c-.29.24-.59.48-.89.74V97.3l-.08.79-.58.53-.12-.52C166.84,95,166.44,94.65,165.91,94.51Zm-2.36-2.12a1.68,1.68,0,0,1-.33-.46c-.13-.36.42-.49.42.06A.82.82,0,0,1,163.55,92.39ZM161,93.94c-1.6.26-1.78,1.11-1.78,1.11a2.61,2.61,0,0,0-.53.66,18.19,18.19,0,0,0-4.68-.57,35.2,35.2,0,0,1,7.35-4.06c.69-.27,1.34-.5,2-.7.14.17.27.33.38.49a.74.74,0,0,0-.25.37c0,.29-.88-.13-.88.36s.39.82.92,1h0a1.56,1.56,0,0,0-.31.52c-.06.36-.55.36-.55.36s.65.19,1-.26.55-.59.68-.49a1,1,0,0,1,.13.88c-.06.25-.38.41-.66.5A9.33,9.33,0,0,0,161,93.94Zm-9.89,1.33a13.58,13.58,0,0,0-6.27,2c.39-1.57.78-3,1.09-3.85l.32-.86a.39.39,0,0,0,.08-.1h0A20,20,0,0,1,149,89.55a33.81,33.81,0,0,1,7.93-5.3c.5-.08,1-.13,1.38-.17,1.81,2.24,3.54,4.45,4.77,6l-1.43.45a26.43,26.43,0,0,0-8.11,4.6C152.77,95.15,152,95.19,151.06,95.27Zm-7.8,5.78-.29.1a19.83,19.83,0,0,0-1.87.8l.06-.28a12.57,12.57,0,0,1,2.76-3.36C143.67,99.25,143.45,100.18,143.26,101.05Zm2-.59-.65.17a12.29,12.29,0,0,1,3.08-2.08C146.91,99.15,146,99.87,145.28,100.46Zm-.53.46-1.05,1c0-.16.07-.33.11-.5l.33-.34.68-.24Zm-2.28,2.25c.14-.21.3-.45.5-.71,0,.09,0,.17-.05.26Zm-1.44-.74a1.75,1.75,0,0,1,.27-.16c.51-.26,1.17-.54,1.87-.81,0,.12,0,.24-.07.36a9.47,9.47,0,0,0-.89,1.61L141,104.62A5.65,5.65,0,0,1,141,102.43Zm-1.65.45.07-.31h0a1.25,1.25,0,0,1,0-.19,12.81,12.81,0,0,1,1-1.88,23,23,0,0,0,1.46-2.58c-.07.26-.13.53-.19.78-.19.89-.41,1.7-.61,2.42-.24.4-.47.81-.66,1.2C140,102.51,139.67,102.71,139.38,102.88Zm-2.4,1.33-.66-1.39.05-.14a15.09,15.09,0,0,0,1.31,1.93s0,.11-.05.16A5.23,5.23,0,0,1,137,104.21Zm-1.49,0c0-.14,0-.28-.07-.42a2.74,2.74,0,0,0-.35-.83l.56.73C135.58,103.86,135.54,104,135.49,104.21Zm-1.93-.23c-.42-1.31-1-3.09-1.72-5.15l.76,1a8.05,8.05,0,0,0,1.57,3A2,2,0,0,0,133.56,104Zm-2.4-3.29c-.43-1.31-.77-2.63-1-3.81l.05-.06c1.3,3.53,2.31,6.44,2.87,8A17.38,17.38,0,0,1,131.16,100.69Zm-1.72-2.89.61-.81c.23,1.36.49,2.71.71,3.5a.64.64,0,0,0,0,.07Zm-3,4.84c.07-.15.16-.3.24-.46l1.48,1.11A9.81,9.81,0,0,0,126.43,102.64Zm-4.77-5.09c.28-.42.62-.87,1-1.32,2,1.39,3.75,2.74,5,3.67-.24.4-.48.81-.71,1.23A49,49,0,0,0,121.66,97.55Zm-3-1.54a11.39,11.39,0,0,1,1.2-1.65c.85.57,1.71,1.15,2.53,1.73-.29.41-.59.87-.91,1.39C120.62,97,119.68,96.46,118.71,96Zm-3.47-1.32a30.77,30.77,0,0,0-11.62-1.14,38.19,38.19,0,0,1,4.55-5,80.48,80.48,0,0,1,7.61,3.28c1.23.66,2.61,1.51,4,2.43a13.15,13.15,0,0,0-1.36,1.61A25.09,25.09,0,0,0,115.24,94.69ZM96.89,84.05q-3.83-1.23-7.28-2.19a52.53,52.53,0,0,1,8.44.33c.79.11,1.62.22,2.46.35,3.53,1.35,6.57,2.66,9.18,3.9-.63.49-1.26,1-1.88,1.59C104.62,86.72,101,85.38,96.89,84.05ZM69.21,77.73c6.58-.12,18,.44,28.17,3.7a75,75,0,0,0-10.13-.21A126.12,126.12,0,0,0,69.21,77.73Zm41.72,7.8-.51.37c-1.59-.82-3.27-1.61-5-2.35A37.15,37.15,0,0,1,110.93,85.53Zm5.34-2.4c-.24,1.33-.24,3,1,3.45a4.59,4.59,0,0,0,2.62,3.18,25.66,25.66,0,0,1,3.08,2c-.27.16-.54.34-.81.53a52.76,52.76,0,0,0-10.2-6.74A30.21,30.21,0,0,1,116.27,83.13ZM119.09,82a80.3,80.3,0,0,0,4.17,7.78,4.81,4.81,0,0,0,.32,1.62l-.06,0a26.94,26.94,0,0,0-3.17-3.15l-2.58-2a18.93,18.93,0,0,1-.9-3.45C117.59,82.55,118.33,82.27,119.09,82ZM118,76.34q1.61,2.41,3,4.8c-.4.08-.82.18-1.26.29C119.14,79.93,118.56,78.24,118,76.34ZM98.08,52.58c3.81,2.4,9.52,6.3,12.8,10a57.71,57.71,0,0,1,3.84,4.79c.35,1.7.76,3.45,1.2,5.13C112.12,67.42,106,59.45,98.08,52.58Zm17.42,1.08h0a65.44,65.44,0,0,0,4.17,17.55c.18,1.13.37,2.25.6,3.36a60.42,60.42,0,0,0-4.66-7.3C114,60,114.38,57,115.5,53.66Zm.19-3.74A24.72,24.72,0,0,1,119,35.5a27.43,27.43,0,0,0-.65,3.69c-.23,2.41-.31,5.39-.3,8.53a35.21,35.21,0,0,0-2.22,3.54C115.78,50.81,115.73,50.36,115.69,49.92Zm3,12.77c.19,2.38.44,4.81.78,7.23A79.15,79.15,0,0,1,116,52.47a32.3,32.3,0,0,1,2.1-4C118.1,53.46,118.38,58.74,118.7,62.69ZM123,30.5c3.28-2.65,6-6.11,10.73-9.48s15.43-8.16,21.28-7.63a17.06,17.06,0,0,1,12,6.86l-2.07,1.13c-4.3,2.35-11.43,9.84-15.91,18.12-1.35,2.5-2.56,5-3.62,7.5-5.8,5.23-8.18,9.18-9.93,17.57-4.11-.4-6.86,1.07-8,3.58a7.5,7.5,0,0,0,.85,8.25c1.44,1.83,4.19,5.06,5.78,6.91a8.1,8.1,0,0,1-.92,2.85,1.74,1.74,0,0,1-.62.57c.33-2,.78-4,.78-4a25.23,25.23,0,0,0-1.18,4.11,6.19,6.19,0,0,0-1.41,1c-.34.3-.66.61-1,.91.06-.42,0-.94-.5-1.11a4.56,4.56,0,0,0-.41,1.41l-.15,0c0-.19,0-.38,0-.57v-.47c.38-.68.66-.7.66-.7a.87.87,0,0,0,1-.37s0-.63-.83,0a2.55,2.55,0,0,0-.79.94,29,29,0,0,0-.16-3.58,4,4,0,0,0-.57,2.22c0,.47,0,1.06,0,1.7l-.39-1a.74.74,0,0,0-.45-1.09L127,86c0-.12,0-.23.08-.35a6.51,6.51,0,0,0,1-2l-.31.19a.58.58,0,0,1,.06-.11.79.79,0,0,0-.13.16,3.19,3.19,0,0,0-1.08,1.17c-.07-.14-.13-.29-.2-.43l0,0a7.75,7.75,0,0,0,1.18-3.76,16.42,16.42,0,0,0-2,2l-1-2.11.47-.07h-.5c-.48-.94-1-1.83-1.42-2.66A45.64,45.64,0,0,1,120.64,73a121.17,121.17,0,0,1-1.74-25.82c1.13-1.73,2.14-3.07,2.47-3.5.68-.94,4.33-4.29,6.79-7.49s6.4-11.34,6.4-11.34a33,33,0,0,1-3.68,5.43c-1.42,1.33-2.35,3.84-4.74,7s-2.63,3.08-6.92,8.82l-.29.4c0-1,.08-2,.12-2.86a42.91,42.91,0,0,1,3-12.33C122.39,31,122.68,30.73,123,30.5Zm59.1-14.13c4.06.05,8.29,2,11.39,3.87A26.7,26.7,0,0,0,182,25.61,85.56,85.56,0,0,0,164.94,42.2c-2,2.49-3.58,4.5-4.9,6.21-7.36,4.18-12.9,12.42-16.57,19.58a28.5,28.5,0,0,0-3.39-2c.18-1.11.39-2.13.61-3a118.6,118.6,0,0,1,5.55-16.29c3.39-2.83,7.82-6,11.58-9.8,4.73-4.72,3.73-7.51,3.73-7.51A15.65,15.65,0,0,1,159,34.68c-1.89,2.51-6.32,5.85-12.41,11.25a57.83,57.83,0,0,1,3.1-6.29c2.92-5,9.39-13.3,14-16.85a34.6,34.6,0,0,1,3.43-2.28,10,10,0,0,1,.52.95,5.88,5.88,0,0,0-.28-1.09A29.25,29.25,0,0,1,182.05,16.37Zm-24,67.4.21.26-1.06.09Zm-2.23.66a25.86,25.86,0,0,0-9.07,7c.87-1.7,1.94-2.77,3.93-4.75A10.3,10.3,0,0,1,155.81,84.43Zm-.31-.11c-3.42.44-6.56,2.22-9.31,7.67-.05.09-.1.2-.15.3l-.2.27a9.33,9.33,0,0,0-2.38.88c.17-.74.25-1.13.25-1.13s-.19.49-.46,1.25c-.18.1-.36.2-.54.32.15-.56.29-1.13.43-1.66.21-.82.47-1.78.73-2.71a27.73,27.73,0,0,0,.85-2.78s-.16.53-.42,1.29c.2-.72.39-1.36.53-1.85a27.63,27.63,0,0,1,4.17-1,19.83,19.83,0,0,0-4.13.86l.23-.8s-.13.3-.35.84a26.29,26.29,0,0,0-2.48.89,2.34,2.34,0,0,1,.62-.69s-.66,0-1.31,1l-.16.07a6.51,6.51,0,0,0,.31-.77s-.25.2-.65.49l0-.18a2.66,2.66,0,0,0,0-.53c.35-.78.77-1.65.77-1.65a2.94,2.94,0,0,0-.81.44c0-.34,0-.7,0-1.08a4.6,4.6,0,0,1,2.54-1.87c2.14-.81,5.95-1.3,7.41-2.63a5.17,5.17,0,0,0,1.57-2.3c1.45,1.63,3.38,4,5.27,6.31l-1,.39-.59.26Zm-10.07,9.34a41.18,41.18,0,0,0-1.38,4.15,11.85,11.85,0,0,0-2.21,2.21A45.81,45.81,0,0,1,145.43,93.66Zm-2.88.83.48-.32c-.24.7-.52,1.52-.78,2.38l-.49.92C142,96.74,142.24,95.65,142.55,94.49Zm-1.27.94c.3-.25.61-.47.9-.68-.61,2.23-1.1,3.69-1.12,4v0a5,5,0,0,1-1,1.45A36.19,36.19,0,0,0,141.28,95.43Zm-1,.78.26-.22a20.44,20.44,0,0,1-1.19,4.58A14.8,14.8,0,0,1,140.32,96.21Zm-2.74,3.59c0,.17.07.35.11.53.17,1,.38,2,.52,2.7-.14.36-.26.71-.37,1a5.29,5.29,0,0,1-.28-.92c-.17-.7-.32-1.56-.45-2.37C137.26,100.46,137.41,100.13,137.58,99.8Zm-1.72.47a21.8,21.8,0,0,0-.42-3.91s-.09-.7,1.19-2.16S139.9,93,139.81,90a2.43,2.43,0,0,1-1.26,1,7.14,7.14,0,0,0-2,1.46,7.14,7.14,0,0,1,2.25-2.32,8,8,0,0,0,1.57-1.26c.3,2.44.51,5,.51,5s0,.18-.06.48a16.83,16.83,0,0,0-.75,1.74,19,19,0,0,0-1.72,2c0-.61,0-1.14,0-1.44,0-.91,0-2.83,0-2.83s-.64,2.08-.77,2.32a1.9,1.9,0,0,0-.46,1.12,8.78,8.78,0,0,0,.42,2.09c-.16.27-.31.54-.46.83-.09-.5-.16-1-.23-1.28a18,18,0,0,1-.44-3,3.72,3.72,0,0,0-.53,2.16,15.79,15.79,0,0,0,.61,3.41l-.18.45A5.24,5.24,0,0,1,135.86,100.27Zm-5-4.28c.32-.39.66-.78,1-1.17l.67,1.46a18.86,18.86,0,0,0,0,2.46c-.48-.63-.9-1.2-1.24-1.66C131.1,96.72,131,96.36,130.84,96ZM129,91a13.85,13.85,0,0,0,3-1.75,33.46,33.46,0,0,0,.73,4.18c-.29.28-.57.57-.85.88-.48-.81-.82-1.36-.82-1.36l.68,1.5c-.33.36-.65.74-1,1.13C130.16,94.09,129.59,92.55,129,91Zm-.26,5.32c-.08-.93-.18-2-.23-2.57,0-.36,0-.79.06-1.25.47,1.22.92,2.42,1.34,3.55,0,.14,0,.29.07.44-.24.3-.47.62-.7.94Zm-5.18-1.08a35.06,35.06,0,0,1,2.79,3c.11.12.24.26.37.42A43.68,43.68,0,0,0,123,95.87C123.15,95.65,123.34,95.44,123.54,95.23Zm-2.42-2,0,0c.82.63,1.51,1.22,2.11,1.76-.19.23-.37.47-.56.73-.78-.51-1.62-1-2.56-1.61A9.72,9.72,0,0,1,121.12,93.25Zm.2-.33A66.85,66.85,0,0,0,111,86.22l.54-.39a48.14,48.14,0,0,1,10.25,6.71Zm2.55,1.39-.37.41c-.64-.56-1.33-1.13-2-1.7l.53-.36C122.6,93.18,123.22,93.73,123.87,94.31Zm.92-1.34a1.65,1.65,0,0,0,.25.15s0,0,0,.06a13.07,13.07,0,0,0-1,.91c-.54-.51-1.14-1-1.8-1.61.28-.18.57-.34.87-.51A5.69,5.69,0,0,0,124.79,93ZM122,81.2c.14.42.28.84.43,1.25.4,1.11,1,2.61,1.61,4.3,0,.15,0,.3,0,.45a59.37,59.37,0,0,0-2.57-5.88Zm.69-.36-.24,0c-.12-.44-.24-.88-.35-1.32C122.3,80,122.49,80.42,122.68,80.84Zm.47-.06c-.46-1.18-1-2.51-1.72-3.93-.19-.89-.38-1.77-.55-2.65.52,1.25,1.1,2.55,1.72,3.91.39.85.79,1.73,1.17,2.62Zm1.27,3.83A35.64,35.64,0,0,0,123.21,81l.62-.11c.4.91.79,1.84,1.18,2.77A7.18,7.18,0,0,0,124.42,84.61Zm1.9,2.18a15.65,15.65,0,0,0-.67,3,11.62,11.62,0,0,1,.26-4Zm.52,3.07a8.58,8.58,0,0,0,0-1.68v0l.57,1.46Q127.14,89.73,126.84,89.86Zm1,4.63a3.27,3.27,0,0,1-.13-.6c-.13-1.1-.24-.86-.26-.19l-.69-1.44a7.9,7.9,0,0,1,1.27-.84l0,0c0,.44,0,.85,0,1.19a6.52,6.52,0,0,0,.13,1.15c0,.41,0,1-.07,1.45Zm.47,4.94.08-.12c.09.18.19.36.29.54ZM126,95.67c.16.33.33.63.49.93-.53-.6-1.24-1.36-2.14-2.23l.82-.77A15.4,15.4,0,0,0,126,95.67Zm-.16-2.27h0s.1-.22.24-.6l.2-.17.12.31a22.26,22.26,0,0,0,.6,3c-.82-1.71-1.16-2.57-1.16-2.57Zm2-2.7c-.4.41-.82.81-1.26,1.21l-.13-.26a9.79,9.79,0,0,0,.3-1.36l.81-.31C127.68,90.22,127.77,90.46,127.86,90.7Zm-5.36-9.6.26-.06a29.33,29.33,0,0,1,1.46,4.06A2.88,2.88,0,0,0,124,86a.08.08,0,0,0,0,0C123.47,84.39,123,82.74,122.5,81.1Zm1.67,13.48c.87.79,1.75,1.64,2.66,2.55A12.9,12.9,0,0,0,128.19,99l-.11.17a56.49,56.49,0,0,0-4.3-4.2Zm4.8-5.1.06,0-.39.4v-.32Zm10-11.19c-.07.2-.14.39-.2.58.22-3.7.55-7.81,1-11.29a30.7,30.7,0,0,1,3,1.63A89,89,0,0,0,139,78.29ZM145,80.06c-.19,0-.36,0-.31-.24s.48-.14.5-.5c.27,0,.54,0,.8,0a.6.6,0,0,0-.07-.58c-.11-.12-.28-.16-.39-.28s-.06-.31-.14-.45a.53.53,0,0,0-.45-.18c-.36.07-.14.57-.17.79,0,0,0,.07,0,.13s-.09,0-.12,0,0,.27-.07.42c-.44,0-.15-.29-.06-.44s.15-.53-.16-.49a.38.38,0,0,1,0-.15c.2-.08.1-.19,0-.29s-.13-.07-.11-.2.24-.11.08-.28a.46.46,0,0,0-.36-.1,14.72,14.72,0,0,1,1.56-4.14c.21-.42.48-1,.81-1.58a45.43,45.43,0,0,1,4.94,4.26c.25.25.55.56.87.92a2.64,2.64,0,0,1-1,1.3,55.23,55.23,0,0,1-5.53,2.45.37.37,0,0,0,0-.11A1.3,1.3,0,0,0,145,80.06Zm-.61,1c0-.09,0-.17-.05-.23s-.11-.25,0-.44c.22,0,.31,0,.4.25s0,.16.07.21Zm-.51,0c.16,0,.22,0,.23.12l-.36.19C143.73,81.27,143.77,81.2,143.83,81.05Zm-.66,0c.08.1.07.33.11.5a6.12,6.12,0,0,0-.62.43A4.94,4.94,0,0,0,143.17,81.1Zm.15-.44.08,0s.21,0,.11.14-.15,0-.26,0S143.3,80.73,143.32,80.66Zm.22-.85c.21.11.5.24.14.3a.67.67,0,0,1-.2,0Zm.08-.41.06-.37c.16.17.44.32.4.54s-.35.08-.5,0h0C143.59,79.53,143.61,79.47,143.62,79.4Zm.24-1a.24.24,0,0,1-.1.12l.06-.39A.25.25,0,0,1,143.86,78.4Zm-2.78,5.25.55-.6a5.1,5.1,0,0,0-.55,1Zm.23,3.93.12-.06a7.23,7.23,0,0,0-.68,1.91s0-.35-.06-.93A7.06,7.06,0,0,0,141.31,87.58ZM136.08,90l0,0c-.11-.76-.22-1.64-.33-2.61l.87-.25C136.36,88.31,136.19,89.29,136.08,90Zm2.11-3.37c0,.74.06,1.41.11,2a22.3,22.3,0,0,0-2.06,1.26c.22-.87.46-1.83.73-2.83A11.14,11.14,0,0,0,138.19,86.64Zm0,0-1.17.26c.36-1.36.77-2.81,1.21-4.25C138.18,84.09,138.16,85.44,138.19,86.62Zm.21,2c0-1.15.1-3.5.23-6.4a17.85,17.85,0,0,1,1.15,3c.14.57.29,1.44.42,2.4a8.44,8.44,0,0,1-.9.49C139.05,88.23,138.74,88.39,138.4,88.58Zm2.34-4.42a11.61,11.61,0,0,1,0,1.31,2,2,0,0,0-.4.78,17.75,17.75,0,0,0-.7-2.63,1.13,1.13,0,0,0,.27.13A2.28,2.28,0,0,1,140.74,84.16ZM139,81.45a2.8,2.8,0,0,0,0,.4c-.1-.25-.2-.47-.29-.69.1-.29.19-.59.29-.88A9.64,9.64,0,0,0,139,81.45Zm-4.86,6.68c0-.11,0-.19.06-.27l1.25-.36c.22,1.14.43,2,.57,2.59-.66.5-1.13,1-1.11,1.31,0,0,0,0,0,0-.21.16-.42.34-.63.52A15.78,15.78,0,0,1,134.09,88.13Zm-1.14,5a8.68,8.68,0,0,1-.78-4.08,5.72,5.72,0,0,0,.75-.81L134,87.9a9.64,9.64,0,0,0-.21,4.44c-.28.25-.56.51-.83.78Zm.26,3.45s0,.08,0,.12c-.42-.71-.85-1.43-1.21-2.05.23-.26.48-.52.73-.78A18,18,0,0,1,133.21,96.56Zm1.88-1c0,.48,0,1,0,1.5-.2-1.06-.45-2.45-.65-3.82q-.07-.47-.12-.9l.6-.54A27.93,27.93,0,0,1,135.09,95.57Zm6.7-2.63a2.85,2.85,0,0,0-.23.26,13.51,13.51,0,0,0,0-2.11,6.58,6.58,0,0,1,.58-3.9c.82-.36,1.67-.69,2.56-1a41.72,41.72,0,0,0-1.45,4.4A9,9,0,0,1,141.79,92.94Zm-.28.8c.3-.49.63-1,1-1.49a5.51,5.51,0,0,0,.51-.8c0,.14-.06.28-.1.42-.19.81-.38,1.56-.57,2.24-.32.23-.65.48-1,.77Q141.45,94.31,141.51,93.74Zm-.85,1.79-.1.09c0-.09.08-.19.13-.28Zm-1.75,6-.09.16-.09-.28a12.13,12.13,0,0,1-.38-2.89,10.17,10.17,0,0,1,1.54-1.88A20.69,20.69,0,0,0,138.91,101.49ZM138,98c0,.1,0,.28.08.49l0,0C138,98.24,138,98.06,138,98Zm.56,4.3c-.18-1-.35-2.38-.45-3.33a.25.25,0,0,1,0-.07c.17,1,.43,2.39.57,3.07Zm5.73-33.71c3.42-6.53,9-16.07,15.3-19.5A84.73,84.73,0,0,0,152.36,60c-1.87,3.24-4,6.94-5.77,10.37C145.82,69.71,145,69.11,144.26,68.54Zm1.8,2.83c-1,1.94-1.87,3.77-2.53,5.35-1.3,3.17-2.07,5.36-2.43,6.43,0-.28.05-.57.09-.84.28-1.74,1.42-3.36,1.74-4.65s1.42-4.9,1.42-4.9-3,2.71-3.93,5.18-.09,3.27.24,5.48l-.21-.2a5.2,5.2,0,0,1-.66-2.92,4.12,4.12,0,0,0-.31-1.48,40.07,40.07,0,0,1,2-4.78c.49-1,1.23-2.48,2.19-4.33C144.48,70.23,145.28,70.8,146.06,71.37Zm-9.61-6.67c1.86-8,4.17-12.81,7.41-15.93.38-.36.79-.73,1.22-1.11a77.71,77.71,0,0,0-4.79,15.25c-.16.84-.33,1.83-.49,2.92A13.11,13.11,0,0,0,136.45,64.7Zm.29,1.71a19.13,19.13,0,0,1,2.83,1c-.52,3.87-1,8.61-1.23,12.83v0a16.32,16.32,0,0,1-.83-2.17c-.21-.85-.45-2-.45-2s-.65-1.78-.28-2.39a21.39,21.39,0,0,0,1-2.51,13.62,13.62,0,0,0-2.3,2.63,7.17,7.17,0,0,0,1.29,5.06c.48.75.92,1.48,1.31,2.21-.64,2.15-1.12,4.18-1.46,5.85l-.94.23c-.61-5.47-1.14-13.74.39-20.88a.19.19,0,0,0,0-.07C136.31,66.29,136.52,66.35,136.74,66.41Zm-2.35,14.33s-.11,1.13-.34,2.39c-1.1-1.5-2.81-3.83-4.47-6.12-2.75-3.8-2.31-7.69-1.54-8.9s3-2.71,7.09-2c-.12.68-.25,1.39-.38,2.13a53.5,53.5,0,0,0,.08,16l-.26-.36A19.42,19.42,0,0,0,134.39,80.74Zm.17,3.21.29.33c.16,1.12.34,2.13.5,3l-1.15.29,0-.1a.6.6,0,0,0-.08.12l-.95.25a5.41,5.41,0,0,0,1.37-3.67Zm-17.28-10c-.47-1.72-.87-3.27-1.22-4.68A79.65,79.65,0,0,1,120.8,77q.49,2,1.11,4l-.56.1a54.61,54.61,0,0,0-3.89-6.51Zm2.55,7.88c.42-.13.85-.26,1.29-.37a56.8,56.8,0,0,1,2.94,6,25.42,25.42,0,0,0,.4,3.3c-.54-1.47-1-2.71-1-2.71a6.5,6.5,0,0,0-.18,1.32A54.89,54.89,0,0,1,119.83,81.78Zm-11.36,6.53c.59-.54,1.22-1.06,1.86-1.56a61.21,61.21,0,0,1,10.72,6.38c-.34.29-.68.59-1,.9A93,93,0,0,0,108.47,88.31Zm18.69,13c.22-.39.46-.78.71-1.19.94,1.22,2,2.69,2.91,3.92.09.2.17.4.24.58C130.16,103.82,128.83,102.62,127.16,101.32Zm5.65-2.13a17.77,17.77,0,0,1-.26-2.81c.79,1.75,1.65,3.66,1.93,4.32.18.42.38.89.59,1.35C134.32,101.14,133.52,100.12,132.81,99.19Zm3.26,3.1c-.48-1-1-2.17-1.55-3.18-.31-1.34-1-4.12-1.44-5.6l.77-.74c0,.09,0,.18,0,.28a40.12,40.12,0,0,0,1.27,5.83,8.86,8.86,0,0,0,.94,3.33Zm.89.71a3.79,3.79,0,0,1-.47-.66l.12-.32A6.69,6.69,0,0,0,137,103ZM143,95.12c.12-.42.21-.8.3-1.14a18.56,18.56,0,0,1,2.4-1.27,33.2,33.2,0,0,0-4.16,7.68l-.15.2q.14-.48.3-1c.46-1.42.82-2.65,1.1-3.67.48-1.06.8-1.85.8-1.85Zm46.84-50.95c-3.8,4.16-7.09,9.82-10.58,16.16a65.85,65.85,0,0,0-3.58,7.75,29.62,29.62,0,0,0-6,9.86c-.22-.74-.38-1.2-.38-1.2a8,8,0,0,0,0,2.22A31.72,31.72,0,0,0,167.9,89l-.18,0a8.07,8.07,0,0,0-1.72-2,24.45,24.45,0,0,0-3.11-1.64,2.73,2.73,0,0,0,.63,1.28,20.61,20.61,0,0,1,2.07,2.72c-.72.16-1.51.36-2.35.6-1.07-1.55-2.59-3.72-4.26-6,.77,0,1.26-.06,1.26-.06s-.39,0-1.29,0l-.32-.43a16.25,16.25,0,0,1,5.59-1,12.39,12.39,0,0,0-5.73.8c-1.91-2.59-4-5.24-5.71-7.21a9,9,0,0,0-.05-1.52s-.08.53-.25,1.18c-.41-.46-.8-.86-1.17-1.22-1.4-1.36-2.9-2.73-4.44-4,2.36-4.38,6.58-11.7,9.9-16.95.94-1.48,2.14-3.16,3.49-4.93C171.11,43.54,180.63,41.74,189.87,44.17Zm15.33,6.58c-13.85,1-22.39,10.62-25,13-.9.84-2.32,2-3.87,3.64,2.69-6.07,9.22-17.51,14.28-22.7l.24-.24C198.14,46.61,202.16,48.45,205.2,50.75ZM191.84,71.64a38.26,38.26,0,0,0-12,13,12.66,12.66,0,0,0-2.15,2.44c-1.25,0-2.39.33-3.9,2a16.79,16.79,0,0,0-1.38,1.78c.05-.56.1-1.13.15-1.67a4.68,4.68,0,0,1,.7.15,3.28,3.28,0,0,0-.69-.24,8.71,8.71,0,0,0-.06-3.09s-.22,1.35-.39,3c-.25,0-.54-.09-.88-.12.24-1.64.47-3.43.6-4.78A63.55,63.55,0,0,1,175.7,69c5.58-6.41,15.76-16,31.24-16.77.35.31.68.63,1,1a17.33,17.33,0,0,1,3.43,6c-1.84,1.13-3.73,2.4-5.77,3.84-2.47,1.74-5.53,4-8.5,6.41A30.8,30.8,0,0,0,191.84,71.64ZM180.78,83.88c3.15-4.54,9.18-12,16.21-14.39a71.4,71.4,0,0,0-7.43,6.83c-2.91,3.17-3.39,3.75-4.54,5.2A16.92,16.92,0,0,0,180.78,83.88Zm-1.6,3.25-.49,0c.18-.31.46-.77.84-1.36a16.72,16.72,0,0,1,5.21-3.87c-.53.67-1.21,1.53-2.27,2.83-.8,1-1.59,2-2.35,3A1.05,1.05,0,0,0,179.18,87.13Zm-.83,0c.15-.19.35-.43.59-.7l-.32.71Zm-4.08,7.4a32.32,32.32,0,0,1,3.44-3.58c-.74,1-1.46,2.1-2.15,3.17C175.15,94.19,174.71,94.33,174.27,94.49Zm-.37,2.33c-.68.37-1.39.8-2.12,1.28a32.73,32.73,0,0,1,2-3,14.1,14.1,0,0,1,1.39-.42C174.74,95.38,174.31,96.1,173.9,96.82Zm8-2.78a3.91,3.91,0,0,0-1.06.36,3.73,3.73,0,0,0-2,2.7,7.86,7.86,0,0,0-1.13,1.16,11.32,11.32,0,0,1,.43-1.12c.25-.55.7-1.51,1.21-2.51l.08,0-.07,0c.11-.22.22-.44.34-.65A8,8,0,0,1,181.93,94Zm4.91,2.43-.38-.21a4.35,4.35,0,0,0,.55-.1Zm-11.75,5.92.18-.36a26.86,26.86,0,0,1,3.27-2.15,31.12,31.12,0,0,1,5.72-2.58c-2,.12-4,1-6.79,2.46a12,12,0,0,1,2.61-2.62,15.31,15.31,0,0,0,2.12-1.51c-.5.38-2,.68-3.09,1.32h0a3.93,3.93,0,0,1,1.78-2c.68-.36,1.08-.6,1.32-.75a11.59,11.59,0,0,0,3.16,3.05,58.17,58.17,0,0,0-6.38,3.65c-1.23.43-2.57.93-3.87,1.45Zm-1.44.25c-.16.19-.32.37-.46.56l-.08,0,.3-.56Zm2.42-2.1-.1.06c.9-1.83,1.42-3.23,1.83-4a5.81,5.81,0,0,0,.52-1.53l.59-.24L178.32,96a12.89,12.89,0,0,0-.88,2.62C176.84,99.41,176.31,100.18,176.07,100.54Zm-6.28,2.84c.19-.64.42-1.38.64-2.18.13-.45.24-.88.33-1.28.05-.1.24-.46.53-1,.69-.5,1.43-1,2.25-1.49-.33.59-.65,1.18-1,1.79-.81,1.59-1.43,2.85-1.89,3.84Q170.24,103.22,169.79,103.38Zm-.35,1.11c.07-.24.16-.52.26-.84.28-.11.57-.22.88-.32-.28.61-.49,1.1-.66,1.5l-.5.31C169.43,105,169.43,104.73,169.44,104.49Zm-1.37-4c-.08-.5-.18-1-.27-1.48l.45-.44Zm1.29-2.9c0,.21,0,.49,0,.88s0,.91-.06,1.47c-.33.28-.66.57-1,.88l0-2.35C168.67,98.2,169,97.9,169.36,97.62Zm0-.4s0,0,0,0S169.33,97.07,169.34,97.22ZM170.16,82a15.34,15.34,0,0,1,.9,5.22c-.08.61-.15,1.18-.22,1.7h-.38c-.07-.36-.15-.81-.23-1.38-.37-2.33-.2-3.19-.34-4a9.18,9.18,0,0,1-.13-1.33,8.58,8.58,0,0,0-.17,4.12c.21,1.21.33,2,.42,2.58a14.69,14.69,0,0,0-1.77.11,52.67,52.67,0,0,1,1.38-8.68A12.24,12.24,0,0,0,170.16,82Zm1.11,3.53A30.41,30.41,0,0,0,170,78.94a21.67,21.67,0,0,1,3.68-7.56l1.46-1.76a69.59,69.59,0,0,0-3.77,15.14Zm-.55,8.14a3.87,3.87,0,0,0-.06-.82c.12-.76.34-2.17.57-3.73l.89.07c-.08.78-.13,1.61-.15,2.4C171.49,92.3,171.06,93,170.72,93.64Zm0-3.65c0-.17-.11-.45-.19-.91h.32C170.77,89.4,170.73,89.7,170.69,90Zm-.86,6.87a7.44,7.44,0,0,1,.55-1.82,2.77,2.77,0,0,0,.2-.53,17,17,0,0,1,1.22-1.7l.15-.13a12,12,0,0,1-1,3.41C170.59,96.33,170.21,96.58,169.83,96.86Zm.25,2.08c0,.16,0,.3-.05.43l-.29.24c0-.25.07-.49.11-.71a4.22,4.22,0,0,0,.06-1.71c.27-.2.56-.4.85-.58A8.18,8.18,0,0,0,170.08,98.94ZM171.3,97c0-.29.09-.56.13-.82a3.62,3.62,0,0,1,.43-.24C171.68,96.29,171.49,96.65,171.3,97Zm-.26,1.6c0-.16.06-.32.08-.46.36-.86.7-1.65,1-2.34.34-.18.68-.33,1-.48a30.59,30.59,0,0,0-1.94,3.14Zm-1.5,3.6c0,.11,0,.23,0,.35,0-.09,0-.18,0-.26Zm.13-2,.12-.1-.14.32A1.8,1.8,0,0,1,169.67,100.22Zm-.53,1.43c-.25.67-.47,1.26-.66,1.79,0-.41-.1-.84-.16-1.29v-.69l1-.89c0,.32-.05.64-.08,1A.61.61,0,0,1,169.14,101.65Zm-.92-12.41c.67-.09,1.28-.13,1.82-.15.08.52.14.91.25,1.37s.16.73.2,1-.06.4-.09.59a5.54,5.54,0,0,0-1.75-2.15,7.12,7.12,0,0,1,.54,2.66,24,24,0,0,0,.48,3.41,1.49,1.49,0,0,1-.11.69.39.39,0,0,0-.19-.07l-.09-1.37s-.58-3.73-.8-4.61a3.9,3.9,0,0,0-.3-.73C168.19,89.65,168.21,89.45,168.22,89.24Zm-.35,0h0v.08A.59.59,0,0,1,167.87,89.28Zm-3.54,1.24a1.42,1.42,0,0,0-.57.27l-.32-.46c.41-.14.82-.26,1.21-.36C164.62,90.19,164.55,90.48,164.33,90.52ZM166,91a11.11,11.11,0,0,0-.07,2,1.7,1.7,0,0,1-.46-1,4.34,4.34,0,0,0-.13-1.5,1.13,1.13,0,0,0-.4-.57l.82-.21c.25.4.5.82.72,1.24a28.37,28.37,0,0,1,1.69,4,4.62,4.62,0,0,1-1-1.78A6.31,6.31,0,0,0,166,91Zm1.48,8.38a8.68,8.68,0,0,1,.25,1.33q0,.28,0,.72c-.4.4-.8.83-1.19,1.28l.21-2.5C167,99.94,167.22,99.66,167.48,99.39Zm7.35.07c-.4.78-1.07,2-1.75,3.11a16.94,16.94,0,0,0-1.68.32c.53-1.26,1.13-2.71,1.64-4,.22-.55.48-1.08.75-1.61a33.85,33.85,0,0,1,4.47-2.22,44.84,44.84,0,0,1-2.35,4.81l-.84,1.36a10.69,10.69,0,0,0-1.28,1.23l-.29,0,3.42-6.35A20.46,20.46,0,0,0,174.83,99.46Zm2.09,3c-.13,0-.52,0-1.11-.05,1-.47,2-.95,3.08-1.38C178.12,101.51,177.47,102,176.92,102.43Zm7.25-3.24c-.08,0-.48.13-1.31.37h0l-.49.15c.89-.57,1.87-1.17,3-1.79C185,98.28,184.58,98.7,184.17,99.19Zm3.31-4.38a.45.45,0,0,0,.25.28l-.66.19a1.64,1.64,0,0,0-1.2.66h0l-1.27-.68A6.23,6.23,0,0,0,187.48,94.81Zm-11.78-.25a35.32,35.32,0,0,1,3.61-.56l-.36.73-.6.18a.12.12,0,0,1,0,0l0,.06a24.88,24.88,0,0,0-4.23,1.79c.4-.72.84-1.41,1.27-2.08Zm3-5a25.62,25.62,0,0,0-5.11,5.2c-.4.16-.81.35-1.23.56.61-1.35,1-2.22,1-2.22s-.55,1-1.26,2.34c-.22.11-.43.22-.64.35,0-.09,0-.18,0-.27.25-1.33.62-1.31.76-3.15A33.22,33.22,0,0,0,175,90.1c1.17-1.18,1.86-2.22,3.26-1.93a1.73,1.73,0,0,1,1,.63Zm35.57-37.06a35.41,35.41,0,0,1,7.32,1.7,30.53,30.53,0,0,0-2.88,1.07,57.11,57.11,0,0,0-6.82,3.56,16.47,16.47,0,0,0-2.4-5.13c-.42-.54-.81-1.06-1.22-1.55A41.53,41.53,0,0,1,214.27,52.49Zm43.44,2.57s-5.54-1.32-14.72-.62a14.21,14.21,0,0,0-4.56-1.56,42,42,0,0,0-9.07-.29,37.14,37.14,0,0,0-6.87,1.33c-1-.44-2.09-.86-3.25-1.25a36.4,36.4,0,0,0-12.29-2c-2.34-2.36-5.62-4.28-13.35-6.62-.6-.18-1.19-.35-1.79-.5a50.71,50.71,0,0,1,17.54-10.34c5.71-1.91,14.4-.18,17.11,2.7s6.78,8,6.78,8a45.65,45.65,0,0,0-3.59-5.9c-1.91-2.53-4.57-6.2-10.11-6.47a26.14,26.14,0,0,0-12.14,1.91c-3.54,1.35-12.51,5.66-16.69,9.8-9.65-2.22-19.46-1-29.9,4.71a127.92,127.92,0,0,1,14.54-15.82c4.93-4.25,13.58-9.76,19.13-11.27A24.28,24.28,0,0,1,198,23.59c1.2,1.25,3.37,6.12,3.64,8.73,0,0,.18-6.07-2.8-9.3a28.84,28.84,0,0,0-2.54-2.52c4.79-.92,6.65-.84,12.84,1.26,6.56,2.23,11.53,4.09,18.74,1.66,0,0-3.44.69-9.31-.64s-7.49-3.57-17.93-3.32a42.17,42.17,0,0,0-5.1.41A20,20,0,0,0,184,15.7c-6.68-.44-12.46,2.15-16.69,4.39-.92-2.41-4-7.19-13.9-7.58-13.29-.53-24,11.43-26.59,13.74-.81.73-2.37,1.92-4.1,3.58A64.13,64.13,0,0,1,136.78,8.61c11-10.55,18-7.8,18-7.8-5.32-2.48-13.39.62-22.61,11.25-6.69,7.73-10.62,15.16-12.52,21.1A20.62,20.62,0,0,0,115,47.44c.11,1.68.23,3.25.38,4.75a16.65,16.65,0,0,0-1.56,7.66,35.37,35.37,0,0,0,.62,5.85c-1.24-1.56-2.61-3.13-4.13-4.7A87.57,87.57,0,0,0,94.72,49.82,59.11,59.11,0,0,0,85.63,44C71,36.44,61.52,36.44,54.34,36.62a25.91,25.91,0,0,0-15.87,6.21c-2.92,2.57-1.77,6.29.89,8.69S44.5,55.86,47,55.33c0,0-10.28-3.11-8.51-9.31S45.83,37.86,55,37.77c8.85-.08,19.36.33,33.14,9.14a46.22,46.22,0,0,0-12.66-1.86c-10.19-.18-13,4.07-13.3,7.62s.62,6.29,3.64,7.71c0,0-7.27-8.07-.18-11.88,6.23-3.35,16.71-2.66,23.31-1.06l.53.35A110.78,110.78,0,0,1,116.32,74c.46,1.64.93,3.18,1.36,4.51a33.66,33.66,0,0,0,1.25,3.18q-1,.3-2.1.72a3.2,3.2,0,0,1,0-.7.19.19,0,0,1,0-.08c.11-.63-.21,0-.46,1a28.82,28.82,0,0,0-5.12,2.75q-2.2-1.08-4.72-2a36.26,36.26,0,0,0-5.41-1.33,77,77,0,0,0-10.1-2.75c-19.67-4-29.44-3.08-34.52-1.85-3.26,0-10.91.49-24.08,3.8C14.09,85.73.53,98.24,0,103.64c0,0,5.05-8.06,18.71-15C31.84,82,43,78.15,53.94,78.1c-.88.31-1.51.58-2,.72-2.66.8-10.28,2.4-15.34,8.87s-3.9,7.8-3,9.93,2.48,5.23,2.48,5.23-2-5.94-1.51-9.58,3.55-6.73,8.07-8.69a143.63,143.63,0,0,1,19.72-6.21c9.36.46,19.19,1.4,24.5,2.87-2.65.13-5.13.38-7.25.68C72.34,83,70.3,85.56,61.52,84.41c0,0,6.3,2.92,12.06.35,3.68-1.64,9.68-2.63,15.42-2.88,4.66,1.46,12.3,4.06,18.5,6.43a34.8,34.8,0,0,0-4.62,5.31A20.08,20.08,0,0,0,96,95.48a13.39,13.39,0,0,0-5,5.23,13.18,13.18,0,0,0-.62,2s1.68-3.73,4.52-5.32a26.7,26.7,0,0,1,7.39-2.79,49.66,49.66,0,0,0-5.73,12A48.74,48.74,0,0,1,103,94.41a21.25,21.25,0,0,1,14.94,2.25,14.49,14.49,0,0,0-1.84,9.89,24.65,24.65,0,0,1,2.18-9.71c.92.48,1.85,1,2.75,1.55a75.76,75.76,0,0,0-3.93,8.25s2.5-5.42,4.05-8.18c1.91,1.16,3.74,2.41,5.33,3.56l-.28.56a7.12,7.12,0,0,0-1.81-.22c-3.1,0-4.53,1.31-4.66,2l-.14.7s.35-2,3.19-1.92a16,16,0,0,1,3,.35c-.4.87-.79,1.79-1.15,2.74l.22,0a25.07,25.07,0,0,1,1.16-2.65,22.45,22.45,0,0,1,4.2,1.34h0c.56.47,1,.84,1.24,1.08a7.23,7.23,0,0,0-2.52-.88,5.43,5.43,0,0,0-3.58.81,5.29,5.29,0,0,1,3.24-.6,19.41,19.41,0,0,1,3,1.23l.17-.18a1.46,1.46,0,0,0,1.47.3l-.53-.44h.79l-.1-.22h0a2.14,2.14,0,0,1,.07.23l.8.08a1.27,1.27,0,0,0-.05-.16l.39,0s-1-2.23-.28-3.08l.17.23a2.27,2.27,0,0,1,.11,2.85l.86,0s0-.22,0-.54.21-.89.39-1.53l1.42,1.82c-.06.27-.08.42-.08.42l.81.16s.06-.3.2-.78a.31.31,0,0,0,.08-.29c.06-.22.14-.46.22-.73a9.51,9.51,0,0,1,1.46-1.54,19.87,19.87,0,0,0-.95,2.82v.27h.36l.09-.31a13.5,13.5,0,0,1,1.1-3.24l.06,0a4,4,0,0,0-.11,2,2.76,2.76,0,0,0,.12.32l-1,1.06,0,.07v.22l.51,0,.25-.23,2.32-2.24c-.29,1.65-.43,2.74-.43,2.74l.44-.09s0,0,0-.13l.27,0s3.34-5,6.91-7.44a8.84,8.84,0,0,1,7.09-1.3s-1.51-1.13-5.74.35a8,8,0,0,0-1.65.83c.34-.36.72-.75,1.14-1.16-.69.59-1.27,1.12-1.74,1.57a30.16,30.16,0,0,0-6.2,6.76c.12-.58.34-1.62.62-2.88l2.77-2.68.93-.3-.75.12,2.06-2a12.39,12.39,0,0,1,2.16-.62,9.44,9.44,0,0,0-1.86.32l.69-.66-1.06.77a10.06,10.06,0,0,0-4.41,2.68c.22-1,.47-2,.71-3a11.92,11.92,0,0,1,6.46-2.14c.69,0,1.32-.06,1.93-.07-.88.74-1.64,1.46-2.31,2.12.77-.66,1.67-1.39,2.68-2.12a25.82,25.82,0,0,1,5.09.38,2,2,0,0,0,0,1.9c.8,1.55,1.95,1.24,1.95,1.24s-1.73-1.41-1.33-2.48c.07-.18.13-.33.18-.48a8.74,8.74,0,0,1,1.53.54,8.67,8.67,0,0,0-1.47-.66c.24-.63.41-.93.65-1s2,.44,3.32.13a5.43,5.43,0,0,1,3,.49s.38,1.12.74,2.36c-.37.24-1.25,1-2.56,3.66l-.25.52-.41-1.74.33,1.9c-1.49,3-1.88,4.11-1.88,4.11l.84-.18a19.21,19.21,0,0,1,1.27-2.63l.27,1.54c-.24.35-.47.7-.69,1.07h.78a11.84,11.84,0,0,1,1.18-2l-.3,1.61-.3.27h.85a5.33,5.33,0,0,1,1.16-1.15c-.08.65-.14,1.1-.14,1.1l.37,0-.06.21.58.13a2.53,2.53,0,0,1,.08-.26l.5.08a.18.18,0,0,0,0,0l.71-.13h0l.59.21.07-.32.37-.88,1.61-.88-1.14,1.89.42,0-.15.32.49-.18.14-.17,2,.12.12-.2.21,0,.16.21,2.79-.35,3.44-1.44c-.29.51-.58,1.05-.86,1.62l.39.13s.39-.82,1-2l4.46-1.88c-.54,1-.91,1.69-1.16,2.23-1.39.94-2.27,1.63-2.27,1.63l1-.26,1-.68c-.36.86-.19.85-.19.85l.39,0c.15.16.39.35.55.07s1.38-1.58,2.82-3.14c5.1-3,7.78-3.4,7.78-3.4a19.27,19.27,0,0,0-6.87,2.41l1.93-2.08a5.62,5.62,0,0,0,1.91,0,6,6,0,0,0,3-1.06,20.31,20.31,0,0,1-4.11.27l.68-.74c-.28.2-.59.44-.92.72a5,5,0,0,1-1.15-.25,2.77,2.77,0,0,1-1.31-.92c.55-.89,1.09-1.75,1.58-2.51l.05,0c1,1.08,1.6-.81,1.6-.81-.2.29-1.24.52-1.24.52v0l1.75-.8.4.07a5.54,5.54,0,0,0,2.81,0l-1-.81a1.11,1.11,0,0,0-.15-.16q1.35-.57,2.82-1.14c17.82-6.92,26.77-4.53,32.53-3.11s14,6.3,14,6.3-5-5.77-15.6-7.45c-10.33-1.64-16.9-1.85-34,5.2a6.36,6.36,0,0,0-1.71-1c2.23-2.27,7.09-6.77,12-8.51a28.27,28.27,0,0,0-12.2,8.45,10.18,10.18,0,0,0-3.31-.61,9.71,9.71,0,0,0-6.34,2l-.3,0a3.35,3.35,0,0,1,1.13-1.21c1.07-.75,2.9-.82,3.39-1.44a9,9,0,0,0-1.27-.13,4.49,4.49,0,0,0-2.25.64c1.42-1.44,2.17-1,3.45-1.88a9.36,9.36,0,0,0,3.6-4.5c1.95-.36,3.57-.52,4.76-.63a30.55,30.55,0,0,1,3.14-.16,31.24,31.24,0,0,0-6.6.1l-1.19.2c0-.16,0-.31.05-.46a4.13,4.13,0,0,0-1.83-3.53,9.63,9.63,0,0,1,.78,1.7,4,4,0,0,1,.15,2.44,26.34,26.34,0,0,0-6.4,2.15c.13-.33.22-.54.22-.54q-.19.27-.42.63c-.83.41-1.72.9-2.66,1.47a2.2,2.2,0,0,0-.07-.37c2.3-2.36,12.35-12.48,22.77-19.34,10.83.39,15.09,6.24,16,8.68a25.43,25.43,0,0,1,1.24,5.85s1.86-7.1-3.81-11a21.8,21.8,0,0,0-12.75-4,57,57,0,0,1,5.57-3.2c1.11-.55,2.27-1.09,3.45-1.61.26,1,.38,1.66.38,1.66s0-.68-.22-1.73a102.69,102.69,0,0,1,15.56-5.34c7.46,6.36,6.77,16.18,4.59,21.29,0,0,6.7-12.53-3.94-21.45A91,91,0,0,1,257.71,55.06Z"/></g></g></svg>