<svg xmlns="http://www.w3.org/2000/svg" viewBox="0 0 105.62 155.27"><defs><style>.cls-1{fill:#040000;}</style></defs><title>aaa</title><g id="图层_2" data-name="图层 2"><g id="图层_1-2" data-name="图层 1"><g id="哀鸿"><path class="cls-1" d="M100.18,77.63c1.76-.39,2-2.28,2.9-3.54,1.69,1.25-2.28,2.15-1.29,4.83.14.72,1.59.13,2.26.32.42-.52.69-2.84-.33-2.9.8-.24,1.77,0,1-1.61,2.15,1.62,0,4.43-1,5.16-4.14,3-15.38,1.84-21.58,1.61-.66,2.56-.72,5.72-2.25,7.41-2.85.69-6.63.45-9,1.61.37,3.59,1.34,6.61,1.61,10.3-1.46-1.22-2.26-3.1-3.87-4.18a121.45,121.45,0,0,0,9,27.06c-3.14-1.9-4.9-5.19-8-7.09-1.46.61-1.06,3.12-1,4.19.48,5.75,5.65,10.73,6.77,16.1-3.59-1.67-4.36-6.16-7.09-8.69.48,7.46,4.46,11.43,5.8,18-3.36-1.15-4.44-7.37-8-9.35,2,4,3.46,8.57,5.79,12.25-2.74-1.56-4.73-6.66-7.73-9,2.16,5.47,5.68,9.57,7.73,15.15-12.56-8.92-24-20.64-28-39.3-.35-1.65-2.1-2.76-2.9-4.51-3.46-7.58-.88-14.73-5.15-20.3C33,87.59,27.08,83.4,20.29,83.75,11.18,84.23,8.7,94.82,0,96.64,4.9,90.58,11.21,86,15.46,79.24A4.52,4.52,0,0,1,14.82,76c3.95-7.51,14.23,5.67,16.43-3.22.91-3.7-.13-9.34-1.94-11.92-.93-1.33-2.63-2.25-3.86-3.54C21,52.72,12.37,41.84,11.6,35.11c-.21-1.81-.12-2.57.32-3.22-2.36-3.23-5.49-9.55-2.58-14.17-1.87-5.81,0-12,1-17.72,2,4.12,2.75,9.49,4.51,13.85,2.13-1.69-.2-6,1.29-8,2.05,3.74,3,8.55,4.83,12.56,2.79-1.61,1.72-7.08,2.9-10.31a80.11,80.11,0,0,1,2.58,12.24A120.84,120.84,0,0,0,30.28,8.05c.81,4.88,1.5,9.89,2.26,14.82,1.07-2.25,1.36-5.29,2.25-7.73,1.46,7.45,5.27,12.55,5.8,20.94,3-5.59-1.85-12.83-.32-19C42.62,25.89,46,33.65,49,41.87c1.09-3.74.18-9.49,2.26-12.24.86,9.69,4.1,17.92,6.44,26.42.86,3.11,1.36,9.63,4.51,10,5.09.58,9.43-14.57,15.14-5.47,3,4.76,4.28,11.43,5.15,17.71,6.88,0,18.24,2.58,18.37-5.15C101.72,74.46,99.62,75.56,100.18,77.63ZM82.46,79.89c4.75.86,16.54,3.3,18.37-1.62C97.2,80,87.41,78.39,82.46,79.89Z"/></g></g></g></svg>