<svg xmlns="http://www.w3.org/2000/svg" xmlns:xlink="http://www.w3.org/1999/xlink" viewBox="0 0 200.54 209.51"><defs><style>.cls-1{fill:#231815;}.cls-1,.cls-4{opacity:0.56;}.cls-2{isolation:isolate;}.cls-3{clip-path:url(#clip-path);}.cls-10,.cls-11,.cls-12,.cls-13,.cls-14,.cls-15,.cls-16,.cls-17,.cls-18,.cls-19,.cls-20,.cls-21,.cls-22,.cls-23,.cls-24,.cls-25,.cls-26,.cls-27,.cls-28,.cls-29,.cls-30,.cls-31,.cls-32,.cls-33,.cls-34,.cls-35,.cls-36,.cls-37,.cls-38,.cls-39,.cls-4,.cls-40,.cls-5,.cls-6,.cls-7,.cls-8,.cls-9{mix-blend-mode:multiply;}.cls-5{opacity:0.8;}.cls-6{opacity:0.4;}.cls-7{opacity:0.6;}.cls-8{opacity:0.54;}.cls-9{opacity:0.2;}.cls-10{opacity:0.52;}.cls-11{opacity:0.71;}.cls-12{opacity:0.43;}.cls-13{opacity:0.5;}.cls-14{opacity:0.73;}.cls-15{opacity:0.78;}.cls-16{opacity:0.42;}.cls-17{opacity:0.53;}.cls-18{opacity:0.36;}.cls-19{opacity:0.64;}.cls-20{opacity:0.48;}.cls-21{opacity:0.77;}.cls-22{opacity:0.79;}.cls-23{opacity:0.51;}.cls-24{opacity:0.72;}.cls-25{opacity:0.44;}.cls-26{opacity:0.65;}.cls-27{opacity:0.32;}.cls-28{opacity:0.61;}.cls-29{opacity:0.46;}.cls-30{opacity:0.66;}.cls-31{opacity:0.34;}.cls-32{opacity:0.49;}.cls-33{opacity:0.47;}.cls-34{opacity:0.33;}.cls-35{opacity:0.68;}.cls-36{opacity:0.74;}.cls-37{opacity:0.31;}.cls-38{opacity:0.58;}.cls-39{opacity:0.45;}.cls-40{opacity:0.55;}</style><clipPath id="clip-path"><circle class="cls-1" cx="102.03" cy="109.88" r="79.39"/></clipPath></defs><title>资源 26</title><g class="cls-2"><g id="图层_2" data-name="图层 2"><g id="图层_1-2" data-name="图层 1"><g id="月"><circle class="cls-1" cx="102.03" cy="109.88" r="79.39"/><g class="cls-3"><path class="cls-4" d="M163.27,110.26C157,130.4,145.12,124,131.79,133.46c-2.39-9.9-10.58-5-15.4-11.93q1-3,2.06-6.08l-4.92-.87c8.74-8.74-6.72-13.37,4.49-20.78C122.2,91,127.3,81,129.87,77c6.43,3.2,7.43-1.5,12.64-.63,5,.84,5.34,6.45,11.67,6.92C163.79,84,163,101.17,163.27,110.26Z"/><path class="cls-5" d="M121.77,158.53c2.4-5.88-5.78-14.9-11.7-16.85-4.15-1.37-15.7,5.9-20.61,7.55-1.42,5-1.3,8.54,2.36,11.73-2.2,2.94-1.62,3.65-2.26,6.82,11.47-2.13,2.83,5.61,9.7,8.07,3,1.07,6.69-4.55,12.68.2l.72-5.23C120.93,172.12,120.12,163.36,121.77,158.53Z"/><path class="cls-6" d="M115.45,79.63c0,18.63-61.73,13-43.71-12.86,2.84-4.09,12.75.37,16.79-1.57,7-3.35,4.27-15.91,14.86-11.39,6.49,2.78,12,4.12,9.47,11.86C110.16,73.85,115.45,72.78,115.45,79.63Z"/><path class="cls-7" d="M165.67,71.27c0,18.63-61.74,13-43.72-12.87,2.85-4.09,12.76.37,16.79-1.57,7-3.34,4.27-15.91,14.86-11.39,6.5,2.78,12,4.12,9.48,11.86C160.38,65.48,165.67,64.42,165.67,71.27Z"/><path class="cls-7" d="M47.24,130.54c0,41.92-75.3-18.75-35.76-14.46C29,118,47.24,91.43,47.24,130.54Z"/><path class="cls-8" d="M99.48,82.83C90,73.92,107.36,71,109.14,69.11c4-4.2-7.2-3.71.81-9.45,1.75-1.25,13.76-5.5,15.22-4.13,3.5,3.29-1.08,24.13-4.19,27.43-9.14,9.7-11.54,9.24-21.5-.13Z"/><path class="cls-8" d="M115.21,129c-9.46-8.9,7.89-11.83,9.66-13.71,4-4.2-7.21-3.72.81-9.45,1.76-1.26,13.76-5.51,15.22-4.14,3.5,3.3-1.08,24.13-4.19,27.44-9.14,9.7-11.53,9.23-21.5-.14Z"/><path class="cls-8" d="M81.23,107.16c3.87-6.55,7.76,3,9.06,3.75-1-.59,14,.29,9.8,7.41-2.75,4.62-19.73,2.51-22.86-2.17.76,1.15,4.28-9.45,4-9Z"/><path class="cls-8" d="M70.42,112.32C61,103.41,78.3,100.49,80.08,98.6c4-4.19-7.21-3.71.81-9.44C82.64,87.9,94.65,83.65,96.11,85c3.5,3.3-1.08,24.13-4.19,27.43-9.14,9.7-11.54,9.24-21.5-.13Z"/><path class="cls-9" d="M86.27,140.48c0,41.92-75.3-18.74-35.76-14.45C68,127.93,86.27,101.38,86.27,140.48Z"/><path class="cls-9" d="M113.5,128.81c0,18.63-61.74,13-43.72-12.86,2.85-4.1,12.75.37,16.79-1.57,7-3.35,4.27-15.91,14.86-11.39,6.5,2.77,12,4.12,9.47,11.85C108.21,123,113.5,122,113.5,128.81Z"/><path class="cls-9" d="M200.54,98.52c0,18.63-61.74,13-43.72-12.87,2.85-4.09,12.76.37,16.79-1.57,7-3.34,4.27-15.91,14.86-11.39,6.5,2.78,12,4.12,9.48,11.86C195.25,92.73,200.54,91.67,200.54,98.52Z"/><path class="cls-9" d="M118.55,128.81c0,18.63-61.73,13-43.71-12.86,2.85-4.1,12.75.37,16.79-1.57,7-3.35,4.27-15.91,14.86-11.39,6.5,2.77,12,4.12,9.47,11.85C113.26,123,118.55,122,118.55,128.81Z"/><path class="cls-9" d="M158.56,146.33c0,18.64-61.73,13-43.71-12.86,2.85-4.09,12.75.37,16.79-1.57,7-3.35,4.27-15.91,14.86-11.39,6.5,2.78,12,4.12,9.47,11.86C153.27,140.55,158.56,139.48,158.56,146.33Z"/><path class="cls-9" d="M102.9,123.52c0,9.72-17.93,3.74-21.43,2.25-12.22-5.24,8.69-11.36,9.8-13.45C97.32,101.08,102.9,119.67,102.9,123.52Z"/><path class="cls-9" d="M59.87,83.26c0,11.56-29,2.84-24.57-3.1.6-.8,17.19-12.09,18.64-11A24.9,24.9,0,0,1,59.87,83.26Z"/><path class="cls-9" d="M66.93,125.29c0,11.56-29.06,2.84-24.57-3.1.6-.79,17.19-12.08,18.64-11A24.9,24.9,0,0,1,66.93,125.29Z"/><path class="cls-10" d="M102.69,62.76c0,18.63-61.74,13-43.72-12.87,2.85-4.09,12.76.38,16.8-1.56C82.73,45,80,32.42,90.62,36.94c6.5,2.77,12,4.12,9.48,11.85C97.4,57,102.69,55.91,102.69,62.76Z"/><path class="cls-10" d="M158.56,81.64c0,18.63-61.73,13-43.71-12.87,2.84-4.09,12.75.38,16.79-1.56,7-3.35,4.27-15.91,14.86-11.39,6.5,2.77,12,4.12,9.47,11.86C153.27,75.86,158.56,74.79,158.56,81.64Z"/><path class="cls-10" d="M150.79,56.25c0,18.63-61.74,13-43.72-12.87,2.85-4.09,12.76.38,16.8-1.56,7-3.35,4.26-15.91,14.85-11.39,6.5,2.77,12,4.12,9.48,11.85C145.5,50.47,150.79,49.4,150.79,56.25Z"/><path class="cls-11" d="M119.91,95.05c2.71-1.5,5-4.34,7.37-6.37-7-.31-13.31-3.31-15.38-10.08.61,6.4-1.27,12.68-7.71,12.07-11.29-1-.54,7.07-.69,10.36-.29,6.2,7.12,14.68,8.91,5.86,1.61-7.92,4.65-10,13.65-6A70.86,70.86,0,0,0,119.91,95.05Z"/><path class="cls-11" d="M171.17,124.38c2.7-1.5,5-4.34,7.37-6.37-7-.3-13.31-3.31-15.38-10.08.61,6.4-1.27,12.68-7.71,12.08-11.29-1.05-.54,7.06-.69,10.35-.29,6.21,7.12,14.68,8.91,5.86,1.61-7.92,4.65-10,13.65-6C175.3,128.32,173.41,126,171.17,124.38Z"/><path class="cls-12" d="M99.22,50.13c2.71-1.5,5-4.33,7.37-6.37-7-.3-13.31-3.31-15.37-10.08.61,6.41-1.28,12.68-7.72,12.08-11.29-1-.54,7.06-.69,10.35-.29,6.21,7.12,14.68,8.91,5.86,1.61-7.92,4.65-10,13.65-6C103.35,54.08,101.46,51.79,99.22,50.13Z"/><path class="cls-13" d="M60.71,116.49c2.71-1.51,5-4.34,7.38-6.37-7-.31-13.31-3.31-15.38-10.08C54,113.84,30,115.2,48,131c2.22,1.95,8.9-13.18,18.89-8.67a69.57,69.57,0,0,0-6.16-5.87C63.42,115,63,118.15,60.71,116.49Z"/><path class="cls-13" d="M125.35,92.17c2.71-1.51,5-4.34,7.38-6.37-7-.31-13.31-3.31-15.38-10.09.61,6.41-1.27,12.68-7.71,12.08-11.29-1.05-.54,7.07-.69,10.35-.29,6.21,7.12,14.69,8.9,5.87,1.61-7.92,4.66-10,13.65-6C129.49,96.11,127.59,93.82,125.35,92.17Z"/><path class="cls-13" d="M131.37,138.83c2.71-1.5,5-4.34,7.37-6.37-7-.3-13.3-3.31-15.37-10.08.61,6.4-1.27,12.68-7.72,12.07-11.28-1-.53,7.07-.69,10.36-.29,6.2,7.12,14.68,8.91,5.86,1.61-7.92,4.65-10,13.65-6C135.5,142.77,133.61,140.49,131.37,138.83Z"/><path class="cls-14" d="M69.52,85.16c2.71-1.51,5-4.34,7.38-6.37-7-.3-13.32-3.31-15.38-10.08,1.31,13.8-22.76,15.16-4.73,31,2.21,2,8.89-13.18,18.88-8.67-2-1.93-3.91-4.21-6.15-5.87C72.23,83.65,71.76,86.82,69.52,85.16Z"/><path class="cls-14" d="M101.29,57.1q1.23,2.2,2.45,4.41c2.17-2.1,5.05-4.89,6.75-6.72-6.16-5.47-5.61-9.88-15.44-6.6,3.17,3.11,4.43,6.18,2.62,11.4Z"/><path class="cls-14" d="M109.1,65.11q1.22,2.2,2.45,4.41c2.16-2.1,5-4.9,6.74-6.72-6.16-5.47-5.61-9.89-15.44-6.6,3.17,3.11,4.43,6.18,2.62,11.4Z"/><path class="cls-14" d="M106.5,58.37q1.22,2.22,2.45,4.42c2.17-2.1,5-4.9,6.74-6.72-6.16-5.47-5.61-9.89-15.44-6.61,3.17,3.12,4.43,6.19,2.62,11.41Z"/><path class="cls-14" d="M103.75,80.59,106.2,85c2.16-2.1,5-4.9,6.74-6.73-6.16-5.46-5.61-9.88-15.44-6.6,3.17,3.12,4.43,6.19,2.62,11.41Z"/><path class="cls-15" d="M55.39,100.44c2.71-1.5,5-4.33,7.38-6.37-7-.3-13.31-3.31-15.38-10.08,1.31,13.8-22.76,15.16-4.73,31,2.21,1.94,8.89-13.18,18.88-8.68-2-1.92-3.91-4.21-6.15-5.87C58.1,98.94,57.63,102.1,55.39,100.44Z"/><path class="cls-15" d="M97.76,36.21c2.71-1.51,5-4.34,7.38-6.38-7-.3-13.31-3.3-15.38-10.08.61,6.41-1.27,12.68-7.72,12.08-11.28-1-.53,7.07-.69,10.35-.29,6.21,7.13,14.68,8.91,5.87,1.61-7.93,4.65-10,13.65-6C101.89,40.15,100,37.86,97.76,36.21Z"/><path class="cls-16" d="M98.93,145.23a32.18,32.18,0,0,1,6.85,19.28c.56-.56-46.51,7-44,8C47.16,166.78,98.93,52.38,98.93,145.23Z"/><path class="cls-16" d="M48.84,151.11A13.31,13.31,0,0,1,51.65,159c.23-.23-19.1,2.86-18.06,3.27C27.58,160,48.84,113,48.84,151.11Z"/><path class="cls-16" d="M91.91,155.34c0,5.37,11.71,14.41,6.85,19.28-5.58,5.58-19.76-3.74-28.71,1.62-26.75,16-14.25-.77-6-16.58,9.4-18-27.94-28.42,9.11-38.37,10.19-2.73,15.17,3.35,21,10.77C103.66,144.11,91.91,143,91.91,155.34Z"/><path class="cls-16" d="M101.3,182.13c0,5.37,11.72,14.41,6.85,19.28-5.58,5.58-19.76-3.73-28.71,1.62-26.75,16-14.25-.77-6-16.57,9.4-18-27.94-28.43,9.11-38.37,10.19-2.74,15.17,3.35,21,10.76C113.05,170.9,101.3,169.79,101.3,182.13Z"/><path class="cls-16" d="M153.42,134.39c0,5.37,11.72,14.41,6.86,19.28-5.58,5.58-19.76-3.73-28.72,1.62-26.74,16-14.24-.77-6-16.57,9.4-18-27.94-28.43,9.11-38.37,10.18-2.74,15.17,3.35,21,10.76C165.18,123.17,153.42,122.05,153.42,134.39Z"/><path class="cls-16" d="M176.49,92.36c0,5.37,11.71,14.41,6.85,19.28-5.58,5.58-19.76-3.73-28.71,1.62-26.75,16-14.25-.77-6-16.57,9.4-18-27.94-28.43,9.11-38.37,10.19-2.74,15.17,3.35,21,10.76C188.24,81.13,176.49,80,176.49,92.36Z"/><path class="cls-17" d="M73.65,64.71c0,2,4.34,5.34,2.54,7.14-2.06,2.07-7.32-1.38-10.63.6-9.9,5.93-5.27-.29-2.21-6.14,3.48-6.65-10.34-10.52,3.37-14.2,3.77-1,5.62,1.24,7.78,4C78,60.56,73.65,60.15,73.65,64.71Z"/><path class="cls-16" d="M178.3,127.64c0,5.37,11.71,14.41,6.85,19.28-5.58,5.58-19.76-3.74-28.71,1.62-26.75,16-14.25-.77-6-16.58,9.4-18-27.93-28.42,9.11-38.37,10.19-2.73,15.17,3.35,21,10.77C190.05,116.41,178.3,115.3,178.3,127.64Z"/><path class="cls-16" d="M128.18,167.28c0,5.38,11.72,14.42,6.85,19.28-5.58,5.59-19.76-3.73-28.71,1.63-26.75,16-14.24-.78-6-16.58,9.4-18-27.93-28.42,9.11-38.37,10.19-2.73,15.17,3.35,21,10.77C139.94,156.06,128.18,155,128.18,167.28Z"/><path class="cls-5" d="M44.1,106.4a10.85,10.85,0,0,1,2,5.71c.12-.12-14.79,1.65-13.93,2.5A94.88,94.88,0,0,1,36.5,97q11.18-1.58,7.6,9.36C45.32,108.12,44.1,102,44.1,106.4Z"/><path class="cls-13" d="M54,63.37c0,9.75-20.23,14.25-20.23,0C33.77,50.75,54,51.72,54,63.37Z"/><path class="cls-4" d="M80.17,34.71C80.17,40.08,91.89,49.12,87,54c-5.58,5.58-19.76-3.73-28.72,1.62-26.74,16-14.24-.77-6-16.57,9.4-18-27.94-28.43,9.11-38.37C71.64-2.07,76.62,4,82.45,11.43,91.93,23.49,80.17,22.37,80.17,34.71Z"/><path class="cls-17" d="M94.15,115.86c.78-1.42-1.37-3.18,2.44-4.66-17.34-2.73-41.44-18.72-52.91,4.66l6.09,1.75c-3.14,2.42-2.18,2.19-3.34,4.89,9.72-2.72,31.09,3.11,44.24,1.71-.88-1.11-1.76-2.23-2.65-3.34,7.15-.71,6.44-1.82,6.13-5C94.93,114.44,94.46,119.05,94.15,115.86Z"/><path class="cls-17" d="M149.47,125.78c-.33,1.6,2.23,2.66-1,5.18,8.06-1.11,18.82,4.47,25.16-.34s16.07-9.48,23.6-12.24c.17-1,0-3.82.56-7.13l-6.34.08c2.31-3.23,1.46-2.73,1.79-5.65-2.62,1.67-10.65,4.94-11,.53-.45-6.28-8.38,2-11.05,2.25-10.93.87-11.35,4.34-20.84,8.33l3.51,2.44C147.26,122,148.25,122.83,149.47,125.78Z"/><path class="cls-18" d="M60.49,107.85c-1.56-8.56,4-8.5,7.07-14.5,2.76,3.16,4.82-.19,7.9,1.42.14.87.28,1.74.41,2.61l2-.62c-1.52,4.86,5,3.6,2.33,8.45-1,1.81-1,6.44-1.11,8.41-3,.06-2.43,2-4.5,2.65s-3.19-1.34-5.59-.3C65.32,117.55,62.31,111.13,60.49,107.85Z"/><path class="cls-5" d="M141.48,83.87c.25,2.61,5,4.34,7.51,3.92,1.77-.3,4.6-5.16,6.09-6.7-.43-2.09,3.42-5,1.47-5.46.24-1.5-.9-3.79-1.27-5.07-6.43-4.79-7.41-4.14-13.12-3.34-1.3.18,2.67,9-.43,8.36.24.69.49,1.37.74,2C139.2,78.74,141.16,81.79,141.48,83.87Z"/><path class="cls-10" d="M68.57,173.79C65,167,88.65,157.23,87,170.13c-.27,2-4.74,2.31-5.85,3.79-1.9,2.55,1.49,6.63-3.25,7-2.9.23-5.18.79-5.73-2.52C71.62,174.89,69.88,176.29,68.57,173.79Z"/><path class="cls-19" d="M96.67,145.94c-3.56-6.81,25.88-15.79,24.24-2.89-.25,2,2.4,9.49,1.29,11-1.9,2.56-9.29,2.91-14,3.28-2.91.23-1.54-2.67-2.09-6C105.51,147.81,98,148.44,96.67,145.94Z"/><path class="cls-20" d="M165.51,105.91c-8-15.33,31.11-7.55,15.84-1.56C174.58,107,173,120.2,165.51,105.91Z"/><path class="cls-21" d="M85.4,69.73c5.16,1.45-.62,5.83-.91,6.86-.64,2.29,3.35,0,1.51,3.61-.4.8-4,4.65-4.77,4.42-1.91-.53-4.22-9-3.72-10.82C79,68.5,80,68.21,85.4,69.73Z"/><path class="cls-22" d="M168,125.52c5.17,1.45-.62,5.83-.91,6.86-.64,2.29,3.35,0,1.51,3.61-.39.8-4,4.65-4.77,4.42-1.91-.53-4.22-9-3.71-10.82,1.48-5.3,2.45-5.59,7.88-4.07Z"/><path class="cls-12" d="M131.15,164.59c5.16,1.45-.62,5.83-.9,6.86-.65,2.29,3.34,0,1.51,3.61-.41.8-4,4.64-4.78,4.42-1.91-.53-4.22-9-3.71-10.83,1.48-5.29,2.45-5.58,7.88-4.06Z"/><path class="cls-23" d="M62.68,144.22c-8-15.32,10-10.76,16.9,1.16C83.22,151.68,70.16,158.52,62.68,144.22Z"/><path class="cls-24" d="M61.06,165c-3.56-6.81,20.08-16.56,18.44-3.66-.26,2-4.73,2.31-5.84,3.79-1.91,2.55,1.48,6.63-3.25,7-2.91.23-5.18.8-5.73-2.52C64.1,166.05,62.37,167.45,61.06,165Z"/><path class="cls-25" d="M113.13,142.58c-3.57-6.8,20.08-16.55,18.43-3.65-.25,2-4.73,2.3-5.83,3.78-1.91,2.56,1.48,6.64-3.25,7-2.91.23-5.19.79-5.74-2.52C116.17,143.69,114.44,145.09,113.13,142.58Z"/><path class="cls-26" d="M131.13,70.41c-3.56-6.8,20.08-16.55,18.44-3.65-.26,2-4.73,2.3-5.84,3.78-1.9,2.56,1.48,6.63-3.25,7-2.91.23-5.18.79-5.73-2.53C134.17,71.52,132.44,72.92,131.13,70.41Z"/><path class="cls-27" d="M115.28,155.46c-1.86-3.55,5.84-4.8,7.4-4.92,5.47-.42-1,5.81-1,6.79C121.61,162.6,116,156.87,115.28,155.46Z"/><path class="cls-22" d="M58.11,143.47c-2.22-4.22,10.07-6.59,9.57-3.56-.07.4-4,7.7-4.7,7.6A10.21,10.21,0,0,1,58.11,143.47Z"/><path class="cls-28" d="M125.49,100.45c-3.7-7.08,16.86-11,16-6-.11.68,9.28,9.39-7.87,12.72A17.17,17.17,0,0,1,125.49,100.45Z"/><path class="cls-29" d="M73.41,118.73c-3.56-6.8,6.88-9.6,18.44-3.65,4.52,2.32,1.72,5.74.62,7.22-1.91,2.56-5,3.19-9.71,3.57-2.9.22-5.18.79-5.73-2.52C76.45,119.84,74.72,121.24,73.41,118.73Z"/><path class="cls-30" d="M129.32,153c-3.56-6.81,20.08-16.55,18.44-3.65-.26,2-4.73,2.3-5.84,3.78-1.91,2.56,1.48,6.63-3.25,7-2.91.22-5.18.79-5.73-2.53C132.36,154.11,130.63,155.51,129.32,153Z"/><path class="cls-31" d="M109.93,74.58a21.41,21.41,0,0,0-1.48,3.74c2.61-1.23,5.5-1.34,7.55.74-3.12-4.79,5.42-9.89-4.19-12.23-1.19-.29-.74,6.51-5.25,6.78a29.29,29.29,0,0,0,3.37,1C109.23,75.65,108.8,74.4,109.93,74.58Z"/><path class="cls-32" d="M52.25,72.23A19.68,19.68,0,0,0,50.77,76c2.61-1.23,5.49-1.34,7.55.74-1.45-2.22-2-4.88.51-5.89,4.32-1.77-1.16-2.69-1.73-3.91-1.08-2.33-5.41-4-4.38-.44.93,3.2.22,4.55-3.84,4.79A30.17,30.17,0,0,0,52.25,72.23Z"/><path class="cls-33" d="M129.8,167.16a21.41,21.41,0,0,0-1.48,3.74c2.61-1.23,5.5-1.34,7.55.74-3.12-4.79,5.42-9.89-4.2-12.23-1.18-.29-.73,6.51-5.24,6.78a29.29,29.29,0,0,0,3.37,1C129.1,168.23,128.67,167,129.8,167.16Z"/><path class="cls-21" d="M116.34,65.05a13.31,13.31,0,0,1-6.19-5.74c-.1.31,15.67-11.44,14.56-11.31C131.14,47.27,134.1,99,116.34,65.05Z"/><path class="cls-34" d="M54.18,150.63c-1-2-7-3-6.2-5.74,1-3.1,7.94-2.41,10.19-6.08,6.72-11,5.36-2.44,5.35,4.92,0,8.36,15.65,5,4,15.76-3.2,2.95-6.18,1.68-9.73.08C52,157,56.54,155.14,54.18,150.63Z"/><path class="cls-35" d="M56.16,82.79C55,80.51,48,79.27,49,76.13c1.13-3.61,9.22-2.8,11.82-7.06C68.59,56.34,67,66.24,67,74.78c0,9.7,18.15,5.85,4.65,18.29-3.72,3.43-7.18,2-11.3.1C53.66,90.16,58.9,88,56.16,82.79Z"/><path class="cls-25" d="M41.66,92.69c-1-2-7-3-6.2-5.74,1-3.11,7.94-2.41,10.19-6.08,6.71-11,5.35-2.45,5.35,4.91,0,8.37,15.65,5,4,15.77-3.2,3-6.19,1.68-9.73.08C39.5,99,44,97.2,41.66,92.69Z"/><path class="cls-36" d="M33.17,141c-1-2-7-3-6.19-5.74,1-3.11,7.94-2.41,10.18-6.08,6.72-11,5.36-2.45,5.36,4.91,0,8.37,15.65,5.05,4,15.77-3.2,2.95-6.19,1.68-9.73.08C31,147.39,35.53,145.55,33.17,141Z"/><path class="cls-37" d="M134.51,154.89c-1-2-7-3-6.19-5.74,1-3.11,7.94-2.42,10.19-6.09,6.71-11,5.35-2.44,5.35,4.92,0,8.37,15.65,5.05,4,15.77-3.2,2.95-6.19,1.67-9.74.08C132.36,161.24,136.87,159.39,134.51,154.89Z"/><path class="cls-38" d="M84.76,67.22c-1-2,17.84-12.19,18.69-14.9,1-3.1,7.94-2.41,10.18-6.08,6.72-11,5.36-2.44,5.36,4.92,0,8.36,15.65,5,4,15.76-3.2,3-6.19,1.68-9.74.09C107.49,64.41,87.12,71.73,84.76,67.22Z"/><path class="cls-39" d="M46.68,161.43c-6.76-12.93,17-32.93,26.84-14C82.27,164.13,54.77,176.89,46.68,161.43Z"/><path class="cls-40" d="M171.34,125c-1-2-7-3-6.2-5.74,1-3.11,7.94-2.41,10.19-6.08,6.71-11,5.35-2.45,5.35,4.91,0,8.37,15.65,5,4,15.77-3.2,3-6.18,1.68-9.73.08C169.19,131.34,173.7,129.49,171.34,125Z"/><path class="cls-19" d="M41.9,80.32c0,.67,1.11.9,0,2.17,6.86-2.32,18.73-1.08,18.45-11.82l-2.56.52c.68-1.49.37-1.21.28-2.42-3,2.85-12,4.8-16.5,7.83l1.61.72c-2.47,1.62-2,1.89-1.28,3C41.89,81,41.17,79.21,41.9,80.32Z"/><path class="cls-5" d="M151.1,124.39c-.18-.65-1.32-.54-.62-2.09-2.74,2-7.74,2-9.14,4.94a41.68,41.68,0,0,1-6.28,9c.14.41.72,1.4,1.16,2.71l2.3-1.24c-.23,1.62,0,1.28.42,2.41.64-1.11,2.95-3.85,3.91-2.3,1.37,2.21,2.68-2.34,3.61-2.93,3.83-2.41,3.32-3.76,6-7l-1.74-.22C152.64,125.36,152.11,125.24,151.1,124.39Z"/></g></g></g></g></g></svg>