<svg xmlns="http://www.w3.org/2000/svg" viewBox="0 0 148.12 77.85"><defs><style>.cls-1{fill:#040000;}</style></defs><title>资源 4</title><g id="图层_2" data-name="图层 2"><g id="图层_1-2" data-name="图层 1"><path id="杜鹃" class="cls-1" d="M59.85,69.68c-1.9.49-3.41,1.36-5.36,1.79-1,.17-.6-1-1.25-1.07-.81-.08-1.47-.32-2.33-.36,2.14-1.61,7.21-.3,8.58-2.68-2.12-.2-4.18-.47-4.82-2.14,3.47-.62,7.31,1.3,9.64,0,1.15-.64,1.45-2.88,2-4.29,1.54-4.18,4-9.32,4.46-13.76-4.93.68-8.71,2.72-15.36,2.15-.87-.08-1.56-.44-2.5-.54-4.5-.48-8.36.17-12.15,0-7.59-.33-14.1-3-17.86-7.32a28,28,0,0,1-6.08-14.65,23.76,23.76,0,0,0-2-8.4c-.95-2-2.58-5-4.47-5.89C7.74,11.24,2.5,12,0,10.55,2.06,9.2,4.43,8.94,6.43,7.69s3.41-2.83,5.18-4.1A17,17,0,0,1,22.51,0c2.77.11,5.74,1.71,8.57,3,5.19,2.43,10,5.37,16.08,7,3.11.82,6.41.91,10,1.43,6.39.91,12.83,2.23,19.29,3.75s12.85,3.24,19.29,3.57c5.24.27,9.55-1.07,14.3-2,8.69-1.64,17.69-3.21,26.61-5.19,3-.67,6.55-2.2,9.12.18.5,2.22-.92,2.23-.72,3.93.24,2.08,3.34,2.58,3,4.29-.19,1.07-1.55.8-2.15,1.79-7.62,1.51-16,3.51-25.19,3.93-2.21.1-4.53.1-6.78,0a15.56,15.56,0,0,0-3.4-.18c-2,.35-4.09,2.36-6.25,3.21-2.59,1-5,1.1-7.5,2,3.67,1.86,8.43,2.64,9.64,7-5.16,1.14-11.53.2-16.25-.72-3.88,2.5-8.41,4.34-12,7.15.85.82,2.31,1,2.85,2.14.16,5.7-1.2,9.42-2.68,13.4-.81,2.18-1.88,4.37-1.78,7.68a2.43,2.43,0,0,0,1.61.72c1.78.13,4.45-2,5.36.17-.48.85-2,.72-3.22.9a9.06,9.06,0,0,0-3.39.71c-1.36.86-1.3,2.87-2,4.29a11.76,11.76,0,0,1-1.79,2.5c-.48.55-1.5,1.77-2.5.89-.64-.07.21-.72.36-.89a7.42,7.42,0,0,0,2.14-3.21c-1.48.15-3.29,1.25-5,2.14-1.48.77-3.41,2.65-4.64.89,2.08-1.31,5.32-1.46,7-3.21-2.3-1.08-4.5,2.28-7.15.89a30.63,30.63,0,0,1,5.18-2.32c2-.51,4.54-.08,5.72-1.79.25-4.93,2.11-10,3.39-15,.44-1.71,1.28-3.79.89-5.18-.45-1.65-2.79-1.72-3.93-3-2.19,2.43-3.53,6.68-5,10.18a28.56,28.56,0,0,0-2.5,8.22c1.17.82,3.36-.58,5,.18-.27.26-.15.91-.17,1.43-1.55.86-4,0-5.36.35-3,.66-4.56,5.6-9.12,5-.73-.09.37-.6.72-.9.53-.46.93-.87,1.43-1.25,0-.15.07-.17.18-.18Z"/></g></g></svg>