<svg xmlns="http://www.w3.org/2000/svg" viewBox="0 0 171.03 192.02"><defs><style>.cls-1{fill-rule:evenodd;}</style></defs><title>资源 7</title><g id="图层_2" data-name="图层 2"><g id="图层_1-2" data-name="图层 1"><path id="松" class="cls-1" d="M81.28,3.79a8.33,8.33,0,0,0,4.2,3.49c-.18.26-.34.52,0,.58,0,.34-.51.24-.84.29.79,3.17,7.57,1.6,7.83,4.36,2,0,2.48,0,3.63-.58-.1.38-.49.46-.56.87.74-.28,2.49-.65,2.8.29-1-.13-2.86,0-4.48-.29-.63.36,1.06,3.51-.56,3.2.44-.74-.56-2-.83-2.91-.65.81-1.26.53-1.68-.29-.25.62-1.19.51-1.12,1.46a5.42,5.42,0,0,0,3.08,1.16c-.18,1.06.57,1.15,1.39,1.17-.75,1.72,1.84,1.78,2.52,2.91-2.33-.15-4.43-2.58-5.87-.88-.72,0-.45-1.08-.84-1.45-1.12,0-2.09.15-2,1.45a5.06,5.06,0,0,0,1.12.88c.4-1.51,1.24.92,1.4-.59a.82.82,0,0,1,.56.88c2.32.05,5-1,5.87,1.16-1,.23-1.08-.43-2-.29.23.71-.82.59-.84,1.75.25-1,1.39.34,1.4-1.17.45.6,1.51.56,1.4,1.75,1.45-2.07,4-.2,6.15.29,0,.34-.51.24-.84.29.14,1.28,1.46-.48,1.12,1.16,3,.66,6-.62,7.83.29.67-.56.93-1.55,1.67-2-.3-.87-.35-1.78-.55-2,1-.9,3.52-1.14,2.51-3.2.9.78,1-.7,2,0-.36.19-1.19,2.13.28,2,0,.55-.93.2-.84.87,1.5,1.37,3.8.48,5,1.75.21-.76.92-1,1.12-1.75,2.11.5,4.32-1.29,6.71-1.46.09.77-.58.76-1.12.88,2.11,2.33,5.37-2,7.83.29-.24.85-.9-.18-1.4,0s.57,1.32.84,1.74c-.45.64-1-1.06-1.4-1.45-1.21.23-1.89-.06-2.79.87,0,1.42,1.42,1.43,1.67,2.62-1.13-.59-2.45-1.28-3.63-.29-.38-1-1.82-.83-2.52-1.45a4.11,4.11,0,0,0,.84,4.36c-.72-.48-2.64-1.06-3.07-2.33h-1.4c.2,1.77.9,1.72,1.12,3.78-.88-.82-1.16.74-1.4,1.46-1.24.23-.55-1.56-1.68-1.46s.51,1.29-.28,1.17c.73-.24.66,1.48,2.24,1.16-.1.58.06.91.56.87a12.05,12.05,0,0,1-1.4,1.17A1.23,1.23,0,0,1,121,32c-.38.09-.23.72-.28,1.16a7.69,7.69,0,0,0-2.23-2.33c-.39.29.12.48-.56.87-.44-.66-.59-.54-1.4-.29v-.87c-1.2-.07-.43,1.71-1.4.29-.33.05-.23.53-.28.87-1.12-.48-2.29-.9-3.35-1.45a1.28,1.28,0,0,0-.56,1.16c.82.91,2.29,1,3.07,1.17.57,1.2-2,.75-2.79.29-1,.87-.17,3-.56,3.78a1.07,1.07,0,0,1-1.12-1.16c-.85.4-1-.14-2.24,0-.37.13.34,1.25-.56,1.45a12.34,12.34,0,0,1,1.4,4.95,7.26,7.26,0,0,0-2.23-.87c-.29.18-.29.66-.84.58.35.39.84.57.28,1.16a5.87,5.87,0,0,0,2.51-.29c-.28.87.63.52,1.12.58-1.06,1.67-5-1.27-5.31,1.17.27.68,1.4.48,1.4,1.45-.59-.26-.83-.89-1.68-.87-.49.39-1.93,2.46-.56,2.91-.28.48-1.29.2-1.4.87a10,10,0,0,1-3.07-1.16c-.14.91.85.65.56,1.74,1.4.71,4,.63,5.87.29a14.55,14.55,0,0,0,1.67,1.46c1.54-.83,5.15.26,6.71-1.17.79,1.73,2.49-.91,3.64.29-1.86.84-2.09,1.27-3.92,1.46a.28.28,0,0,0,.56,0c.59.08-.41.79.56.87a5.74,5.74,0,0,1,4.2-.29c.12,2.27,3.15,1.73,4.47,2.62-3.84,0-5.89-.86-10.06-1.46,0,1.59,2,1,2.79,1.75-.25.8-1-.52-1.4.29-.63,1.78,2,1.2.84,2.62,2-.87,2.29,1.93,4.48,1.75-.5,1.51-1.13,1.46-1.12,2-.45-.49-2-.21-2-1.16a2.32,2.32,0,0,1-1.68.29c.45.6,1.35.73,2,1.16-.73,1.16-2.85.44-3.08,1.46-1.25-2.16-3.28-2.76-4.47-2.33a2,2,0,0,0,1.68,1.16,7.47,7.47,0,0,0-2,2c.28.12,2.13-.51,1.4.87,1.5.19,3.24-.94,4.47,0-1.21.41-2.06,1-1.4,2,.54-.12.23-1.13,1.12-.87.35,1.74,2.28.11,3.92.58-1.61,1.46,2.62,1.65,4.19,2.33-.39.78-3.19-1-2.52.87-1.92-.74-2.8-3-5.31-2-.4.15-.41,1.65-1.68.58.09,1.09.94,1.19,1.68.88-.29,1.44.79,3.78,2.8,3.78-.21.89.48.85.28,1.74-1.63-1.69-3.85-2.77-5-4.94-1,.25,0,.72-.28,1.74-.92,0-1.07-.82-2.24-.58-.29.29-.57.58-.84.88a5.77,5.77,0,0,0,2,2.32c.13.73-1.28-.7-1.4.29-.65.09-.31-.84-.84-.87s-.48.28-.84.29c4.94,4.29,12,4.76,16.5,9.6-.21.52-.51,0-.84,0,1,1.55,2.87,1.06,3.35,3.49a6.73,6.73,0,0,1-3.91-1.74c-.84.19.27.62,0,1.16.42,1.07-.87-2-1.4-.87-.3-.48-1.52-1.5-.84-2a23.77,23.77,0,0,1-2.23-1.74c-.64.6-1.07,2.81-.28,3.2-.21.3-1.07-.2-1.12.87-.79-.5-.26-.76-.28-1.74-.61.33-1.81.05-2,.87-.77.12-.26-1.09-.84-1.17-.86.43-.59,2.36-.28,3.2-.93-.23-1.11-2.34-.56-3.2-.77.07-2.13,1-1.11,2.33-.48-.11-.53.23-.56.58-1.94-1.06,1.15-4.84-2-5.52-.85,0-.27,1.46-1.12,1.45,0,.85.64,1.08,1.12,1.46a23.24,23.24,0,0,1-3.08.87c-.28,1.45,1.33.88.28,2,.66,1,1.25-.41,1.68-.58,4.24,1.64,6.35,2.64,11.18,5-2.46-.89-4.12.16-6.15-.29a.78.78,0,0,0,.84.58c-.2.52-.51,0-.84,0-1.16,1.14,1,1.31.84,2.33-1.1.33-1.94-.88-2.23.29-.85-.19-1.16-.93-2-1.17a3.26,3.26,0,0,0,2.51,3.49c.8-.15-.45-.42-.55-.58,1.61-.56,1.26,1.16,3.35,1.75.46.13.89-.38,1.4-.29,2.09.35,4.25,2.39,6.43,2a4.35,4.35,0,0,0,3.91,1.45c-.61,1.14.06,2.07,1.12,1.45-.09.59.06.91.56.88-1.06.7-2.28-.92-3.35-1.17-.48.51,1,2-.84,2,.41.83.74.33,1.95.58-.6.64.08.63.84.58-1.16.41-.38,1-1.12,1.75-.47-.38-1.1-.6-1.11-1.46-.44.42-.56,1.18-1.68.88.58.85,1.66,1.18,1.4,2.91h-1.12c.25.8.51,1.6,1.4,1.74,1.34-1.09,2.7.46,5,0,1.31,2.75,3.36,1.53,5.59,1.75-1,.45-2.64,1.41-3.64.58-.64,1.08-1,2.45-2.23,2.91,2.54.15,4.21-1.43,6.71-2a.78.78,0,0,0-.84-.58c.64-1.47,3.93-.17,4.75-1.45,3.49.66,8.45-1,11.19-2,2.59.75,7.33-.93,10.06.87,2.31-.65,3.19.47,5-.29.34.38.11.46,0,.87.78-.32,2.17-.32,2.24.88a7,7,0,0,0-4.75,0c-.17,1.33,1.26,1,1.12,2.32-.91,0-2.39-.91-1.68.59-.72,0-.4-1.14-1.12-1.17-.38.09-.23.73-.28,1.17-1.77-.22-2.18-.87-3.36-1.17-.47.38-1.1.6-1.11,1.46,0,.63.22.92.84.87.18,1.16-.75,1.17-.56,2.33-.79-1.13-1.79-2-2.52-3.2a1.92,1.92,0,0,1-2.8-.29c-1.1.31.07.88,0,1.74a.75.75,0,0,0-1.11,0c.12.84,1,.91.83,2-1.15-.25-1.72-1.11-2.51-1.75-.1,1.37-1.55.79-2.52,1.75.4,1.82,2.25,2.12,3.64,2.91-.61.61.14.83,0,1.74,1.31,1.26,4.59,1,5,2.33,1.4-.61,2.87.43,4.47.29-.64.64.07,1.16.84,1.17-.37.82-1.24-.23-1.68-.3-.88.25-.88,1.42-2.23,1.17.88.94-.94,0,0,.87-.38.53-1.25-.64-2,0,.2-.79-.56-.58-.56-1.16-.18.49-.84.48-1.12.87.73,0,1,.55,1.12,2.33-1.9.08-.8-3.33-2.52-2.62.62-.61.06-1.29-.28-1.75-1.09.78-1.51.35-2.51-.29-.54.76.66,1.73,0,2.91-2.08.18-.78-2.88-.28-3.49-.76.26-.81-.19-1.68-.58a5,5,0,0,0,.28,2c-.32-.05-.5.06-.56.29-.47.1-.53-.23-.56-.59-1.16,1.08,1.82,3.49-.28,3.79,0-1.6-1.16-2.09-1.67-3.2.74-.63,0-1.26,0-2.62-.75.47-1.07.67-1.68,0-1,.89.83,1.25.28,2.62-.66.09-1.16.57-1.68,0-1.27.9-.26,2.89-1.4,3.49a10.89,10.89,0,0,1,3.64,1.45c-.87.42-.18.9.28,1.46.89.25.87-.45,1.11-.88.86-.21.83.51,1.68.3-.11.64-1.48.22-1.68,0,.22,1.92,3.1,1.1,2.8,2.91a3.56,3.56,0,0,1,2.8,1.45c-2,.64-3-.72-4.76-1.45-.81,1.15.71,2.35.84,3.49-1.39-.29-2.11-1.76-2.79-3.49-1.13-.21-.69,1.22-1.68,1.16-.1-.59.06-.91.56-.87-1.88-.55-1.66,3.12-1.68,4.07-1.6-1.54-.24-6.28-3.07-7.27-.63,1.22.32,1.93-1.12,1.74a4,4,0,0,0,.56,2.33c-.09.39-.7.24-1.12.29a4.35,4.35,0,0,0-1.4-4.07c-.49,1,.35,2.5-1.4,2.62,1,.8,0,1.47.28,2-.08.4-.7.24-1.12.29.22-2.65-1-3.77-2.79-4.36,0,1.84,1.72,1.89,1.67,3.78-.78-.24-.76-1.33-1.67-1.45-.31.07-.19.57-.56.58.36.14.58.3,1.4.58-.56,1.07-1.14,2.12-2.52,2.33-.08-.51.79-1.45,0-1.75.12-.43.36.12.84,0-.61-.93-.29-.81.28-1.74-.45-.6-1.35-.74-2-1.17-.76-.21.2,1.37-.56,1.17-1.56,0,.19-1.73-1.12-2-.32.05-.23.53-.28.87-1.12-1.21-2.89-1.41-3.91-2-1,.24-.41,2.08-1.12,2.61.59.65,1,1.47,2,1.75-1,1.39,1.77,2.22,1.12,3.2-1.1-.41-1.45-1.6-2.8-1.75-.38.3.12.48-.56.88-.63-.12.15-1.71-1.12-1.17-.21-3-2.62-2.45-3.63-4.94A7.79,7.79,0,0,0,116,137c.25,1,.63,0,1.12.58-1.69,1-.13,4.52,2,4.36.56.59-.13.57-.28,1.16-.09.77,1.08.23.83,1.17,3.9.82,8,1,12.59,2,.47.11.52-.22.55-.58.62.33.93,1,1.68,1.17,5-.85,8.81-.06,12-2.33.5,1,4,1.36,3.92-1.16.88-.05,1.69,0,2,.58.75-1,1.75.1,2.79,0s1.65-.89,2.8-1.17c.9-.22,1.57.34,2.51.29s2.21-.68,3.08-.58,1.42,1,2-.29c.25.62,1.2.51,1.12,1.46a10.72,10.72,0,0,1,4.48,0v2.61a1.39,1.39,0,0,1-.84-.87c-.95.44.16,1.22-.84,1.46.09.39.7.24,1.12.29,0,.28-.34.22-.56.29-.36,1.57-2.69,1.08-3.08,2.62-.17,1.5,2.41.17,3.08.87.37.38-11,1.13-1.4.58-.24,0-.64-.49-1.12-.29a1.3,1.3,0,0,1-.84.29v.87c0,.65.71-.37,1.4,0-1,1-2.95,1-2.52,3.5-1.73.18-1.8-.81-3.35-.3v-.87c-3.08.3-6.76,1.18-8.11-1.45-1.33.75.71,4.48-.84,5.53-.77-1-1.38-2.25-2.79-2.62-.81.86.47,2,.56,2.91a4.39,4.39,0,0,1,1.95.58c-.8,1.25-2.62-.77-3.91-.87a23.5,23.5,0,0,1,2,3.49c.08.79-1.32-.89-.56,0-1.65,0-.7-3.49-2.52-4.08a4,4,0,0,0,.56,2,23.2,23.2,0,0,1-3.35-2.62c-1.29.6.86,1.67-.56,2.33.1.41.49,0,.56-.29a9.36,9.36,0,0,0-.28,2.33c-.62.16-.4-.56-.84-.59-.44.2.73,1.16.28,2.33-.5.17-1.16-.85-1.4,0-.48-.5,0-.76-.28-1.74-.74-.1.26,1.63-.84,1.16v-1.16h-.84c-.76.26.5,1-.28,1.45.82.32,1.13,1.15,1.68,1.75-.95,1.56-2-1.75-2-2-2.25-.24-1.37-2-2.23-3.49-.67-.12.15,1.32-.84.87.11,1,1.08-.77.84.58v.58c-.45,0-1.07.14-1.12-.29-1,.24.11,1-.84,1.46a7.42,7.42,0,0,1,1.4,3.2c.32.05.49-.07.56-.29a1.11,1.11,0,0,1-.56,2c0-.72-.44-.9-.56-1.45-1.75.62-1.25.74-3.36.87-.31-.55-.39-1.33-1.12-1.45.08-.6,1.05-.28,1.12-.88-1,.09-.19-.57-1.39-.87a18.65,18.65,0,0,0,.55-2c-1.05-.43-.53.79-1.39.58,0-1.26-.77-1.93-1.68-2.91-1,2.4.93,3.73,2.52,4.94-.6,1.36-2-.37-3.08-.29-.1,1.47,2,.6,1.68,2.33-1.29-.31-1.62-1.62-2.8-2,.12-.43.36.12.84,0a1.39,1.39,0,0,1-.28-.87c-.37.1-.44.51-.84.58.42,1.21,1.91,1.32,2.24,2.62-1.18-.32-1.62-1.42-2.52-2a17.53,17.53,0,0,1,.84,3.5c-.84.29-.49-.65-.56-1.17a2.69,2.69,0,0,0-1.12,1.46c-2.29-1.39-5.14-2.21-7.54-3.49-.1,1.1-.19.28-1.12.58.1,1.44,2,1.07,2.79,1.74,0,.78-1.86,1-.56,1.46-1.35-.48-3.28-2.2-5-2.62-.4.07-.1.87-.56.87.66,1,1.75,1.48,2,2.91-1,0-1.6-2.32-2.24-.87a5.86,5.86,0,0,1-1.12-2.62c-.88.4-.93.06-2,0-.14-.91,1-.77.28-1.45-.73.11-.81.9-1.12,1.45-.38-.09-.23-.73-.28-1.16-.9-.26-.88.44-1.12.87.47.58,1.6.46,2,1.16,0,.75-.21.36-.56.29.32,2.19,3.59,1.31,4.19,3.2-1,.2-1.07-.62-2-.58-.38.09-.24.73-.28,1.17.14-1.41-3.07-1.85-3.92-3.2-.73.68.12,2.19.28,2.91-.25-.23-1.9-1.51-2-2.91-1.76.15-1,1.17-1.67,2.32a1.35,1.35,0,0,0-.84-.29c0-1.43.69-1.28,0-2.62-.86.42-1.26.13-2-.29-1.25,1-.86,1.92-.84,4.08-1.42-.81-1.27-1.65-3.35-1.46-1,1.94.79,4.64.84,6.11-.53.72-1.28-.78-2.24-.58-.28.19-.29.67-.84.58a1.69,1.69,0,0,1,.28,1.17,5.75,5.75,0,0,0,2.52-.3c-.14,1.47-3,.14-4.2,1.17-.2,1.07.87,1.05,1.4,2-.7-.24-1.1-.79-2-.87-.88.58-.17,1.51-1.39,2,.24.42.41.92,1.11.87-.22.65-1.73,0-1.39,1.17a4.33,4.33,0,0,0-4.48-.59c.39,6.23,8,5.64,14,6.11,3.31.26,6.65.66,9.51.88,2,.15,5.26-.59,5.87,2H42.42c5-3,12.82-1.15,19.85-1.74,8.31-.71,17.56-1,17.89-9.9-.39-.75-2.29.06-2-1.45-.61,0-.6.73-.56,1.45-.57-.66-1.37-1.09-1.4-2.32-.43,1.37-1.19-.52-1.68.29-.35-.39.78-1.7,1.4-2-.71-.63-.42-.68-.28-1.74-.71-.31-1.24,1-.56,1.16-.18.49-.64.18-.56-.29-1.57,1-1.36,3.82-2.79,4.94-.63-.12-.12-1.43-.28-2-1,.49-.55-.06-1.12-.58-.69.82.65,2,.56,3.2,0,.4-2,.17-1.12.58-.43.71-1.93.09-2.24-.29a1.68,1.68,0,0,0-.56,2.33,6.42,6.42,0,0,1-2.79,1.16c.31.45.91.6.84,1.45-1.16-.07-1.13.35-.84,1.17a27,27,0,0,0-2.52,1.45c1.19-2.3.63-4.49.56-6.69-1-.31-.8.72-1.68.58-.11-.61.2-.77.28-1.16-.25.18-.5.35-.56,0a7,7,0,0,0-1.39,5.53c-1-.56-1.71,1.34-3.08.58.56-1.77-.65-4.5-.56-5.82.22-.64,1.32-.38,1.4-1.16-.22-.29-1.31-1.11-1.4-.59-.49-1.32,2.22-3.19.56-4.36.61-.92,1.15-2.43-.28-3.2-.17.72-1.31,2.1-.28,2.33-.4.86-1.09-.39-2,0,.57.77.7.64,1.39.87-1.2.34-1.45,1.38-1.95,1.75-1.07-.1.54-1-.56-1.75-2.6.79-3.73,3.1-4.2,6.11H46.89c.17-1.77-1.32-.3-2.23-.58-.2-.89.28-1.06.28-1.75-1-.31-.91.61-1.4.87a8.78,8.78,0,0,1-2.8-1.74c-.88-.14-.63.89-1.67.58-.1-1-.84-1.26-1.4-1.74-.05-.76.89-1.95.28-2.33.62-1,2.2-1,2.51-2.33-.51-1.31-1.59-2-2-3.49-.56,0-.36.79-1.12.58A9.83,9.83,0,0,1,34.87,176c.1-1,.75-1.07.28-2-.32,1.13-1.57,1.27-1.68,2.62-.21.53-.3-.17-.27-.58s-.29-.16-.28,0c-.73-.66-.39-1.51,0-2.33,1.06.17.87,0,1.39.88,0-1.3,1.06-1.63,1.4-3.2-.25.18-.5.35-.56,0-.78.15-.51,1.4-.84,2-1.06.24-.33-1.4-1.39-1.16.48-1.93,2-2.73,2.51-4.66-2,0-.78,1.8-2.51,1.75.69.76-.4,1.3-1.12,1.45-.11.5.22.55.56.59-.87.68-1.41.59-1.4,2.32-.65-.43-.43-.71-.28-1.45-2.3-.11-2,3.22-3.64,2.91.1,1.26-.21,2.1-1.11,2.33.47-1.6.29-3.25,1.11-5.24,2.19-.27,3-3.93,1.4-6.11-.76.26.55,1.07-.56,1.16-1.46-1.91-2.4,2.18-4.19,2.62-.13-1.59,1.9-.93,1.68-2.62-.26-.79-.52.78-1.4.29.6,1.12-.84,1.06-1.68,1.46-.75-.75.75-.42,0-1.17-.89.2-.53,1-.84,1.17-1,.26-.47-.95-.28-1.17-1.1.68-1.24-.8-1.39.3-.74.08-.22-1.13-1.12-.88v-2c-.41-.1-.59-.3-.84-1.17a12.88,12.88,0,0,0-3.64,3.49c.13-2,2.16-3.64.84-5.82-.49.27-.81.71-1.4.88.5.68.6,2-.83,2,0-1.39.56-2.26-.56-3.2-.16.9-1.18.91-1.12,2-.58-.6-1.42,0-1.4.87-.83-.6.7-1.18.56-2-.47-1.11-2.88-.89-3.63,0A1,1,0,0,0,5,161.76c-.56-1.46,3.52-.59,4.19-1.74-.12-.46-.88-.25-.56-1.16a13.63,13.63,0,0,0,2.24-.3c-.32-.91.08-.76-.28-1.45-.74-.09-.72.61-.84,1.16-.4-.39-.74-1.29-.28-1.74-1.45-.19-.42.6-.56,1.45-.58-.63-.8.15-1.68,0,.92-1.57-1.72,1.16-1.95,2-.63-.16.34-.45-.28-.87-1.1-.08-1,1-2.24.87a4.93,4.93,0,0,1,2.8-2.33v-1.45c-1.64.73-4,.1-5.31,1.74-.4-.1,0-.51.27-.58.08-.89-.89-1.13-.27-1.75.47-.38,2.31.21,2.79-.87,0-.73-.63-.7-.84-1.16,2.6-3.55,7.77-.54,11.19-3.49.12-.48-1,0-1.12.29-.24-.56,1.43-1.61,2.51-1.75-.08.6-.75.57-.84,1.17A4.06,4.06,0,0,0,17,148.67c-.12-.43-.36.12-.84,0-.15-1.51,2.26-.36,2.24-1.74-.06-.24-.28-.29-.28-.59-1.48,0-1.49,1.56-2.8,1.75-.63-1.12.52-1.15.84-2-.09-.62-1.22,0-1.4.29-.52,0-.19-1-.84-.87,1.38-1,3.87-1.88,5-1.45v-1.46c1.29,0,1.8-1.14,4.19-.87-.31-.45-.91-.61-.84-1.45.74,0,1.65.16,1.68-.59s-1.53,0-1.4-.87c-.2.46-1.37-.07-1.12.87-1-1.12-3.37-.21-3.63,1.17-.87-.47.57-.92.56-1.46-.86-.21-1,.3-1.68.29.46-.69,3.52-1.17,3.91-2.91,1.95,1.71,4.66.57,7,.59.3-1,.93-2,.56-2.91-.62.61-1.61.84-1.95,1.74-.29-.19-.29-.67-.84-.58A4,4,0,0,0,26.49,133c-1.38-.54-3.28.86-3.08,2.91-.23.93-.37-.52-.28-.87-.51.21-2.74,1.18-2.24.58.87-.65,2-1,2.52-2-1.4-.94-3.22-.15-4.19.88-.33-.09.63-1.54-.56-.59-1.19-.29,1-.78,0-.87.31-.58,2.16-.33,2.51,0,2.78-1.42,3.39-2.28,6.15-4.07-.39-1.31.92-2.67-.56-2.62-.16.76-.55,1-.27,2-.57.27-2.32-.94-2.24,1.16a2,2,0,0,0-2.8,1.75c-1.07-.15-1.5-1-2.51-1.17a.81.81,0,0,0,0,1.46,3.68,3.68,0,0,0-2.24,3.2c-1.92-1.88.53-3.72-.28-6.69.09-.91-.81.73-.84-.3-.8,0-.51,1.22-.56,2-1.13.4-1-.52-1.4-.87a3,3,0,0,0-1.39,2.91H11.11c.82,1.32-.7,1-.84,2,0-.08-.08-2.35-1.12-1.16-1.14-2.35,1-2.55,1.12-4.95a2.5,2.5,0,0,0-1.68,2.62c-.66,0-.82-.5-1.68-.29.23-1.59-1.24-1.42-1.11-2.91,1.57-.35,1.81-.77,3.63-1.16.35-.94-.9-.22-.56-1.16h1.4c-1.93-1.23-2.7.9-4.75,0,.26-.8,1.52-.56,1.12-2a.77.77,0,0,0-.84.58,8,8,0,0,1-.56-2c2.6-.2,4.81-.49,6.71,0-.9-.19-.19-1.32-.56-1.45,3.85-1.1,7,2.29,11.18.87,2.07,1.27,5.57-.52,7.55-.58,3.73,2.77,6.65,1.15,11.18,2,2.93-2.16,5.81,0,8.11-2.33-.4,1.93,1.27.5,1.68.58s.43.69.84.87,5.3-.84,5.87-.87c1.62-.09,3,.88,4.19-.29.8.23,1.12,1,2,1.16.55.14.9-1.33.28-1.45,2.14-1.34,5.78,0,6.15-2.91,0-.33-1.06-.92.28-1.75-1.42,1.24-4.58.68-4.19,3.79a1.24,1.24,0,0,0-.84-.29c-.53-1.93,3.8-2.73,2-3.21,1.12-.58,3.27-.08,3.92-1.16-.08-.61-.75.42-1.12-.29,1.22-1-.67-.65-.28-2.33-.47.52-.94-.26-2,0,.75-.72-1.22-2.56.28-2.62-.29-1-2.14-.48-2.51-1.45-.67.82,1.25,2.81,0,3.49-1-.5-.88-3.12-2.52-1.45.33.62,1.21.68,1.68,1.16,0,1.54-1.09.28-2,.29a1.68,1.68,0,0,0-.56,2.33,15.14,15.14,0,0,1-2.79,1.16c.31.45.9.61.83,1.46-1.4,1-2.21,2.36-3.63,2.62a9.93,9.93,0,0,0,1.4-2.62c0-.64-.23-.93-.84-.88a16.29,16.29,0,0,0,.84-2.61c-.21-.55-.84-.21-.28-.88-.77.17-1.17.73-2,.88v-1.17c-1.61,1.32-1.44,3.26-1.68,5.24-.79.79-1.66-.31-1.67,1.16-.68.12-.61-.53-1.4-.29.7-2.06-.7-4.18-.56-6.11a1.35,1.35,0,0,1,1.4-.58c-.19-.88-1.1-1-1.4-1.75-1.08.38-.66,1.23-2.52,1.17.16-1.13-1.2-.68-1.4-1.46-1.56.7-1.68,2.91-3.07,3.79.4-2.22,1.56-3.92-.28-5.24-.28.19-.29.67-.84.58.49.81.21.82.56,1.46a1.22,1.22,0,0,1-1.12.58,2.19,2.19,0,0,0-.56-2.33A5.2,5.2,0,0,0,39.63,110c-.51.6,0-2.11.28-2.62-.59,1.6-3.12-.22-3.64,2.33-.32.94-.32-.78-.28-1.17-.62-.13-1.52.9-1.68.29.65-1.16,2.64-.94,3.64-1.74.34-.94-.91-.22-.56-1.17.81-.56,1.39-.27,2-.58,0-.58-.77-.37-.56-1.16-1,.41-1.07.71-1.68-.29.24.47-1.19,2.29-.84.87-1.19.22-1.2,1.66-1.68,2.62-.62-1.27-1.5,0-2,.58-.92-1.54,2-1.58,1.39-3.78-1.67.58-3.44,1.07-4.47,2.33,0-.48-.45-1-.56-2,1.23-.22,1.73-.54,2.52-.58-.61-1.27-1.11-.19-1.12-1.46a1.33,1.33,0,0,1-1.68,0c-.14-1,2.61-.55,1.68-1.45,1.77-.74,3.86,0,5.31-.58-2.65-.53-2.37-1.52-4.75-1.46,1.07-.89,4.65-.42,5.31-.29,2-2.29,7,.15,7.55-1.75,3.46.17,6.17-1.85,9.78-1.74.74-.3.43-1.69,2-1.16.1-1-1.17-.53-1.12-1.46-1.44,0-3.14,2.09-3.91.29-1.34.83-2.85.2-4.19.58.29-1.34,1.2-.73,1.95-1.16-1.39-1-2.65-2.09-5.31-1.75.82-1,3-.06,4.47-.87,0-.63-.23-.92-.83-.87.85-1,2.4,0,2.79,1.16.33,0,.24-.53.28-.87.75.19,1.06.83,1.68,1.16a.8.8,0,0,0,.56-.87c1.58.66,3.92-.08,5.31.87.57.09-.06-.84-.28-.87,1.08-.91,1.61,1.23,2.52,1.46.62.16.39-.56.83-.59,2.18,2,5.65.4,8.11-.58a1.39,1.39,0,0,1-.28-.87c3.41,1,5.78.44,5.87-3.78-.1-1.15-1.13-1.34-1.67-2a2.06,2.06,0,0,0-.56-3.49,4.37,4.37,0,0,0-2.24,2.33c1.17,1.66-.74,2.11.28,4.07-1.36,0-.83-.85-1.12-1.45-.88-.15-.1,1.44-1.12,1.16-.23.82.4.75.28,1.45-1.74-.92-1.12-3-2.51-4.65-1.36,0,0,1.71-1.12,1.45,0,.34.51.25.84.29,0,1.2,0,2.29-1.12,2.33a4.85,4.85,0,0,0-1.12-3.2,2.81,2.81,0,0,0-1.68.87c-.84-.35.15-1.16.56-1.16-1-1.52-1.93,1.28-3.35,1.16,1.08-2.5,2.94-2.41,3.91-4.94-1.7-.27-2.05-2.48-3.35-2.33.49-1-.19-.72-.28-1.75-.77,0-.57.49-1.12,0-.1.59.06.91.56.88.37,1-1.7.68-1.12.29-1.67,1.11-1.07,4.22-1.68,5.82C54.71,82,55,81,54.44,80.88c1-1.18-.25-3-.84-4.65-1.36,1-.42,2.49-.27,4.07-1.4,0-.19-.85-.84-1.45-.54.59-1.49.31-1.12-.88-.88.93-1.18,2.46-2,3.5-1-.65,1.15-2.07,0-2.91-.89,1.5-2.8,1.93-3.07,4.07C44.9,82,43.82,84,42.14,84.08,44,82,44.29,80.17,45.5,78.56c0-.84-1.17-.54-2-.59,1.55-3.24,5.78-.31,7-3.78a1.22,1.22,0,0,0-1.12-.58,6,6,0,0,1,.84-2c0-.46-1.33.48-1.12-.87-1.21,0-1,1.45-2.24,1.46-.28-.39-.26-1.09-.83-1.17a1.24,1.24,0,0,1-.84.29c.29.8.13,2.07-1.12,2,.67-1.66-.35-4.25,2.52-4.07a.56.56,0,0,0-1.12,0,2.46,2.46,0,0,0-3.36-1.17c.34-.38.11-.45,0-.87-.88.4-.93.06-2,0-.45,1.06-.26,2.35-1.39,2,.55.78-.63,1.71-1.4,2,.11-.91,1.09-1.78-.28-2,.15-.82.41-1.52.56-2.33-1.35-1.35-2.84,1.26-3.36,2.62-.22-1.74.53-3.44,1.12-5-.17-.37-1.61,1-1.68-.58-.74,0-.71.81-1.11,1.16-1.41,0,.41-1.47-.84-1.45-.6-.14-.54.41-.56.87a1.28,1.28,0,0,1-.56-1.16c-1.36,1-2.9,0-5.31.58,1.24-.67-.75-.78-1.68-.87,1.76-2.75,6.63.61,8.39-2.33-.28-.68-1.4-.48-1.4-1.46,1.36,1.09,4,.06,5.59.3.08-.48-.26-.51-.28-.88-.9-.36-.21.94-1.12.58-.51-.41.44-1.41-.28-2-1.69.17-2,.15-3.07,1.16-.69-1.21,1.82-1.58,2.23-2.62a5.15,5.15,0,0,1-.83-2.32.75.75,0,0,0-.84.58c-.29-.19-.29-.67-.84-.58a2.62,2.62,0,0,0,.28-1.75c-1.21.27-.43.92-.84,1.75-.57-.09-.75-.59-1.12-.88-1.15.24.15,1.2-.56,1.75-.78-.58-1.89-.53-1.4-2a1.2,1.2,0,0,0-1.11.58c-.82-.4.07-1.43.27-1.74-.49.76-2.75.41-3.35,2-.94-.11.74-1.12-.56-.87A5,5,0,0,1,24,51.5c0-.54-.95-.18-1.12-.58,1-1.07,2.46-1.71,2.8-3.49-1.63,1.21-4.58,2.82-6.43,2-.74-1,1.38-1.46,2-2-.59-1-2.05.46-2.51-.3.65-.8,1.74-.09,2.51-1.16-.24-.23-.16-.8-.56-.87,1.17-1.29,3.7-.06,4.48.87.28-.19.29-.67.84-.58,1.65,2.54,3.63-1.09,4.75,1.45a6.12,6.12,0,0,1,3.63.88c.08.47-.26.5-.28.87a5.67,5.67,0,0,1,5.6,1.16c.86,0,.79-.91,1.95-.58-.57,3.7,6.06,1.89,7.27,4.66,1.66-1.91,2.35.79,4.2.58-1.1,1.5,1.33,1.4,1.67,2.33a11.51,11.51,0,0,1,4.2-.3v1.17c.85.21,1-.3,1.67-.29,0,2.54,2.23,3.23,4.48,2.62,1.28,3,5,1.15,7.27.58.56-.15.65.57.83.58,1.88,0,1.27-2.39,2.8-2.62-.36-1.2-1.14-2.64-2.24-1.45.6-1,1-2.24,2.24-2.62-.25-.8-1,.51-1.4-.29.63-1.1,1.88-1.54,3.08-2a3.52,3.52,0,0,0,.56-2.62h1.4c.88-1.86,1.87-4.4,2.79-6.69-1-.48-1.59,2-3.35.87.08-.88-.9-1.13-.28-1.74-1.14-.12-1.11,1-1.68,1.45.5,1.2,1.12,1.62.84,2.62-1.28-.47-.31-1.48-1.12-2.33-1.65,0-.94,2.52-1.68,3.49-2-2-4.76.72-6.43,1.75C69.81,46,74.26,44,76.53,41.32c-.16-1.71-.36-3.16,0-4.08-.56.3-1.19.51-1.4,1.17-.84-.41.58-1.51-.28-2-.76.18-.69,1.22-1.68,1.16-.07,1.58-.23,1.55.28,2.62-.75-.08-.5-1.22-1.11-1.45-.34.18.15,2,.28,2.62-1.23-.48-.51-3-2.52-2.62.84-.87-.71-.74-.28-2,3.17.05,2.58-2.72,4.47-3.49-.13-.9-1.29-.89-.28-1.46-.6-1-1.37,1.18-2,.3,1.16-.41.08-1.33,1.39-1.46-.08-.68-1-.54-.83-1.45,1.4-.48,3.95-1.31,3.63-2.62.79-1.8,4.07-2.23,3.36-4.66-2.52.47-3.39-.13-4.2,2.62-.84-.44.23-1.28,0-2-1.11,0-1.15,1.13-1.4,2-1.36-.35-.94,1.16-2,1.17-.06-.33-.28-.17-.28,0-.77-.54.55-1.34.84-1.75-1.3-.39-2.22-1.51-2.52,0-.39.93-.28-1-.28-1.45-.25.12-.5.25-.56.58-.68-.29,1.15-1.18.28-1.75C68.06,22,68.71,23.42,69,25c-1.28-.84-1.83-3.66-1.4-4.36-.9-.08-3,2-2.51.58-1.33.59-1.73,2.59-2.52,2.91-.53-1.09-.21-1.16-1.4-.58a2.62,2.62,0,0,1,1.12-1.16c-.52-.49-1.63-.54-.56-1.17-2-.73-4.89-1.78-7.55,0-.12.18,1.13-2.5,0-1.45,2.24-2.08,8.92,2.35,7.83-2.62a2.07,2.07,0,0,0-1.12,1.74c-.78-.29,0-1.34.28-1.45-.27-.72-1.07.4-1.95,0,.47-1,1.27-1,1.11-1.16,1.17-.15,3.29.33,4.76.29.88-.37.05-.85.84-1.46,1.94.24,2.89.47,5-.29,0-1.25-1.19.49-1.12-.87,2.3-.5,5.26-.6,7-1.75-.51-1.24,0-2.07-.28-3.49-1.2.68-1.84.35-3.08,1.16,1.32-1.14.5-3.23,2.52-3.2-1.06-.52,0-1.86-.56-2.61.08-.68.76-.68.84,0a8.66,8.66,0,0,1,.56-1.75c0-.73-.43-.91-.84-1.16.88-.67.69-.09.28-1.17a1.06,1.06,0,0,1,.84,1.75c1.26-.3,1.57.76,2.24,1.45.55-.66,4,.76,2.51.29C81.62,3.55,81.56,3.79,81.28,3.79ZM82.68,9c-1-1.52-1.52-5-3.35-4.65C81.06,5.28,81.13,7.92,82.68,9ZM83.8,16.3c.07-2-.07-3.81-.84-5C83,12.89,82.73,15.33,83.8,16.3ZM63.11,18.62c0-.43.1-1.07-.28-1.16a2,2,0,0,0-.28,1.45c.62.27,1.86.65,2.24.29a2.77,2.77,0,0,0-1.12-2C63.19,17.34,63.69,18.55,63.11,18.62Zm30.47,8.73c-.24,1.13,1.22.48.84,1.75-1.24.32-1.39-.5-2.23-.59-.44,2,1.79.82,3.35,1.17-.36.39-.37,1.08.28,1.16.53-.94,1.27,0,2-.87-.72,0-.4-1.14-1.12-1.16q.07.95-.84.87C95.24,28.82,94.63,26.78,93.58,27.35Zm18.74,29.39c.67-.7-.68-.77-.28-2a21.48,21.48,0,0,1-3.36.87c0-1.37-1.08-1.59-1.68-2.33.16,0,.32-.23,0-.29C106.16,56.24,110.5,56.79,112.32,56.74ZM95,54.41c-.36.72.82,1.21,0,1.45-.37,0-.25-.51-.56-.58-.23,2,3,1,4.48.87-.48-.47-.35-1.57-.84-2-1.28.38-.89,0-1.68-.58C95.87,53.78,95.61,54.29,95,54.41ZM78.21,56.74c.88-.69,3.69-.7,2.79-2.91A5,5,0,0,0,78.21,56.74Zm25.16-2.33a3.4,3.4,0,0,0,2.8,1.45,2,2,0,0,0,.27-1.45C105.47,53.7,104.15,54.19,103.37,54.41ZM39.63,60.52c1-.13,2.23,1.4,2.79,0-.32-.05-.3-.46-.28-.87-1.31.29-.74-1.36-2-1.17C40.13,59.33,39.75,59.24,39.63,60.52Zm5,.87a2.5,2.5,0,0,0,2.79-1.74c-1.06-.68-2.4,1.37-3.07,1.16C44.6,60.87,44.7,61.05,44.66,61.39Zm60.39,1.75c.41,1.27,2.32,1,2,2.32,1.38,0,1.38-.59,1.12-1.74C106.87,63.64,106.39,62.29,105.05,63.14ZM77.93,69.25c.79,0-.23,1.79.56,1.74.64-2.24,3.8-1.86,3.91-4.65-.06-.23-.23-.34-.56-.29C81.48,68.1,79.8,68.24,77.93,69.25Zm30.47.29c-.2,1.37,1,1.27,2,1.45.64-.64.45-1,0-1.74C108.47,69.09,110.2,70.6,108.4,69.54ZM85.2,75.06c.49-.54,1.84-.21,1.67-1.45s-1.16-1.31-1.67-2C85,72.32,84.57,74.39,85.2,75.06Zm17.33,10.19a1.79,1.79,0,0,0,1.4.29c-.61-1-.05-3.17-1.4-2.62A4.41,4.41,0,0,1,102.53,85.25ZM46.89,98.63c0-1.39-1-1.63-2.51-1.45C44.49,98.42,45.66,98.56,46.89,98.63Zm10.35,5.82c.22.06.32.24.28.58,1.41-.16,2.3-2.54.84-2.62C58.23,103.34,57.29,103.44,57.24,104.45Zm-9.51,2.62c1.06-.42.54.8,1.4.58.56-.39.62-1.29.84-2-.73-.2-1.44-.43-1.12-1.74C46.91,104.28,48.14,105.9,47.73,107.07Zm20.13-1.46c.62.79.93.08,1.68.59.33-1.22,0-1.43-.56-2.33C68.66,104.51,68.05,104.83,67.86,105.61ZM79.61,110c.84-.19,1.61-.46,1.67-1.46.35-.94-.9-.22-.56-1.16.43-.46,2.42-2,.84-2.62C81.06,106.64,79.25,107.19,79.61,110Zm16.21,2.91c1-.25-.93-2-1.68-2.33-1.31-1.3-3.19-4.62-5.59-2.91.74.18.37.58,1.12,1.16-.33,0-.63-.51-.84,0,.31.07.44.33.56.59-.33-.05-.63-.52-.84,0,.61.26.72,2.52,1.4,1.74-.3-.07-.67-.48-.28-.58.75.47.42.92,0,1.45.57.28,1.11.6,1.68.88.44-1.14-.73-.61-.84-1.17.46,0,.15-.8.56-.87,1,0,.9,1.2,1.68,1.45,0,.46-.72.23-.56.88a5.47,5.47,0,0,0,3.35,0c.18-.64-.79-.93.28-.88Zm-.84-3.2c1.24.16,1.33,1.53,2.52,1.74.71-.89-.67-1.45-.56-2.62-.87.39-1.55-.86-2,0C95.42,108.89,95.18,109.45,95,109.69Zm6.43,3.2c.22-.85,1.33-.76,1.12-2-1.15,1.15-.63.51-1.68-.29C100.28,111.24,100.56,112.8,101.41,112.89ZM140,131.51c.57-2-.26-1.84,1.12-3.2.1-1.7-.67-2.27.28-2.91-.74.09-.92-.41-.84-1.17-1.61-.32-1.31,1.35-2,2-.79-.29,0-1.35.28-1.45-1.11.68-.86-.55-2-.59-.68,1.28.36,2.53,1.12,3.79-.28,0-.34.23-.56.29-.53,0-.2-1-.84-.88.36.73-.14.91.28,1.17C137.62,128.92,138.23,132.13,140,131.51Zm-52.84-3.79c.56.09,1.09,1.85-.28,1.46a1.55,1.55,0,0,0,1.4,1.45c-.15-1,1-.71.84-1.74C89.08,128.09,87.14,126.68,87.15,127.72Zm1.4,2.33v1.46c1.23.7.68,1,1.68,1.16,0,.46-.71.23-.56.87.51.84,1.54.59,1.4,0,.69,0,1.24,1.59,1.68.88-.9-.73-.68-2.19-.56-3.2-.55-.09-.56.39-.84.58-.07-.55.31-.64.28-1.17-1.28-.54-1.5-.73-2.52-1.16C89.08,129.83,89,130.16,88.55,130.05Zm3.36.29c.69-1.66,1,1,2.23,0,.49.56.41,1.71,1.12,2,.39-.47,1-.72.84-1.75-.53-.54-.51.18-1.4,0-.63-1.14.34-2.14-.56-2.91-.28.9-.26-.83-.84-.58.24.82-.39.76-.28,1.46.49.11.72-.43.84,0v.58c-.9-.57-.88.37-1.67.29-.16-.51.33-1.71-.28-1.75,0,1.68-1.71-.17-2.24.59.25.08,1.22.78.56.87C89.45,128.86,91.71,129.8,91.91,130.34Zm7.27,1.17c-.62-.23,0-1.8-1.12-1.46a5.59,5.59,0,0,0,2.23,6.69c-1.19-2.5.49-7.05-1.67-8.14C98.45,129.86,100.06,129.55,99.18,131.51ZM30.4,135A18,18,0,0,0,36,136.16c-1.35-.67.36-2,.28-3.2A6.56,6.56,0,0,0,34,134.71c-1.16-.46.1-1.7-.56-2.33-.39.52-1.81-.32-1.95.29C32.58,133.79,30.51,134.13,30.4,135Zm22.93,2.91c.85-.08,1.25-.63,2-.87.14,3,4.94,1.06,7,2,.08-2.1,1.09-2.53,2-3.2-1.64-1-2.18.79-3.36,1.17-.61-.67-.93-.48-1.67,0-.38-.63-.63-2-1.12-.88-.21-.94-.47-1.84-1.68-1.74-.4.49.12,1.33-.56,2-.52-.56-1.13-.2-1.4.29-.47-.48-.22-1.7-.28-2.61-1.2-.21-1.09-1.78-2.51-1.75C51.19,135,51.56,136.49,53.33,137.91Zm39.69-2c1-.58,1.54-2.8.28-3.49C92.6,133,93.34,133.9,93,135.87ZM39.35,135c.12,1.42-.65,2,.28,2.62.77-1.6,2.53-1.48,3.63-3.2C41.62,133.51,41.15,135.86,39.35,135Zm8.38,2a13.55,13.55,0,0,0,3.64,1.16,2,2,0,0,0,.28-1.46c-1-.45-.17,1-.84.88-.85-.68-1.15-1.91-2-2.62C48.53,135.73,47.74,136,47.73,137Zm40-1.17c-.12,1.16.65,1.57-.28,2,.55.39,1.6.28,2.24.58C91.23,137.2,89.45,135.1,87.71,135.87Zm24.05,5.24c0-1.26-.64-1.12-1.12-2.33-1.83.58-1.94-.07-3.64-.58-.2,1.05-.28.8-.56,2,.74.4,1,1.32,2,1.45q-.08-1,.84-.87A1.67,1.67,0,0,1,109,142c1-.16.69,1,1.68.87.66-.09.52-1,1.4-.87.59.36.81,1.1,1.67,1.16a.81.81,0,0,1,.56-.87c-.35-1.08-1.25-2.15-.56-3.49-.9.07-.65-1.06-1.11-1.45C111.87,138.49,112.79,140.93,111.76,141.11Zm-20.13,0c-.52-1.24-1.51-2.09-2.52-1.46.78.51.26.77.28,1.75a1.52,1.52,0,0,0,2-.58C91.34,141.13,91.48,141.56,91.63,141.11Zm0,1.45c-.56,0-.36-.79-1.12-.58-.19,1.47.67,2,1.68,1.46.06.55-.32.64-.28,1.16h.56c0,.18,0,.34.28.29.88-1.19.64-3.71-.56-4.36C91.81,141.31,91.2,141.66,91.63,142.56ZM96.1,144c-.36,2.09,2.75,1.86,2.8,4.36H100c.15-1.46,1.83-2.52.56-3.78-.15.71-.24,1.5-1.12,1.45.62-1.56-1.55-2.62-1.67-3.49A1.8,1.8,0,0,1,96.1,144Zm7,1.45c1-.05,1.09,1.76,2.8,1.75.12-1.59-1-1.89-2-2.33.89-.66-.36-1.54-.28-2.33-.5.16-1.16.15-1.4.58,1.26,1.17-1.25,2-.28,2.91,1.06.43.06-1.3,1.12-.87.29-.82-.46-2,0-2A2.36,2.36,0,0,1,103.09,145.47Zm-9.23.58c1.35-.14.58-.68,1.68,0,.31-.91,0-.65,0-1.74-1.18,1.2-1.16-.2-2-.87C93.2,144.71,93.55,144.93,93.86,146.05Zm-64.58-.87c-1-.06-.55,1.37-1.68,1.16.34,2.7-1,3.36-.28,5.53.16-1.36,2.49-1.11,1.68-2.62,1.41.25.58-1.83,2-.87a4.68,4.68,0,0,0,0-2c-1.21-.28-.81,1.1-1.68,1.17.59-.76.22-2-.28-1.75C29.22,145.7,29.33,145.52,29.28,145.18Zm43.62,2.33a3.54,3.54,0,0,1,2.23.87,10.25,10.25,0,0,0,.56-1.74,10.79,10.79,0,0,1-2.52-.59A2,2,0,0,0,72.9,147.51Zm-41.1,1.16c.35-.87,2.35,0,3.35-.87,0-.44.1-1.07-.28-1.16-.47,1.11-1.6-1-1.95,0C34.17,147.68,30.29,147.36,31.8,148.67Zm70.45-2.33c-1.29,0-.89,2.42-.28,2.91.75-.85.82,1.46,2,1.17.44-.15,1-1.65.56-1.75C103.6,149.2,102.78,147.17,102.25,146.34ZM76,148.67c.49-1.8.41,1.07,1.12.88,0-1,.91-1,.84-2C76.79,147.34,74.6,148,76,148.67ZM43,153c1.21,1.65,3-.68,5.31-1.46-.63-.31.81-.88.56-1.74-.42-.05-1,.1-1.12-.29.79-.17,2.53-.84,2-1.46-.63.51-1.64.78-1.68-.29-1.57.3-2.37,1.41-3.63,2a2.27,2.27,0,0,0,1.68,2c-.06.33-.31.46-.56.58-.78-1.41-3-1.21-3.36-.87-.31-1.12,1-1,.28-1.74-1.52.27-1.67.7-2.51-.29-.82.75-1.1,2.14-2.52,2.9-.09,1.36,1.38,1.09,1.68,2C38.28,151.78,41.53,155.59,43,153Zm-19.29.87a4.69,4.69,0,0,0,3.07-3.2c0-.85-1.06-.64-.83-1.75H24.81c-.26,1.29-.67,2.41-1.68,2.91,0-.54-.21-.61-.56-.29-.22-1.29.37-1.74.28-2.91-2.14,1.28-1.44,3.51-5.31,2.91.2.8-.56.59-.56,1.17a3.37,3.37,0,0,0,2.52.58c.17-.69.37-1.36,1.11-1.46-.16.18-.65,1.38,0,1.46.42-1,.69.6,1.4.29q-.07-1,.84-.87c.65.43,1.21-.1,1.4.29C24.18,153.45,23.79,153.53,23.69,153.91Zm30.19-2c.44,0,1,0,.84.58a1.32,1.32,0,0,0-1.67.88c.45.84,1.51-1.36,1.39.58a11.88,11.88,0,0,0,3.08-.29c.36-.72-.63-1.41,0-1.46,1.38,0,1.29,1.56,3.07,1.17A7.53,7.53,0,0,0,61.71,151c-1.47.22-1.56,1-2.79.87.65-.52-.14-3-.84-2,1,.75-.89,1-.84,1.74-.69-1-.91.06-1.68,0-.34-.52-.05-1.69-.56-2C55.06,150.77,53.94,150.77,53.88,151.87Zm12.86,8.73c-.44.81,1.05,1.6,0,2.62,1.63-.18.83-1.43,1.68-2-.25-1.06-1.06-1.87-.56-2.91-1.56,0-.5,1.66-.28,2.33C66.79,161.77,67.69,160.52,66.74,160.6Zm59.27,0c-.16.61-.69.83-.55,1.75a11,11,0,0,0,1.67,1.45,6.82,6.82,0,0,0,.28-4.65,9.64,9.64,0,0,1-2-.88C125.77,160.28,124.8,159.76,126,160.6Zm-76,2c.14-.52.3.12.56.29.83-.4.31-2.2.84-2.91C50.25,160,49.55,162,50,162.64Zm42.78.58c.32.09.7,1.54,1.11.58-.36,0-.35-.81,0-.87,1.07,1,.65.84,1.4,0-.13,1,1.37.32,1.4,1.16-.15-1,1-.71.84-1.74-1-.64-2.13.33-3.08-.59C94.39,162.8,93.19,162.62,92.75,163.22Zm31.59,1.45c1.12.2,1.12-.77,1.12-1.74-.86.21-.83-.5-1.68-.29C122.89,163.5,125.23,163.82,124.34,164.67ZM23.13,166.42c1.42.12,1.51-1.14,1.68-2.33-.68.12-.61-.53-1.4-.29C23.57,164.94,22.44,165.62,23.13,166.42Zm28.52,6.69c.39-.93,2.42-3,1.12-3.78C52.14,170.46,50.24,172.37,51.65,173.11Zm-10.91-2.33c.65.2-.73,2.22.56,2.33.57-1.28,1.14-1.94,1.12-3.2C41.48,169.8,41.23,170.42,40.74,170.78Zm35.79,0c-.89.25-1.06-.25-1.4-.58.14.92-.86.66-.56,1.75.82.07,1-.55,1.4-.88,0,.3.23.35.28.59-.66.49-2,1.77-1.4,2.61C74.91,172.74,77.36,173.51,76.53,170.78Z"/></g></g></svg>