<svg xmlns="http://www.w3.org/2000/svg" viewBox="0 0 119.2 154.11"><title>资源 10</title><g id="图层_2" data-name="图层 2"><g id="图层_1-2" data-name="图层 1"><g id="柳"><path d="M73.53,0c.52.74-.64,1.44-.32,2.38.62.71,1.68-.06,2.54-.08,1.42-.68,1.43,1.39,2.65,1.55.22.52-.28.47-.53.68a7.5,7.5,0,0,0-4-.36c-.68.32-.82,1.12-1.46,1.57-.12.46-.93.92-.35,1.36a12.85,12.85,0,0,1,2.21-.87c1.62-.61,3.4.38,4.78-.82.52-.22,1.23-.64,1.73-.36L79.67,6.19a.68.68,0,0,0,.43.94C81.28,6.92,82,5.77,83,5.21,82.6,6.08,81.6,6.88,81.48,8c.58.7,1.33-.48,2-.24.29.81-1,.69-1.27,1.4s.28,1.3.47,1.95c.17.23.32.75-.07.93-1.19-.16-.83-2-2.27-1.9a2.36,2.36,0,0,0-1.05,2.11c-1.25,1.79-1.31,4-2.23,5.91-.12.47-.42,1.3.29,1.57a1.82,1.82,0,0,0,1.17-.27c1.9-3.13,5.81-5.21,6.58-8.82-.2-2,2.42-3.15,1.4-5.13.15-.36.55-.31.84-.35.88-.23.65-1.34,1.46-1.54.45.55-.45,1.07.22,1.48,2.24.12,3.89,1.94,6.07,2.16.57.34,1.5.73,1.47,1.53-.16.2-.32.43-.62.35-.12.23-.48.34-.37.64.27.28.13,1,.75.86a20.79,20.79,0,0,1,1.88-3c1.1-.53,2.37-1.83,3.69-.85,1,.59,2.31,1.17,2.74,2.27,0,.37-.41.35-.68.26-1.27-.68-2.38-2.06-3.94-1.68-.23.24-.84.49-.59,1,2,.92,2.44,3,3.71,4.45a27.43,27.43,0,0,0,5.15-1.43c2.17-.08,4.47.73,5.34,2.87-.9.73-1.51-.83-2.34-1-1.82-1-4.13-.39-5.85.43-.66.88,1,.92,1.34,1.6,1.23,2.1,3.3,1.11,5.19,1.5a14.39,14.39,0,0,1,3.53,6c-.55,2.88,2.82,4.25,2.06,7,1,2.34,1.13,5.1,1.62,7.68-.08.6,0,1.45-.6,1.67.08-.6-.21-1.28-.13-1.87.23-2-.69-3.54-.91-5.37-.31-.39-.37-1.14-.9-1.16-.71,1.31-.09,3.07-.3,4.53a29.64,29.64,0,0,1,.26,3.77c.35,3.42.5,6.8.52,10.26l-.22.34a.28.28,0,0,1-.46-.15c-.25-1.57-.11-3.09-.33-4.57-.24-2.36-.18-5.29-.66-7.65-.37-4.13-.14-8.82-1.07-12.67-.52-2.58-.9-6-4-6.58A.56.56,0,0,0,110,19a6.07,6.07,0,0,1,1,1.94c.16,2,2.12,3.28,1.93,5.33-.66,0-.73-.9-.91-1.42-1.28-1.76-1.49-4.09-3.45-5.47-.56-.12-1,.49-1.38.9.82,2,3.24,3.41,2.24,5.85.54,2.29,2.12,4.07,2.3,6.5.8,4.09.43,8.35.27,12.38-.24.53.15,1.34-.4,1.69-.84-.46-.15-1.38-.4-2.13.47-1.63-.17-3.78.27-5.31-.81-2.34,0-4.94-1.17-7.23-.17,0-.33,0-.4.11-.59,3.64-.6,7.2-1.06,10.87h-.4a32.3,32.3,0,0,1,.26-6.72c-.41-3.18,1-5.87.25-9l-.28-.38a6.36,6.36,0,0,0-1.33-4.21c-.47-.28-.94-1.35-1.5-.57-.84,1.64-2.74,2.86-2.7,4.84,1.23,1.24,1,3.12,2.29,4.33.68,2.45,2,4.8,1.61,7.52a.56.56,0,0,1-.86-.27,16.58,16.58,0,0,0-1.31-5.42h-.23c-1,1.55.48,3.44-.32,5,.24.19.44.48.74.47a14.2,14.2,0,0,1,2.59,8.11c1.31,1.8,3.57,3.33,3.88,5.66.74,1.22,2.45.24,3.53,1.06a7.13,7.13,0,0,1,3.65,4.52c-.06,1.09.61,2.35-.15,3.26-.19.07-.33-.12-.47-.24-.35-2.4-.9-5.18-3.54-6l-.22.24.81,2.28a14.59,14.59,0,0,1,.32,5.58c.61,3.11-.35,5.94,0,9h-.33c-1-3,0-6.12-.56-9.4,0-2.14-.09-4.47-1.17-6.21-.44-1.17-1.68-.9-2.64-1.1-2.24.77-.84,3.36-.94,5-.13.1-.22.31-.46.25-.49-.94-.56-2.06-1.12-3-.2-.19-.43,0-.55.15-1.58,2.13,1.07,3.52,1.3,5.42.28,2.3,3.28,3.31,2.72,6,0,3.26-.18,6.33-.29,9.66a.29.29,0,0,1-.39.24c0-2.9-.44-6.11-.32-9.17-.19-.85.06-2.21-1-2.4a17.54,17.54,0,0,1-.43,2.61.33.33,0,0,1-.4-.15c-.1-2,0-4-.86-5.63-1.45,0-.85-1.65-1.27-2.49-.26-.88-1.23-1.28-1.88-1.91-.4-.15-1.07-.4-1.24.2-.06,1.06,0,2.21,0,3.3-.75,0-.46-1.07-.91-1.55s.3-1.92-.79-2c-.9.56-2.35.58-2.7,1.77,1.2,1.61,3,2.93,3.59,4.78,2,1.81,2,4.54,3.91,6.42,1.41,1.73,1.2,4.21,1.41,6.5,0,.23-.22.24-.38.35-1.2-1.34-.35-3.45-1.36-5-.13,0-.33,0-.46.11l.18,4.9c-.06.34-.11.9-.6.88-.89-1.09-.12-2.43-.53-3.77-.5-2.19-.54-4.32-1.18-6.44-.16,0-.36,0-.45.18.41,1.43-.27,2.67-.19,4.12.65,2.58,0,5.47.91,7.94,2.38,2.35,4.13,5.12,6.67,7.27,1.68,1.79,4.12,2.79,5.54,4.78.94,2.54,2.12,5.16,1.76,8.07-.19.27-.37-.08-.53-.21-.68-2.44-1.14-5.06-2.4-7.26-.23-.06-.32.15-.48.25a3.55,3.55,0,0,0,.34,2.19c-.06,3.1-.57,6.41.55,9.24l-.22.24c-1.41-.65-.85-2.64-1.42-3.91-.17,0-.37,0-.46.12a26.72,26.72,0,0,1-.05,3.23c-.2.83.19,1.87-.24,2.61-.62.18-.48-.55-.72-.83,0-2.34-.25-4.34-.23-6.65l1.13-3.43c.33-1.85.15-4.19-1.44-5.32-.76.76-.69,2-.85,3s.21,2.1-.22,2.94c-.16.17-.4,0-.54-.15a17,17,0,0,1,.08-6.16c0-1.25-1.22-2-1.84-2.93-.24-.22-.61-.47-.86-.07.07,1.22-.25,2.28-.21,3.5a13.79,13.79,0,0,0-.42,5.94c.93,2.87.45,6.21-.31,8.94-.2,0-.46.11-.57-.15-.41-2.45.81-5.1-.42-7.39a.36.36,0,0,0-.39.17c0,3.2.64,6.9.22,10.11-.15.2-.47.57-.77.32a3.12,3.12,0,0,0-.29-.62c.75-1.24.08-2.53.13-4-.42-1.44.25-3-.49-4.33-1.21-4.63,3.35-7.89,1.61-12.54-.35-.68-.49-1.73-1.32-1.93-.82,1-.27,2.65-.26,3.9l-.22.24c-.32.27-.34-.19-.63-.21-1,.82-.48,2.35-.67,3.58,0,.33-.13.89-.53.87-.74-2.38.4-4.72-.18-7.17a.47.47,0,0,0-.48-.54,2.4,2.4,0,0,0-.6.87c.18,3.09-1.39,5.52-1.21,8.57l-.33,0c-.73-1.86.06-3.73.3-5.55.12-1.19-.19-2.56.43-3.57-.3-2,2.95-3.16,1.24-5.08-1.32-.09-.27,1.69-1.28,2-.77-.5-.29-1.6-.25-2.36a1.82,1.82,0,0,0-1.45-1.07c-1,.13-2.22-.48-3,.33.24,2.24.85,4.58.4,6.81.12.55.72.93.74,1.55,2,3.55,1.78,8.53.53,12.3-.47.51.09,1.54-.73,1.77a.81.81,0,0,1-.51-.61,15.77,15.77,0,0,0,.79-9.44c-.13,0-.33-.06-.39.11,0,3-1.72,5.43-1.51,8.58a.6.6,0,0,1-.91-.46,14.35,14.35,0,0,1,.71-5.23c1-2.11,0-4.74.28-7.12a11.34,11.34,0,0,1-.29-4.5,7.82,7.82,0,0,0-1.16-2.89.56.56,0,0,0-1,.13l-.47,2.62c.62,1.85-.22,4.06.37,5.91-.49.18-.68-.44-.82-.76.5-2.59-.92-4.81-.32-7.27-.25-.61-.31-1.43-1-1.77l-.38.34c0,1.75-.05,3.2-.06,5-.06,3.85.59,7.29.56,11.27l-.47.58-.47-.38c-.26-4.37-.41-8.91-.8-13.41l-.24-.22a.36.36,0,0,0-.39.14c-.55,3.12-1.26,6.37-.92,9.62h-.39c-.91-2.44,0-5.07-.2-7.5A33.12,33.12,0,0,0,87,82.92c-.25-.42-.71-.41-1.14-.36-.64.29-.48,1.14-.5,1.67-.15,1.42.28,3.25-.13,4.68-.07.76.33,2-.48,2.45-1.11-1,0-2.47-.52-3.6-.44-.32-.54.34-.7.58-.48,3.11.48,6.17-.37,9.17l-.32.4c-.29,0-.47-.37-.42-.67C83,93.3,82,88.82,83.15,85a1.24,1.24,0,0,0-.41-.32c-1.09.77-1.51,2-2.26,3-.78,3.29-2.09,6.33-2,10l.41.48c1.5.38,3.2.25,4.7.69s2.82,1.48,4.32,2A2.45,2.45,0,0,1,89.67,102c1.39.25,2.24,2,3.69,2.08,3.33,1.92,6,5.65,9.52,7.5,2.09-.34,3.46,1.2,5.41,1.29a10.62,10.62,0,0,1,5.62,2.51c1.25.91,1.17,2.49,1.25,3.81.1.88,1,1.84.26,2.62-1-.79-1.17-2.2-1.24-3.38-.17-2.07-2.55-3.34-4.25-3.87-.13.17-.35.28-.38.47l2.44,3.87c.93,3.1.71,7.09.36,10.36l-.32.31c-.19.1-.33-.09-.46-.22a21,21,0,0,0-.22-6.08,4.39,4.39,0,0,0-.5-3.21c-.13,0-.34,0-.4.08.12,1.41,0,3,0,4.35-.35.24-.47-.22-.64-.44a23,23,0,0,0-1.58-8.57,2.8,2.8,0,0,0-2.89-1.55c-.36.08-.54.58-1,.5-.3-.09-.51-.48-.81-.6s-.94-.49-1.29,0c.54,2.19,1,4.42,3,5.93,1.61,1.95.85,4.81,1.3,7.2l-.46.9c-.2.07-.34-.12-.47-.21-.3-1.9,0-4-.82-5.67-.17,0-.34-.06-.4.08,0,1.78.33,3.64.19,5.46-.15,1.22.94,3.36-.74,4.14-.53,1.67,0,3.46-.21,5.28l-.28.5c-.26.21-.56-.08-.67-.31-.39-1.63.24-3.53-.17-5,1.57-5.82.51-12.53-1.71-17.82-.94-1.45-1.5-3.21-2.85-4.31-.9-.2-1.43-2.09-2.25-1.21,0,2.57-.39,5.84,1,8,1.72,2.88,2.56,7.32,1,10.47-.47.48.43,1.74-.67,1.61-.07-.29-.18-.62-.26-.91.73-2.86,1.28-6.7-.55-9.24-.2-.06-.33.11-.49.18l.17,6.72c.31,2.36,1.44,4.59.57,7,.09,2.6-.25,5,.33,7.5,1.55.83,2,2.46,2.57,3.86-.09,1.15.74,2.28,0,3.32-1.1-.35-.56-1.89-1.21-2.66-.13,0-.3,0-.39.12-.13,1.94-.49,4,0,5.92-.13.07-.19.31-.39.25-1.46-2.19-.47-5-.89-7.54-.18-.33-.23-.92-.75-.87-.55.25-.37.94-.48,1.44-.09.3-.37.77-.77.68-.73-1.22.44-2.52.33-3.9-2.22-2.22-5.09-3.44-7.75-4.93l-.48.31c0,1.09.59,1.86.66,2.91a10.67,10.67,0,0,1,2,6.58c-.13.14,0,.63-.38.48-.89-.93-.35-2.49-1-3.52-.34-.45-.34-1.31-1-1.39-.81,1.22-.25,3.08-.8,4.44.13.79,1.24,1.64.41,2.3l-1-1.72c-.68-4.42,1.88-10.3-2.83-13.27-.3-.09-.43.18-.62.35.08,2.31-.1,4.52-.16,6.79l-.38.41c-.56-.21-.55-.87-.67-1.39.82-1.87-.2-3.78-.2-5.76a3.88,3.88,0,0,0,.16-1.91c-.21-.32-.2-1-.82-.9-.46.84-.22,2.09-.36,3-.34,1.33.2,2.76-.25,4a55.75,55.75,0,0,1-.12,6.17l-.22.23a.5.5,0,0,1-.47-.21c-.34-1.4.13-2.9-.31-4.27a.32.32,0,0,0-.4-.22c-1.65,1.87-1.2,4.52-1.27,7l-.16.26c-.59.09-.35-.61-.66-.86a23,23,0,0,1-.07-4.91c2.52-3.21,2.74-7.4,2.43-11.61l-.35-.61c-.15-.39-.5-.15-.69,0v3.23c-.15.43.14,1.25-.48,1.3-.64-1.23-.59-2.74-.87-4.08a1.82,1.82,0,0,0-.38-1.41c-.59,0-.43.74-.65,1.11a46.38,46.38,0,0,1,.35,8.06.64.64,0,0,1-.84.49c-.75.12-.07,1-.58,1.21-.29.3-.5-.12-.74-.28-.75-3.62.88-6.88.59-10.62l-.52-.61c-1,.14-2.26.18-2.85,1.22.17,3.22-.22,6-.25,9.1,0,1.45.2,2.82.32,4.24-.6,2.82.7,5.14.73,7.87-.2,1.62,1.2,4.14-1,4.71a67.11,67.11,0,0,1-7.91,0c-2.48-.37-4.64,0-7.18-.21-2.07-.59-.53-2.78-.87-4.15,1.16-4.36.77-9,1-13.64a47.94,47.94,0,0,0-.82-7.57c-.58-1.37-.57-3-2.05-3.95-1.28-.61-3-1.74-4.37-.57-.63.71,0,1.65-.08,2.47,1.74,2.57,1.95,5.83,1.6,9l-.47.58-.41-.31c-.29-1.81-.28-3.32-.41-5.29-.12-.39-.2-.95-.67-1.07-.73.59-.14,1.52-.37,2.39.7,1.29.1,2.89.54,4.33-.14,1.65.22,3.48-.38,5a.42.42,0,0,1-.4-.15c-.13-3.62-.85-7.21-1.27-10.79a28.17,28.17,0,0,0,.39-4.82.46.46,0,0,0-.57-.31c-1.7,2.07-1.24,5-1.85,7.41-.17.7-.18,1.39-.83,1.71-.3-.12-.11-.46-.25-.62.33-1,.09-2.11.69-2.95-.38-1.28.57-2.56-.07-3.72a3.66,3.66,0,0,0-1.82,1.48l.3,4a7.89,7.89,0,0,1-.2,3.69c-1.24.21-.57-1.39-1-2-.23-.85,0-1.95-.33-2.76a.38.38,0,0,0-.39.18c.38,1.4-.53,2.72-.24,4.26A21.62,21.62,0,0,1,40.85,144c-.28.57.3,1.14-.07,1.65-.1,0-.2,0-.27-.06-.59-1.92.06-4.84-1.48-6.5-.71.29-.54,1.34-.65,2.06,0,.27-.18.64-.51.58a4.64,4.64,0,0,1,0-3.32c-.33-1,.25-2.25-.34-3.22-1.09.86-1.5,2.29-2,3.53-.27.8.06,1.84-.44,2.55a.49.49,0,0,1-.66-.14,9.06,9.06,0,0,1,1.11-4.85c.43-1.79,1.9-3.16,2.6-4.83,0-1.32.81-2.4,1.22-3.6-.49-1-.57.51-1.1.43-.88-.76-.36-1.76-.33-2.75-.25-2.59,3.3-3.57,2.72-6.25-.08-.27-.38-.35-.58-.38-3.88,3-4.82,7.18-5.29,11.48,0,1.48-.86,2.7-.58,4.2-.12,1.26.19,2.73-.4,3.8-.28.24-.62,0-.73-.27-.64-3.4.71-6.05.53-9.27-.15-.72.62-1.3.2-1.92h-.26c-.17,0-.23.21-.29.34-.06,2-.52,3.94-.58,6l-.38.31-.24-.22c0-1.25.41-2.39.17-3.63-.44-.15-.22.37-.45.48-.37.67-.1,1.78-.88,2.1-.37-1.14.18-2.28.28-3.43,1.19-1.69.59-3.68.42-5.68-.31-.52.27-1.69-.61-1.66-.91,2.24-.25,5.15-.43,7.52a.9.9,0,0,1-.93.83c-1-.46-.15-1.51-.24-2.27-.57-2.05-.21-4,0-6.09,2.41-3.81.78-8.79,2.19-13-.11-.16-.28-.52-.58-.38-.57.65-1.48.94-1.84,1.78-.58,2.26-.73,4.64-2.21,6.5-.56.18-.32-.58-.53-.87.48-1.3.23-3,.34-4.36l-.34-.29c-.62,0-1,.63-1.44,1.08-1.81,4.83-.12,10.73-.73,15.89H24a35.25,35.25,0,0,1-.56-6.83l-.35-.48c-.43-.18-.42.35-.61.52a31.52,31.52,0,0,0-.09,5.83c-.09.36-.06,1-.53,1-.86-1.28-.2-3.09-.48-4.56-.57-3,1.86-5.13,1.62-8.12a.82.82,0,0,0-.74-.54A4.66,4.66,0,0,0,20,117.73c.41,2.52-.74,4.44-.62,6.84,0,2.93-.88,6.05-.18,9.09-.36.87.16,1.74.26,2.59.14.3.16.92-.37.81-1-1.41-.81-3.5-1-5.17-.21-.49,0-1.38-.77-1.42-.44.64-.27,1.66-.78,2.33-.18.24-.49,0-.56-.21-.3-1.83.24-3.53.54-5.25-.21-3.19-.06-6.42,1.89-8.9.44-.7.31-1.65.78-2.33.49-2,2.64-3.45,4-5,.11-3.66,1-7.32.28-11a.49.49,0,0,0-.51-.54,2,2,0,0,0-.41,1.66c.31,2.16-.58,4-.5,6.18-.44.87.44,2.38-.6,2.78-1.08-.91-.15-2.4-.39-3.67a.3.3,0,0,0-.4-.25c-1.05,1.32-.88,3.09-1.49,4.56-.14.9.17,2-.47,2.62-.3,0-.31-.38-.42-.61.23-2,.19-4.06,1-5.8.12-2.24,2.47-3.67,2.32-6,.46-1.17-.48-2.58.6-3.51-.18-1.38.87-2.53,1.45-3.74.35-1.49,3.07-2.77,1.17-4.38-1-3.43-.31-6.91-.1-10.37.33-.9.09-2.05.69-2.86a9.92,9.92,0,0,1,3.1-5.48C30.67,68.42,29,65,30,62.22c.35-.47-.14-1.24.34-1.66.39-1.13,1.84-1.9,2-3.16-.27-.35-.65-.87-1.21-.75-1.1.37-.37,1.53-.94,2.17-.18,2.41-1.53,4.4-1.24,7-.34.73.48,1.59-.32,2.15a.37.37,0,0,1-.4-.15c-.82-3.66.58-6.87.89-10.31l-.34-.38c-1.22,0-2.67.09-3.42,1.14a114.79,114.79,0,0,0,.22,12.9H25.2l-.53-2c-.22-3.45-.05-7.11-.63-10.58h-.23l-.15,2.44c-1-.19-.09-1.84-1.19-2.06a3.09,3.09,0,0,0-1.58,1.86c0,2.44.05,5.17.1,7.57h-.3a21.15,21.15,0,0,1-.54-6.14.31.31,0,0,0-.4-.21c-.72,1-.64,2.39-1.13,3.5.66,4,1.28,8.45.67,12.49-1.31,1.16-.85,3-1.43,4.46-.33.83.17,2.1-.63,2.62-.74-.47-.32-1.5-.48-2.25,1-2.94.05-6.2.08-9.26a13.08,13.08,0,0,1-.38-4.1c.62-2.17.37-4.63,1.12-6.76a.62.62,0,0,0-.58-.38c-1.06.77-2.78,1.45-2.59,3.09.53,1.07.37,2.16.9,3.23.16,2.63,0,4.77.43,7.33a.79.79,0,0,1-.61.48c-.2-.09-.47-.28-.48-.54a61.27,61.27,0,0,0-.82-7.48c-.2,0-.4,0-.49.18.15,2.37-.51,4.46-.62,6.74.55,1.56-.19,3.17.23,4.67-.15,2.47-.41,5.45.6,7.78.14,2.27.32,4.53.46,6.8-.12.3,0,1-.52.88-.49-.58-.12-1.38-.21-2.14-.66-1-.25-2.56-.53-3.77C11,86,12.16,81.52,11.52,77.42c.4-.9-.25-1.7-.19-2.59-.13-.13-.27-.32-.47-.25a7.75,7.75,0,0,0-1,5.17c-.06.17-.22.44-.48.35-.75-.7-.61-2.19-.57-3.14.85-2.83,2-5.57,3.1-8.34-.43-2,1.59-3.32.44-5.29.12-1.19-.7-2.21-.35-3.48,0-.23-.28-.25-.47-.21a9.34,9.34,0,0,0-.8,6.25c-.16.14-.26.34-.49.28-1.12-2-.86-4.78-.24-6.87,1.16-1.76,2.65-3.39,2.17-5.78a18.67,18.67,0,0,1,.56-6.5c.39-1.07,1.65-1.8,2-2.9-.25-.52-.81-.57-1.22-.85a2.58,2.58,0,0,0-2.89,1c-1.35,1-.14,2.71-.89,3.82-1,0-.21-1.15-.45-1.63-.68.38-.62,1.34-.89,2-.31,3.37-.06,6.72-.54,10A5,5,0,0,1,8,61.11c-.19,0-.39,0-.5-.15-.48-3.53.2-6.62-.42-10.19.24-1.55-.15-3.35.7-4.67C7.69,44.92,9,44.32,9.21,43.29a6.26,6.26,0,0,0-4.29,3.54c-1.25,2.88,2.19,5.92-.19,8.54l-.31-.32a10.29,10.29,0,0,0,.31-2.52l-1-2.33H3.36c-.69,1.87-.35,4-.35,6l.28.38c1.06,5.83.34,11.65,1.07,17.52l-.16.23c-1-.92-.79-3-1-4.38-.47-2.84.17-5.3-.29-8.15-.64-1.33-.3-3.09-.78-4.45-.9-.27-.24.73-.62,1,.77,4.29-.12,8.86.16,13.26-.12.14-.25.34-.48.25-.88-4.51,0-9.65-1.19-14.25A36.82,36.82,0,0,1,1.58,51c-.26-2.56,1.56-4.36,3.1-6.26a3.38,3.38,0,0,0,1.6-1.57c.82-.92,2.17-.8,2.93-1.75a18.05,18.05,0,0,1,1.64-6c.24-.66,1.24-1.16,1.25-1.85-1.92-2.14-5-1-7.19-.24-.23,0-.27-.26-.24-.46A2.16,2.16,0,0,1,6.45,32c3.39-1.8,6.11,1.57,9.67.62l.54-.51a9.93,9.93,0,0,1,.65-3.88c1-1.72-1.72-1.26-1.83-2.54.77-.68,1.4.58,2.29.45s2.21.28,2.91-.5c-.7-1.22-2-2-2.94-3.12-1.66-1.26-3.86-.13-5.45.52-1.7,1.24-2.06,3.23-1.85,5.33l-.5,0c-.66-1.2-.29-2.79.13-4,.78-2.07,3-2.54,4.68-3.49.05-.6-.69-1-1.16-1.31-2-.66-2.84,1.88-3.85,3.06l-.29.11c-.65-.54.42-1.2.23-1.92a5.06,5.06,0,0,1,3.07-2.54c1.76-.42,3.1,1.08,4.3,2.29,1,.52,1.87,1.74,3.21,1.53.2,0,.32-.27.38-.47-2.13-1.58-4-3.36-6.25-4.53-1.15-.78-1.94,1.06-2.93,0a3.73,3.73,0,0,1,3-1.06c1.69.4,2.74,2.08,4.36,2.38a6.17,6.17,0,0,0-2.37-2.05c.16-.07.28-.24.48-.18,2.38,1.23,3.73,3.82,5.8,5.65.57.28,1.37.45,1.8-.22s-.4-1.17-.85-1.65c-2.6-1.06-3.1-3.95-5.7-5a.3.3,0,0,1,.08-.46c1.89.46,3.3,2.16,5.08,3a17.24,17.24,0,0,0,2.18,1.24c.17,0,.13-.2.12-.3l-2.33-1.82c-.72-.67-1.71-.9-2.27-1.57.1-.2.33-.21.39-.34,3.29.77,5.29,4.45,8.49,5.46.19-.1.45-.31.44-.54A10.2,10.2,0,0,0,24.42,13c-.4-.22-1.3-.55-1.06-1.15.9-.56,1.12.95,2,.39V12A8.06,8.06,0,0,0,23,10.86c-.57-.17-1.42-.11-1.55-.9.1-.07.16-.23.32-.24,3.36-.08,5.28,3.11,7.14,5.45.79,2,2.4.9,4,1.11.3,0,.59-.18.44-.57-1.11-.66-2.58-.44-3.66-1.19-.24-.16.05-.33.05-.5a26,26,0,0,1,4.2.58c.79.86,1.94-.2,2.66.76a.43.43,0,0,0,.28-.47c-1.39-1.23-2.26-3.41-4.24-3.64-.86-.17-1.9.43-2.77-.07-.2-.19,0-.49.24-.56,1.54-.35,3.44-.59,4.67.56a36.66,36.66,0,0,1,5.45,6.13c2.42,1.5,2.44,4.1,4.38,5.84A.36.36,0,0,0,45,23c-1.24-3.54-.85-8.27-4.81-10.5-1.78-2-4.3-3.21-6.49-4.68l-1-.1c-1.11.27-1.52,1.74-2.53,2.13-.26-.09-.57-.4-.35-.71.17-.73,1.05-1,1.39-1.53-.26,0-.21-.39-.5-.21A14.76,14.76,0,0,1,27,8.75a.79.79,0,0,1-.41-.38,8.1,8.1,0,0,1,7.15-1.9c.76.07,1.38,1,2.06.72-.3-1-1.51-1-2.25-1.44l-.26-.61a3.73,3.73,0,0,1,3.85,1.74c.42,1.66,2.11,2.76,3.31,4.1h.23c.6-.51-.14-1.05-.29-1.5s-.27-1.15.18-1.53c.29-.1.47.15.64.31.31,1.34,1.17,2.4,1.64,3.67,1.15,1.8,1.75,3.82,2.8,5.66.38.65,0,1.88.8,2.11,1.31-3.9-.09-8.13-2.08-11.32-1.07-2.43-3.67-1.52-5.36-2.64-.11-.23.09-.34.21-.5,2.63-.33,4.62,1,6.48,2.63.91.4,1.41,1.54,2.27,1.8.39-.24.54-.74.76-1.11a24.37,24.37,0,0,0-1.33-4c0-.14.19-.31.32-.31C48.8,5,49,6,49.6,6.94c.63.31.9-.62,1.46-.68.22-.33.26-.86-.1-1-.35-.64-1.69-1.13-1.19-2,1-.14,1.68,1.19,2.68,1.35.59-1,.68-2.26,1.47-3.21.12-.1.42-.21.53.05A47.31,47.31,0,0,0,54,9.71a.29.29,0,0,0,.4.22,3.47,3.47,0,0,0,.41-1.59A7.61,7.61,0,0,1,55.16,6a27.41,27.41,0,0,1,0-4.35c.25-.37.29-1.16,1-1,.71.53.39,1.83.42,2.68a.44.44,0,0,0,.57.28A10.35,10.35,0,0,0,59.43.9c.29-.14.71-.45,1-.1.42.64-.34.8-.69,1.11,0,.1,0,.26.11.32a51.11,51.11,0,0,1,5-1.68c.1.09.24.18.18.32-2.34,1.83-5.4,2.1-7.7,4.05-1.63,1.48-.92,3.86-1.44,5.75-.64,2.59.06,5.66-.84,8.16a7.16,7.16,0,0,1,.49,2.75c.52,1.5,0,3.1.1,4.58.38.71,1,.23,1.59.34.82,0,1.69,1.12,2.38.14A28.15,28.15,0,0,0,61,22c.67-2.49,1.6-5.16,1-7.84a10.42,10.42,0,0,1-1-5.76c-.23-2.1.85-3.95,1.78-5.73.26-.14.37.19.57.28-.16,1.16-.75,2.13-.91,3.29.11.06.18.23.31.22a11.91,11.91,0,0,0,2.63-4c.43-.7-.11-2.16,1.1-2.24.72.8-.49,1.83-.36,2.84-.47,2.66-3.45,4.11-3.71,6.79A4.63,4.63,0,0,0,63,12.23c.71-.28,1-1.22,1.35-1.85,1.3-1.4,1.47-3.18,2.84-4.55A1,1,0,0,1,68,5.41c-1.29,4.39-5,8-4.35,13l.24.22c.83-.62.82-1.84,1.38-2.71,1.25-3,3.56-5.66,4.94-8.64a10.37,10.37,0,0,0,2.15-6.17c.18-.5.55-1.17,1.22-1.06ZM49.6,9.77a3.14,3.14,0,0,0-.16,2.08c1.49,1.27,1.2,3.32,2,4.9a34.41,34.41,0,0,0,2,3.33c.84-.4,0-1.52.31-2.32.68-1.34-.1-2.83-.15-4.24-.49-2-1.64-3.86-1.06-6-.21-.32-.73-1.1-1.21-.59-1,.83-.91,2-1.74,2.83ZM87.57,8c.79,0,1.46-.67,2.1-1.19,0-.72-.8-.2-1.14-.52-.92.1-.78,1.08-1,1.71Zm-11.92,3v.23c1.07-.44,1.86-1.52,3.11-1.53.28-.37.69-.88.28-1.29-.46-.22-1-.56-1.34,0l-2.06,2.55ZM70.86,9.52c-1.1,1.46-2.43,2.85-2.77,4.58a13.15,13.15,0,0,0,5.49-5.86c-.94.36-1.81.86-2.72,1.28Zm3.41.41c0,.07.1.1.1.16a2.67,2.67,0,0,0,1.36-1.63,3.45,3.45,0,0,0-1.46,1.47Zm13.84.31c-.68,2.1-2.44,3.8-3,6,.24.32-.1.89.36,1.11,2-.2,3.43-1.8,5.64-1.65l2.71,1c1-.46.9-1.55,1.33-2.35.37-1.73-1.06-2.93-1.41-4.43-.48-.81-1-1.71-2-1.91a4.24,4.24,0,0,0-3.71,2.24Zm9.74.84c-.68,2.17-1.86,4.25-1.74,6.65a.57.57,0,0,0,.89.1c.4-.74,1.15-1,1.76-1.48a24.16,24.16,0,0,1,2.67-2.86,5.31,5.31,0,0,0-2-3.55c-.83-.3-1.36.58-1.54,1.14ZM73,15.67a31.69,31.69,0,0,1-2.17,5.71c.08.56-.85,1.35,0,1.58A6.32,6.32,0,0,1,75,20.11c.41-.57.42-1.26.82-1.84,0-2.11,1.38-4,1.9-6L77.5,12A7.05,7.05,0,0,0,73,15.67Zm-4.66.56c1-.2,2-1.36,3.17-1.76a3.85,3.85,0,0,0,1.26-2.35C71,13,69.63,14.8,68.33,16.23ZM48.85,14.64a33.93,33.93,0,0,0-.54,10c1.17,1.57,3.25,1.8,4.69,3.23.56.28.93-.53,1.08-.89-.15-1.58.18-3.57-.79-4.88-1.72-2.15-3.38-4.36-3.9-7-.14-.19-.19-.55-.54-.37ZM31.74,18.79c.35,1.5,1.83,2.51,2.5,3.87a33.24,33.24,0,0,0,4.36,6.86c.63.27.83,1.15,1.55,1.13,1.3-1.59,2.85-3.23,4.18-4.89-.14-1.05-1.15-1.7-1.61-2.61-1.2-2.49-3.73-4.18-5.8-6-.94-.39-1.7.36-2.7.2-.88.29-2,.33-2.48,1.43ZM66,22.24c-.51,2.12-.12,4.09,0,6.32.56,1.79.17,3.68.59,5.51h.23c.93-2.56.63-5.58,1.23-8.24,1.13-.76,0-2.07.52-3.05L71,16.86l-.24-.32C68.42,17.91,68,20.49,66,22.24Zm37.27-6.11c-.44,1.66.12,3.65-.55,5.22.14.23.06.62.42.71h.23c.93-1.64,2.63-2.95,3.91-4.25-.38-1.21-1.85-1.78-3-2.2-.43,0-.92,0-1.06.53ZM98.5,18.34c-.92.95.71,1.29.87,2.11.35.68,1,1.18,1,2-.79,0-.92-1-1.3-1.53-.83-.07-1.36-1.14-2.24-.71-.57.51-1.37,1.13-1,1.94,1.51,1.6,3.67,1.42,5.39,2.51,1.66-.74.26-2.87.94-4.24L101.91,16c-.24-.36-.63,0-.85.09l-2.56,2.3ZM80.57,20.77c.41.32.9,1.06,1.45.84.5-.8.2-1.91,1-2.63,0-.63.35-1.4-.16-1.84-.86,1-3,2.18-2.25,3.63ZM65.9,19.31v.26h.23c.31-.61,1.24-1.33.73-1.87-.78.32-.46,1.17-1,1.61Zm17.87,2.41c.21.48-.33,1,.21,1.31,1.24-.38,2.53-1.11,3.93-.67,1.28-.9,3.14-.47,4.64-.88A2,2,0,0,0,93.42,20a3,3,0,0,0-1.56-2.25c-1-.92-2.1.2-3.25.11-1.82.82-4.57,1.28-4.84,3.83ZM30.89,21c.12.65.92.89,1.37,1.37.14-.57-.54-1.14-1-1.55a.38.38,0,0,0-.39.18Zm-3.29.9c.15.62,1,.66,1.29,1.31.34.09.39-.21.48-.41.08-.63-.53-1.1-1-1.32a.62.62,0,0,0-.77.42Zm-2.52.49.08.39c.8.23,1.49,1.2,2.27.94-.26-.81-1.13-1.31-1.65-2-.19.2-.68.22-.7.65Zm-4.25,1,1.8,1.52a4.27,4.27,0,0,0-1.1-2.23l-.62,0-.08.69Zm41.66-.1c0,.65-.39,1.33-.1,1.91h.26c.88-1.12,1.66-2.53,1.05-3.92a4,4,0,0,0-1.21,2Zm13.43,1.9c-.35,1.26-1.93,2.17-1.55,3.61l.56-.09c1.93-1.12,3.77-2.37,5.74-3.29.58-.55.41-1.37.62-2.07a3.85,3.85,0,0,0-1.78-2c-1.86.63-2.11,2.74-3.59,3.85Zm-4.48-1c-.49,1.87-2.59,3.06-2,5.31-.12,1.13-.57,2.36-.17,3.46h.23c2.24-2.68,3.12-5.87,4.9-8.7.23-.8,1.11-1.95.3-2.62-1.34.32-2.18,1.66-3.24,2.55ZM30.3,26.58c.61,2.58,3.55,2.74,5.55,3.43.33-.8-.71-1.36-.93-2.11l-1.38-2.62c-.91-.56-1.66-1.55-2.67-2-.93.69-.74,2.17-.57,3.28ZM24.77,24.8A55.2,55.2,0,0,0,28.38,33c1,2.89,2.92,5.36,4.62,7.9.92.79,1,2,1.85,2.77h.23c0-3.49-2.49-6.07-3.2-9.37a15.91,15.91,0,0,1-2.21-5.06c-1-.92-2.85-1.41-2.55-3.14-.58-.64-1.4-2.22-2.35-1.33Zm59.67.05a1.05,1.05,0,0,1-.53.81.83.83,0,0,0-1.17.67c-.39,2.78-1,5.47-1.52,8.19l.34.22c3.66-3.59,6.08-7.89,9.94-11.42a.75.75,0,0,0-.65-.67,3.36,3.36,0,0,0-2.19.54c-1.54.29-3.39.15-4.22,1.66ZM19,28.62c-1.14,1.1-.85,2.83-.7,4.31,1.39.31,2.7,1.09,4.21.87l.28-.47c-.16-1.87.56-3.67,0-5.4-1.16-1.08-2.84-.23-3.77.69ZM95.87,26c.15,1.51.11,3.19.85,4.44a3.14,3.14,0,0,0,1.85-1.71c-.24-1.34.09-3-1.41-3.67-.63-.17-1.07.47-1.29.94ZM62.35,27.83c-1.18,1.26,1,2,1.29,3.12.14.06.27.19.47.15l.16-.17c-.38-1.47,0-3.3-.72-4.56-.69.16-.89.92-1.2,1.46Zm-13.61-.31a31.51,31.51,0,0,0,.1,9.64c.1,2.67.16,5.33.35,8,.68,1.69,2.58,1.2,3.64,2.41.6.11.77-.45.82-.88.53-4.83,2.42-10.1.44-14.87l-.39,0c-.86,2.82-1,6-1.51,8.87A3.69,3.69,0,0,1,52,44.07l-.47-.45c-.79-2.54.46-4.72.14-7.28-.37-.12-1,.2-1-.53V32.65l1.21-3.2c-.06-.76-.67-1.23-1.15-1.77-.63-.14-1.6-1.3-2-.16Zm-6,3.6c-.29,1-.71,2.17-.05,3.1a8.16,8.16,0,0,0,3.48,2.64,8.35,8.35,0,0,0,.31-2.48,12.36,12.36,0,0,0-.85-6.52.74.74,0,0,0-1.12,0c-.66,1.05-1.18,2.18-1.77,3.29Zm56.55-5.37a3.13,3.13,0,0,1,.23,1.64,1.74,1.74,0,0,0,1.2-1.46c-.53.06-.87-.36-1.43-.18ZM88.11,30.16c0,.23.21.32.32.48,1.33.38,2.82-.29,4,.09.82-.19.19-1.09.41-1.59-.1-.95.75-2,.07-2.71-2.1.21-3.55,2.14-4.85,3.73Zm-13.3,0c-3.68,3.1-6.7,7.09-5.5,12.21.17.2.54.41.8.21l2.24-1.66a17.41,17.41,0,0,1,2.44-4.6c1.46-.91,1.16-2.64,2.24-3.8.21-.79.37-1.89,1.28-2.18.41.58,0,1.45-.16,2.08-1.25,1.89-2,3.79-3.36,5.65-.08.56-1.14,1.26-.27,1.75,1.17-.4,2.72-.55,3.09-2a25.23,25.23,0,0,0,3-10.37c-.85-.73-1.63.61-2.58.65a12.33,12.33,0,0,1-3.19,2.08Zm-19.13-1c-.2,1.85.46,3.74.88,5.5h.23l1.9-4.94a1.06,1.06,0,0,0-1-1.32,1.31,1.31,0,0,0-2,.76ZM23.73,31.06c.08,1.18-.4,2.55.26,3.55a21.14,21.14,0,0,1,2.93,2c.4.08.89.86,1.2.25-.81-2.5-2.44-4.65-3.51-7-.79-.11-.69.84-.88,1.28Zm8-.68c.21,1.44,1.27,2.43,1.48,3.84a85.67,85.67,0,0,1,4,9.9c.28.55,1,.23,1.42.18,1.28-1.1.69-3,.41-4.52A14,14,0,0,1,39,33.06c-1-2-3.55-1-5-2.43l-1.86-.56c-.13.11-.36.11-.38.31Zm62.56-.9A1.93,1.93,0,0,0,94.76,31c.31.25.67.24.78-.16l-.48-2.52c-.66,0-.5.81-.75,1.21Zm7.11-.25c-1.2,1.43-1,3.69-.6,5.46.59,1,1.66,1.39,2.45,2.22.3.12.38-.21.54-.35,0-2.57-.82-4.81-.88-7.38-.37-.28-.23-1.08-.92-.92l-.59,1ZM59.5,33.07c-1.26,3.47-2.06,7.12-3.08,10.68.23,2-.87,3.48-.37,5.54,2.22,2.2,4.67,4.48,6,7.3.47.08.38-.47.6-.71,0-2.27,1.68-3.94,1.53-6.31,1.58-4.73,1-9.92.33-15a13.09,13.09,0,0,0-3.3-4c-.94.43-1.2,1.66-1.66,2.53ZM12.32,35.28a7.92,7.92,0,0,0-1.82,6.28c.38.48.89,0,1.35.06.78.4,1.82.06,2.77.13.79-1,.25-2.51.67-3.68L16.43,35a.76.76,0,0,0-.65-.77,5.59,5.59,0,0,0-3.46,1.08ZM98.68,32c-.18.33-.5.57-.52,1,.45-.18.7.27,1.12.19l0-1.58c-.27,0-.22.5-.55.42Zm-11.05.38c-2.44.78-4.1,3.11-5.58,5.2,0,.5.54.45.81.67A7.14,7.14,0,0,1,86,38.14c1.11.62,2.33-.32,3.26-1,1.23-.51,3.26,0,3.6-1.64.26-.87,1.16-1.59.76-2.63S92,32.13,91.17,32l-3.54.42ZM18,35.15a42.42,42.42,0,0,0,.23,6.48.59.59,0,0,0,.63.2c.76-.94.31-2.38.83-3.42s1.72-1.87,1.71-3c-1.09-.22-2.56-1.82-3.4-.27Zm21.79,1.67c0,1.68.61,3.14.56,4.72.4.88-.37,1.66.15,2.47,1.9.49,4.07.32,6,.81l.38-.41c.53-3.84-2.82-6.22-5.44-8.57-.24-.38-.4-1.07-1-1.08a3.48,3.48,0,0,0-.62,2.06ZM22,37.31c-.88,1.21-.19,2.94.21,4.17.39.58,1.16.09,1.6.41,2.8.89,5.29,2.61,8.27,3,.14.07.43-.11.45-.34-.72-2.74-3.61-5.24-6.15-6.5C25.26,37,23.34,35.85,22,37.31Zm73.36-2.1c0,.75-.74,1.44-.09,2.14.5.08,1,.82,1.44.51.64.5.47,1.4.86,2,1.18,1.74,1.26,4,3.41,5.25,1.33-.51-.29-1.57-.16-2.53-1-.56-.75-1.69-.94-2.63-.41-2.1-.23-4.71-2.57-5.61-.49,1.07-1.66-.31-1.95.86ZM16.56,38.82a13.82,13.82,0,0,0-.22,3.1c.2.12.38.48.57.21a8.07,8.07,0,0,0,0-3.32Zm70.84,1c-.55.54-1.53.64-1.76,1.47,1,2,1,4.48,3.29,5.82,0,.29.28.48.49.67,1.4-.34.62-2,1.58-2.82-.41-2.36,1-4.18.86-6.35-1.67-.93-2.93.86-4.46,1.21Zm14.58-1c.38,2.3-.22,4.89,1.29,6.78,1.11-.44,2,.42,3,.52.5-.55.27-1.59.08-2.21-.69-1.82-1-3.89-2.87-5-.53,0-1.46-1.33-1.52-.05Zm-18.39.42c0,.42.45.54.75.69a1.4,1.4,0,0,0,.77-.35c0-.2,0-.46-.24-.45-.43,0-.93-.24-1.28.11ZM77.88,42.7c-.13.8.51,1.3,1.08,1.71l.46-.12c1.11-1.12,2.39-2.29,3.37-3.44,0-.36-.42-.68-.75-.76-.86-.07-2-.43-2.66.25a9,9,0,0,0-1.5,2.36Zm14.71,2.48c.22.56-.42,1.27.35,1.51.81-.39,2.21.08,2.43-1.14-.19-1.58.2-3.6-.67-4.95-1.92.59-1.64,2.95-2.11,4.58Zm3.82-3.85c.41,1.43,0,2.86.21,4.17.18.39.83.27,1.12.06l.28-.5L96.8,41.32ZM22.62,44.4a12.86,12.86,0,0,1-.31,5.28,1,1,0,0,1-.42,1.3c-.32,0-.63-.34-.74-.6.16-2,.92-4.64-.39-6.31-.68.25.07.82-.08,1.32-.48,2.19.16,4.7.07,6.81.09.63,1,1.35.23,1.87-.76-.17-.7-1.16-1-1.77a18.83,18.83,0,0,1-.48-4.1c-.47.71-.29,1.85-.3,2.71.57,2.25-.59,4.6.47,6.7h.26a10.91,10.91,0,0,1,4.58-6.55,11.38,11.38,0,0,1,2.64-5.39c-.51-1.56-2.46-.8-3.51-1.69-.4,0-.93-.07-1,.43ZM16,46.84c0,2.27-.16,4.78.47,7-.09.26-.47.64-.71.28a11.22,11.22,0,0,1-.55-4.26c-.34-.45,0-1.35-.61-1.56-2.37,2.85-.21,7.16-1.05,10.48.08,1.21-.24,2.48-.16,3.79.95.82,1.58-.88,2.46-1.11.87-.65,2.11-1,2.56-2.06C18,55.26,18.14,51,18,47c.3-.87.57-1.77.87-2.63l-.34-.22c-1,.63-2.63,1.18-2.57,2.69Zm67.43-4v.33L85.6,44.8c.33.06.38-.41.24-.57a5.37,5.37,0,0,0-1.58-1.92,1.21,1.21,0,0,0-.84.49ZM72,45.9c.11,2.34-1.43,4.24-1.12,6.76,0,.43-.53.88-.08,1.26.29-.05.37-.48.43-.81,0-1.09.76-1.9.75-3,.63-1,.58-2.16,1-3.2l1.38-3.77c-.08-.33-.62-.67-.9-.26-.82.88-.81,2.1-1.47,3Zm-3,4.23.4,0a34.46,34.46,0,0,1,1.74-4.74c-.22-.78.71-1.4.16-2-1.91,1.74-2.12,4.29-2.3,6.8Zm-31-4.22c.22.65.22,1.57.76,2,.38-.51.15-1.36.42-2a1.77,1.77,0,0,0-1.18,0Zm2.28.25A2.21,2.21,0,0,0,39.8,48c1.77,1.62,4,1.94,5.67,3.82.77.3,1.36,1.14,2,1.68.13-.11.36-.12.39-.35-.66-1.75-.24-4-1.06-5.72-.82-.93-2.29-.58-3.21-1.37-1.06-.23-2.45-.51-3.42.12Zm35.17,2c-.36,2-1.52,3.64-1.54,5.75a37.43,37.43,0,0,0-1.47,5.19c-.15,4.18-2.57,7.53-2.58,11.78-.08,2.4-1.2,4.38-.88,6.91-.43,6.43-1.44,12.43-1.65,18.86h.33c1.41-4,2.22-8.18,4.26-11.94a20.37,20.37,0,0,0,1.38-12.43c.14-6.39,1.8-12.61,2.9-18.84.09-2.08,1-3.82,1.37-5.81a2.06,2.06,0,0,0,.56-2.09c-.24-.32-.74-1.23-1.21-.75l-1.47,3.38ZM27.7,47.61c-.12.08-.05.27-.08.4a6.25,6.25,0,0,1,4.12.16l.46-.88c-.9-.53-2.08-.39-3-.91-.9-.3-1.12.79-1.54,1.23Zm53.05-2c-1.51,1.9.62,3.67,1.11,5.43-.58.28-.8-.43-1.27-.75a2.22,2.22,0,0,0-.27,1.92,15.81,15.81,0,0,1,3.6,3c1.13-.53,1.51-1.93,2.1-2.94-.36-2,1.93-5.17-1-6.29-1.22-.25-1.75-2-3.27-1.3l-1,.89ZM34.37,49a2,2,0,0,0,1.55.9c.13-.76-.64-1.13-1.08-1.64-.53-.18-.31.51-.47.74Zm15.4-.37a37.11,37.11,0,0,0,3.17,11.64h.26a70.64,70.64,0,0,1-.12-10.18,7.66,7.66,0,0,0-3-1.8l-.32.34ZM26.77,50a9.64,9.64,0,0,0-1.42,4.69c.52.67,1.69.3,2.44.18.65-.39,1.58-.25,1.94-1.12a6.62,6.62,0,0,1,.73-3.72.8.8,0,0,0-.66-.76,3.54,3.54,0,0,0-3,.73ZM103,47.59a.7.7,0,0,1-.3.73c-.27-.12-.69-.07-.78.26.09,2.6,2.19,4.14,4,5.85a4.37,4.37,0,0,0,1,1.15c.62.08,1.1-.5,1.31-1a1.35,1.35,0,0,0-.91-1.61c-.48-1.57-.58-3.31-1.06-4.87-.59-.9-1.71-.8-2.64-1.1a.69.69,0,0,0-.61.59Zm-6.46.78.65,7.16c-.19.17-.22.43-.55.35l-.24-.33c.24-1.52-.66-2.9-.32-4.4-.85-.79-.21-2.36-1.13-3-1.36.44-3,1.09-3.63,2.59.22,1.58-.56,3.68.57,5,1.7.6,2.43,2.49,3.62,3.53,1.49-.61,2.94-1.65,4.69-1.45.6-.71,1.76.37,2.12-.7-.59-1.59.71-4-1.35-4.63-.35-.48-.08-1.24-.3-1.8A13.21,13.21,0,0,0,99.11,49a.87.87,0,0,1-1.36-.41,1,1,0,0,0-.59-.77c-.37-.15-.62.29-.61.58ZM39.33,50.44c.6,3.07,3.54,5.11,4.23,8.15.19,2.39,3,2.69,4.28,4.42s2.84,3.07,4,4.7c.46,0,.27-.57.2-.79-.75-2.58-1.08-5.33-2.73-7.52s-3.27-3.9-5.08-5.88c-1.68-.93-3.06-2.59-4.79-3.25l-.16.17Zm48.22.45a2.07,2.07,0,0,0,1.31-1.16,1.38,1.38,0,0,0-.59-1.07c-.85.33-.61,1.54-.72,2.23Zm-56.14.84c.13,1-.56,2.06.16,2.86,1.16.13.85-1.28,1.22-2,0-.56.3-1.76-.4-2-.6-.08-.74.72-1,1.12Zm2.81,1.35c-.11.63-.82,1.91.37,2.2,1.57-.26,2.54,1.95,3.93,1.34-.86-1.12-.33-2.88-1.55-3.9-.62-.8-1.48-.93-2.19-1.5-.92.23-.12,1.32-.56,1.86Zm44-1.93c.05.3,0,.63.1.85.3.09.55-.25.54-.48l.05-1.35c-.46,0-.53.61-.69,1Zm-9.85.64.09.89c.68-.32.65-1.31.59-1.93-.49,0-.53.67-.68,1Zm40.25-1.47c.24,1.14,1.16,1.94,1,3.29.2.09.38.48.57.21.48-.41.06-1,0-1.42-.36-.81-.62-1.82-1.43-2.25l-.16.17ZM55.87,53.65c.25,7,1.44,13.81,1.45,20.59.11,2.24.42,4.66.63,6.86a61,61,0,0,1,0,8.76c-.42,6.83-1.2,13.81-.19,20.89.09,1.87.65,3.56.65,5.51a27.32,27.32,0,0,1,1,5.39.29.29,0,0,0,.39-.24,48.23,48.23,0,0,0-.45-11c.42-2.91-.46-5.71-.53-8.51a29.63,29.63,0,0,0,.37-5.48c-.13-1.74.55-3.18.45-4.92.08-2.64.45-5.16.42-7.82,0-1.71.44-3.51.31-5.25.38-.6-.17-1.24.1-1.88.08-4.35.42-8.77.63-13.16,0-3.26-1.78-5.7-3-8.42-.75-.67-.82-1.72-1.76-2.22-.59,0-.24.67-.53.95Zm-32.67.61A5,5,0,0,0,21.61,57c.66.08,1.26-.67,1.54-1.24l.21-1.49Zm56.49,2.6c-.28.38.11,1.22-.64,1.21-.88-.66-.3-2-.73-2.84h-.26C77,59.1,76.91,63,76,66.87A9.38,9.38,0,0,0,75.81,70c.53,0,.63-.65.75-1.05a43.63,43.63,0,0,1,2.71-6.42c1.06-1.74,2.42-3.34,3.38-5.12-.05-1.22-1.17-2.3-2.09-3.09-1.28.15-.43,1.73-.87,2.5Zm24.12.25c.24.48.69.11,1,0s.74-.55.59-1c-.41-.41-.93-1.25-1.52-1.13a14.78,14.78,0,0,0,0,2.21ZM85,58.09c0,1.39.47,3,.16,4.41l.76,2.12.4,0c.24-1.65,1-3.09.95-4.84a9.53,9.53,0,0,0,.22-3c-.91-.73-2,.49-2.49,1.33ZM33.83,60c-.78,2.1.34,5-1.28,6.69a.83.83,0,0,1-.48-.44c.15-1.49.82-3.16.14-4.52-.62.12-.79.82-1,1.29-.5,1.6.11,3.13,0,4.74.17,2.8-1.31,5.68.13,8.3.62,1.69,0,3.85.52,5.44a9.84,9.84,0,0,0,3.31-2.25c.68-4.14,1.42-8.25,2.5-12.27.45-1.2,1.77-2.14,2.32-3.31a7.18,7.18,0,0,0-.68-3.53c-1.36-.32-2.33-1.77-4-1.38A1.33,1.33,0,0,0,33.83,60Zm57-.41c-.55.48-1.38,1-1.12,1.88l.33.22c.85-.29,1.9-.46,2.4-1.2-.27-1.11.16-2.77-1.13-3.19-.51.61-.21,1.59-.48,2.29ZM79.05,69.43c.22.62.79.11,1.19.13.91-.2,1.91.92,2.59-.1.3-.93,0-1.77.14-2.77-.06-1.71.54-3.34.15-5l-.23-.06c-2.06,2.24-3,5-3.84,7.77Zm16.17-5.54c-.37,2.62-.25,5.08-.39,7.76a1,1,0,0,1-.37.67c-.2.07-.33-.12-.47-.25a3.38,3.38,0,0,0,0-2.2c-.4-.09-.75,1.31-1.17.37a28.92,28.92,0,0,0-.52-6.31c-.41-.48-1-.1-1.41,0-1.83.53-2.72,2.5-2.89,4.22a9.82,9.82,0,0,1,3.61,5.3c0,2,2.57,2.85,2.06,5.07,0,.69-.41,1.53.46,1.89,2.61.37,4.1-2.31,6.67-1.35.59-.09.83-.82.91-1.38.1-1.72.14-3.46.38-5.15A2.58,2.58,0,0,1,102,71c-.19-1.74-.35-3.54-1.58-4.75-2,1.78-1.8,5.13-1.19,7.55a.54.54,0,0,1-.27.8c-.86-.24-.67-1.33-1.18-1.94.15-2.34-.49-5.38,1.09-7.38,0-1.25-1.15-1.8-2-2.46-.61.21-1.57.22-1.67,1.07ZM45,65.81c-.22,1,0,2.21-.35,3.18.25,3.18-.11,6.19.72,9.23,1.09,2.89,1.17,6.24,3,8.82l.12.85c1.45,1.92,2.42,4,4,5.88h.33c.37-1.39,1.12-2.77.87-4.31a22.86,22.86,0,0,1,.45-3.08c-.52-3.6-.06-7.21-1.49-10.48-.2-1.91-1.27-3.42-2.08-5.07-1.36-1.93-2.43-4.52-4.84-5.49-.4-.19-.55.28-.71.48Zm-6.69,5.31c-.41.67.24,1.47.17,2.26a40,40,0,0,1,.75,5.28,4.14,4.14,0,0,0,2.37.15l.44-.58a77.57,77.57,0,0,0-1.42-11.64c-.25-.38-.7-.14-1,0a8.29,8.29,0,0,0-1.35,4.49Zm46-5.73A21.54,21.54,0,0,0,84.07,69c.7.21.73-.82,1.08-1.22a4,4,0,0,0-.42-2.36Zm3,7.31c-.4,2.62,2.19,4,2.53,6.4,0,.13.24.06.4.08-.18-3.22.56-6.73-2.16-8.94-1.21.1-.5,1.66-.77,2.46ZM26.9,76.49a15.57,15.57,0,0,0-1.49,5.25c.5,1.21-.09,2.38.06,3.66a14.68,14.68,0,0,0,.53,4l.24,0c.91-1,2.29-2.09,2.24-3.63.43-.77,1.06-1.65.53-2.62-.43-1.24,0-2.87-.31-4.17-.24-2.13.55-4.2,0-6.09-.72,1.08-2,2-1.76,3.55Zm51.54-3.61c.32.61,1.06,0,1.43.41.7.24,1.42,1,2.16.55a1.38,1.38,0,0,0,.28-1.43c-.56-.93-1.79-.49-2.62-.7-.49.25-1.24.48-1.25,1.17Zm-13.83,2c-.61,2.3-.35,4.89-1.1,7.15.47,1.17-.35,2.06-.28,3.18.32,4.46-.72,8.58-.56,13a19.87,19.87,0,0,0-.15,5.38c.67.14.38-.64.53-.94.32-5,.17-10.12,1-14.92A10.13,10.13,0,0,1,64.57,85c-.38-2.35.24-4.58.72-6.74-.37-1.11-.14-2.2-.38-3.38Zm19.53,2.88c.66.76.37,2.06,1.28,2.65.62-.28,1.52.15,2-.46.9-1.68-1.8-1.52-1.19-3.12-.06-.79.07-1.65-.64-2.12a.6.6,0,0,0-.89,0c-.39.93-1,2-.52,3.08ZM37,76.14c-.23.89-.37,1.82-.63,2.69.43.21.85-.07,1.28-.11-.33-.82.25-2.25-.65-2.58Zm38.61,6.22c-.06,1.88-1.43,3.25-1.63,5-.92,2-.91,4.28-2,6.16a36.84,36.84,0,0,1-.86,4.77.56.56,0,0,0,.42.62,9,9,0,0,0,3.59-.76c.7-.74.09-2.14.69-3A45.57,45.57,0,0,1,79.3,81.54c.27-1.85,1.14-3.46,1.57-5.19a2.66,2.66,0,0,0-2-1.38c-3.12,1.29-2.1,5-3.3,7.39Zm-45.45-3c-.05,1.16-.28,2.32-.37,3.41.33,0,.28-.51.6-.58l-.09-2.83Zm61.78,0h.33l0-.56h-.33l0,.56Zm-59.13,4c-.15,2.37-1.63,4.43-.85,7,.46,2.59,2,5,1.36,7.79-.09.14-.29,0-.46.08-.37-.34-.29-.87-.44-1.33-.5-.15-.48.41-.43.74l.2,5.76.3.15c2.73-2.1,5.4-4.73,9.1-4.27,1.84-.36,3.64.33,5.4.67,1.42.15,2.48,1.43,3.83,1.44.42-.37-.12-.72-.17-1.08-.81-1.75-2.06-3.32-2.71-5.14a5.85,5.85,0,0,1-1.28-2.62c-1-1-1-2.43-1.54-3.6.69-.91-.44-1.3-.8-2C43,85.15,44,82,41.42,81c-.7-.21-1.41.25-2.11,0,0,1.65.83,3.06,1.25,4.63.69,2,.07,4,.37,6-.49,1.1.6,3.08-.73,3.58-.71-.47,0-1.25-.39-1.89-.14-1-.78-2.48.21-3.3.08-.4-.19-.62-.36-.88L39.35,87,39,87c-1,3.85.73,7.61,0,11.45-.45.42-.41-.34-.8-.36-.52-.61-.12-1.41-.14-2.14a13.68,13.68,0,0,0-.41-2.26c-.59.06-.43.84-.65,1.28l.15,4.41c-.29.17-.47.54-.87.42l-.24-.39c.28-2.18-.46-4.66.49-6.63.42-2.12,1.1-4.19,1-6.52-.36-1.64.1-3.53-.35-5.19-1.56.55-3.54.52-4.36,2.36Zm-3.32,4c-1,3.17-2.87,6.53-1.63,10,1.46,2.19.74,5.18,1.29,7.69,0,.43-.4.84-.12,1.26s.83.27,1.12.06c1.34-1.23.29-3.11.86-4.61.22-3.3-.58-6.4,0-9.58-1-1.81-.44-4-.47-5.91-.59,0-.8.68-1.05,1Zm-3.9,6.33c-2.31,2.58-.8,6.25-.85,9.51L24.48,109c.46.84,1.18-.18,1.7-.39.8-.52.37-1.53.58-2.29,0-1.09.88-2,.28-3.11.29-3.11-1-6.16-.87-9.06,0-.26-.29-.61-.58-.44Zm52.64,7.15a18.19,18.19,0,0,1-1,5.9,17.83,17.83,0,0,1-1.79,5.36c.1,1.09,1.33,1.28,1.95,2,1.63,2.32,3.17,4.9,2.65,8-.4,2.78,1.92,4.25,2.3,6.64,1.31,1.56,3.48,1.55,5.13,2.52a6.07,6.07,0,0,1,2.89,3.45c1,1.91,3.07,3.06,4.88,4-.26-4.7.29-9.59-.8-14.26a20.93,20.93,0,0,0,0-7.77c-.52-2.75.31-5.44-.45-8.18-.29-1.71-2.16-2.46-3-4-1.16.5-2-.59-2.9-1.08a15.29,15.29,0,0,0-3.36-1.93l-.25.24c3.38,3.57,3.94,8.43,6.91,12.17,1.65,2.12,1.56,5,2.72,7.35.66,2.61-1.52,4.37-.94,7,.2,2.66-.91,4.84-.85,7.47-.12.3-.4.08-.56,0-.28-.39-.66-.77-.51-1.27.35-3.2.46-6.66.68-9.73-.52.18-.59.91-.9,1.38l.11,3.15c-.13.27-.44.68-.78.43-.58-.61-.32-1.67-.31-2.43.36-2,.38-4,1.38-5.68.25-5.08-2.91-8.85-4.87-13-.69,0-.4.83-.68,1.21a5.08,5.08,0,0,1-.26,2.15c-.09,1.91.55,4.19.09,6.15-.08.63.28,1.47-.27,1.85a.62.62,0,0,1-.64-.53l-.25-2.37c-.62,0-.63.78-.91,1.22,0,2.44-.33,4.66.24,6.94,0,.37,0,.79-.42,1-.43,0-.65-.44-.76-.77,0-.69.38-1.36-.23-1.87-.06-.78.78-1.5.09-2.24,0-1.61-.49-3.57.62-4.89.11-1.56,1.19-2.71,1-4.32a26.43,26.43,0,0,0,.51-6.34c-.4-1-.91-2.31-2.16-2.46-.54-.28-.53-.84-.67-1.33-1-.85-1.86-2.11-3.29-1.76l-.32.47Zm-7.58,2.64c-.59,2.88-.08,6.16-.3,9.2.14.29.43.08.55-.12,1.66-2.6,2.11-5.67,3.2-8.48a9.85,9.85,0,0,0,.37-2.61c-.94-.56-1.73.45-2.75.39l-1.07,1.62Zm-36.6,4.14c-.65,1.14-.54,2.59-1.29,3.73-1.27,4.23.31,8.85.46,13.13a.45.45,0,0,0,.4.15c2-1.92,2.74-4.51,4.85-6.26,1.33-1.53,3.32-3.15,4.08-5,1.21-3,2.39-6.11,5.24-8.31l-.08-.4c-1.21-.64-2.22-2.32-3.78-1.61-1.62,1.51-.65,3.81-1,5.83-.28,1.53-.49,3.12-.86,4.61-.23.27-.39.18-.66.09-.89-1.85.46-3.77.13-5.7.07-1.68-.44-3.18.23-4.75-.91-.66-2-.26-3.1-.19a15.13,15.13,0,0,0-4.58,4.67Zm14,.43c-.76.89-.59,2.07-1,3.07.21,3.09,1.33,5.94.94,9.12.75.63,1.86.3,2.79.46,1.08-.07,1.87.92,2.95.69.58-3.18-1.1-6-1.11-9.15L51,107.82a2,2,0,0,0-2.92.23Zm-3.79,6.62a31.68,31.68,0,0,0,.08,6.82c-.26.24-.65.48-.86,0l-.17-.26a14.72,14.72,0,0,0-.53-3.67c-.52,0-.6.65-.85,1,0,1.15.44,2.36.22,3.55-.28.47-.06,1.12-.11,1.68.58.54,1.05-.36,1.64-.45.68-1.27,1.66-2.43,2.4-3.64.52-2.29-.51-4.26-.91-6.29-.66,0-.69.82-.91,1.28Zm28.62,2.89c0,1.15-1.54,2.19-.28,3.24a9.09,9.09,0,0,1,1.8,3.42c0,.4.54.51.81.77.83.13.86-.82,1.21-1.23.45-2.29,2.17-4.85.61-7.14-.68-.66-1.39-2.05-2.43-1.66l-1.72,2.6ZM71,123.23a3.46,3.46,0,0,0,0,1c.32.64.92.1,1.35.11.68-.45,0-1.08-.15-1.57-.26-.85-1.22-.12-1.17.44Zm7.1-.32a6.33,6.33,0,0,0-.83,2.63c.24.26.55.64.93.36.57-.74,0-1.74.31-2.61a.3.3,0,0,0-.41-.38Zm6.81,9.15c.21.58,1,.85,1.45,1.13a11.45,11.45,0,0,0,2.82,1.58A7.33,7.33,0,0,0,85,131.92l-.09.14Z"/></g></g></g></svg>