<svg xmlns="http://www.w3.org/2000/svg" viewBox="0 0 62.79 170.03"><title>资源 12</title><g id="图层_2" data-name="图层 2"><g id="图层_1-2" data-name="图层 1"><path id="梅" d="M15,36l.59-.28a1.71,1.71,0,0,0,.27.09l.64.13a.93.93,0,0,0,.94.59,1.5,1.5,0,0,0,.38-.06,4.42,4.42,0,0,0,0,1.28s-.22-.13-.22,0,.2.11.33.6.27.28.27.75c-.11,0-.38.44-.36,1v.13c-.2.44-.48,1.1-.67,1.6s-.38.57-.54.59c-.33-.52-.66-1-1-1.53a2.19,2.19,0,0,0,1.58-1.37c.32-1.18-1.8-1.45-1.8-1.45s1.09-.75,1-1.16-1.28-.74-1.84.84c0,0-.26.3-.47.3s-.17-.11-.21-.23,0-.26,0-.38,0-.44,0-.69A3,3,0,0,1,15,36Zm2.51,5.14c.1-.26.19-.52.27-.73A2.76,2.76,0,0,1,17.52,41.11Zm-.67,3.1c.57.95,1.23,2.17,1.91,3.47a9.57,9.57,0,0,1-1-.25,1,1,0,0,1-.79-1,.89.89,0,0,0-.88-.85c-.47-.05-.71.29-.68.74s.65.65,1.16.86c-.27.08-.77.27-.87.6s.39.38.69.4,1.11,0,1-.45a.75.75,0,0,0-.1-.24l1.66.64c1.3,2.53,2.62,5.28,3.41,6.88a11.39,11.39,0,0,1,.74,2.25c-.37.29-.9.88-.75,1.44a.5.5,0,0,0,.31.34l.29.77s0,0,0,0L22,59a.47.47,0,0,0,0-.17.32.32,0,0,0-.13-.13l.31-.66c.32-.17.41-.5.53-.84a.8.8,0,0,0-.3-.87,2.94,2.94,0,0,0-.52-.12.15.15,0,0,0,0-.07A2.83,2.83,0,0,0,21.46,55a.73.73,0,0,1,0-.67c.06-.13-.14-.23-.33-.29s-.27-.12-.27-.37-.16-.62-.05-.76.14-.3,0-.32-.16-.12-.28-.2a.38.38,0,0,0,.07-.22.49.49,0,0,0-.13-.33c-.17-.3-.63-.29-.76-.35s0,.62,0,.62h0a.38.38,0,0,0,.14.25.52.52,0,0,0,.66.09,1.14,1.14,0,0,1,.09.46v.17l-1.1-.63c.11.28.53.49.71.65s.44.43.48.47.05.29.07.4c.05.29-.18.18.07.55a5,5,0,0,1,.63,1.71,1.28,1.28,0,0,0-1.07.8,1.19,1.19,0,0,0-.1.32,1,1,0,0,0-1-.1L19.2,57c.1,0,.21,0,.31-.18.23-.42.09-.58.09-.58s.76-.52.83-.82-.37-.6-.37-.6.48-.64.42-.78-.69.62-.69.62a.71.71,0,0,0-.87.62c-.21.8.13.85.13.85l-.15.25c-1.73-3.51-3.25-6.33-3.66-7-.58-1-.92-.63-1.11-2.61-.15-1.49-.32-4.45-.32-7,.12.51.39,1.14,1,1.25C15.67,42.36,16.4,43.47,16.85,44.21Zm7.85,14.6a.67.67,0,0,0-.19.54,1,1,0,0,0,.57.6c0,.13,0,.24-.13.24s-.3-.2-.46-.32l-.22-.12L24.15,59A3.71,3.71,0,0,0,24.7,58.81Zm-.59,6.78a50.87,50.87,0,0,0,.51,5.4c-.78-2.23-1.22-4.21-2.29-7a2,2,0,0,0,.23-.92c0-.43.17-.88-.08-1.21a2.63,2.63,0,0,0,1.14.06,1.6,1.6,0,0,0,.26-.08A32.9,32.9,0,0,1,24.11,65.59ZM18.3,62.44h-.06a1.49,1.49,0,0,0,.49-.24l.34.16a1.27,1.27,0,0,0-.08.5S18.87,62.6,18.3,62.44Zm1.34-1.64A.75.75,0,0,0,20,61c0,.14,0,.32,0,.51l0,0L19.41,61s0-.11,0-.17Zm.45-2.35.23.34-.2.15c-.05-.11-.1-.22-.16-.33A1.83,1.83,0,0,0,20.09,58.45Zm.84.11-.13,0L20.69,58l.22.08C20.92,58.27,20.93,58.44,20.93,58.56Zm.54,0,.11-.39a1.43,1.43,0,0,0,.38,0c-.09.18-.17.36-.24.51A1.23,1.23,0,0,0,21.47,58.57Zm.61,2c-.34.5-.36.76-.22,1a4,4,0,0,0-.61-.11l-.1-.22v-.25a.87.87,0,0,0,.38-.27A3.41,3.41,0,0,0,22,59.22l.8.69A2,2,0,0,0,22.08,60.52Zm1.21-1.35c0,.17,0,.38,0,.52l-.16.07c-.09-.25-.17-.47-.24-.63A2.34,2.34,0,0,0,23.29,59.17Zm-4.21,2.68.09-.1.21.08a1.34,1.34,0,0,0-.25.37l-.27-.12A2.39,2.39,0,0,0,19.08,61.85Zm.43-.13-.24-.1a1,1,0,0,0,.08-.14.54.54,0,0,0,0-.25l.38.32A1.67,1.67,0,0,0,19.51,61.72Zm.7-.31-.07,0v-.2A1.34,1.34,0,0,1,20.21,61.41Zm1.09-3.25h.12c0,.14-.07.27-.1.38h-.23c0-.13,0-.27,0-.42A1.6,1.6,0,0,0,21.3,58.16Zm-.93-.38.14.14c0,.21.09.5.14.71l-.2.08c-.08-.12-.18-.28-.27-.4A1.52,1.52,0,0,0,20.37,57.78Zm3.22,1.81-.13,0v-.48h.07C23.55,59.3,23.57,59.45,23.59,59.59Zm-7.07-6.17c.34.59.68,1.21,1,1.85h-.07a2.3,2.3,0,0,0-1-.62c-.33-.08,0,.35.18.54a12,12,0,0,1-1.88-.51,4.77,4.77,0,0,0-1.12-.89.35.35,0,0,0,.1-.26.53.53,0,0,0-.28-.46c0-.14.06-.27.09-.4C14.84,53.07,16,53.31,16.52,53.42ZM10.45,42.26c0-.29.06-.85-.11-.95s-.3.55-.3.56A20.49,20.49,0,0,1,8.3,40a2.11,2.11,0,0,0,1-.39,3,3,0,0,0,.56-.21,1.53,1.53,0,0,1,.57-.09l.06.12a.63.63,0,0,0-.42.67c.06.58.92.75.92.75s.26.24.45,0l0,0a10.31,10.31,0,0,0,1.7,1.64c0,.77,0,1.46,0,2.07A26.81,26.81,0,0,1,10.45,42.26Zm-.3-3.44a.56.56,0,0,1-.27.19l-.24.06a1.86,1.86,0,0,0,.07-.34.91.91,0,0,0,.24-.35C10,38.53,10.08,38.68,10.15,38.82Zm1.57,1.31a7,7,0,0,0,.85.15.73.73,0,0,0,.63-.23c0,.59,0,1.16,0,1.69-.43.06-.93-.38-1.44-1.06C11.72,40.56,11.71,40.34,11.72,40.13ZM28,113.76a1.23,1.23,0,0,1,0,.2,4.8,4.8,0,0,1,.15.84.61.61,0,0,0-.58-.14.53.53,0,0,0-.23.14H27.2c0-.23.08-.46.11-.69A1.06,1.06,0,0,0,28,113.76ZM40.9,98.55c.31.44.62.69.88.58a1,1,0,0,0,.5-.46,4.69,4.69,0,0,0,2.59,0c-.61,1.11-1.35,2.36-2.22,3.66a1,1,0,0,1-.28-.51c0-.16-.1-.31-.13-.45a.68.68,0,0,1,.23-.47c.29-.19.06-.55,0-.64s0-.51-.14-.61-.86-.35-1,.65a1.29,1.29,0,0,0,.82,1.54c0,.37.08.75.13,1-.41.6-.85,1.2-1.31,1.79-3.35,4.29-6.43,8.23-7.61,9.7-.17-.28-.9-.41-.9-.41h0a.48.48,0,0,0-.61.51h0c-.31.11-.1.37-.47,1.41a13.47,13.47,0,0,1-2.54,3,1.53,1.53,0,0,0-.85-.19.94.94,0,0,0,0-.2c1.15,0,1.53-1.11,1.11-2.32l.54-.59c1-1.15,7.77-9.75,9.59-13.14A31.51,31.51,0,0,0,40.9,98.55Zm.78-5.6a.8.8,0,0,0,.23,0l0,.18h-.19Zm1.25.34,0,0-.11.19,0,0A1.74,1.74,0,0,0,42.93,93.29Zm-.13-.1-.09.2s0,0,0,0l-.17-.09v-.35A1.69,1.69,0,0,0,42.8,93.19Zm.78,1.65a1.08,1.08,0,0,0,.12.24,2.19,2.19,0,0,0-1.08.45,3.36,3.36,0,0,0,.47-.71Zm-.38-.35.32-.09a1.59,1.59,0,0,0,0,.29l-.4,0C43.17,94.61,43.18,94.55,43.2,94.49Zm0-.41.37-.23a2,2,0,0,0-.06.39l-.3.08A1,1,0,0,0,43.21,94.08Zm.11-.57a1.11,1.11,0,0,0,.32.11l-.47.3-.05-.09C43.19,93.73,43.25,93.62,43.32,93.51Zm-1.22-.34,0-.21a.72.72,0,0,0,.3-.12c0,.13,0,.26,0,.39Zm6.75-8.47a1.11,1.11,0,0,0,.17.13l.27.33c-.14,1.08-.3,2.06-.51,3-.58.16-.81,1.13-.71,1.68-.46.1-.54.55-.28,1a1.41,1.41,0,0,0,0,.91c-.26.82-.56,1.72-.92,2.74a38.21,38.21,0,0,1-1.72,3.6c0-1.05-1.67-.76-2-.49a1.5,1.5,0,0,1-.75.36,1.5,1.5,0,0,0-.11-.56c.17.06.27,0,.3-.22a2.24,2.24,0,0,0,1.52.12c1.09-.28,1.17-.41,1.07-1.07a1.65,1.65,0,0,0-.31-.67,1,1,0,0,0,.79-.33,1,1,0,0,0,.48-.82c0-1-1.32-1.39-1.9-1.24a1.27,1.27,0,0,0-.09-1.1,1,1,0,0,1,.11-.17,4.53,4.53,0,0,1,1.88-.3c.86.38.76-.43.58-.43a2.4,2.4,0,0,0-.6.2,4.14,4.14,0,0,1-.81-.05A.49.49,0,0,1,45,91c.18-.27.36-.53.53-.8a2.29,2.29,0,0,1,1-.35l1.49,0s-.13-.31-.66-.21-.88.11-1,0a1.54,1.54,0,0,1-.12-.53C47.18,87.58,48,86.16,48.85,84.7Zm-1.12.37a5.88,5.88,0,0,1,0-1.59c.12-.06.29-.22.37-.64l.24-.09a1.72,1.72,0,0,0,.19,1.59c-.15.28-.31.54-.47.82A.47.47,0,0,1,47.73,85.07Zm4.55.37,0,0,.74-.31h0a2.36,2.36,0,0,0,.51.12A4.39,4.39,0,0,1,52.28,85.44Zm-1.43-2v.76l-.09,0a9.75,9.75,0,0,1-.07-1.06A3.17,3.17,0,0,0,50.85,83.47Zm.63,1.07-.07-.05c0-.15.08-.34.11-.49a.56.56,0,0,0,.27,0,0,0,0,0,1,0,0Zm.22.24a.69.69,0,0,0-.11-.13c.1-.15.22-.34.31-.5.06.08.15.18.25.29Zm.18.25-.09-.13.46-.34.21.19Zm.09.16a0,0,0,0,1,0,0l.63-.31.21.14-.66.26A.28.28,0,0,0,52,85.19ZM51.37,84c0,.12-.06.29-.1.44a1.23,1.23,0,0,0-.26-.12v-.59A1,1,0,0,0,51.37,84Zm-2,2.86c.08-.47.16-.91.23-1.34l.07.09a2.54,2.54,0,0,0,.13.63A3.06,3.06,0,0,1,49.32,86.81Zm.11,6.2c-.91.39-1.71.67-1.78.48.13-.42.26-.84.38-1.25A2.17,2.17,0,0,0,49.43,93Zm-16.9,22a.65.65,0,0,0,.07.21.05.05,0,0,0,0,0c-.33.32-.46.25-.59,0a.78.78,0,0,1-.05-.41A.63.63,0,0,0,32.53,115Zm-14,22.54a58.79,58.79,0,0,0-1.51-6.43,2.56,2.56,0,0,1,.74-1.11,19.21,19.21,0,0,0,2.25-2.48c.41-.46,1.55-.23,2.56-.25h0C21.22,131.54,19.51,135.25,18.58,137.54Zm1.14-14.12a9,9,0,0,1,1.07-.8,2.15,2.15,0,0,0,1.35.4,7.25,7.25,0,0,0,1,.8c-.08.11-.15.23-.22.35-.72,1.31-.51,1.47-1.55,1.6S19.49,127,18.72,128a9.69,9.69,0,0,1-2,1.9c-.13-.47-.24-.82-.3-1a3.52,3.52,0,0,1,.39-.91A47.06,47.06,0,0,1,19.72,123.42Zm-.95-3.84A4.48,4.48,0,0,1,19,119a1.58,1.58,0,0,1,.3-.32,1.2,1.2,0,0,0,.28,1c.29.2.44.15.44.15s-.67.55.21,1h0a1.43,1.43,0,0,0,0,1.06.68.68,0,0,0,.1.21,3.11,3.11,0,0,0-1.5.73C18.67,122.58,18.87,121.72,18.77,119.58ZM24,116.44h0c-.06.23-.12.47-.15.6a2.19,2.19,0,0,0-.49-.12C23.54,116.81,23.73,116.64,24,116.44Zm.68,3c-.42.33-.88.68-1.34,1a1.4,1.4,0,0,0-.12-.18l.17-.4c.38,0,.77-.21,1-.89a1.6,1.6,0,0,0,0-1.41l.3-.31a1.64,1.64,0,0,0,.33.16C25,118.1,24.81,118.77,24.68,119.41Zm1.2,2.25.06-.25a4.83,4.83,0,0,1,.57-.11l-.45.46Zm-2.77,1.06a1.15,1.15,0,0,0,.39-.43,1.66,1.66,0,0,1,.1.43C23.6,122.91,23.42,122.84,23.11,122.72Zm1.06-.9-.52-.14a2.39,2.39,0,0,0-.12-.85l1-.65C24.4,120.76,24.28,121.31,24.17,121.82Zm-1.66-2.5-.09.5a2.41,2.41,0,0,0-.71,0,2.44,2.44,0,0,0,.55-.9A2,2,0,0,0,22.51,119.32Zm1.8-2.47-.18.35-.13-.09.13-.48ZM22.94,120l.1-.19.19.07-.12.28Zm-.37-.1c0-.11.05-.24.07-.38a1.71,1.71,0,0,0,.26.21l-.11.22Zm2.05-2.7-.25.27a1.31,1.31,0,0,0-.11-.12l.16-.32Zm8.89-20.22.28-.28.36.31a2,2,0,0,0-.16.28ZM35,96.34l-.06,0c0-.17,0-.38-.05-.58l.17,0A4.88,4.88,0,0,0,35,96.34Zm-.34.15-.29-.43a1.3,1.3,0,0,0,.19-.31.14.14,0,0,0,.11,0h.06c0,.2,0,.46,0,.67Zm-.39-.3.26.39a1.66,1.66,0,0,0-.27.26l-.33-.3ZM16.43,109.33l.15,0,.28.35a3.86,3.86,0,0,0-.54.31l-.21-.59Zm2.82,1.14a2,2,0,0,0-.42-.68l.21-.3.21.05a1.57,1.57,0,0,0,.47,0A1.47,1.47,0,0,0,19.25,110.47Zm-2.32-1.22.2.29-.12,0-.25-.31Zm.63.18a1.31,1.31,0,0,0-.27.06,2.84,2.84,0,0,1-.2-.29,1.48,1.48,0,0,0,.27-.1C17.43,109.23,17.51,109.35,17.56,109.43Zm.75-.3c0,.12-.07.23-.1.31l-.12,0c0-.13,0-.3,0-.47A1.2,1.2,0,0,0,18.31,109.13Zm.14.4-.09,0c0-.08.05-.17.08-.26l.13.07Zm.14.07c0-.06.08-.14.12-.23l.18.07-.18.25Zm-.7-.95a.64.64,0,0,0,.07.12c0,.19,0,.43,0,.63h-.2L17.5,109A.87.87,0,0,0,17.89,108.65ZM24.77,4.47l-.51.62c0-.22-.26-.18-.52.06a.32.32,0,0,0,0,.56c-3.34,4.22-5.8,8.62-8,16a3.43,3.43,0,0,1-.65-1.44c-.07-.75,0-1-.09-1s-.08-.36-.1.94a3.58,3.58,0,0,0,.69,2c-.16.56-.32,1.13-.47,1.72s-.33,1.34-.48,2a1.33,1.33,0,0,0-.41-1.09c-.47-.51-.79.4-.75.49a3.47,3.47,0,0,1,0,.79c0,.3.7.94.94,1.14-.23,1.21-.42,2.44-.57,3.66-.14-1.36-.55-1-1.14-.91s-.76.42-.77.7.43.51.67,1.13a2,2,0,0,0,1,.87c-.05.45-.09.9-.13,1.34-.32-.23-1-.63-1.14-.11s.72.39,1.12.29c0,.29,0,.57-.07.85a3.5,3.5,0,0,0-.24-.52c-.08,0-.64-.3-.7.09s.52.91.89,1.17c0,.26,0,.53-.05.79a1.33,1.33,0,0,0-.56-.49.65.65,0,0,0-.47,0,46.82,46.82,0,0,1-3-5.28,2.83,2.83,0,0,1,.39-.56c.23-.23.39-1.25-.16-1.48-.38-.16-.7.29-.84.75-.1-.24-.2-.47-.31-.7a1,1,0,0,0-.6-1.49c-3.27-9,0-13.83,0-13.83s-3.27,4-.56,13.29l.12.38a1.22,1.22,0,0,0-.52,0,.71.71,0,0,0-.35,1.13c.27.2,0,.39.43.66a2.62,2.62,0,0,0,1.21.28c.36.86.79,1.75,1.25,2.65a1.36,1.36,0,0,1-.86,0c-.81-.17-.43-.34-.42-.53s.29-.79-.22-.83-.49-.49-.79-.5-.68.09-.57.79.29.94.53.92a4.42,4.42,0,0,1,1.3.28l1.33.45c.36.69.74,1.37,1.13,2.05h0s-.79-.06-1.45-.17a1.43,1.43,0,0,1-.93-.62.58.58,0,0,0,0-.21c0-.24-.19-.62-.39-.6a.38.38,0,0,0-.34.53,1.11,1.11,0,0,0,.62.43h0a3.16,3.16,0,0,0,.45.38,8.78,8.78,0,0,0,2.34.8c.27.47.55.94.82,1.39a1.24,1.24,0,0,0-.15.82c.08.41.72.64,1.11.74l0,0-.19,0c-1.15-.11-1.54.21-1.51,1.28a.88.88,0,0,0,.32.72,1,1,0,0,0-.09.26c-.21-.3-.42-.64-.63-1h0l0-.05c-.24-.39-.47-.81-.7-1.2a1.52,1.52,0,0,0-.37-1.62c-1-.92-1.49,1.44-1.49,1.44a3.09,3.09,0,0,0-.52-1.06,7.63,7.63,0,0,0-.16-.9s0,0-.14,0c0,.09.06.36.11.66a.79.79,0,0,0-.23-.14,6.57,6.57,0,0,0-.13-.68L7,35.85c0,.07,0,.3.08.57a.7.7,0,0,0-.32,0c-.06-.38-.13-.7-.13-.7l-.14.05c0,.09.06.38.11.7l-.09,0a1.29,1.29,0,0,0-.43.29,10.05,10.05,0,0,1-1-2.2A5.68,5.68,0,0,0,5.94,37a1.14,1.14,0,0,0,0,1.15l-.23-.06A6.05,6.05,0,0,1,5,36.85l-.13,0c-.06.3.32.85.6,1.21-.64-.09-1.66-.09-1.8.89a.78.78,0,0,0,.78.8s-.34.87,1.08,1.12A1.36,1.36,0,0,0,7.21,40a4.79,4.79,0,0,0,.84,0c.32.38.63.76.95,1.12-.2.16.09.61.26.85s-.23.3-.1.53.72,0,1.06-.05c.4.42.75.76,1,1a8.06,8.06,0,0,1,1.92,2.45c0,.56,0,1,0,1.15a2.85,2.85,0,0,0,1,2.71,20.24,20.24,0,0,1,2,3l-1-.15a1.67,1.67,0,0,1-.24-.46.49.49,0,0,0-.29-.34.51.51,0,0,0-.75-.28s-.33.36,0,.65a.51.51,0,0,0,.67.08.81.81,0,0,0,.17.27l-1.15-.23c.23-1.82-.69-2.28-.94-2.28s-.75.33-.65,1.54a1.75,1.75,0,0,0,0,.33c-.26-.08-.51-.16-.75-.25.74-1.62-.95-2.52-1.39-1.26a1.43,1.43,0,0,0-.07.32,1.94,1.94,0,0,1-.13-.52c-.1-.81-1.11-1.24-1.44-.85s.12.68.36,1c-.17-.13-.38-.26-.52-.37a1.52,1.52,0,0,0-.44-.23,9.16,9.16,0,0,1-2.15-2.5,5.49,5.49,0,0,0,1.83,2.44.49.49,0,0,0-.49.32c-.23.56.85,1,1.48,1.08.36,0,.49-.1.55-.22a1.34,1.34,0,0,0,1,.74c.26,0,.36,0,.4-.09a2.15,2.15,0,0,0,1,.32c.3.12.6.24.9.34a4.17,4.17,0,0,0,.48,1.16,1.31,1.31,0,0,0-.77.06c.18-.27.34-.69.09-1s-.63-.45-1.18-.16c0,0-1.18.88-.85,1.57a.42.42,0,0,0,.18.21.68.68,0,0,0-.08.24c-.25,0-.53.23-.66.8-.26,1.11.72,2,1.31,1.28l.08-.12c.16-.08.33-.18.49-.28a1.49,1.49,0,0,0,.69.23c-.67.19-1.64.62-1.69,1.54-.06,1.32,2.76,1.64,2.41-1.09a.36.36,0,0,0,.48-.35A.57.57,0,0,0,13,56a1.89,1.89,0,0,0,.5-.28,8.25,8.25,0,0,1,1-.67,13.44,13.44,0,0,1,1.93.23c-.38.08-1,.29-.53.64s1.21-.14,1.53-.41l.27.07c.33.64.65,1.29.93,1.93-.7.27-1.81,1.8-.53,2a1.27,1.27,0,0,0,1.23-.33l.26.66a1.18,1.18,0,0,0-.06.83l-.06,0a1.12,1.12,0,0,0,0-.32.94.94,0,0,0-1.22-.46l-.05,0a2.11,2.11,0,0,0-1,1c-.25.61-.18,1.2.33,1.41-.56,0-1.16.26-1.31.75A1.29,1.29,0,0,0,17,64.67a2.79,2.79,0,0,0,1.79-.14s.87.34,1-.3a2.18,2.18,0,0,0,1.57.28c1.27,3.41,2.59,7.09,3.24,9a74.19,74.19,0,0,1,2.13,7.94l-.68-.2c-.62-.18-1.12-1-1.37-1.21s-.16-.64-.46-1-.78.39-.69.55a3.33,3.33,0,0,0,.76.51s.56.58,1.24,1.18a1.1,1.1,0,0,1-.24.15c0-.1-.1-.2-.18-.3s-.27,0-.25.21.12.17.2.2c-.15.06-.27.1-.27.07a1.94,1.94,0,0,0-.3-.78c-.2-.3-.59-.09-.75.1s0,.43.18.5a1.42,1.42,0,0,0,.76.32,1,1,0,0,0,.95-.38l.15.13A6.87,6.87,0,0,1,27.06,83a52.19,52.19,0,0,1,1,11.17,118,118,0,0,1-1.25,12.63,1.38,1.38,0,0,0-.09.23c-.24.67-.74-.27-1.08-.88a2.15,2.15,0,0,0,.43-1c.08-.26-.08,0-.16-.21s.11-.55-.31-.75-.42.08-.55.23-.62,0-.75.42.34.65.55,1a.63.63,0,0,0,.65.31h0a19.38,19.38,0,0,0,1.08,2.13l-.27,1.72c-.36.49-1.06-1.24-1.28-1.47a10.76,10.76,0,0,0,1.12,2.47c-.19,1.13-.37,2.24-.56,3.31-.54-.08-1.08-.05-1.3.3-.42-.91-2.94-1.72-3.22.15a1.91,1.91,0,0,0,1.5,2.21,1.4,1.4,0,0,0-.37.48,1.41,1.41,0,0,0-2.12-.37,2.33,2.33,0,0,0-.79,1.39c-.25.14-.49.22-.62.15,0-.35-.06-.73-.11-1.15a6.8,6.8,0,0,1,.24-.76c.13-.27,1.34-1.71,1.34-1.71s-.45.53-.9,1a3,3,0,0,0,.18-.77.55.55,0,0,1,.29-.11.65.65,0,0,0,.57-.25c.06-.11-.16-.21,0-.4a1.41,1.41,0,0,0,.16-1.14c-.13-.22-.68-.14-.84-.19a.48.48,0,0,0-.51.37c0,.22,0,.93-.11.82s-.33-.35-.33-.19.46.75.46,1.31a4.91,4.91,0,0,1-.27.86c-.2.13-.37.2-.46.14a26.62,26.62,0,0,0-1.28-4.21,1.54,1.54,0,0,0,.28.09c.73.13,2,0,2.19-.84.41.49,2.36.78,2.63-.44s-1.22-2-1.85-1.88a1.74,1.74,0,0,0,.31-1.29,1.53,1.53,0,0,0-2.8-.27,1.75,1.75,0,0,0-2.51-.37,23.86,23.86,0,0,1-.86-4,1,1,0,0,0,.61-.28,1.14,1.14,0,0,0,.54-1.09c-.08-.65-.46-.65-1-.3a.85.85,0,0,0-.32.4c0-.35,0-.7,0-1.06a24.72,24.72,0,0,1,2.71-11.72s-2.77,3.69-2.87,11.49c0,.52,0,1,0,1.54l-.19-.16a5.68,5.68,0,0,1-.35-.7c-.13-.36-.21-.46-.54-.41s-.52.43-.27,1.09,1,.21,1,.21l.4.36a26.09,26.09,0,0,0,.45,3.29c-.55.29-1.22-1.58-1.41-2.15a4.06,4.06,0,0,0,1.56,2.83c.08.37.17.73.26,1.09a1.88,1.88,0,0,0-.13.38,1.56,1.56,0,0,0,0,.82,1.52,1.52,0,0,0-1.1-.22,1.66,1.66,0,0,0-1.09,2.25c.33.6,1.66.54,2.12.57s.76.55,1,.44a1.82,1.82,0,0,0,.41-.36c.3.83.58,1.63.85,2.37-.06.28-.26.23-.55,0a2,2,0,0,0-.54-.29l0,0a.84.84,0,0,0-.19-.92,2.07,2.07,0,0,0-.41-.25.82.82,0,0,0-.84.09c-.35.21-.52.54-.35.81s.67.16.92.41.57.39.79,0a6.27,6.27,0,0,0,.88.55,2,2,0,0,1,.52.36,13.42,13.42,0,0,1,.82,3.54A25.08,25.08,0,0,1,18,124c-.27.33-.53.66-.77,1h0c-.26,0-.78-2.12-.83-2.48s0-.51-.15-.41a9,9,0,0,0,.38,2.48,4.84,4.84,0,0,1,.11,1.22c-.45.85-.71,1.62-1.16,1.46a10.52,10.52,0,0,0-2.63-2.64l-.27-.51a11.34,11.34,0,0,0-1.33-4.19,16.75,16.75,0,0,1,1.09,3.87c0,.09-.24.22-.36.28l-.65-.33A6.83,6.83,0,0,1,9.7,120.9a.59.59,0,0,0,.08-.08c.27-.35.36-.43.49-.62s.19-1.11-.27-1.33-.95.35-.76.81c0,0,.08.11,0,.49a.86.86,0,0,0,.25.73,5.85,5.85,0,0,0,1.11,2.5,12,12,0,0,0-2.45-.67c-.43-.07-.83-.14-1.21-.22-.82-1.21-1.36-1-1.59-.61a.23.23,0,0,0,0,.24,10.8,10.8,0,0,1-5.38-3c.29,1.31,2.37,2.91,4.93,3.53s5.76,1.36,7.21,2.62a11,11,0,0,1,3.24,5.37c.34,1.74,1.12,6.73,1.12,6.73.83,5.31,2.71,12,3.23,15s-.42,11.88-1.35,13.34A18.9,18.9,0,0,0,16.71,170h5.73a44.64,44.64,0,0,0,1.77-10.95c0-5.11-2.81-16-3-18a14,14,0,0,1,.21-4s1.14-3.11,3.22-10.37q.39-1.36.75-2.82c.39,0,1.4-.16,1.56-1a2.44,2.44,0,0,0-.2-.43c.33-.33.68-.7,1.07-1.11a1.67,1.67,0,0,0,1.28-.41c.15-.21,0-.49-.17-.75,2.19-2.33,4.84-5.22,6.62-7.47l.74-.94c.37.1,1.09.22,1.17-.26s-.38-.42-.69-.35l.23-.3c.24,0,.78.06.93-.17s0-.37-.22-.47c.36,0,.8-.06.89-.28s-.14-.51-.35-.7l.27-.36a4.87,4.87,0,0,1,2.25-.68,36.45,36.45,0,0,0,9.64-2.73l0,0a1.6,1.6,0,0,0,1.09-.28.93.93,0,0,0,.35.33,1.09,1.09,0,0,1-.11.41c-.24.45-.07,1.85,1.21,1.67s1.08-1.41.7-2a.39.39,0,0,0,.27-.2l.1-.1a.2.2,0,0,0,.15,0c.33.62.85,1.06,1.46.84a1.19,1.19,0,0,0,.56-1.89c-.62-.7-1-.68-1.53-.4a2,2,0,0,1-.64.21c-.13-.06-.28-.09-.42-.16.71-.4,1.42-.84,2.1-1.3.28,0,1,.09,1.15-.33s-.08-.31-.38-.2c.47-.34.92-.69,1.35-1a.47.47,0,0,0,.75,0c.28-.31,0-.4-.34-.33a9.88,9.88,0,0,0,2.87-3.58,30,30,0,0,1-2.33,2.81c.07-.31-.1-.63-.35-.45s-.1.7,0,.84a10.5,10.5,0,0,1-1.22,1.09c-.24.17-.64.44-1.17.78.15-.26.1-.65-.2-.63s-.61,1.11-.61,1.11l0,0-.39.23c.19-.35.37-1-.55-1.43s-1.62.32-1.83,1c-.16-1.52-.89-2.48-2-1.36-.78.83-.1,1.63.66,2.19l0,.1a1.14,1.14,0,0,0-.27,0,1,1,0,0,0-1.05.84,1.48,1.48,0,0,0,.35,1.13l-.94.4c.41-.54-.33-.75-.54-.61s0,.57.16.75c-.4.15-.79.28-1.17.4a56.4,56.4,0,0,1-6.92,1.53c-1,.2-1.43.35-1.57.18l1.4-1.91c.42,0,1.6-.18,2.84-.44a.94.94,0,0,0,.27.9c.42.31.44-.21.65-.11s.78.19.52-.41a1.49,1.49,0,0,0-.41-.63c.32-.1.64-.2.93-.31l-.37.07a.65.65,0,0,0,.27-.82c-.3-.88-1.4-.21-1.8,1.09a6.51,6.51,0,0,1-2.45,0,60.3,60.3,0,0,0,5.46-9,2,2,0,0,1,1.19-.7A37.54,37.54,0,0,0,53,95a2.9,2.9,0,0,1,.42.59c0,.18.37.28.49.36s.06.27.41.27.5-.19.6-.57,0-.77-.22-.79a.31.31,0,0,1-.26-.23c.32-.09.64-.2,1-.31h.12c.19,0,.49,0,.55-.22,0,0,0,0,0,0l.77-.31a1.22,1.22,0,0,1,.5.34.8.8,0,0,0,1.11,0,.81.81,0,0,0,.27-.88,1.26,1.26,0,0,0-.67-.07,23.85,23.85,0,0,0,4.71-3.59,23.92,23.92,0,0,1-3.48,2.68c.16-.25.06-.59-.05-.62s-.15.22-.35.2-.26,0-.38,0,.08.29,0,.47l-.07.41a18.18,18.18,0,0,1-2.35,1.13.82.82,0,0,0,0-.26c0-.12.08-.31.08-.49s-.36-.28-.58-.14-.45.06-.53.34a1.78,1.78,0,0,0-.27,1,14.71,14.71,0,0,1-1.77.42c-5.47.93-6.05.82-6.07.51s.22-.58.32-.87a4.75,4.75,0,0,1,1-.68l1.28-.59.09.12a1,1,0,0,0,.48,1.22,3.8,3.8,0,0,0,1.75.28,2.27,2.27,0,0,0-.94-.78,1.23,1.23,0,0,1-.66-.73.7.7,0,0,0,.4.13,1.51,1.51,0,0,0,1.56.87c1.36-.1,2.25-.7,1.9-1.29s-2-.51-3,0a.33.33,0,0,0-.17-.33s.82.06,1.13-.5a3.07,3.07,0,0,0,2.17-1,.08.08,0,1,0-.12-.1,3,3,0,0,1-2,1,1.28,1.28,0,0,0,0-.45,1.32,1.32,0,0,0,.62-.3.08.08,0,0,1-.11,0,.07.07,0,0,1,0-.11,1.14,1.14,0,0,1-.54.25,1.94,1.94,0,0,0-.05-.2,7.26,7.26,0,0,0,.64-.5.08.08,0,1,1-.11-.11,5.66,5.66,0,0,1-.57.45h0c0-.12-.09-.23-.14-.33l.68-.89a.07.07,0,0,0,0-.11.08.08,0,0,0-.11,0l-.64.85A1.12,1.12,0,0,0,50.79,90a2.1,2.1,0,0,1,.45-.92.08.08,0,0,0-.12-.1,2.16,2.16,0,0,0-.5,1.07,1.68,1.68,0,0,0-.45.27,1.88,1.88,0,0,1,.25-1,.08.08,0,0,0,0-.1.07.07,0,0,0-.1,0A1.86,1.86,0,0,0,50,90.49a.91.91,0,0,0-.26.53c-.3-.38-.17-.48-.17-.48s.91-1.57-.16-2.2a1,1,0,0,0-.39-.15l.06-.26c.18-.37.65-1.21,1.14-1.29a.59.59,0,0,0,.4.27,2.14,2.14,0,0,0,1.17-.06.88.88,0,0,0,1,0c.57.53,3,.88,2.93-.37a1.43,1.43,0,0,0-1.56-1.47,1,1,0,0,0,.35-.59,1.41,1.41,0,0,0-2-1.42c-.17-2-1.79-1.33-1.6-1.37a.84.84,0,0,0-.4,1,8.16,8.16,0,0,0,0,.84c-.11-.49-.22-.84-.22-.84a2,2,0,0,0-.21-.42,47.85,47.85,0,0,0,2.5-6,32.09,32.09,0,0,0,1-3.77,1.58,1.58,0,0,1,.64-.29,1.15,1.15,0,0,0,1.1-.9c.16-.72-.61-.67-.8-.63s-.47.46-.71.63c.13-.73.22-1.45.28-2.15l0,0s.54.13.78-.2a2.25,2.25,0,0,0,.29-1.56.57.57,0,0,0-1,0c0-3-.77-5.49-2.76-6.48,1.68,1.24,2.7,3.35,2.6,6.57,0,.55-.08,1.15-.16,1.79a.81.81,0,0,0-.82-.75c-1,0-.45.69-.25,1.06s.52,1.46.91.74A41.25,41.25,0,0,1,50,81.6c0-.19,0-.37,0-.55.15-2.92.47-7.3,2.66-9.8-.74.62-1.57,1.68-2.22,4.6-.06-.62-.54-1.11-1.13-.93s-.27,1.55.2,1.72a1.33,1.33,0,0,1,.63.74c-.15.93-.29,2-.4,3.25,0,.45-.08.87-.12,1.27a.94.94,0,0,0-.3-.07,1.58,1.58,0,0,0,.09-.48,1.26,1.26,0,0,0-1.27-1.48,2.17,2.17,0,0,0-.83.34v-.16c0-.23,0-.45,0-.65.48-.69.74-1.23.43-1.21.09-1.33-.24-1.39-1.08-1.06s-.27,1.31-.27,1.31-.1,0,.13.61c.18.44.42.56.54.59a.5.5,0,0,1,0,.12,5,5,0,0,0,0,.67,1.37,1.37,0,0,0-.41.83,1.44,1.44,0,0,0,.69,1.35s-.28.64.17.87a13.57,13.57,0,0,1-.06,1.4c0,.54-.15,1.29-.21,1.68l-.3.49-3,4.79a2.2,2.2,0,0,0-1.53-.26c-.41-1.21-1.4-1-1.7-.43s.35,1.4.35,1.4-.35-.06-.35.43a.78.78,0,0,0,.41.61,1.45,1.45,0,0,0,.25,1.51l0,.53h0a.72.72,0,0,0-.64-.11l-.11,0a1.45,1.45,0,0,0,0-.36c.76-1-.71-2.3-1.3-2.55s-.84.18-.66,1a1.71,1.71,0,0,0,1,1.1.38.38,0,0,0-.05.37c.16.45.18,1,.53,1a1.51,1.51,0,0,0,.08.91,9.08,9.08,0,0,0,.45,1c-.21.56-.44,1.19-.71,1.94a18.55,18.55,0,0,1-1.8,3.42c-.53.42-1-.54-1.2-1.69s-.51-2.33-.22-2.74.07-.41-.12-.53l-.11-.07a1.58,1.58,0,0,0,.2-.36c.08.13.26.35.48.21a.68.68,0,0,0,.24-.64s1.3-.45,1.5-1.43-.14-1.6-1-1.07a2.77,2.77,0,0,0-1.23,2,1.49,1.49,0,0,0-.79-.75c0-.09,0-.18,0-.28l.3.07c.67.12.61-.43.61-.43.59-1.41-.12-1.62-.64-1.62l-.18,0c0-.24,0-.48,0-.72,0-.06.08-.1.14-.1s.56-.2.46-.35a.55.55,0,0,1,0-.53c.22.12.59.12.55-.29s-.41-.38-.68-.24,0,.37-.16.37-.17.12-.24.21c0-.5.09-1,.13-1.38,0-.14,0-.26,0-.37a.8.8,0,0,0,.36-1c-.15-.24-.3-.33-.45-.29s-.17,0-.26,0-.1.17-.13.36c-.25.29-.52-.19-.52-.55s-.14-.89-.3-.13.6,1.53.74,1.69c0,.48-.06,1.06-.14,1.71,0,.09,0,.18,0,.28-.25.14-.57-.24-.57-.24s.12.08.3-.28-.06-.6-.43-.62a.31.31,0,0,0-.36.33.45.45,0,0,0-.47.35c-.11.39.73,1,1,1.12l.45.22c0,.22-.06.45-.1.7a2.21,2.21,0,0,0-.76.64,1.58,1.58,0,0,0-.11.23,2,2,0,0,0-1.86.34c-.9.74-.82,1.21-.76,1.46a1.08,1.08,0,0,0,1.62.08l0,0,.53.34a1.6,1.6,0,0,0-.1.52V98a.73.73,0,0,0-.5,0,1.9,1.9,0,0,0-1.71-.4c-.33-.06-.84.23-.86.55s-.2,1,.86,1.36c.88.34,1.41,0,1.67-.39l0,0a.63.63,0,0,0,1-.34,2.35,2.35,0,0,0,.4.13,2.59,2.59,0,0,0,.84.11,1.7,1.7,0,0,1,1,1.53c.17,1.12.52,3.64.61,4.25-.25.37-.52.74-.79,1.12l-.07.06c-.85.72-1-.63-1.29-1.38a23.68,23.68,0,0,1-.71-2.48c.57.27.68-.18.68-.18s.08,0,.43-.12.43-.57.35-1.19-.6-.22-1-.47-.86-.1-1,.6a1.86,1.86,0,0,0-.65-.39,1.25,1.25,0,0,0-.68.88.75.75,0,0,0,.45.86.72.72,0,0,0,.57.69.7.7,0,0,0,.79-.32A20.22,20.22,0,0,1,35,106.4a4.78,4.78,0,0,1-.57,2.14c-.64.82-1.29,1.62-1.94,2.39-.13-.06-.22-.29-.28-.8a3.73,3.73,0,0,1,0-.75c.35,0,1.68-.25,1.7-.92s-.52-.7-1-.62-.52-.27-.46-.5-.45-.47-.78-.28-.47.3-.45.65a1.42,1.42,0,0,0,.83,1.63c-.08.6-.18,1.46-.2,1.8a2.4,2.4,0,0,1-.33,1c-1.07,1.25-2.07,2.36-2.87,3.22.06-.56.31-.47.5-.58s.11-.47,0-.59-.43.55-.55.63-.08-.31.08-.63a1.44,1.44,0,0,0,.27-.89.35.35,0,0,0-.58-.28.58.58,0,0,0-.21.4,4.41,4.41,0,0,0-.45-1.13c.5-3.26.88-6.31,1.13-8.75.19-1.78.32-3.44.4-5.05a5.65,5.65,0,0,1,.73-1,8.1,8.1,0,0,0,1-.82c.21-.25-1,.77-1.43.21l-.25-.29c0-.14,0-.29,0-.43a8.33,8.33,0,0,1,.9-1.28,10.59,10.59,0,0,0,1-.82c.2-.26-1,.77-1.44.2a4.29,4.29,0,0,0-.49-.54c-.05-2-.19-3.93-.43-5.93,1.18.07.51-1.6.2-1.72s-.1-2-.46-2a.43.43,0,0,0-.25.17c-.37-2.25-.82-4.49-1.36-6.54.51-.12.94-.47.53-1.37-.78-1.69-.17-1.27-1.43-1.86a62.54,62.54,0,0,1-1.07-8.64c-.14-1.45-.28-3-.47-4.59a1,1,0,0,1,.48-.08c.3,0,.41-.3.43-.85,0-.09,0-.16,0-.24a2.43,2.43,0,0,0,1.29,0c1-.28,1-.87.91-1.17a1.72,1.72,0,0,0-2.22-.71l0,0c.31-.65-.3-1.44-.3-1.44a1.61,1.61,0,0,0-1.29.15c-.08-.37-.17-.73-.26-1.09.06-.25.14-.56.22-.85.21-.77.06-1.19-.35-1.24s-.33.29-.34.61a.3.3,0,0,1,0-.08c0-.26-.06-.59-.11-1s.26-.75.47-.79.34-.2.41-.56c.4-.21.87-1.51-.07-1.6a1.74,1.74,0,0,0-.92.11A1.7,1.7,0,0,1,23,50c.1,0,.67,0,.72-.2s-.21-.16-.19-.37.26.16.37-.3-.18-.66-.46-.6-.48.49-.37.65,0,.32-.13.2-.16-.2-.21.17a2.36,2.36,0,0,1-.16.64c-.07-.74-.13-1.44-.15-2a32.61,32.61,0,0,0-1.27-5.79,5.73,5.73,0,0,0,.44-1,4.16,4.16,0,0,0,.62-.41c.2-.16.18-.61.29-.82s.21-.46.12-.46a.54.54,0,0,1-.37-.28c-.09-.16-.5-.5-.8-.25s-.44.51-.3,1.24a.88.88,0,0,0-.05.62.53.53,0,0,0,.2.25c-.11.28-.2.49-.28.66-.27-.89-.57-1.76-.87-2.52.07-.25.19-.7.25-.84s0-.31.19-.5.39-.51,0-.81-1.15,0-.44.87c-.22-.12-.34-.06-.34-.06A1,1,0,0,1,20,39.3a8.75,8.75,0,0,0-1.13-2.12,45.51,45.51,0,0,1,2.79,9c-.23.12-.83-.37-1-.49s0-.43,0-.7a.63.63,0,0,0-.23-.56,1.13,1.13,0,0,0-.69-.45c-.42-.08-.64,0-.68.6s.49.92.64,1.11-.08.15,0,.2a6.58,6.58,0,0,1,1.11.27,2.75,2.75,0,0,1,1,.85c.08.53.15,1,.19,1.55,0,.16,0,.31,0,.46a2.29,2.29,0,0,1-.25-.38c0-.14.11-1-.32-1s-.58.55,0,1c0,.18.46.91.46.91l.16.16c.13,1.55.2,2.51.19,3a71.59,71.59,0,0,0-4.42-8.15,3.85,3.85,0,0,1,.42-.8c.09,0,.62-.26.58-1.16s-.45-.8-.62-.8-.54.66-.54.91a6.23,6.23,0,0,0,.2,1c.06.2-.07.31-.28.45l-.49-.82c-.07-.11-.14-.22-.2-.33h0a9.16,9.16,0,0,1,.48-1.69,4.16,4.16,0,0,1,.53-.94c.17-.11.86,0,1.2-.34.44-.09.49-.32.47-.58s-.2-1.09-1.31-.21l0-.13a1.78,1.78,0,0,1,.28-.91c.28-.39.51-.73.15-.91-.05-.47-.09-1-.65-1a.24.24,0,0,0,0-.16s1.35.19,1.56-.58S19.18,34,19.12,34l.23-.1c.24.13.59.1.62,0,.12.4.74.47,1,.34.3,0,1.37-.38-.22-.9v0a5.62,5.62,0,0,0,1.72-1.43,8.3,8.3,0,0,1-1.78,1.22c-.29-.7-1.1-.18-1.1-.18s-.43-.06-.45.52a.49.49,0,0,0,.06.25l-.13,0a1,1,0,0,0-1-.33c-.13-.41-2.43-.77-2.32.53a1.14,1.14,0,0,0-.56,1.26.7.7,0,0,0,.15.32c-.22.12-.41.21-.53.26a1.21,1.21,0,0,1-.83.1c.06-1.36.16-3.13.42-5.29a11.57,11.57,0,0,1,1.15-.23A1.08,1.08,0,0,0,16.27,29c-.21-.77-.69-.59-.83-.68a.8.8,0,0,0-.77.14c.16-1,.36-2.07.6-3.2a3.82,3.82,0,0,1,.61-.66c.26-.19.81-.73.82-1s-.6-.61-1-.23c.25-1,.52-2,.84-3.09a43.21,43.21,0,0,1,5.8-12.14A4.83,4.83,0,0,1,23.1,8c.13,0,0-.49-.2-.6L23.17,7a1.27,1.27,0,0,1,.06.41c0,.28.56.45.68.11a.49.49,0,0,0-.44-.6.78.78,0,0,1-.22,0,45,45,0,0,1,3.11-3.74c2.66-2.86,7-3.1,7-3.1S29-.56,24.77,4.47Z"/></g></g></svg>