<svg xmlns="http://www.w3.org/2000/svg" viewBox="0 0 177.79 123.64"><title>梧桐</title><g id="图层_2" data-name="图层 2"><g id="图层_1-2" data-name="图层 1"><g id="梧桐"><path d="M151.32,109.16h0Zm26.14-32.85c.11-.28-.29-1.46-.57-1.52a2.36,2.36,0,0,1-1.24-2.14c-.33-.56,0-1.07.4-1.52-1-.06-1.3-1.75-1.69-1.63-.12-.12-.28-.23-.23-.4-.17,0-1.29-.17-.9-.73h-.62s.28.68-.11.73c-.17-.39-.79,0-.79-.73.11-.06.17-.23.28-.17,0-.22.11-.56-.11-.73s-.28.11-.4.22c-1.24.17.22-.57-.07-1,.29-.45-.32-.89-.09-.83-.29-.29-.57-.34-.62-.79,1-.4-.29-1.19.16-1.81l-.9.68-.39-.51c.28-.39-.11-1.07.28-1.41a.44.44,0,0,1,.18-.16.39.39,0,0,1,.38,0,.33.33,0,0,1,.17.16l.08-.16.2-.46-.56-.16c-.11-.51-.34-1.58.17-1.64.34-1.07-1-1.07-.39-2.14,1.12-.51,0-1.58,0-1.91l-.4-.51c-.45.39-1.07.62-1.24,1v-.11c-.34.51-1.35-.17-1.12.79-.12.62-.36,1.26-.87,1.37,0,0-.6.49-.82,0-.51-1.46,1.35-2.48,2.42-3.44-.06-.33.17-.95.73-.62.34-.45-.39-1.18.51-1.23l-.45-.4c-.06-.62-.29-1.13.22-1.63-.34-.12-.22-.68-.73-.51-.56.39-.51.73-.9,1.41-.4,0-.9-.51-1.13-.17-.22-.11-.84.11-1.07-.39l-.34.28c-.62-.74-1-.45-1.91-.62.45-1.24-.73-1.07-1.13-2a2.91,2.91,0,0,0-1-3c.22-.4,1.07,0,.9-.68a12.6,12.6,0,0,0-2.54.06c.06.45-.39.73-.67,1-.9-.46-.4-1.24-.85-1.75.57-.11.68-.73,1.35-.51.23-.73,1.64-.22,1.13-1.41a1.74,1.74,0,0,0-1-.73c-.5,0-.56.4-.79.73-1.52-.5-1.52,1.75-3,1.52-.5-.11-.28-1-.5-1.4-.17-.79-1.24-.23-1.81-.51-.22-.56-.9-1.35-.5-1.86h-1c0,.23.06.45-.11.62-.79-.06-1.8-.23-2-.79-.22.23-1.07.79-1.52,0,0-1.24-1.52-1.41-2-2.37.23-1.35,1.52.06,2-1.18l.28.28c.62-.11,1.41.29,1.86-.28l.17,1c.84.45,1-.4,1.52-.74-.22-.56.85-.56.62-1.12.85-.4,0-1.24.73-1.81l.17.17c1.21,2.5.37-.07,3.38,2a4.83,4.83,0,0,0,.79,2.71,13.06,13.06,0,0,0,2.65-1.3l-.34-.62c.28-.39.62-.9,1.35-.73.17-.39.85-.28.62-1-.45.22-.34-.28-.62-.4-.62-.11-.9.57-1.41.62.12.45-.67.45-.73.51-.39.17-1.13.22-1.13-.39.85-1.37.46-2.88.6-4.31a3.56,3.56,0,0,1,.53-1.67c.11,0-.56-1.24-.28-2.14-.28-.39-.56-.95-1.24-.73a7.16,7.16,0,0,0-4.06-1.3c-.45.46-.84,0-1.12-.33l-2.14-.28c-1.13-1.75-1.81,1.18-3.1.78-.28.74-1.3.45-1.64,1.36-.84.33-1-1.3-1.85-.91.22.4-.34.51-.51.57l.51.5c.22.51-.29.46-.4.74-.84-.51-1,.9-1.8.39-.11-1.24,1.52-2.08.51-3.43-1-.29-.23,1-1,.9-.62-.12-.84.17-1.35.33a3.18,3.18,0,0,0-.28-.84,1.31,1.31,0,0,1,.79-1.18c.67-1-.4-1.92.5-2.76a.91.91,0,0,1-.9-.74c.73-.56,1.86-1.35,2.88-.9.05.73-.91.23-1,.73.23.46-.51,1-.11,1.64.9.28,1.46-.62,1.91-1.13,1.13-.11,1.07,2,2.26,1.13,1-.45.34.9,1.18.67a6.26,6.26,0,0,1,1.41-1.52c-.06-.28-.06-.9-.51-.79a2.52,2.52,0,0,1-.56-.73l-.45-.62c-.11-.28.05-.84.45-.9l.51.51c.22,0,.45.05.56-.17a.5.5,0,0,0,.51.17c-.12-1.41,2.19.28,1.74-1.41a2.9,2.9,0,0,0-1.52-.23c-.76-.36-1.56-.84-2.39-1.16a2.38,2.38,0,0,0-1.28-.33,1.74,1.74,0,0,0-.1.59c-.17.28-.51.28-.79.4a2.44,2.44,0,0,0-.09-.66,1.57,1.57,0,0,0-.81-1l-.4.39-.5-.73c0,.79-1,.22-1.24.51.56-.57-.68-1.24-.23-1.81,0-1-1.18-.22-1.52-.62,1-.73-.23-1.69.34-2.64a2.78,2.78,0,0,1,1.52.95c.56.17.9-.28,1.29-.45.79-.62,1.86-1.07,1.86-2.31-.28-.62-.79-.17-1.35-.28-.45-.56-1.58-.22-2-.73h-.62c-.73-.23-.28-.79-.39-1.24-.28.06-.62,0-.68-.28-.39.28-.9-.17-1.24-.73.45-.29.4-1.07.79-1.41l-.28-.17c-.39-1.86-2.76-.73-3.83-1.24l-.51.51c-.9-.23-.39.95-.84,1.24.9,1-.68,1.35-1.18,1.91-.06.68-.9,1.23-.34,2l-.62-.1c-.74-1.36,1.41-2.2.34-3.33-.4.06-.85-.22-1.13.17.56-.84-1.18-1.69,0-2.2-.85-.73-1.18,1.08-1.64-.33-.9,0-1.85-.9-2.3,0-1.81,1.52-1.64-1.52-3-.79a.57.57,0,0,1-.22-.73c-.51.11-1.41-.34-1.64.39-1.4.23-.67,2.14-1.91,2.76,1,0,1.58-1.24,2.14-1.63-.17,1,1.13.28.79,1.35-.06.56-.68.28-1,.51A1.33,1.33,0,0,0,120.9,5c.45,1.13,1-.33,1.74.12.51.78-.45,1.07-.84,1.63-.85.34-1.47-.51-2.2-.79-1.18,1.07-1.75-.62-2.54-1.13a1.86,1.86,0,0,1-1.85.91c-.4.84.28,1.52.73,2-.68.45-1.3,1.47-1.41,1.24l-.51.68c-.62-.51-1.46-.17-2.14,0A2.87,2.87,0,0,1,110.36,9c-.73-.5.45-1,.51-1.52-.17-.73-.06-1.24-.85-1.12a2.77,2.77,0,0,0-1.69,1.4c-.84-.22-1.18,0-.84-.22,0-.68-.73-.73-.51-1.41h-.39a1.14,1.14,0,0,0-.51.51c-2,.5-1.58-2-2.54-2.71l-1.8,1.58c-1.66,1.18-.62,1.52-.62,1.52l.51.34c.34.51,1.24.22,1.75.62-.12.39-.34.79.16,1.07,1.58.45-.39,1.41.23,2,1.3-.34,1,1.57.79,1.52-.34.62.17.56.51.84.11.62-1.19.68-1.19.68l-.45.45-.17-.23c-.11-.39-.42-1-.08-1-.68.11-1.16-.14-1.83.43-.06-.46-1-.34-.51-.91a1.93,1.93,0,0,0-1.46-.11c-.29-.11-.12-.45.11-.62.05-.34.84-.17.39-.67l.23-.23c.56-.11,1.07-.84.53-1.17-.42.39-1.38.38-1.32.16a12.06,12.06,0,0,1-2,1.12,5.55,5.55,0,0,0-.73,2c-.68.79-.11,1.18.39,1.8-.11.85-.62-.28-.9.34-.17-.51-.45-.39-.79-.73-.17-1.13-.9-.45-1.46-.4-.06-.45-.11-.73-.68-.61-.11.28-.28.84.17,1-.23.55-.09.46-.43.74-.08.06-.47.27-.53.39,1,1.29-1.63.05-1,.28a1.57,1.57,0,0,0,.27-.66c.09-.46,0-.94.12-1.43-1.13-1.29-.51,1.07-1.8.51.17-.68-.34-1-.28-1.75-.68-.33.73-1.18.39-1.74-1,.73-1.8,1-2,2.25-.28-.68-1-.45-1.52-.11-.34-.62-.84.34-1.13-.17.29-1.58-1.57-1.69-.9-3.38-.84-.23-1,.39-1.63.62-.51-.34-.23-1-.62-1.41-.85.06.11,1.41-.9,1.18-.4-.22-.11-.73-.23-1.07-.9-.5-1.07.85-1.69.9-.11-.11-1.24.51-1.24.51-1.57.34.06-1-.39-1.41-1-.11-1.63.85-2.54,1.07a1.28,1.28,0,0,0-.11,1.24c.28.34.51-.17.73-.28.57.11.12.62.4.9-.23,1.47-2.14,2.48-3.44,3.33a.49.49,0,0,0-.07.24c0,.3.42.3.47.77-.23.11-.4.56-.74.51-.17.39-.73,1.07,0,1.35.22-.62,1-.51,1.41-1l.55.71a2,2,0,0,0-.55,1c-.51.45-1.36,1-1.41,1.63.5.11.67.23,1-.22,1.47-.68.79,1.18,2,1.12.34.79-.68.79-.73,1.3-.4-.17-.06-.73-.28-1-1.08,0-1.75,1.24-2.37,2l-.28-.34c.17-.11-.74-1-1.41-.4-.51-.33.06-.73-.11-1.24-.29-1.8-.79.85-1.92.12-.62-.45-.17-.9,0-1.41,2.65.11,1.18-2.31,1.41-3.78l-1.52.85c-.74-1,.87-1.21.78-2a.89.89,0,0,0-.16-.41,5,5,0,0,0-.72.41,1.59,1.59,0,0,0-.8,1.67c-1,1.64-1.69,1.75-2.48,3.27-.57-.17-.4,1.13-1.07.62a12.38,12.38,0,0,1,2.42-3.16A1.57,1.57,0,0,0,65,17.27c-.39,0-.74.57-1.31.46.23,1-.57,1.68-.91,2.47-.51-.23-.79.06-1.3-.17C61.29,18.74,63,18.34,63,16.77l-.62-.28a1.28,1.28,0,0,0,.35-1,3.67,3.67,0,0,1,.1-1.26c1-.79-.45-1.46-.73-2.31-.22.34-.39.73-.9.68-.28.11-.45-.23-.51-.4a.85.85,0,0,0-.9.4c-1,.05-2.14.51-2.76-.4-.17-.62.34-.9.51-1.4h-.9c-1.19.56-.9,2.25-2.65,1.63-.23.22-.51.62-.79.17l.28-.68c-.45-.22-1.8-.56-1.74.28a1.31,1.31,0,0,1-1.53.74c-.9.39-.56.9-.78,1.69.62.19.7.51.55.86a3.8,3.8,0,0,1-1.17,1.16,1,1,0,0,1-.4,1s-.11.39-.22.73c.62.51.5,1,1.24.9.22,1.19-1.19.34-1.53,1,.51.9-.84,1.52-.78,1.4-.4.51-1.36.51-1.47,1.36s.79,1,1.13,1.29c.67.06.22-.39.62-.67a1.58,1.58,0,0,1,1.29-.45,2.86,2.86,0,0,1,3-.4c-.12,2.09-2.48-.39-3.1,1.41-.23.51-.57,1.07-.12,1.52l.62-.17c.29.45-.33.57-.45,1-2.25-.79-.56,2.31-2.31,2.64.23.34-.22.68-.22,1.07h1s1.12-.39,1.4-.9c1.24,1.07,1.19-1.35,2.43-.79,0,0,1.63,1.07,2.31.29.28.84-.79,1.12-1.19,1.52-.62.39-1-.45-1.63-.4a1.43,1.43,0,0,0-.22.88,4.17,4.17,0,0,1,0,.93c-.45.67-1.57.84-1.07,1.85.34.17.29-.33.57-.33.45.56-.06,1.69.84,1.86.51-.34.85.11,1.3.9s1.07.17,1.63.39c.28.62-.5,1-.79,1.52-.67-1-1.52-.05-2.36-.28-.12.17-.34.28-.4.51.4.34.85.17,1.3.5.28.17-.06.4-.06.62-1.24,0-.5,1.47-1.46,1.81a5.26,5.26,0,0,1-.28-1c-.51.06-1.07-.17-1.41.23-1.24-.34-2.14-.73-3.27-.11-1,.78-.39-1.08-1.41-.62a2,2,0,0,0-.79.9c-.79.28-.17.73-1,.84L40,41.33a1.81,1.81,0,0,1-1.24-.62c-1-.28-1.47.45-2.25.9-1-.06-.62,1.07-1.3,1.52.17,1.69-2,.57-2.82,1-.22,1.24-1.69,2.27-1.18,3.51.68.23.32,1.5,1.34,1.16.28-.45.63-1,.35-1.24a5.11,5.11,0,0,1,2.31-2.19l.28.28c-.34.34.23.28.23.62-.51.39-.74,1.12-1.52,1.12.67.68-.74,1-.74,1.92.45.22.62,1.24,1.36.73.39-.34.61-.9,1.12-1,.28-.17.28.28.4.39-.34.34-.68,1-1.24,1a.79.79,0,0,0-.28,1.12c-1.64.73-.23,2.82-1.24,3.83-.68-.22-.57-.84-.29-1.29-.5-.12-.39-.23-.73-1-.67.12-1.91-.45-2,.79a9.2,9.2,0,0,0-1-.39c-1-.85-.68.73-1.3,1,.51.68-.62.68-.9,1.3A.43.43,0,0,1,27,55.3c-.28-.84-1.07-.9-1.63-1.41-.11-.5.68-.17.45-.73-2-1.13-.56,2.31-2,2l.23.5c-.4.46-1,.12-1.41,0,.05-.45.67-1-.12-1.35-.5.84-1.52.9-2,1.74,1.07,1.92-2.48,2.82-.62,4.34.5,0,1,1,1.63.34.7,0,.29.67.23,1.13a.43.43,0,0,0,0,.16c-.46.62-1.36.51-2,.51-1.07.62.45,1.52.12,2.54-.4,1.18-.68-.85-1.41-.29a1.77,1.77,0,0,0-1.75,1c.51,2.08-2.36-.11-1.91,1.91-1,.17-1.3-.84-2.14-1.35a16.63,16.63,0,0,0,.5-3.32,1.59,1.59,0,0,0-1.41-.51c0,.23.12.51-.11.73s-.62.68-.9.17a.68.68,0,0,0,.11-.9h-.5c0,.62-.62,1-.91,1.52-1-.45-.45,1.3-1.4.62-.74.68-2,1.13-2.37,2.2.06.62.11,1.86.11,1.86s.28.17.23.28c.11-.11.22-.28.39-.28a1.92,1.92,0,0,1,.11-.62c.74-.73,2-.4,2.43-1.64a1.75,1.75,0,0,1,1.52.51c-.51.4.17.4,0,.85-.79.45-1,2-1.92,2.31l-.45-.62-.17.22c-1.41-.62-1,2-2.25,1.13C5.92,72.2,4.23,72.93,4,74.06l1-.17s.29-.39.51-.45v-.17c1.07-.84,1.92.9,2.82,1.3,1.58-.4.62-2.26,1.63-3,1.92.9-.22,2.19-.11,3.26,0,0,.73-.22.79-.5,1,0,1.63-1.86,2.87-1-.06.34-.51.23-.51.62-.9.17-.45.79-1.24,1.18l-.39-.28-.11.12c-.06.67-1.35,1.35-1.3,1.18-.22.34-1.46-.28-1.41.62a.6.6,0,0,1,.4.73.46.46,0,0,0,.67.06c.29,1-.79,2-1.41,2.76-.11.84-1,1.29-1.52,1.52l-.28-.28c-.67-.34-.84.56-1.41.79-.17,1.4-1.69,1.91-1.86,3.43,1.36.17-.45.9.4,1.41-.34.51-.85,1.18-1.52,1,0,.62-.45.68-.79,1C.11,88.88.11,90,0,90.68c.62.79,1.18-.11,1.52-.28a.75.75,0,0,1-.06,1.29c1.13.45,1.47-.73,2.2-1.07.73.57-.39.85-.28,1.52.45.12,1.52-.33,1.8.4a1.12,1.12,0,0,1,0,.2c-.09.3-.43.08-.71,0H4.27c-.1.39-.11.93-.5,1.09C4,93.89,4,95.26,5,93.72a2.68,2.68,0,0,0,2.25-1,3.5,3.5,0,0,0,.35-.6c.16,0,.33-.11.45.06a1,1,0,0,1,.29.54c.17.74-.43,1.66-.74,2.33.56.57,1.46-.22,2-.11a2.61,2.61,0,0,1,.85-1.75c.56-.16.62.4.9.62l-.39.4c-.51,1.52-2.15,2.53-2.26,4.39.11,0,.28-.05.34.11.39-.28,1.24-.22.9-1,1,0,.79-1,1.8-.51,1-.51.74-2.42,1.92-2.59a14.72,14.72,0,0,0,.44-1.94,1.18,1.18,0,0,1,.07-.2c.5,0,1-.45,1.46,0a.31.31,0,0,1-.22.11v.09c0,.28.78.47.78.47s.17.85-.28,1a3.9,3.9,0,0,0-.79,2h.4c.17.17.73.68-.73,1.41-.29.11-1.13-.28-1.19.28-.56.62-1-.23-1.63-.11-.62,1-1.92,1.63-1.92,2.87a.44.44,0,0,0,.51-.34.82.82,0,0,1,.79.34c.51-.51.62-1.63,1.41-1.35-.11.45-1,.73-.4,1.35.85-.68,1,.73,1.64-.11.17-2,3.1-.57,3.32-2.42l.34.28a2.35,2.35,0,0,1,1.18-1.81l.62-.62c.45.79-.56,1-.73,1.81.11.39.62.45.45.84l.28.28c-.28.29-.28.34-.11.62.51.23.39-.33.84-.39.29-.9,1-1.86,1.3-2.76.17.11.06.28.11.39-.56,1,.74,1,.9,1.64-.84,0-1.52,1.57-2.42,1.74,0,.68-1.13.51-.62,1.3.45.22,1.3.11,1.13-.62,1.13-.51,2.31.62,3,.45.68-.68,1.41.17,2.54-.23.84.29.9.57.67,1.41l.62-.17c.23.06.11-.33.62-.5,1.3-.4.06.62.62,1.07,0,0,.45.11.51.5a22.49,22.49,0,0,0,.51,2.65l-.3,1,.58,0c.73.17.39-.9.33-1.07.46-.11.4-1.46.57-1.46a.5.5,0,0,0-.17-.51c.56-.79-.34-2.14.68-2.53l.11-.91s0-1.46.84-1.52l-.5-.67c.33-.34.67.11,1,.28l-.23,3.77c.51.45,0,1,0,1.69.85.4-.28.79,0,1.36a5.77,5.77,0,0,0,1.41-.23c-.28-1.52.57-3.27.12-4.28l.39-.28c.28-.34.39.22.73.11V100s-.67-.73-.11-.9c.11.06.68-.73.9-1A6.63,6.63,0,0,1,39,98c.29-.39.68-.39.68-.9.28.23.28.85.85.62.28-.62,1.12-1,.67-1.86h-.62c.06-.45-.84-.28-.67-.9.5-.56.22-1.3.39-1.8-.68-.23-.73.28-1.13.5a2.47,2.47,0,0,1-1.46-.92l-.06-.09c-.79.28-.79-.56-1.29-.84-.23,0-.51-.06-.51.22l-.4-.62c.62-.73,1.53-.22,2.31-.79,1.58.06,2.54-.79,3.84-1.35l.22.34c-.39.34.28.79.23,1.29.17.62.17,1.58-.45,1.81l0,0a4.55,4.55,0,0,1,.2.92c.73.06.5-.38.78-.72,0,0-.31-1.83.23-2.26a5.72,5.72,0,0,1,.4,2.14l.22,1.24h.17a3,3,0,0,0,.11-1.32c0-.18.12-.6.34-.6a2.11,2.11,0,0,1,.3.6,15,15,0,0,1,.1,3l.6,1c.11-.74-.09-2.14.3-2.76a1.88,1.88,0,0,1,.17-1.21,1.69,1.69,0,0,0,.06-1.44c-.12-.51-.4-1.13.28-1.3.45.23-.12.62.22.79.75.49.63,1.21.58,1.95a2.52,2.52,0,0,0,.1,1.09c1.35.23-.4,1.41-.11,2.26l.22.28c1.13-.51-.22-1.3.9-1.8a7.54,7.54,0,0,0,.15-1.83,4.32,4.32,0,0,1,.7-3c.56.11,1.07-.4,1.57.22.12.68,1.36,1.3.34,1.92a.77.77,0,0,1,.28.82c-.08.5-.38,1-.28,1.21,0,0,.74,3.43,1,5.18h.28c.05-.68-.11-1.13.22-1.63-.22-1.46,0-3.14-.22-4.76v0c.9-1.47-.45-3,.39-4.57,1.07-.5.06-2,1-2.7.45-.56.68-1.13,1.3-1.35,2.53,1,5.85.34,8.84,1,1.8.9.73,2.76,1.3,4.22a20.17,20.17,0,0,0,0,3.47,37.56,37.56,0,0,1,.23,3.85h.51c.11-.16-.06-.28-.17-.39a6.17,6.17,0,0,0,.11-3.46,3.62,3.62,0,0,1,.28-2.34c.56-.74-.73-1.75.28-2.31l.62.9c.51.45,1.41.67,1.86,1.18l2.59.11c.06.46.51.29.85.34a5.79,5.79,0,0,0,1.29,1.07h.51a7,7,0,0,1,1.3,1c1.81,1.8,2.85,4.54,3.77,6.9.73,2.53,1.75,4.78,2.65,7.38a19.15,19.15,0,0,1,1.91,2.53c1.52,1.3,3.16,2.42,4.17,4.06.62.56,1.3,1,1.3,1.86,1.86,1.12,1.12,3.6,1.46,5.35.06,1-1.29,1.63-1.24,2.53,6.2.29,9.64-.11,15.83.29,1-.46,2.26-.23,3.44-.29.34-.39.79,0,1.24,0,.11-1-1-1.07-1.52-1.63-1.41-.06-1.8-1.75-3-2.65a50.93,50.93,0,0,1,.45-6.25c1.07-1.52.62-3.72,1.3-5.41.34-.45.11-1.3.62-1.58l.11-.73c.68-1,.62-2.37,1.18-3.44.57-2.08,1.41-4,1.92-6.08a31.21,31.21,0,0,0,1.39-2.84c.85-1.87,1.8-3.67,3.79-4.48.45.9-.73,1.18-.9,1.74a4.53,4.53,0,0,0-.51,2.74v.42l.29-.11c0-.11,0-.22,0-.31s0-2.12.94-2.57a17.32,17.32,0,0,1-.12,2.57,4.37,4.37,0,0,0,0,.81,37.07,37.07,0,0,0,.9,4.06c.4-.45,0-1.41.79-1.41l.11-1c.4-.34-.39-.84.34-1.07.28.51,1,.85,1,1.58l.16-1.92c-.11-.38-.43-.76,0-1.09l0,0a.44.44,0,0,1-.16-.51c.45-.06.84-.28,1.29.11a2.19,2.19,0,0,1,.15.43c.38,1.47-.37,4.36-.37,4.36-.17.9-.51,2.65-.06,3.55.56.06.17-.11.56-.34l.12-2.31c1.46-1.07.78,1.75,1.52,1.75a4.34,4.34,0,0,0,.22-2.87V95a.66.66,0,0,1,.68-.28c-.23-.34,0-.73.11-1l1.35,1.58c.23.45,1,.34,1.41.45-.06-.56.68-.28.4-1,0-.17.28-.51.62-.4.84.23-.34.4,0,.9.67.62,1.23-.34,1.69-.56l.22.17c-.34.39-.06,1.29-.73,1.24,0,0-2.14,1.41-2.31,2.64,1,0,1,.68.79.57-.17.45-.85.79-.57,1.46.74.17,1,.79,1.3,1.41.62-.22,1.13.4,1.52.11h.39l.34.29c.68-.51,1.3-1.36,2.09-1.53.28.51-.11.67.34.95,0-.4.56,0,.62-.66a.42.42,0,0,1,.5-.29c.34.17.06.4,0,.62-.05.85.79.29,1.07.4.23.73-.55,1-.88,1.58a.53.53,0,0,1-.19.84c-.39-.11-.56-.45-.62-.9-.84.45-.39.9-.5,1.75-.46.45.05,1.29-.85,1.18a.94.94,0,0,0,.51,1.13c1.12,0-.17,1.69.84,1.91a5,5,0,0,0,.12-2.42c.33-.17.5-.56.9-.73a2.89,2.89,0,0,1,1.12-.79c.34.84,1.3,0,1.81.73v3.44c1.29-1,.28-3.44,1.74-4.45.17-.79-1-.62-.62-1.36.51-1,.85.62,1.13.4l.56-.68c.79.23,1.86-1,2.14.28l.71.73c1.12.79.14-1.51.7-1.51-.11-.06.23-.51.34-.62.23-.74-.85-.62-1.13-.74-.39-.33-.11-.9-.22-1.41-.4-.67-1.47-1.23-1.41-2.19-.56-.11-.9.17-1.3-.23.62-.84-.79-1.12-.33-2,1-.5,1.4-1.91,2.53-2,.23-1.19,1.3-.4,2-.74.68.34,0,.85.17,1.36,2,1.29-.84,3.38.11,5.07.29.11.51-.17.74.28l.39-.28c1-.17.56,1.52,1.69,1.18.4-.4,1.13-.45,1-1.07.05-.51.56-.62.9-.85.68.34-.06.79,0,1.24.62.85.45,2.31.51,3.16h.39a4.34,4.34,0,0,1,.52-1.42s-.69-3.2.27-4.38l.45.39-.22,2.76.73-.73.56.9c.68,1.13-1.24,1.13-.39,2,.22.79-.4,1.63-.17,2.65,1-.12.79,1.12.79,1.52a4,4,0,0,1,.11,2.13l1-.11c.12-.33.28-1-.34-1,.12-.73-.22-1.63.34-2.2h.4a.43.43,0,0,1,.5.17c-.78,1.35,1.07,2.14,0,3.27.74,1,.29,2.42.4,3.66h.51c0-1.8-.45-4.11.33-5.91.34.84.06,1.4.51,2.14l.37-.8c.74-.45-.82-2,.42-2,0-.34,0-.79.28-.9-.06-.29.23-.85-.28-.91.22-.22.34-.73.9-.62-.06-.78.85-.45.9-1.12.23.22.62-.34.85.11-.34.11-.12.45-.34.62.39.06.45-.17.73.11l.62-.22c.56-.28.45-.85.62-1.3.4,0,1,.28.9.4.17.5.45,1.18,1.13.9-.17-.06,1.75,0,2,.73a1.11,1.11,0,0,0,.79-.85l-.62-.16c0-.68-.91-1.19-.29-1.86-.28-.79-1-.79-1.63-1.19a2.67,2.67,0,0,1-1.8-1.24c-.57-.22-1-.62-1.52-.9-.23-.73-1.52-.22-1.75-1.24-.79.45-1.24-.39-2-.67-.73-1.3,1-1.35.9-2.37h-.17c-.42-.71-1.28-.64-1.94-1a1.44,1.44,0,0,1-.59-.54c0-.68-.56-1.24.39-1.58,1.24,1,1-1.12,2-1,.68.51.62,1.3.62,2h.57c0-.22.22-.39.22-.28.06-.39.68-.79.28-1.29.45-.51.9-.85,1.52-.46.45-.56,1.13.12,1.13-.9,1,.06.28-.84,1.24-.79-.45.85,1.29,1.24.28,1.81.71.82.31,2.06.69,3h0c-.09-.56.46-1.31.14-2.06-.12-.51.56-.23.5-.79.28.06.62.51.79.79-.21.73.15,1.45.16,2.06a1,1,0,0,1-.55,1c-.12.28.17.85.67.62a14.42,14.42,0,0,0,.16-1.6c.07-1.14.07-2.39.07-3.47-.11-.73.67-1.58.11-2-.84-1.41.25-1.45,1-2.31.5-.09.5-.39.78.28,1,0,.57-1.35,1.53-1.69.28.17.95.17.84.57.06.22-.17.28-.11.45-.73-.06-1,.9-.85,1.58a1.91,1.91,0,0,0,1.52-.17c.74.22.23,1.63,1.24,1.12.62-.45-.28-.84,0-1.24-.5-.56-.22-1.12-.22-1.74.45-.11.17-.51.5-.68.23-1,1.36-.51,1.86-.62-.05-.39,1-.87-.62-2.42-.33-.11-.33.34-.5.51-.34-.17-.9,0-1-.51.79-.62,2.09-1.06,2-2.18-.12-.65-1.08-.25-.91-.21,0,.11-.35.54-.18.59-.35.29-.66.39-.82.28-.34-.51.16-.85.39-1.24a7.24,7.24,0,0,1,.21-1.35c-.19-.51.8-1.3.8-1.3l.12-.51c1.91-.33.56,2.26,1.29,2.54.34-.06.57-.28.9-.17.23.28.91.56.51,1-.22.85.56,1,.62,1.19.17,0,.28.22.39.34.46-.29,1.69-.23,1.86-1-1-.67.68-1.46-.33-2ZM32.67,90.51a2.22,2.22,0,0,0,1.81-.34c-.4-.51.11-1.74-.79-1.69a1.36,1.36,0,0,0-1,2Zm2.54-3.44c1-.33,2.14-1.07,3.27-.62a3.14,3.14,0,0,0,2-.5c.5.33.56.9,1.07,1.41.33,1.4-1.19,1.35-1.81,2a3.55,3.55,0,0,0-2,.79l-2.14.11c.06-1.12-1.46-1.82-.45-2.61l.06-.6Zm2-5,.11-.56c.39.11,1.24.56,1.41,0s.28-.51.79-.62H40c-.17.28,0,.9.39.9.68.17.34-.57.68-.79a10.85,10.85,0,0,1,2.53-2.48c.74-1.3-1.8-1.3-.39-2.31.79-.34,1,.56,1.24.9-.34.73,1,.62.28,1.13.79.84-.68,1.63.11,2.31.12,1.13-.56,1.91-.62,3l-.39-.5c-.45.5-1.69,1-1.24,1.8a1.16,1.16,0,0,1-1.52.51c.11-.79-.79-.51-1.18-.74l.28-.9.11.12c.39-.17.11-.51.23-.79-.34-.57-.68.17-1,0l-.34.45-.62.17-.5-.17a1,1,0,0,1-.4.57c-.73-.06-.05-.51-.51-.9-.28-.51.74-.79.12-1.13Zm7.38-13c.22,0,.39,0,.5-.22.34.9,2.48,1.57,1,2.65-.79-.17-1,.61-1.18,1.12.39.06,0,.62-.12.73-1-.11-.62-1.4-.39-2,.9-.45.39-1.69.17-2.31Zm0,15.72.53.48.48-.48c1.24,1.18-.67,1.63.11,3.27.23.11-.11.28-.16.39-.91,0-.4-1.35-1.24-1.52.56-.56.22-1.41.28-2.14ZM46.76,67.3l.84-1h.68c.51-.23.15-.29.73,0,.17.28.45.23.62.51s-.34.51-.51.73c-.84-.22.06.79-.84.73-.28.17-.9.4-1,.79-.17-.5-2-1.69-.51-1.8Zm1.41,13.75c.64.16.4.34.45.62a3.83,3.83,0,0,0,.67,1c-.39,1.18.79,1.41.51,2.53.11.17.34.12.51.12.34-.51-.28-1.41.5-1.75a11.32,11.32,0,0,1,.4-3.72c.9.79,2,1.52,2,2.93-2.37,1.07-1,4.06-3.27,5.3l-1.29.67c-.51-.62.11-1.46-.12-2.14,0-1,.12-2.19-.5-3,.39-1-.28-1.63-.12-2.53Zm6-8.62c.57-.23.51.45.51.62.62.11,1.35.28,1.41,1.12a.94.94,0,0,1-.62,1c-.45,1.24,2.14.39,1.41,1.91.9.51,1.13-1.12,2.14-.79,1-.79-.06-1.86.39-3,.23,0,.57-.11.74.11.28-.5.28-1.18.9-1.24l.5-1.74c-.16,1,.4,1.8-.11,2.76.57.84,1.24.06,1.52-.4.62-1.52-.28-2.64,0-4.16a.79.79,0,0,1,.85.5c0,1.35-.57,3,.05,4.17.51.17.74,1.41.62,1.69l-.5.45c.62.68-.85,1.41.11,2.09.17,1.07-.51,2.53.28,3.15l.23.62c-.9-.34-2,.23-2.93.28-2.82-.22-5.92,0-7.44-2.53-.68-.12-.39-.85-.17-1.3.34-.22.62-.34.68-.73-.06-.17-1.3-1-.79-1.69-.06.17.28-.85-.4-.9,0,0,.17-.23-.39-.51.06-.67.23-1.29,1-1.46Zm3.05-9.64.17-.28c1.29.28-.06,1.86.5,2.65-1,.22-1.12-1.13-2.14-1.13l-.39-.5c.56-.17,1-1,1.86-.74ZM59.32,67c.34-.28.9.11,1.35.11l.51.4c.06-.17.51,0,.51,0-.85.39-1.52,1.13-2.37,1.52.23-.85-1.41-.73-.06-1.41l.06-.62ZM59.26,63c.23,0,.74.45,1,0,0,0,1.58.17,1.8-.51l.51.28c-.11.34-.4.79,0,1,.45.45.51-.34.9-.28l.84-.62s1.3-1.69,2.2-1.3l.23-.23c.67.4,0,1.08-.23,1.53-1.18,1.07-2.42,2.93-3.94,3.54-.51-.22-.73-.84-1.41-.67.06-.73-.73-.23-.9-.62-.34-.45-1.24-.85-.85-1.52-.22-.11-.17-.4-.17-.62ZM63,56.54c1.13.39.68-1.13,1.64-.73.11,1,2,.17,1.12,1.41.34.67.85-.4,1.13.22.68.34,1.24-.28,1.8-.51.73.91-.22,2-.5,3-.23-.74-1-.17-1.3-.62l-.73.22c.11-.73-.85-.79-.51-1.63-.73-.23-.9.28-1.52.62,0-.73.84-1.35.11-1.86l-.73.84c-.45,0-.34-.67-.51-1Zm5,6.08c1.13.17.34-1.52,1.52-1.35,1,2.26-1.52,2.48-1.41,4.28l-1,.29.11.11c-.45.73-1.41.67-2.25.84,0-2.08,2.76-2.14,3-4.17Zm-2.42,8h.22c.28-.28-.33-.45.12-.73l.28.62a3,3,0,0,1,2.53.85l-.9.9s-1.75,1-2.65.5c.12-.73.57-1.4.4-2.14Zm.34-2.81c1.12-1,2.53.79,3.09-.85l.51-.62c1.41.28.23,2,1.47,2.37.56-1.47-.23-2.59-.12-3.95h.28c.12-.67-.67-2,.34-2.36.06,1,.17,2.08.28,2.93A1.37,1.37,0,0,1,72,66.45h-.06a1.51,1.51,0,0,0,.39,1.24h.4c-.17-.67.39-1.52-.23-1.91.23-.34,0-.85.23-1.13.79.23,0,.9.39,1.41h.62c.34-1.13-.22-2.37.12-3.32.16-.79-.85-1.41.11-2-.23.28-.11.61-.11.95l.5.17.28,3.89c-.67.22,0,1.29,0,1.29l.23,1.3c.34.17.9.17.9-.28-.56-.51.51-.9-.28-1.3.51-.45.28-1.41.17-1.86.39-1.69-.34-3.43.22-5.07.62.34,1-.62,1.52,0,.12,1-.67,1.81-.22,2.54a1,1,0,0,0-.62,1.13c.9,0,.73.78,1.35,1.23,0,.57,0,1.24.68,1.08h.34c-.12-.62-.23-1.75-.34-2.6a2.08,2.08,0,0,0,.5-2.14v-.33c.51,0,.91-.06,1.13.33.17-.17.11-.39.11-.62,1.53.62,3.33,1.41,3.67,3.33-.51.45-1.13.73-1.41,1.35-1-.11.28-1.07-.73-1.35-1,.22-.12,1.12-.79,1.63-.06.34.45.56,0,.73-.57-.39-.68.4-1.13.51l-1.35.17c-1.69,1.18-.28,3.49-.9,5,.28.17.62.06.9.06,0-.17.17-.23.11-.51.56-.22.62.51.9.62-.11.06.45.62.45.62.28.34,0,.22,0,.79-.9,1.24-2.42-.45-3.55-.79a6.55,6.55,0,0,1-2-2.93c-2.08-.67-3.89.57-5.63-.73l-.73-.51c-.17.12-.06.28-.12.4-.39-.68-1.86-.28-2.19-1.07ZM67,79a.61.61,0,0,0,.11.45c-.22.11-.28.39-.39.56.39.17.9-.39,1.29-.51,1,0,.9,1.53,2,1.86,0,0,.51,1.69-.17,2,.17.45.11,1.35.9,1.3.68-7.37-.76-7.4.4-9.3a14.29,14.29,0,0,0,.28-3.77c.63-.5,1.34,0,1.86.11,0,.31.57-.71,1.69,2.65.79-.68,1.24,1.07,2,.79a16.45,16.45,0,0,1,2.64.62c-.73.56.29,1.63-.5,2a10.23,10.23,0,0,1,.73,3.72c.18.69-.08,2.09.7,1,.12-.28.2-.85,0-1,.39-.84.33-1.69.73-2.53v-.68c-.45-.34.17-1.13.11-1.74.68.78,1.41,1.18,1.63,2.25-.45,3.1-2.93,5.35-5,7.49-.79-.11-1,.62-1.18,1.24v.06c-1.75-.68-4.06.62-5.81-.68-1.85,0-2.7-1.18-3.71-2.37-.06-1-1.36-1.4-1.47-2.53l.51-3.83L67,79ZM68.79,51c.73-1.07,1.35.34,2.19-.39-.5,1.52,1.3,1.13,1.35,2.2.34.22-.39,1.23,0,1.91,0,0-1.46-.34-1.4.23-.23-.45-.91-.91-.62-1.64-1,.73-1.24-3-2-.39a1.11,1.11,0,0,1-1.64-.28A3.15,3.15,0,0,1,68.79,51Zm2,5.75c.34.17.51.79.68,1.13-.11.11-.34,0-.51.22.06.17,0,.51.23.51h.28c-.56.84-.28,2.42-1.8,2.14a3.07,3.07,0,0,1,1-3.55c0-.17-.06-.34.11-.45Zm4.06-.28c.28-1,1-.17,1.41-1,.11.12.28.12.39.28l.34-.16c-.23.9,1.52,1.4,1.18,2.31-.56.28-1.69-.17-2,.39-.34-.28-.79.34-1.19.45-.73-.34-.9.56-1.52.28-.11-.9-.11-2.53,1.41-2.53Zm5.07-2.82c.45.06.84.39,1.41.28l.39-.39c.17.11.17.62-.11.67-.39.23-.17.57-.06,1l.17.17L83,54.4c.4.28,1.41,1,1,1.8-.51.62-.62,1.41-1.41,1.75a5.53,5.53,0,0,1-3.38-2.14c.05-.4-.4-.4-.28-.79.67-.34.56-1,1-1.41ZM84.5,82.68a16,16,0,0,0,1.81-4.85c.45-.5,1.07-1.46,1.74-1.4a20,20,0,0,1,3.44-3.16,5.61,5.61,0,0,0,1.8-.22c-.17.39.62.84.62.84C95.83,75.19,96,77.72,98,79a.82.82,0,0,1-.68.84c-1.46,1.3-2.87,2.93-4.9,3.55-2,1-2.65-1.46-4.73-.62-1.52.79-1.52,2.48-3,3.44-.28.9-1.29,1.13-2,1.91L81.35,88a18.68,18.68,0,0,0,3.15-5.29Zm.51,7.1A12.46,12.46,0,0,0,88.67,86c1.13-1.13,2.87.45,4.34-.23,2.14-1.13,3.89-2.93,5.69-4.34h.79c1.24,1.19,2.36,3,4.05,3.44,1.47,2.48-.11,5.41-.62,7.61-.73.28-.45,1.29-1,1.8-.11,1.52-1.3,2.25-1.3,3.77-.67.4-.22,1.07-.5,1.75a16.66,16.66,0,0,0-1.92,4.84,2,2,0,0,0-.9,2c-.45,1.18-.34,2.54-1,3.66a5.76,5.76,0,0,1-2.53-1.4c-4.06-1.69-6-5-8.51-8.57.4-1.24-1-1.74-1.13-2.81-.16-2.09-1-4.68,0-6.82l.9-.9Zm.11-34c.68-.45.51-1.81,1.52-2.14l.51.33c-1.18,1.19-.06,1.64.17,2.82-.73.79-.45,2.54-1.8,2.54.45.67-.4.62-.62,1.12-.12-1-1.75-.73-1-1.91.34-.85,1.13-1.69,1.24-2.76Zm.79,13.07c1.63-.09.85-2.2,2.31-1.19.73,1.13,2.31,1.69,2.87,3l.51.28c-.51.28-1.29.62-1.52,1.35h-.34a33.13,33.13,0,0,0-3,2.7c-.45,0-.85.45-1.3.62-.5-1.24.12-2.53-.11-3.83-.62-.73.62-3,.62-3Zm1.8-9.69c.62-.23.06-1,.74-1.13a3.25,3.25,0,0,0,1,.51l-.51.5c.12.79,1.64.62,1.92.62.28.68-.34,1-.62,1.58a.12.12,0,0,0-.17-.05c-.23.22,0,.5.11.67-.67.45-.67,1.47-1.35,1.64l-.17.5a3.05,3.05,0,0,1-2-1.12c.11-.62-.62-.79-.06-1.41.51-.4.57-1.52,1.07-2.31Zm5,4.34.28-.74c-.17-.17-.34,0-.39-.28-.46.4-.68.79-1.36.9-.28-1.12.57-1.57.51-2.64,0,0,1.52,0,1.63.95l.34,2.38a5.77,5.77,0,0,0,.9.05,5.85,5.85,0,0,1,.28,2.42c-.61.79.29,1.24.4,2.14-1.47.34-2.25-.17-3.32-1.35.33-1-2-2.14-.4-2.71.51.17,1-.28,1.52-.39.2-.76-.39-.73-.39-.73ZM93.4,39.3c.51-.17,1-.45.62-1,0-.62.68-.9,1-1.35,1,1.12,3.66,1.8,3.15,4.16-.34.17-1,.06-1,.4-.34-1.07-2.82-.79-3.78-1-.5-.28-.17-.84,0-1.18Zm3.44,21,.85-1-.23-.17a2.36,2.36,0,0,1,1.52-1v.62a7.27,7.27,0,0,0-1.91,2.54c-.06.28.05.62.28.67l1-.28c.29.17,1.64.11,2.2.28-1.07.85-1.12,2.48-2.2,2.54,0-.34-.45-.74-.73-.68.34-.17.79-.73.73-1-1.07-.34-1.35.5-2,.67.22-1.07-1.24-.73-1.13-1.8.79,0,1-1.35,1.69-1.35Zm.73,7.32c.9-.51.79-2.08,1.92-2,.45.57.11.9-.28,1.3a1.49,1.49,0,0,0,1.52-.17c-.12,1-.12,2.82-1.13,3.83-.68.11-1.52,1.07-2,.4.62-1.41-2.19-2.82,0-3.33Zm1,5.8c0-.39-.23-.73.22-.95.85-.23,1.52-1.3,2.09-1.92a4.17,4.17,0,0,1,.62-1.8c-.4-1.58.62-2.87,1.4-3.95a3.39,3.39,0,0,0,1,1.41c-.67.45-.45,1-.34,1.64.4.5,1.53-.23,1.64.56,0-.06-.11,1.24-1.13,1.35-.11,1.41-2.65,1.81-1.69,3.72a1.83,1.83,0,0,1,.51,1.47.66.66,0,0,0-.34.67l-1.18,1.24h-.45c-1-1.07-2.54-3.15-2.31-3.44Zm1.74-14.64,1-.79s.39.79.5.79c-.45.73.29,1,.57,1.52-.74.67-1.41.51-2.31.22-.12-.17.45-.67.11-1-.45-.06-.17-1.18.11-.73Zm-.11-21.86,3.83.79,1.86,1.91c.06,1.47.17,2.71.28,4.06a.84.84,0,0,1-1.29.34c-.79.05-1-1-1.64-1,.68-.56-.34-1.35.28-2.09-.67-1,.68-2.25-.9-2.53-1.24-.28-1.52,2.08-2.65.56H99.6c.79-.67-.28-1.46.62-2.08Zm-.39,5.58,1.8-1.75c.45,1.3-1,2.65-.4,4.17l-1,.39c.39-.9-1-1.57-.23-2.53l-.16-.28ZM102,32.82l.34-.5c.51,0,.85.56,1.52.39.45,1,.17,2.54,1.52,3-.33.62-1.41.57-2,.62-.67-.79-2-.56-2.93-1,.28-1.07.28-2.2,1.52-2.54Zm2,42c.28-.84-.56-2.14.34-2.25.84,1.69-.45,3.72.28,5.18.68-.51.11-1.74,1.24-2,.51,1-.28,2.14,1,2.82.12,1.52-1.29.85-2,1.47-.57-.62-1.58-.57-2.37-.85.45-.79-.79-.73-.17-1.63a3.73,3.73,0,0,0,1.69-2.71Zm.51-15.6c.17.45,1.41.39,1.86.28.11-.45.11,0,.39,0,.23.79-.34,1-.84,1.41-.79,0-2.31-.68-1.41-1.69Zm3,8.5c.45.34.79.12,1.35.29,0,1.07.57,2.25-.5,3-.17.39.16.39.39.51-.17,1.12.34,2.64-.39,3.43-.4-.17-1-.39-1-.9.51-1.92-1-4.17.17-6.37Zm7.21,9.81h.28c.9-2.09-1.41-4.45.85-6l-.23-3.84c.68.17,1.24-.28,2-.39a4.85,4.85,0,0,0,0,3.94l.23.29c-.34.28-.62.39-.51.9.06.22.28.11.39.11a3.25,3.25,0,0,0,.23.84c-1,.62.9,1.41-.34,1.92l.11.9a4.09,4.09,0,0,1,.74,1.13c.28.9-.74,2.93.78,2.65,0,0,1.75.39,1.75-.46,0,0,.73-1.35,1.41-1.57a1.1,1.1,0,0,0,.28.9,1.76,1.76,0,0,1,0,2.2c-.56.78.85,2.14-.79,2.36.23-.56-.62-.39-.9-.62-.56.06-.62.73-1.24.73,0-.22.06-.56-.11-.73-.4.23-.62.4-.9,0-1.24-.22-1.86,1.24-3.27.73a1.87,1.87,0,0,1-1.3,1.53c-.62-.29-.67.78-1.29.39-.73-2.2.73-4.34,1-6.48l.79-1.46ZM117.35,61c-.51-.28-.23-.73-.29-1.13s.29-.17.51-.17l.4.57c1.18-.34.67-1.8,1.91-2.2a2.28,2.28,0,0,0,.79,1.41c.73-.51,1-2,2.25-1.41.34,1-1.41,1.69-.9,2.54-.79.5-.45,1.46-1.52,1.52-1.35.11-2.93,1.12-4.39.28.39-.62.84-.85,1.24-1.41Zm1-17.35c.06-.17.28-.06.39-.11.23.33.55,0,.91.84.62.73-1,1.3-.57,2.31-.5.28-1-.45-1.35-.51.23-.9,1.18-1.4.62-2.53Zm1.52-3.83.9-1.35S122.3,37,123,37.39l.39,1a1.65,1.65,0,0,0-.73.68c.22.22.22.67.73.5l.62.85c-.73.67-2-.17-1.86-.51-.56-.73-1.52-.34-2.08.4a1,1,0,0,1,.17.78l-.79-.17c-1.13,0-.06-1,.39-1.12Zm4.45,2.65c.51.22.73-.45.9-.62.68.5,1.81.9.85,1.8a.81.81,0,0,0-.85.11l-.28.73c-.22-.62-1.58,0-1.13-1.12.68-.12,0-.62.51-.9Zm.62,31c-.22-.51.34-1.58,0-2.42a25.16,25.16,0,0,1-.62-3.83c.4-.68,1.64-.57,1.24-1.64.28-.22.73-.67.4-1.12.5-.57,1-.57,1.63-.79.17.17.51.51.39.9a3.65,3.65,0,0,0-1.82,2,7.87,7.87,0,0,0-1.11,2.6c.45.9,1.13,1.41,1,2.54.67.28-.11.9.28,1.29.11.74.39,1.86-.62,2a5.7,5.7,0,0,1-1.3,2.54c-.28-.23-.28-.79-.39-1.19,1.52-1-.45-1.74.9-2.87Zm.11,7.44c.17-2.09,1.47-3.83,2.43-5.41.84.67.45,2.76,2.25,2,.28,1.29-1.13,1.52-1,2.76a12.36,12.36,0,0,1-3,2.42l-.33.34-.51-.45c.56-.28.51-1.07.22-1.69Zm5.07-26.76c.29.05.74-.23.68.28l1.86,1.52a6.48,6.48,0,0,1-4.39,1.24c.45-1,1.35-2,1.85-3ZM130.64,80c.56-.45.06-1.63.79-2.2-.23-.62.39-.9.51-1.23.11.11.17.28.34.22,0,0,1.23.79.67,1.8a2.85,2.85,0,0,1-.62,1.36,1.09,1.09,0,0,0,0,1.52c.56,0,.62-1.3,1.13-.62-.23.62.51.56.84.67.17.51-.11,1.86,1,1.35.67.12,1,1.53,2,.68a3.53,3.53,0,0,1,1.18-1.41,1.55,1.55,0,0,1,.84,1.75c-1.52.79-1.18,2.82-2.64,3.55-.85-.51-.62-1-.51-1.92a1.51,1.51,0,0,0-.51-.34.57.57,0,0,1-.34,0,.44.44,0,0,0-.5.34,1.78,1.78,0,0,1-1.52-.34c-.62,0-.51.06-.51-.5-.85.39-1.18-.62-1.41-1.19a6.81,6.81,0,0,1-.11-1.52c-.74-.9-1.3.29-2.09.51.17-1,1.24-1.46,1.41-2.48Zm1.18-32.62c.91.23.4,1,.51,1.52-1.07.34-.73,2.82-2.08,1.3,0,0-.51,0-.45-.11,0-.22-.18-.63-.06-1.07a3.35,3.35,0,0,1,2.08-1.64Zm4,11.78c.79.56,2.37-.06,2.31,1.29-.5.79-2.08.29-2.76.29-1.35-1-2.87-.23-4.62-.57l-.22-.34c1.18-1.69,3.6-.11,5.29-.67Zm-2.53-9,.51-.11c.22.17.56.11.9.11.79,1.07-1.24,1.8.39,2.25.11.23.28.4.23.68-.34.23-.68.34-.51.84-.28.06-.84-.22-.73.29-.11.62-.68.17-1.13.39-1.07-.68-1.18-2-1.13-3.21.85,0,.91-.85,1.47-1.24Zm2.08,5.92c.17.11.12.5.45.39,1.3.23.57-1.24,2-.73.06,1.24,2.37.5,1.3,1.63-1.47-.11-3-.06-4.17-.79l.39-.5Zm6.71,3.09c1,1.58,1.8-1.4,3,0,.34,1,1.75-.11,2,1,.28.62-.28.85-.4,1.58-.84.17-1.24,1.13-2.25.62l-2.7-2.65.28-.51Zm1,7.1c.23-.84-.45-1.91.23-2.42.67.34,1.46.9,1.52,1.75.17.5,1.24.9.67,1.52a4.58,4.58,0,0,1-1.07,1.8,4.93,4.93,0,0,0-1.35-.11c-.67-.51-.62-1.41-1.18-1.92.45.28.79-.39,1.18-.62Zm4.17-2.81c.62-1.24,1.86,0,2.65-1.24.39.11.39.5.39.73l.62-.23c.62,1.75-1.35,2.54-2.53,3.55-1.19.73-1-1.24-2-1.18.17-.51-.4-.9-.73-1.13.9.23.9-.73,1.63-.5Zm13.46-10c.29,0,.91,0,.74.39a3,3,0,0,0,1.63-.28c.68.56.34,1.75,1,2.42a2.37,2.37,0,0,0-.33.62c0,.45-.45.57-1,.51l.23-.85a1.42,1.42,0,0,0-1.24-.11c0-.28.45-1,0-1.29-1.13-.23-1.35,1.24-2.42.73.33-.73,1.12-1.13,1.4-2.14Z"/></g></g></g></svg>