<svg xmlns="http://www.w3.org/2000/svg" viewBox="0 0 106.38 140.9"><defs><style>.cls-1{fill:#040000;}</style></defs><title>沙鸥</title><g id="图层_2" data-name="图层 2"><g id="图层_1-2" data-name="图层 1"><g id="沙鸥"><path class="cls-1" d="M50.11,29c14.73,1,18.56,10.5,23.74,22.86,8.62,20.59,6.62,52.1-4.11,69.16-3.07-3.29-1.95-9.41-4.39-13.78-2.66-4.75-6.6-7.09-10-11.42-1.12,6.35,1.45,12.32.58,18.16-.39,2.65-2.25,5.43-2.93,8.5-.73,3.28-.7,6.2-1.76,9.38-1.89-.44-.76-2.92-.58-4.1,1.08-7.43,3-15,2-24.62-.69-6.77-.47-11.18-4.4-14.36-1.65,5.71,1,11.18,1.17,15.83.11,3.79-2,8.43-2.92,12.31-.48,2-1,4.18-1.47,6.15-.35,1.59.24,4.8-2.34,5-.38-4.22,1.65-7.28,2.63-10.84,2.35-8.57,3-22-.88-31.06-2.45-5.75-6-11.14-8.2-17.29-1.49-4.23-1.26-10-2.05-15.24S32.53,42.92,32.53,38c0-9,2.06-22.5,12.6-17.88-.7-3.73-6.92-3.81-10.26-4.1-7.86-.69-15,2.33-21.39,4.69a39,39,0,0,0-7.33,3.51C3.8,25.71,1.93,27.33,0,28.36c1.87-6.19,9.33-9.53,16.12-12.89,2.54-1.26,5.52-2.48,8.2-3.81s5.88-2.27,7.91-3.81c1.6-1.21,2.42-4,4.11-5.27C42.37-2,53-.1,57.14,5.21,60.48,9.47,64.59,19,59.49,25.14c-1.1,1.32-2.57,1.56-4.4,2.64C52.78,27.76,50.79,27,50.11,29Z"/><path class="cls-1" d="M106.38,84.63C101.92,92.1,90.16,96.34,90,108.07c2.18-.94,5.39-3.39,9.08-3.81-2.48,5.24-9.5,8.48-11.72,14.95,3.73-1.35,7.77-4.93,12.89-5.86-8.44,5.33-13.34,14.2-19,22.27-2.51-2-4.06-4.92-5.27-8.21C71,132.5,66.24,137.68,59.49,140.9c0-1.7-1.12-2.21-1.17-3.82-1.21.65-1.68,2-3.81,1.76,2.1-6.2,5.88-10.72,9.37-15.53,1.21.75.13,3.78.88,5,2.07-.69,3.7-5.85,6.16-6.15a7.36,7.36,0,0,0,.29,2.93c3.12-3.62,6.9-6.58,8.79-11.43a9,9,0,0,0-3.81-3.22c5.88-19.42,14-36.64,28.72-47.18C99.56,70.68,93.25,79.7,90,90.2c2.34-.89,3.59-2.86,5.57-4.11-1.19,5.17-7.4,7.85-7.92,14.66C93.35,94.86,99,88.84,106.38,84.63Z"/><path class="cls-1" d="M5.57,94.89c8.78,2.84,15.2,10.58,19.63,18.75.71-3-.93-6.1-1.46-8.79,4.35,1.6,5.5,6.41,9.08,8.79.85-8.18-3.86-13.32-5.57-19.93.69-.6,2.46,1.61,2.93,2.35,2.15,3.32,3.68,9,5.86,12.31,2.17-13-5.79-20.75-7.91-31.36,8.08,9.27,11.63,25.32,13.78,41,.24,1.76,1.48,4.62-.59,5.86-1.66-1.18-1.33-4.34-3.22-5.28-1,.13-.59,1.57-1.18,2.06-2.85-.92-7.22-.83-8.49,1.46-1.32-.25-1.75-1.38-2.93-1.76v2.93c-3.55,1.16-5.16-1.27-7-2-2.92-1.21-6.06,0-9.67-1.17,2.7-.92,6.19-1,8.5-2.34-.57-1.59-3.24-3.6-5.28-4.69,2.41-1.23,4,1.81,6.45.58C14.6,107,10.62,100.38,5.57,94.89Z"/></g></g></g></svg>