<svg xmlns="http://www.w3.org/2000/svg" viewBox="0 0 118.74 220.58"><title>资源 13</title><g id="图层_2" data-name="图层 2"><g id="图层_1-2" data-name="图层 1"><path id="竹" d="M81.8,24.34l.53-.2L82,24.7Zm-3.17,6.12a19,19,0,0,0-5-3l5.33-2,1.4,2C79.64,28.62,79.07,29.64,78.63,30.46ZM67,31c-.26-.31-.52-.6-.77-.88L68,28.34a9,9,0,0,1,1.18.39l.74.34Zm-4.88,3.19,2-2,.27.48Zm-2.44,1.69,1.25-5.73L61.35,29l.28-.11a8.18,8.18,0,0,1,1.43,1.72L60,36.31C59.88,36.16,59.76,36,59.64,35.87ZM57.28,37.1l-.85-.73a.2.2,0,0,1,0-.07l.87.74Zm-1,2.72c0-.15,0-.3,0-.44l.12.07Zm5.14,22.32a40.84,40.84,0,0,1,4.43,1.42l-1.7,1.52a13.92,13.92,0,0,0-2.6-.55,9.19,9.19,0,0,0-3.56.18,11,11,0,0,0-3.19-.9l0-.46A8.86,8.86,0,0,1,61.41,62.14Zm4,3.5a6.69,6.69,0,0,0-.91-.43l1.69-1.53.65.26Zm7.27.31a23,23,0,0,0-3.4,2.62c-.63-.58-1.2-1.07-1.72-1.49Zm9.49-2.82s.62.53.76-.09a7.85,7.85,0,0,1,1,.34l-2,.38A2.74,2.74,0,0,0,80,63.25C81.2,60.9,82.15,63.13,82.15,63.13Zm1.62,1.43a9.41,9.41,0,0,0-1.4-.56l1.77-.34a.16.16,0,0,0,.11-.13c.21.09.43.19.66.31A11.15,11.15,0,0,0,83.77,64.56Zm4.09,9.67C90.25,79,93.23,85,94.16,86.82a26.44,26.44,0,0,0-5-1.83c-6.06-1.56-8.25-1.14-9.21.56a3.2,3.2,0,0,0-3.58-.69,19.64,19.64,0,0,0-4.52-6.77c1.39.48,2.92,1,4.45,1.37.77.82,1.18,1.29,1.18,1.29s-.18-.42-.5-1.11a24.84,24.84,0,0,0,5.55.86,25.65,25.65,0,0,0-4.79-3c-.66-.33-1.49-.71-2.4-1.08-.25-.44-.51-.9-.8-1.37,1.59-3.19,3.94-8,5-10.51l1.92-.38a1,1,0,0,0,.17.6A47.24,47.24,0,0,1,87.86,74.23ZM72.33,92.79c0-.21-.07-.41-.12-.62.55-.9,1.14-1.87,1.76-2.92a8.76,8.76,0,0,1,2.29-2.76l.57.5a5.21,5.21,0,0,0-.11-.76,1.75,1.75,0,0,1,2.14.47,6.23,6.23,0,0,0-1.3,2.13Zm-6.7,4.29c.39-1.41,1.42-5.12,2.25-7.56.56,1.44,1.1,2.88,1.61,4.23-.12.33-.24.65-.34,1ZM63.4,99.49a17.71,17.71,0,0,0-1.09-2.24l.81-.43,4.12-8.95c.15.4.31.79.46,1.19-.94,2.68-2.19,7.24-2.48,8.29l-.08.06Zm-5.09,6.07c.83-1.79,2-4.37,2.85-6.15.4.49.76,1,1.08,1.46Zm-5.13,8.58c-.19-.35-.36-.52-.4-1.9,0-1.19.06-7.37.15-12.58,1.47,2.31,2.71,4.33,3.38,5.45l-1.12,1.68L54.75,110l-.11.14ZM48,93.19c.06-.24.11-.47.16-.7q.53.83,1.11,1.68c.51.73,1,1.49,1.53,2.24q0,.68-.06,1.41C49.88,96.36,48.52,94.07,48,93.19Zm-5,1.43a1.26,1.26,0,0,1,.21-.57c.34-.24.1-.67.1-.67s.33-.3.19-.54-.24-.38-.19-1.69a2,2,0,0,1,0-.23c.25-.17.5-.34.75-.49l1.5,1.23c-.3.71-.66,1.5-1.08,2.36a10.15,10.15,0,0,0-.57,1.48C43.61,95.19,43.31,94.9,43,94.62ZM38.51,117.2l.22-.06a.27.27,0,0,0,.18-.33.26.26,0,0,0-.33-.18l-.15,0-.09-6.79,1.5-4.09c-.13,2.52-.24,5.08-.31,7.21a27.86,27.86,0,0,1-.74,6.49Zm-2-5.67h.06a.15.15,0,0,0,.2-.1.16.16,0,0,0-.1-.2l-.3-.09a.24.24,0,0,0-.18-.07L33.15,99.52l.44.87s0,0,0,0a.14.14,0,0,0,0,.06l2.66,5.67a34.72,34.72,0,0,1,.35,4.59s.19-1.3.4-3l1,2.16s.06,4.11.09,6.24c-.11-.2-.23-.44-.39-.71A21.07,21.07,0,0,1,36.54,111.53ZM32.07,96.7l-.32-.62.09-.22Zm-7.8-5.6a56.45,56.45,0,0,1,1.84-5.91l3,3.09,1.55,3.64c-2.34.32-4.8,1.42-7.85,3.5A27.85,27.85,0,0,0,24.27,91.1Zm-1.2-10.76A30,30,0,0,1,26.66,78a.14.14,0,0,1,0,.06c-3.22,1.79-5.18,6.89-6,10.76a39.93,39.93,0,0,0-.45-5.53A28.17,28.17,0,0,1,23.07,80.34Zm-3.91-1.66c.33-.25.69-.52,1.08-.79l-.7,1.19L22,76.86a4.68,4.68,0,0,1,2.74-.55l.26,0a10.74,10.74,0,0,0-3.86,2.54,18.53,18.53,0,0,0-1.52,1.79C19.48,80,19.32,79.33,19.16,78.68Zm2.57-6c.37.18.86.43,1.39.73q-.78,1.11-1.62,2.43a15.8,15.8,0,0,0-2.44,2.4c-.73-2.93-1.44-5.11-1.56-5.49.16,0,.36-.11.58-.2A4.16,4.16,0,0,1,21.73,72.7Zm5.45-7c3.53-2.86,5.92-4.19,7.58-3.06a9.77,9.77,0,0,0,.85.54,4.84,4.84,0,0,0-3.51,2.19c-1.53.38-4.24,1.83-8,6.76a10.47,10.47,0,0,0-1.91-.78c-.55-.16-1-.27-1.47-.36C21.88,70,24.53,67.81,27.18,65.66ZM38,64.33c.21-.15.53-.08,1,.21L38.75,71l-.32.46-.33-1.29a.15.15,0,0,0,0-.07L35.22,67A11.64,11.64,0,0,0,37,64.19C37.33,64.39,37.72,64.55,38,64.33Zm6.52-1.72c-.14.65-.25,1.14-.31,1.38A9,9,0,0,0,44,65l-.13.11a13.79,13.79,0,0,0-3.49-2.18,9.71,9.71,0,0,1,2-.44A13.1,13.1,0,0,1,44.53,62.61ZM43,50.09c.3.24.61.51.91.8l-.76,2.19L43,52.6l-.24-2Zm-5.27-3a14.54,14.54,0,0,0-2.29,1.1,120.67,120.67,0,0,0,2.35-11.88l1.95,2.92.91,4,.46.61c-.26,1.07-.53,2.16-.79,3.26C39.9,46.77,39.12,46.59,37.75,47.1Zm-5.4-7.9A38.46,38.46,0,0,0,32,34.26c-.09-.59-.21-1.21-.34-1.85.7-.86,1.38-1.73,2-2.53l.59.63L35,31.76c-.08,1.29-.15,2.72-.19,4.23C33.88,37.12,33.07,38.21,32.35,39.2ZM29.63,25.87l.13-.12,1.68,1.79c-.29.27-.58.55-.89.86C30.27,27.53,30,26.68,29.63,25.87Zm-8.15-1.65c.3-.81.59-1.57.88-2.25a10.35,10.35,0,0,1,2-3.23l.44,1.75a7,7,0,0,0,0,1.83,2.91,2.91,0,0,0,.28.83l-1-.71a.16.16,0,1,0-.19.26l1.44,1.05c.13.26.27.55.43.85ZM16.11,21.9c1.3-.91,2.44-1.68,3.09-2.16a5.6,5.6,0,0,1,2-1,13.68,13.68,0,0,0-2.91,4.34Zm26-2.14c-.15.63-.27,1.2-.34,1.66l-.34.08A36,36,0,0,0,30.72,18a4.45,4.45,0,0,0-1.33-.74,3.3,3.3,0,0,1,1.34-.42A19.45,19.45,0,0,1,42.11,19.76Zm7-8.15a7,7,0,0,1,3,1.43,17.57,17.57,0,0,0,.46,2.06c.4,1.39.81,2.77,1.21,4.07-.42,1.53-.91,3.38-1.38,5.13a15.46,15.46,0,0,0-2.66-1.53l.83-1.39a.17.17,0,0,0-.06-.22.18.18,0,0,0-.22.06l-.84,1.43a12.17,12.17,0,0,0-1.32-.47l-.35-.09c.11-1.31.28-3.4.28-3.4a.16.16,0,0,0-.14-.16.16.16,0,0,0-.17.15L47.5,22c-.65-.17-1.26-.31-1.82-.41a5.87,5.87,0,0,0-1.58-2.08C45.63,17.21,47.62,14,49.16,11.61Zm1.39-2.19c1-1.49,1.82-2.86,2.49-3.93a2.53,2.53,0,0,1,.36.37,6.56,6.56,0,0,0-1,2.14q-1,.9-2.19,2Zm-.82-6.08a12.82,12.82,0,0,0-1.86,0,6.07,6.07,0,0,1,.93-.78C51,1.23,52.54,1,53.07,1.47a1.48,1.48,0,0,1,.31.78,6.92,6.92,0,0,0-2.22,1.32A7.37,7.37,0,0,0,49.73,3.34Zm9.48-1.58a12.13,12.13,0,0,1,1.32,1.45,7.91,7.91,0,0,0-1.73.45c-.27-.44-.59-.94-.94-1.4C58.28,2,58.91,1.57,59.21,1.76Zm8.16,5.09c-1.49.55-2.93,2.48-4.36,4.56a14.14,14.14,0,0,0-.89,1.5A32.47,32.47,0,0,0,60.37,7L61,5.52a7.8,7.8,0,0,1,1.08,0l.28,0a13.69,13.69,0,0,1,1.71,2.84s-.43-1.3-1-2.75A11.62,11.62,0,0,1,67.37,6.85Zm5.71-2.4a1.19,1.19,0,0,1,.36.4,6.34,6.34,0,0,0-2.15,1.06l-.61-.41c-.21-.13-.39-.25-.57-.35A2.31,2.31,0,0,1,73.08,4.45ZM77,6.61a26.89,26.89,0,0,1,14.94,6.67l-1.13.88-3.85,1a23.05,23.05,0,0,0-3.36-1.44l-.29-.09,3-.66a.16.16,0,0,0,.12-.19.15.15,0,0,0-.19-.12l-3.57.77a16,16,0,0,0-2-.45l1.71-3.72A.17.17,0,0,0,82.33,9a.17.17,0,0,0-.21.08l-1.75,3.82-.64-.07A36.24,36.24,0,0,0,75.55,9c0-.42,0-.84-.08-1.27a8.64,8.64,0,0,0-.18-1.2Q76,6.52,77,6.61ZM92.66,14a3.63,3.63,0,0,0-1.81,2.09l-2.06.26-.13-.09L91,14.45l.41-.1a.17.17,0,0,0,.12-.16.06.06,0,0,0,0,0,.1.1,0,0,0,0-.06l.76-.59Zm2.19,2.86a.65.65,0,0,0-.36.35L93,17.36l-.39-.06a4.61,4.61,0,0,0-.63,0c.48-1.26.91-2.17,1.24-2.19C93.85,15.1,94.48,16.13,94.85,16.83Zm4.89-3.65c.21-.09.79.89,1.3,2.29a11,11,0,0,0-2,1.16,7.7,7.7,0,0,0-1.56-.26A14.54,14.54,0,0,1,99.74,13.18ZM100,17a4.83,4.83,0,0,1,1.45-.22c.1.37.19.74.26,1.13A10.91,10.91,0,0,0,100,17Zm-4.29,1.79s0,0,0,0L95,19a2.93,2.93,0,0,0-1.3-1.41l.8-.1c.19.49,1.08.94,1.08.94l.15.12a1.11,1.11,0,0,0,0,.18ZM91,20.24c.83-.69,1.52-1.1,2.16-.95.29.07.53.11.74.14l-3,1.13ZM79.74,21a19.81,19.81,0,0,0-1.39-1.75l.24-.14c.62-.12,1.26-.22,1.92-.29l2.86,3a1,1,0,0,1-.06-1.11,3.29,3.29,0,0,1,.88,1,17.1,17.1,0,0,0-1.56,2l-1,.37A25.44,25.44,0,0,0,79.74,21ZM72.4,27a38.9,38.9,0,0,0,.38-6.89h.11a20.12,20.12,0,0,0,2-.32c.43.55.9,1.18,1.41,1.91.75,1.09,1.58,2.27,2.4,3.44l-5.6,2.12Zm-3.24-.61a25.11,25.11,0,0,0-2.85,0l-.54-.26.56-1.21h0l3-3c.29,1.81.61,3.4.88,4.59C69.88,26.48,69.53,26.44,69.16,26.41Zm-5.27,5.53-2.54,2.52,1.91-3.55C63.46,31.23,63.68,31.58,63.89,31.94Zm.84-3.79a9.62,9.62,0,0,1,2.88.1L66,29.88c-.5-.53-1-1-1.42-1.39Zm-.38.06a.21.21,0,0,0,0,.06.18.18,0,0,1-.07-.05Zm-12,5.9c.16-.12.28-.15.33-.24a2.86,2.86,0,0,0,0-.78c.79.7,1.57,1.38,2.3,2a1.94,1.94,0,0,0,0,.24A11.68,11.68,0,0,0,52.32,34.11Zm2.33,5.33c-.65.44-1.18.81-1.21.82h0c-.09-1.15-.2-2.19-.3-2.93l1.61,1C54.71,38.7,54.68,39.07,54.65,39.44Zm-.78,7.44c-.09-1.59-.24-4.11-.41-6.3h.08l1.08-.73c-.19,2.6-.42,5.45-.57,7.08Zm8.55,21.81a11.55,11.55,0,0,0-1.14-1.57A9.45,9.45,0,0,0,60,66,17.31,17.31,0,0,1,63.7,68.1Zm.31,27,.16-4.12a21.66,21.66,0,0,0,0-9.1C62.46,80,61.73,77.2,61,74.75c.51,1,1.25,2.43,2.33,4.27a78,78,0,0,1,3.73,8.44l-4.19,9.13-.74.39ZM53.93,94c1.35.81,2.68,1.29,4.15,2.33l-1.57,8.47h0l0,.06a21.59,21.59,0,0,1-.71-3.32,30.47,30.47,0,0,0-2.38-8A2.7,2.7,0,0,0,53.93,94Zm-5.58-8.79a12.79,12.79,0,0,1,2.56,1.3l.17.12c0,.85-.08,1.71-.12,2.51C50,87.54,49,86.18,48.35,85.23Zm-2.2,4a.8.8,0,0,0,.16-.08l.12.24c-.14.42-.31.87-.51,1.37-.17-.33-.37-.69-.6-1.09ZM44.37,88.1a8.13,8.13,0,0,1,.81-1.36c.23.52.48,1.09.77,1.69-.34.11-.73.23-1.14.38ZM33.15,98.83c.24-.21.5-.44.78-.67.47,1.46.91,2.77,1.29,3.74a18.54,18.54,0,0,1,.84,3.07L34,100.58l0,0ZM32.64,94c.32,1.1.66,2.19,1,3.23-.27.33-.53.66-.79,1l-.09-.17L32,95.38C32.26,94.85,32.47,94.38,32.64,94ZM27.31,82l.47-1.18.86,4.86Zm-.18.45L29,87.54l0,.16-2.76-2.84ZM27.74,75A13,13,0,0,0,26,73.32c1.25-1.1,2.51-2.21,3.63-3.16C29,71.63,28.38,73.28,27.74,75Zm11-2.47-.07-.24.08-.07ZM46.82,63l1.26.24a7.31,7.31,0,0,0-1.22.24C46.85,63.31,46.84,63.15,46.82,63Zm5.25.42a31,31,0,0,0-5.31-1.67,17.23,17.23,0,0,1,.12-2.56c.09-.71.31-2.11.6-3.88a68.86,68.86,0,0,1,4.59,8.09Zm7.45,6.65c-.07-.21-.13-.4-.2-.59.15.16.3.31.44.47Zm.3.89c-.07-.21-.13-.4-.2-.59l.36-.17c.33.37.64.75,1,1.14Zm-13,11.84a24.47,24.47,0,0,1,2-3,5.75,5.75,0,0,1,.38,1.36s0-.71,0-1.86c.21-.26.42-.51.65-.76.65-.74,1.27-1.5,1.86-2.23-.16,1.89-.37,3.74-.39,5.14,0,.45,0,1.07-.06,1.79A11.39,11.39,0,0,0,46.79,82.78ZM43.61,87c0-.46.08-.93.12-1.43a4.54,4.54,0,0,1,.78-.46c.12.33.27.71.44,1.12-.21.39-.5.93-.81,1.56Zm-5.07-.6a22.73,22.73,0,0,0-2.36,4.09,28.63,28.63,0,0,0-1.4-4.58c-.4-1-.83-1.89-1.27-2.77C35.12,84.24,37.1,85.48,38.54,86.35ZM54.7,74.09a5.49,5.49,0,0,1-.21-1.1,11.44,11.44,0,0,1,1.13-1C55.37,72.49,55.07,73.19,54.7,74.09Zm1.66-6.44s.13.95.36,2.42c-.48-.11-.76-.15-.76-.15a.39.39,0,0,0-.11.15,7.66,7.66,0,0,0-1.35,0l0-.68c.73-.9,1.3-1.63,1.65-2.07A3.58,3.58,0,0,0,56.36,67.65ZM45.93,81.76a16.86,16.86,0,0,0-1.23-1.28c.56-.51,1.18-1.13,1.83-1.81A17.46,17.46,0,0,0,45.93,81.76ZM44,82.25c0-.3.05-.6.08-.89l1.8.88,0,.4a1.41,1.41,0,0,0-1,0A1.23,1.23,0,0,0,44,82.25ZM38.4,92.46c.1-.19.21-.37.32-.55.74-1.21,1.46-2.31,2.16-3.28,0,.37-.07.67-.08.89,0,.55-.08,1-.12,1.34A25.28,25.28,0,0,0,38.4,92.46ZM55.05,85.2c.27-1,.52-2,.75-3.13A53.59,53.59,0,0,0,57,71.91c.21,1.38.48,3,.76,4.61-.86,1.5-1.67,6.36-2.08,9.13C55.49,85.5,55.28,85.35,55.05,85.2ZM46.21,66.44c3.55-2,4.63-1.56,5.13-1.06A5.46,5.46,0,0,0,52,66c0,.36,0,.73,0,1.1a24.9,24.9,0,0,0-4,4.47,16.27,16.27,0,0,0-1.22-2.88c-.26-.46-.54-.88-.82-1.28Q46.09,66.88,46.21,66.44ZM45,72.08c.4.69.8,1.42,1.19,2.15-.65,1-1.24,2.08-1.74,3,.11-1.31.22-2.45.3-3.27C44.81,73.37,44.9,72.72,45,72.08Zm-6.13,4.51.07-1.77c.18.71.35,1.42.51,2.05Zm3,3.74c-.12,1-.23,1.87-.34,2.75-.18.14-.37.31-.57.49-2.84-3.06-7.93-5-10.3-5.73A13.46,13.46,0,0,1,35,77.9,35.33,35.33,0,0,1,41.86,80.33ZM60.41,94.74c-3.19-3.31-5.27-4.43-6.73-5l.34-1a32.57,32.57,0,0,0,4.57,2.89,16.48,16.48,0,0,1,3.84,2.69S61,92.1,59.7,90a14.93,14.93,0,0,0-2.24-2.83c.22-.7.51-1.67.89-3a18.18,18.18,0,0,0,.45-2.19c.32,1.51.65,2.85,1,3.79,1.46,4.59,2.66,7.38,2.66,7.38s.05-.11.12-.31c-.06,1.57-.11,2.79-.11,2.81s-.26.56-.48,1A13.15,13.15,0,0,0,60.41,94.74ZM44.81,59.29l.56-6.83c.31.37.61.75.91,1.15-.49,2.65-1,5.17-1.36,7.09C44.86,60,44.82,59.33,44.81,59.29Zm.27-7.18-.51,6.25L43.31,53.6s0,0,0,0l.85-2.43Q44.63,51.6,45.08,52.11Zm0-7,.09,2.38a3.17,3.17,0,0,0-.53,0,3.91,3.91,0,0,0-.49,0C44.43,46.69,44.74,45.9,45,45.13Zm-4.52-4.21.55-2.87.87-2,.2,1.07-.67,3.51.11,1.48v0l-.35,1.31L41,43.09s-.21-.91-.49-2.13C40.49,40.94,40.51,40.94,40.51,40.92Zm-.36-1.68-.09-.13c-.36-1.58-.74-3.27-1-4.39l1.11-1.16,0,3.54.43,1.27a.24.24,0,0,0,.08.09l-.34,1.77c-.06-.26-.12-.52-.18-.8a.18.18,0,0,0,0-.1A.16.16,0,0,0,40.15,39.24ZM38.8,35l.77,3.37-1.65-2.46h0Zm-4.33-4.68-.11-1.39.91-1.19c-.08.93-.17,2.11-.25,3.47l-.55-.89Zm-.44-1c.27.59.44,1,.44,1l-.65-.69Zm-2.36-5.21,1,2.31c-.33.26-.68.55-1,.88L30,25.54C30.54,25.05,31.11,24.57,31.67,24.14ZM25.37,18A4.69,4.69,0,0,0,26,19.24a6.81,6.81,0,0,0,.18,1.62,2.74,2.74,0,0,1-1-.19L24.6,18.5A3.21,3.21,0,0,1,25.37,18Zm2.45,2.66.76,2.21.23.93-.1.11a10.82,10.82,0,0,0-2-2.82,7.61,7.61,0,0,1,.29-.76A2.06,2.06,0,0,0,27.82,20.66Zm2.32.14c.11.22.35.74.66,1.41a16.89,16.89,0,0,0-1.72,1.35l-.19-.78-.73-2.12c.37,0,.94-.16,1.69-.28A1.66,1.66,0,0,1,30.14,20.8Zm4.57-.38a10,10,0,0,0-1.87.65,10.22,10.22,0,0,0-.46-.94,17.24,17.24,0,0,1,3.33.21A3.57,3.57,0,0,0,34.71,20.42Zm5.67,1.8a4,4,0,0,0-2.76-.84,2.64,2.64,0,0,0-1.25-.92,17.52,17.52,0,0,1,4.25,1.47A1.61,1.61,0,0,0,40.38,22.22Zm2.51-.92c.15-.21.32-.45.49-.71.36.25.71.52,1.07.8A11.13,11.13,0,0,0,42.89,21.3Zm5.36,3.4-.61,1a1.9,1.9,0,0,0-1.12-.07c-.28-.39-.77-.36-1.8.38l-.36-.4a27.06,27.06,0,0,0-2.25-2.13A14.05,14.05,0,0,1,48.25,24.7Zm.69,1.69a6.9,6.9,0,0,0-1-.55l.61-1c.46.2,1,.41,1.46.65A4.08,4.08,0,0,0,48.94,26.39Zm6.4-2.26a12.59,12.59,0,0,0-1.42.11c.22-.88.45-1.77.65-2.58ZM52.08,12.58a7.07,7.07,0,0,0-2.74-1.26l.62-1c.56-.44,1.31-1,2.22-1.6A11.7,11.7,0,0,0,52.08,12.58Zm1.49-7.76-.07-.07.07-.12Zm1.92.68A1,1,0,0,0,54.63,5c0-.57,0-1.22,0-1.86L55.09,3a4.18,4.18,0,0,1,.79,1.49,6.48,6.48,0,0,0,.23.63Zm3.77,15.33A21.37,21.37,0,0,1,58,24.2l-.39,0h-.14c.4-4.46,1-10.26,1-10.84,0-.27,0-1.12.08-2.19l.09-.23c.79,1.75,1.59,3.52,2.18,4.95C60.14,17.71,59.61,19.57,59.26,20.83Zm9.13-10.58-5.57,7.61,0-.36c.68-1.14,1.4-2.34,2.15-3.51,1.34-2.09,2.67-3.93,3.41-4.92C68.36,9.42,68.37,9.81,68.39,10.25Zm6.3,3.87a4.15,4.15,0,0,0-1.16,1.35,5.54,5.54,0,0,0-1.1-.35c-.22-2.14-.5-4-.69-5.35l2.91,3C74.67,13.21,74.68,13.67,74.69,14.12Zm.81-.52-.11.06a1,1,0,0,1,0-.16Zm1.69,1.73c-.68.4-1.38.79-1.92,1.1L75,16.27c.06-.35.12-.75.19-1.19a11.93,11.93,0,0,1,1.26-.48Zm5.78,2a21.59,21.59,0,0,0-2.09-3.13,9.47,9.47,0,0,1,1.49.36c1,.35,1.95.74,2.81,1.13Zm4.22-.63-3.86,1.35-.21-.43,2.37-1.77h0C86.12,16.13,86.68,16.42,87.19,16.7Zm.18-1.33,2.81-.72L88.41,16C88.11,15.82,87.76,15.6,87.37,15.37Zm2.87,2.33-.18,0a4.65,4.65,0,0,0-.94-1.12l1.59-.2C90.54,16.81,90.38,17.25,90.24,17.7Zm-6.67.6,4-1.4c.61.34,1.13.66,1.56.93C87.14,18,85.09,18.23,83.57,18.3ZM80,18.18c.09.11.19.2.28.3l-1,.13ZM78,18.84a17.07,17.07,0,0,0-1.22-1.2l2.43-.19.48.5-1.26.8Zm-5.31-.21.64-.62c.37.38.83.88,1.35,1.52-.64.12-1.26.22-1.85.27h-.09C72.75,19.42,72.74,19,72.72,18.63Zm-4.59,2.44,1.05-.26c0,.23.07.45.1.67l-2.5,2.46Zm-5.92,3.81c1-1,1.93-2.06,2.76-3,.73-.2,1.71-.47,2.76-.74l-1.6,3.43,0,0a.21.21,0,0,0,0,.15L65.48,26A20.69,20.69,0,0,0,62.21,24.88Zm-4.7,4.5c.45-.35,1-.8,1.52-1.32a2.4,2.4,0,0,1,.62,0,12.63,12.63,0,0,0-2,1.42A1.71,1.71,0,0,1,57.51,29.38Zm-4.76-.31c.06-.3.23-1,.44-1.88.33.21.68.42,1,.65l-.52,2.33-1-.84A2,2,0,0,1,52.75,29.07Zm-2.86,3.6c-.24.32-.07.92,0,1.17s-.46,2.68-.81,4.61a41.42,41.42,0,0,0-2-8.15l1.11-1.21,2.44,2.17A4.75,4.75,0,0,1,49.89,32.67Zm0,9.17,1-.86a16.63,16.63,0,0,0,.82,2.32c.68,1.53,1.15,2.6,1.48,3.37a10.5,10.5,0,0,0-4.14-.31C49.35,44.78,49.65,43.23,49.91,41.84Zm-3.67-.19c0,.83.1,2.11.1,2.11s-.38,1.64-.7,3l-.22.38c0-1-.08-2.2-.1-2.78C45.67,43.39,46,42.49,46.24,41.65ZM50.49,39a14.47,14.47,0,0,0,.32,1.68l-.8.7C50.18,40.47,50.35,39.67,50.49,39Zm-7-2.83,1.59-2.9c1.6,2.75,2.91,5.51,3.63,7.11-.11.61-.26,1.48-.45,2.53l-.77.68-1.32,2.26.48-2L46.53,41a.16.16,0,0,0-.05-.11A10.63,10.63,0,0,0,47,38a1.43,1.43,0,0,0-1.14-1.46,1.9,1.9,0,0,0-2.69.87Zm-1.68-2.35-.73-1.16,1.45-1.54.23,1.53s0,0,.08.08l-.58,1.74L42,35Zm3.09-.87L44,34.48l.16-2.74C44.44,32.13,44.68,32.52,44.91,32.91Zm-1.64-2.6.45.68c-.32.59-.63,1.14-.69,1.25,0-.22-.12-.81-.21-1.46Zm8.59-3.89c-.17.66-.34,1.28-.48,1.81l-1.26-1a6.75,6.75,0,0,1,1.41-1ZM56,26.26c-.05.44-.09.82-.13,1.15a22.58,22.58,0,0,0-2-2,11.65,11.65,0,0,1,1.82-.24C55.81,25.6,55.93,26,56,26.26Zm2.72-1L57.26,26.8c0-.5.09-1,.14-1.62C57.84,25.2,58.29,25.23,58.74,25.28Zm-3.29,3.38L54,30.12,54.5,28Zm1.67.21c0-.36.05-.91.1-1.57l1.92-2c.3,0,.59.07.89.12a43.34,43.34,0,0,1-2.57,3.85ZM68.57,14.63v0L63,18.1l5.37-7.34C68.45,11.8,68.5,13.06,68.57,14.63Zm4.06,2.69.46.42-.4.4Zm-3.66,2c.06.41.11.82.17,1.21l-.83.2Zm-1.57-.15a6.67,6.67,0,0,1,1.41-1.26l.09.81-1,2.11c-.93.23-1.82.47-2.55.67C66.32,20.39,67.06,19.53,67.4,19.13ZM63,20.62c0-.6,0-1.29-.1-2.05L68.59,15l0,.59C66.85,16.29,64.69,18.37,63,20.62Zm11-4.93.69-.37c0,.27,0,.52,0,.76C74.48,15.93,74.25,15.81,74,15.69ZM79,17.16l-2.49.18c-.31-.26-.61-.5-.91-.71l1.86-1.06ZM61.7,19.3l.12-.07-.07.09a.16.16,0,0,0,0,.22.16.16,0,0,0,.22,0l.07-.11c.19.66.34,1.27.46,1.81A21.36,21.36,0,0,0,61,23.76c-.14.26-.27.52-.41.77-.76-.13-1.58-.24-2.45-.32.29-.4.75-1,1.52-1.92A24.37,24.37,0,0,0,61.7,19.3ZM57.27,7.81c0,.87-.09,1.83-.15,2.86A9,9,0,0,0,56.29,8,9.23,9.23,0,0,0,56,6.68c.21-.1.43-.18.65-.26C56.84,6.85,57.05,7.31,57.27,7.81ZM47.92,28.87l-1,1.1c-.06-.13-.11-.27-.17-.4l.43-1.37C47.4,28.41,47.66,28.63,47.92,28.87ZM46.1,27.23l.82.74-.36,1.15a15.64,15.64,0,0,0-.78-1.53Zm-4.2,1.21h0l-.41.39a22.49,22.49,0,0,0-3-3.52c0-.18,0-.36,0-.53A27.74,27.74,0,0,1,41.9,28.44ZM34,25.5A23.48,23.48,0,0,0,33.5,23a3.46,3.46,0,0,1,2.94-.3.74.74,0,0,0,0,.14,8.46,8.46,0,0,0-.78,1.82A10.94,10.94,0,0,0,34,25.5ZM38.31,32c.15-1.58.24-3.18.26-4.74V27a25.29,25.29,0,0,1,2,2.73c-.4.39-.82.8-1.27,1.26S38.63,31.66,38.31,32Zm2.46,5.95-.31-.88,0-3.82.37-.38.66,1,.3,1.57Zm1,2.69.67-3.53-.3-1.57.41-1,.68-2,.66-1.18-.21,3.78h0L43.2,36l-.89,3.29c-.16.51-.33,1.1-.5,1.77Zm5.5,7.62c0,.15-.05.29-.08.43a4.53,4.53,0,0,0-1.45-1l.19-.83,1.8-3.11.44-.39c-.19,1-.39,2.16-.62,3.39a1.27,1.27,0,0,0-.68.53A.74.74,0,0,0,47.28,48.24Zm6.81-17.73,1.56-1.61a.36.36,0,0,1,0,.1,15.78,15.78,0,0,0-.29,2.58ZM62,27.08a4.35,4.35,0,0,0-2.51.53c.61-.59,1.26-1.24,1.92-1.91,1.17.23,2.27.52,3.25.81A16,16,0,0,0,62,27.08Zm22.44-5.67a13.65,13.65,0,0,0-.86-2.79c1.51-.07,3.53-.26,5.48-.47A15,15,0,0,0,84.46,21.41ZM74.28,8,72.61,6.8A7.5,7.5,0,0,1,74,6.56C74.13,7,74.21,7.48,74.28,8ZM42.87,68.67c.15.21.3.44.46.68C43,72,42.51,75.26,42.11,78.4a23.69,23.69,0,0,0-2.28-1.35L39,73.67,39,71.94C40.11,70.94,41.45,69.75,42.87,68.67ZM41.7,67.18a37,37,0,0,0-2.61,3.37l.2-5.79A19.33,19.33,0,0,1,41.7,67.18Zm-6.67.1c1,1.08,2.74,3,2.77,3s.17.64.39,1.54c-.5.75-1,1.55-1.54,2.41,0,0,.67-.7,1.72-1.71l.29,1.14-.1,2.74c-.19-.07-.37-.16-.56-.24a12.72,12.72,0,0,0-7.59-.94c.76-1.53,1.46-2.89,2-3.89A40,40,0,0,1,35,67.28ZM24.76,74.4c.6.38,1.21.77,1.78,1.16A10.85,10.85,0,0,0,24,75.12Q24.35,74.78,24.76,74.4Zm4.83,13.94-.32-.9-1.2-6.79a.15.15,0,0,0-.16-.12c0-.09.07-.17.1-.25.53,1.86,1.8,3.5,2.45,6,.32,1.21.88,3.26,1.54,5.52l-1,.06L29.55,88.5A.16.16,0,0,0,29.59,88.34Zm8.57,21.11-1.08-2.31c.17-1.44.33-3.06.39-4.38a47.08,47.08,0,0,0-.39-7.08,1.42,1.42,0,0,1,.05-.16l1-.79c.6.27,1.38.65,2.25,1.15-.08,1.58-.28,5.07-.48,8.84Zm19.32-2.86-2.34,2.94c.13-1,.35-2.58.35-2.62l1-1.5.36.62s-.11-.28-.27-.76c.9-1.33,2-3,2-3a.16.16,0,0,0,0-.09.17.17,0,0,0-.3-.09l-1.37,2,1.41-7.59a14.26,14.26,0,0,1,2.53,2.49.18.18,0,0,1,0,.07ZM70.91,88.06c-.36-.85-.75-1.7-1.15-2.53.57-1,1-1.72,1-1.72a.16.16,0,1,0-.27-.18s-.41.66-.93,1.55c-1.08-2.23-2.24-4.34-3.29-6.13-.15-.59-.34-1.3-.56-2.08a15.32,15.32,0,0,1,1.58,1.32c2.55,2.45,5.79,5.39,7.76,7.15a10.77,10.77,0,0,0-3.62,4C71.29,89,71.11,88.53,70.91,88.06Zm1.24-12.71a12.13,12.13,0,0,0-4.35-.62c-.75-.5-1.51-1-2.27-1.36.52-.52,1.27-1.24,2.17-2.05C69.38,72.77,70.87,74.13,72.15,75.35ZM80.77,64l-1.17.23h0A10.79,10.79,0,0,1,80.77,64Zm-4.34,1.17.3-.06c-.76,2.05-1.23,4-1.23,4L74,74.32a28.69,28.69,0,0,0-4-5A27.77,27.77,0,0,1,76.43,65.16Zm-9.9,5.15.59.51a26.46,26.46,0,0,0-1.81,2.43l-1-.49A27.06,27.06,0,0,0,62.58,69L64,68.31C64.74,68.86,65.58,69.52,66.53,70.31ZM53.2,53.45c-.08.61-.45,2.67-.73,4.52a18.31,18.31,0,0,0-1-2.38,41.94,41.94,0,0,0-3.11-5.52c.09-.51.18-1,.28-1.55a14.57,14.57,0,0,1,4.48,1.38c-.34.54-.65,1-.62,1.27C52.59,51.75,53.32,52.51,53.2,53.45Zm6.47-22.71-1.35,3.6c-.47-.5-1-1-1.52-1.5,0-.08,0-.15.05-.22.14-.65.24-1.11.3-1.46.25-.16.56-.36.92-.57.19.14.37.27.56.43,0,0-.12-.21-.35-.55a20.34,20.34,0,0,1,2.25-1.14Zm-1.11,3.87L60,30.88l.85-1.4-.22.57-1.2,5.5C59.13,35.24,58.85,34.92,58.56,34.61Zm31-10.16c.38-.85.81-2.14,1.26-3.5l4.08-1.55a.6.6,0,0,0,.18-.06l.75-.28a.26.26,0,0,0,.09-.09.25.25,0,0,0,.34,0c2.53,1.95,12.08,9.45,16.55,15,0,0-2.66-7.28-5.94-11.24a26.73,26.73,0,0,0-4.29-4.24,12.41,12.41,0,0,0,.23-1.64A30.85,30.85,0,0,1,108.17,18c8.21,2.4,10.57,4,10.57,4a14.09,14.09,0,0,0-8-5.77c-3.49-1.09-5.88-1.63-8-1.22a3.42,3.42,0,0,0-1.72-2.9c-1.74-1-3.29,2.64-4.17,4.32a4.87,4.87,0,0,0-.55.06l-.45.07c-.32-1-1-2.72-2.83-2.6H93C92.3,12.52,90,9,83.37,6.32c-4-1.6-6.77-1.94-8.75-1.7-1.19-2.2-3.34-2.38-5,.26a2.18,2.18,0,0,0-1.51-.3,26.45,26.45,0,0,0-4.9-1.3c-.43-.06-.85-.11-1.28-.13a7,7,0,0,0-.42-.69C60.32.77,60.15-.76,58.74.41a9.22,9.22,0,0,0-1.3,1.32,3.47,3.47,0,0,0-1.16-1,1.39,1.39,0,0,0-1.94.76,1.85,1.85,0,0,0-.57-1c-1.29-.94-4.62.24-5,.53A14,14,0,0,0,46,3.64a21,21,0,0,0-5.51,2.1c-1.93,1-7.26,4.45-7.26,4.45s4.45-2.35,7.32-3.52c1-.42,2.65-1.18,4.46-1.76a32.31,32.31,0,0,0-4,7.79,101.78,101.78,0,0,1,6-8.29,9.35,9.35,0,0,1,3.48-.15,37.76,37.76,0,0,0-5.83,8.44,32.39,32.39,0,0,0-2.1,5.65,21.16,21.16,0,0,0-5.72-2.17c-5.35-1.31-8.5-.87-9.91.67l-1.92-5.62a.17.17,0,0,0-.21-.1.16.16,0,0,0-.1.2l2,5.82a2.75,2.75,0,0,0-.19.28,2,2,0,0,0-.93.08h0a1.81,1.81,0,0,0-1.28-.64l-.61-2.42a.15.15,0,0,0-.19-.11.15.15,0,0,0-.12.19l.58,2.3a8.14,8.14,0,0,0-2.25.23,25.72,25.72,0,0,0-7.77,3.64.09.09,0,0,0-.06,0A18.9,18.9,0,0,0,9.2,24.9C6.45,28.64,5.75,35.6,5.75,35.6s1.52-5.15,3.45-7.84c1.23-1.71,4.16-3.91,6.62-5.66l2.31,1.27a49,49,0,0,0-3,10.3,24.92,24.92,0,0,1-2,6.2c3.71-1.95,6.13-9.78,8.18-15.34l4.56.41c.21.43.44.88.68,1.35a17.71,17.71,0,0,0-1.08,1.63c-2.75,4.62-5.73,11.23-5.73,11.23S24.6,30.93,27.4,28a26.48,26.48,0,0,1,1.05,2.55.88.88,0,0,0,.05.15c-.49.58-1,1.21-1.52,1.9-6.14,8.13-6.67,11.53-6.67,11.53s3.46-5.15,6.09-6.44a13.38,13.38,0,0,0,3.19-2.86,35.63,35.63,0,0,0,1.49,5.43l.21.51c-1.54,2.27-2.38,3.8-2.38,3.8.9-.78,1.85-1.64,2.82-2.55a15,15,0,0,1,.52,2.28s.09-1.16.11-2.87c.79-.74,1.58-1.51,2.37-2.28a86.39,86.39,0,0,0,.35,9.33,18.67,18.67,0,0,0-5.76,6.44,26.53,26.53,0,0,0-3.34,9A103.7,103.7,0,0,1,33,53.6c2.35-2.7,5.09-4.64,7-4.83-.86,3.87-1.49,7.7-1.09,10.45,0,0,1.79-3.68,3.69-8,.1.87.18,1.48.18,1.48l1.77,6.67.15,2c-.48-.07-1-.12-1.45-.16a10.45,10.45,0,0,0-3.8.48l0-1.07a.17.17,0,0,0-.16-.17.16.16,0,0,0-.16.15l0,1.23a2.42,2.42,0,0,0-.59.41l-.67-.17a1.36,1.36,0,0,0-1.37.46,5.54,5.54,0,0,0-3.35-1.06c-2.45-.06-8.93,4.11-12.6,9.45-1.95-.32-2.83.11-3.25.66A2.3,2.3,0,0,0,16,69.92c-.93-.28-1.6.35-1.64,2-1.15-1.58-3.59-3.58-7.27,1.8S0,91.45,0,91.45a63.17,63.17,0,0,1,3.59-8.71C6,78,9,72,11.17,71.51A3.17,3.17,0,0,1,14.36,73a14.25,14.25,0,0,0,.26,1.6c.34,1.51,1.42,5.58,2.57,9.76-2.38,3.85-4.44,8-4.44,8s2.39-3,4.95-6.1c.94,3.44,1.85,6.71,2.34,8.45-.05.95-.11,2-.19,3a17.83,17.83,0,0,0-6.14,9.24,75.67,75.67,0,0,1,5.93-6.53c-.1,1.11-.17,1.86-.17,1.86s.83-1.43,1.82-3.44c.49-.45,1-.9,1.51-1.35A19.26,19.26,0,0,1,31.07,93l0,.07c-2.15,2.36-4.28,7.46-5.19,11.85a46,46,0,0,0-.87,11c1.18-1.14,2.79-8,4.18-12.77.65-2.23,1.58-4.68,2.38-6.65l.87,1.7.11.42c-.42.57-.83,1.18-1.24,1.81.21-.18.7-.62,1.4-1.21L35.86,111l-.17-.06a.16.16,0,0,0-.09.31l.36.11v0s0,0,0,0a22.33,22.33,0,0,0,1.29,4.3,10.78,10.78,0,0,1,.59,1.14l-.22.06a.27.27,0,0,0-.18.33.26.26,0,0,0,.33.18l.21-.06.39,3.18a1.64,1.64,0,0,1-.33.41c-.32.28.14.67.14.67-.39.28,0,.71.14,1.17s-.07,5.92-.1,9.34,0,13.86-.5,14.31-.28.71-.28.71c-.56.25.25,1,.46,2.72s.46,10.68.39,12.13-.36,4.47-.71,4.9.21.67.21.67-.35,0-.35.25c0,.38.49.52.49,1.72s.29,12.45.18,13.26-.14,1.66-.49,2-.07.43-.07.43c-.22.28.74,2,.74,3.63s-.11,5.5-.22,7a14.76,14.76,0,0,1-.84,3.67,1.34,1.34,0,0,0,0,.77s-.32,0-.35.25a20.6,20.6,0,0,0,.81,2.15,24.67,24.67,0,0,1,.07,5.32,4.91,4.91,0,0,1-.78,2.41c-.14.23,0,.42.22.55-.51.06,0,.64.3,1.75s.3,6.71.3,6.71l3.54-.08s.22-6.18.14-7.07.46-1,.3-1.25a.57.57,0,0,0,.2-.33c0-.29-.49-.53-.78-1.7s-.58-7.17.34-8.13.44-1.27.44-1.27a1.43,1.43,0,0,0-.34-1.06c-.44-.54-.25-1.07-.39-2.09s.29-8.72.29-9.64.24-.82.39-1.12a.38.38,0,0,0,0-.43c.09-.39-.29-.82-.49-1.69s-.38-10.81-.29-12.41a5,5,0,0,1,.87-2.62c.2-.39-.33-.53-.14-.87s-.1-.58-.39-2.08a35,35,0,0,1-.39-7.32c.1-3.59,0-9.5.25-10a2.58,2.58,0,0,0,.14-1,.37.37,0,0,0,0-.53c-.24-.29-.44-.39-.58-2s.14-19.14.14-20.35.68-1.46.78-2-.49-1.11-.44-2.13.39-16.57.68-19.09c.13-1.09.28-2.52.44-3.8.26.19.53.38.79.59a72.77,72.77,0,0,0-.56,13.68,93.69,93.69,0,0,1,2.83-10.33q.16-.52.33-1a18.44,18.44,0,0,1,3.12,4.38,31.36,31.36,0,0,0-2.69-5.75c.52-1.65,1-3.09,1.3-4.37a45.69,45.69,0,0,1,2.69,7.69c0,.19.07.38.11.57-.24,3.93-.54,7.77-.81,9.07,0,0-.52,2-.91,2.24s-.06.54.24.79c-.48.15-.71.38-.35.69.67.57.53,5.86.57,9.94S49,139,49,139.62s-1.17,1.28-.71,1.78a1.31,1.31,0,0,0,.44.26c-.46.15-.67.38-.32.68.68.56.54,1.56.57,5.64s-.21,13.57-.25,14.17-1.17,1.28-.71,1.78l.11.08c-.28.18-.41.41-.17.7.63.78.49,1.27.56,4.26a102.4,102.4,0,0,1-.21,10.55c-.25,1.13-.6,1.24-.85,1.42s-.36.35,0,.63a2.94,2.94,0,0,0,.32.08c-.48.18-.8.46-.49.85.64.78.49,1.28.57,4.26a101.91,101.91,0,0,1-.22,10.55c-.25,1.13-.6,1.24-.85,1.42s-.35.35,0,.63a.26.26,0,0,0,.1,0c-.32.15-.43.35-.13.6.68.57.53,1.56.57,5.65s-.21,12.07-.25,12.67-1.17,1.28-.71,1.78,1.88.49,2.49.49,2.62-.35,2-1.13-.57-.47-.57-4.27c0-3,0-12.52.21-13.66s.6-1.24.85-1.42.36-.35,0-.64l-.11,0c.32-.15.43-.36.13-.61-.67-.57-.53-1.56-.57-5.65s.22-8.94.25-9.55,1.17-1.27.71-1.77a.61.61,0,0,0-.15-.12c.52-.15.77-.38.4-.7-.67-.56-.53-1.56-.57-5.64s.21-9,.25-9.56,1.17-1.28.71-1.77a.48.48,0,0,0-.11-.09c.28-.17.41-.41.18-.69-.64-.79-.5-1.28-.57-4.26s0-14,.21-15.17.6-1.24.85-1.42.36-.35,0-.64c0,0-.31-.08-.78-.17.53-.18.91-.47.58-.87-.64-.79-.49-1.28-.57-4.26s0-18.33.22-19.47.6-1.24.85-1.42.3-.28.14-.47c.31-.84,1.7-4.65,1.73-4.72l2.13-2.68s.08,0,.09-.08l0-.08,1.17-1.46,4-4.79a24.44,24.44,0,0,1,2.23,4.12,20,20,0,0,0-1.17-5.39l1.89-2.25,3.39-2.29c-.57,1.81-.83,3.11-.83,3.11s.78-1.14,2.07-3.15c1.2,3.27,2.05,5.71,2.05,5.8a19.17,19.17,0,0,0,.22-8.14l4.92-3.73a43.66,43.66,0,0,0-1.69,5.76C73.57,104,73.9,107.4,73.9,107.4A45.27,45.27,0,0,0,78,97.7a59.76,59.76,0,0,1,2.66-7.58s10.17,11.36,12.5,15.62a35.65,35.65,0,0,0-5-12.2c4.71,2.72,11.78,7.84,16.2,15.85a27.54,27.54,0,0,0-10-14.75,54.71,54.71,0,0,0-9.06-5.79c3.72,1,9.53,3,12.71,6.46,0,0-6.25-8.35-16.54-8.76,0-.39.37-.77,1.38-1,2.43-.46,7.75.35,12.13,2.75a37.17,37.17,0,0,1,4.69,2.75s-1.32-2.17-5.23-4.15a57,57,0,0,0-1.54-8.79c-1-3.12-3.19-10-6.32-12-.56-.35-1.11-.68-1.63-1a11.19,11.19,0,0,1,1.21-.61A18.15,18.15,0,0,1,89,66.86C92.51,70.31,100.49,80,100.49,80s-3.12-7.78-4.85-10.9a19.71,19.71,0,0,0-5.51-5.6,10.94,10.94,0,0,1,4.84.75c5.92,2.32,14.69,8.37,14.69,8.37S100.89,65.06,94,63.13a13.71,13.71,0,0,0-5.18-.47,7.33,7.33,0,0,0-2.59-1c-1.78-.2-2.78.12-3.32.67-.3-1.25-1.65-3.39-3.53-1.87a9.41,9.41,0,0,0-2.09,3.34,20,20,0,0,0-3.74,1.68l-6.31,1.4a14,14,0,0,0-1.54-1l1.46-1.73c2,.79,3.38,1.47,3.38,1.47a15.31,15.31,0,0,0-2.78-2.18L69,61.88a.16.16,0,0,0,0-.23.15.15,0,0,0-.22,0l-1.28,1.51-.51-.3a.2.2,0,0,0,0-.08.17.17,0,0,0-.17,0,14.41,14.41,0,0,0-5.26-1.69c-3.49-.39-5.41-.24-6.58.75,0-.71.06-1.22.07-1.35,0-.63.61-6.46.75-7.88C56.64,55,58,58.29,58.82,59a21,21,0,0,0-.55-5.84,47.33,47.33,0,0,1,6.8,6.46c-.32-1.75-5.39-9-9.12-11.65,0-.33,0-.68,0-1.09.09-1.36.14-3.64.23-6l.44-1.17c2.44,1.69,5.25,3.89,6.58,5.82a29.13,29.13,0,0,0-5.71-8.13l0-.08c3.23,2.8,6.27,5.92,6.27,5.92a25.25,25.25,0,0,0-3.63-6.59l.68-1.27h0L64.49,33c1.68,3,3.4,6.84,4.4,8.69a51.22,51.22,0,0,1,3.19,8.24A51.24,51.24,0,0,0,72,40.69c-.32-3.12-2.55-6.76-4.78-9.45l3.07-2,.69.32c.19,1.4.45,4.15.45,4.15s.06-1.11.06-2.51c0-.44,0-.93,0-1.38,5.57,2.72,12.71,7,12.71,7a26.1,26.1,0,0,0-5.07-6c.59-.64,1.31-1.4,2.08-2.19.87,1.29,1.58,2.39,2,3.1,1,1.87,2,3.57,2,3.57A38.52,38.52,0,0,1,84,30.83a23.88,23.88,0,0,0-1-3.86A26.57,26.57,0,0,1,86,24.45a28,28,0,0,0,3.33-2.7c-.5,2.74-1.39,5.92-1.39,5.92A23.73,23.73,0,0,0,89.51,24.45Z"/></g></g></svg>