<svg xmlns="http://www.w3.org/2000/svg" viewBox="0 0 130.55 128.56"><defs><style>.cls-1{fill:#040000;fill-rule:evenodd;}</style></defs><title>舟</title><g id="图层_2" data-name="图层 2"><g id="图层_1-2" data-name="图层 1"><path id="帆船" class="cls-1" d="M101.73,128.56H24.42l-3.91-1.38c-.87-.3-1.76-.59-2.66-.88-4.16-1.35-8.45-2.75-10.82-5.87l-.3-.37c-.81-1-2.16-2.64-1.36-4a3.43,3.43,0,0,1,1.44-.27l-.38-1.14L1.26,100l-.53,0-.6-.08L0,99.07l.24-.45a5.29,5.29,0,0,1,1.44-.16,24,24,0,0,1,3.55.35l.29,0A5.3,5.3,0,0,0,6.57,99,1.29,1.29,0,0,0,7,98.93H6.75c-1.22,0-3.28-.68-3.39-1.92L14.71,70C18,62.33,20.93,54.8,24.08,46.82q1.43-3.63,2.88-7.28l1.83-4.72L35.34,18l-.57-1L34.2,16l.14-.46.08-.23.27-.17.05,0,.16,0,.51.41L68.37.91l-.1-.54L69.12,0a1.09,1.09,0,0,1,.71.26l.32,3.12L73,8l-.33-.82-.16-.89c1.38.78,2.84,3.79,4,6.2.49,1,.94,2,1.31,2.57L89.34,36.28,99.48,55l13.68,23.64,1.75,2.94,4.69,7.89c.27.45.56.89.85,1.35a16.39,16.39,0,0,1,1.94,3.57l4.6,7.17L129.8,106l-.22.1.35-.07.62.62V107l-2.68.69-5.49,4.82-4.56,3.93-5.3,4.57-2,1.71-2.64,2.22v.86l0,1.86c-1.64.83-3.9.9-6.08.9Zm25.38-20.7-2.69.65-2.94.72-6.79,7.44-6.84,7.46.05.24,0,.26.08-.27,9.24-8,4.89-4.22,2-1.66,2-1.65c.24-.21.77-.72,1-1ZM121,109.34l-13,3.19a48.44,48.44,0,0,1,.11,7.25c0,1.32-.1,2.65-.1,4l8.74-9.7,4.45-4.83-.17.15Zm-70.51-4.83-2.26,6-2.28,6.08,6.09,0,3.13.07L73.58,116l.64,0-.08-9.66-7.93-.54-8-.62L51,104.55l-.52,0Zm-3.54-.34-1.53,4.07-3.11,8.28,1.67-.08,1.78,0,4.48-12.08-1.64-.09-1.65-.13Zm-1.19-.12-3.41,9L41,116.52l1.06-.11,4.6-12.31-1,0Zm-34.51-3.12,2.92,6,4.43,9.1,11.09.15,11.17.19,3.48-9.45,1.11-3-34.2-3ZM7.45,115.84c3.55,0,7.18.06,10.81.12L12,103.35l-1.22-2.49-9.2-.79,2.75,7.82,2.79,8ZM82.51,94.63l-4.78,6-1.79,2.27.82,12.59,9.57-.82,1.39-.11-2.4-10-1.89-8.23a.44.44,0,0,1-.15,0,.39.39,0,0,1-.29-.16l-.2-.66-.28-.92Zm1.1,1.84,4.31,18.13.43-.07,3.19-.34,3.19-.34,2.59-.57c6.66-1.48,12.94-2.87,19.5-4.5l12.21-2.6-.11-.11-7.35-6.46-7.29-6.41c3.13,3.62,6.13,7.36,9.13,11.11l-.43.25-.19,0,1.68.91,1.54,1-.07.27a4.54,4.54,0,0,1-1.83-1.12,4.52,4.52,0,0,0-1.48-1l-1,.06-5.49-1.2L101,100.23l3.34,5.08,3.25,5.22.17.27-.34-.1h0l-.12-.07L104,105.38l-3.25-5.25-7.85-1.66-9.3-2Zm23.1-13.93a23.34,23.34,0,0,0,3.35,5.1l.7.88a52.42,52.42,0,0,0,8.88,8.93l9.63,8.56-.11.14.37-.08L128,103.72l-1.45-2.28-2.25-3.59L122,94.26l-1.35-.86-.84-.54-2-1.58-3.61-2.81L109.82,85l-3.11-2.48ZM81.28,86l-2.94,3.76-3,3.88.33,4.49.31,4.56,3.21-4.29,3.25-4.19a15.3,15.3,0,0,1-.49-3.82A13.65,13.65,0,0,0,81.28,86Zm-6.49-.88,0,0L75.37,93l1.45-1.83,4.4-5.58c0-.39-.13-.93-.33-1.08a12,12,0,0,1-4.35,1,2.28,2.28,0,0,1-.63-.07,2.24,2.24,0,0,1-.44-.17,1.7,1.7,0,0,0-.68-.22ZM70.56,37.44l-4.62,5.15-2.25,2.5-.22,2-.27,2.37,4.56,5.85,2.94,3.78a.72.72,0,0,1,.23,0h.16a1.34,1.34,0,0,0,.69-.12l-.36-7.69L71,43.9l-.23-3.33-.21-3.13Zm1.88-.85L73.91,58l2.35-.46,1.19-.19-2.8-15.29-.29-1.65,0-.29a.7.7,0,0,1,.11-.51c0-.08.07-.13.06-.17l0-.1,0,0-.76-1.32a3.86,3.86,0,0,1,.94,1.23l.62.37,4.3,6.06,2.23,3-1.1-4.26-1-4.33-6.74-3.3L73.81,38c-.61-.63-1.11-1.19-1.37-1.4Zm-9.11,8.88-1.69,2,1.42,1.77.09-2,.18-1.7ZM39.49,20.39l22,26.82.12-.19,1.92-2.21,1-8.16c0-.15.06-.5.11-.92a16.42,16.42,0,0,0,.25-2.61L50.17,25.77,39.49,20.39ZM65.17,33.32,64.47,39l-.7,5.76L66,42l4.6-5.08,0-.45,0-.52-3.27-1.56-2.11-1ZM70.23,4,71,15.29,71.8,27,72,30.44l.23,3.25a6.7,6.7,0,0,1,0,.9,2.49,2.49,0,0,0,.17,1.23c.49.88,6.07,3.65,7.36,4.07L77.16,28.25,74.6,16.51l-.86-4.13-.86-4.13L70.23,4Zm-1.67,1.4L67,18.75,65.25,33.08l4.34,2.06,1.08.54L69.52,20.09l-1-14.74Zm-.29-4.14L35.51,15.77l.31.15.72.86.7.86L39,19.8l3.13,1.54,3.17,1.57,9.88,5,9.89,5L67.81,9.36,68.16,6l.28-2.7a4.58,4.58,0,0,1,0-.85,2.39,2.39,0,0,0-.15-1.26Z"/></g></g></svg>