<svg xmlns="http://www.w3.org/2000/svg" viewBox="0 0 150.93 273.04"><title>资源 15</title><g id="图层_2" data-name="图层 2"><g id="图层_1-2" data-name="图层 1"><g id="菊"><path d="M118.81,165.4a94.89,94.89,0,0,0-20.59,27.27,4,4,0,0,0,.06,3.55c.06-.16,6.17-15.56,21.56-29.7,15.78-14.49,16.32-29.18,16.34-29.79l-1.53,0C134.65,136.83,134.08,151.37,118.81,165.4Z"/><path d="M133.1,137.5l-.29-.13s0,.08,0,.11Z"/><path d="M145.11,134.27a.1.1,0,0,0,0,0,32.5,32.5,0,0,1-4.07.39,5.36,5.36,0,0,0-1.95.5,10.94,10.94,0,0,1-.88,1,7.17,7.17,0,0,1-1.93,1.4c3.42,3.34,7.47-.07,8.26-1.11A2.8,2.8,0,0,0,145.11,134.27Z"/><path d="M134.72,137.85a5.54,5.54,0,0,0-1.62-.35l-.28,0a5.62,5.62,0,0,0-2.73.65,5.09,5.09,0,0,0-2.53,2.84c5.53,1.4,7.63-2.92,7.63-2.92A4.73,4.73,0,0,0,134.72,137.85Z"/><path d="M146.31,128.07c-.76-.13-2-1.33-4.45-.38a2.71,2.71,0,0,0-.82.54,7.42,7.42,0,0,0-1.34,1.86,2.66,2.66,0,0,1,.47.71,3.78,3.78,0,0,1-.09,2.93,12.86,12.86,0,0,1-1,1.39,5.36,5.36,0,0,1,1.95-.5,32.5,32.5,0,0,0,4.07-.39.1.1,0,0,1,0,0,8.25,8.25,0,0,0,2.72-4.55,10.16,10.16,0,0,0,.26-1.78A5.21,5.21,0,0,1,146.31,128.07Z"/><path d="M132.81,137.37a7.29,7.29,0,0,0-.67-1.86,17.07,17.07,0,0,0-2-4,7.51,7.51,0,0,0-.5-.65,6.05,6.05,0,0,0-1.64-1.45,3.74,3.74,0,0,0-.73-.34c-3.11-1-3.56-.82-4-1.4s-.77-.44-.77-.44a3.9,3.9,0,0,1-.37,2.29c-.58.83-1.28,7.18,3.62,8.07a39,39,0,0,0,4.37.59,5.62,5.62,0,0,1,2.73-.65S132.81,137.41,132.81,137.37Z"/><path d="M134.31,127.45c.19.1.59.3,1.06.52a4.72,4.72,0,0,1,.71-3,1.25,1.25,0,0,0,.25-.43,2.17,2.17,0,0,0-.44-.46c-.45-.29-1.6,0-2.11.17a6.2,6.2,0,0,0,.26,1.55A6.58,6.58,0,0,1,134.31,127.45Z"/><path d="M140.08,125.78a6,6,0,0,0-3.49-2.1,4.77,4.77,0,0,1-.26.84,1.25,1.25,0,0,1-.25.43,4.72,4.72,0,0,0-.71,3c.26.12.53.24.82.35l.33.13a7,7,0,0,1,3.18,1.64,7.42,7.42,0,0,1,1.34-1.86A4.36,4.36,0,0,0,140.08,125.78Z"/><path d="M134,125.78a6.2,6.2,0,0,1-.26-1.55,6.54,6.54,0,0,1,0-.93c-.57-.12-4.13.76-5.15,3.18a8.26,8.26,0,0,0-.67,2.88,6.05,6.05,0,0,1,1.64,1.45c.56-1.25,1.83-1.26,2.52-1.66a7.76,7.76,0,0,0,1.43-1.15c.36-.35.61-.63.61-.63l.14.08A6.58,6.58,0,0,0,134,125.78Z"/><path d="M140.17,130.8a2.66,2.66,0,0,0-.47-.71,7,7,0,0,0-3.18-1.64l-.33-.13c-.29-.11-.56-.23-.82-.35-.47-.22-.87-.42-1.06-.52l-.14-.08s-.25.28-.61.63a7.76,7.76,0,0,1-1.43,1.15c-.69.4-2,.41-2.52,1.66a7.51,7.51,0,0,1,.5.65,17.07,17.07,0,0,1,2,4,7.29,7.29,0,0,1,.67,1.86l.29.13a5.54,5.54,0,0,1,1.62.35h.15a3.5,3.5,0,0,0,1.4-.36,7.17,7.17,0,0,0,1.93-1.4,10.94,10.94,0,0,0,.88-1,12.86,12.86,0,0,0,1-1.39A3.78,3.78,0,0,0,140.17,130.8Z"/><path d="M123.33,103.92s-.57-3.86-1.22-4.22-.86-.08-.93-1.8c0,0,0-.93-.5-.71s-.65,1.29-.93,1.07-2.08-2.72-3.94-3.58-2.29-.78-1.58-.36A18.81,18.81,0,0,1,116.74,97c.64.72,1.22,1.08.78,1.15s-.35.79.37,1.43.85.29.64,1.43.57,2.15,1.5,3,.5,1.29.5,1.29A15.94,15.94,0,0,1,117.6,103c-.64-.85-2-2.58-2.58-2.51a5,5,0,0,1-2.15.15c-1-.22-1.72-2-2.65-2.08s-1.36.36-2.51-.57-2.14-1.43-2.36-.29-.64,1.15-1.36,1.08-3.59.35-1.86.56,3.72.94,3.72,1.51-.29.72-1.29,1.51-1.36,1.15.29.86,3.37-.58,3.37,0,.64.78,1.79.5,2.72.07,2.5.57-.14.51,1.29.58a8.44,8.44,0,0,1,3.8,1.64c.86.57.36,1-.36.65s-1.57-1-1.93-.65-.51.29-1.29.21-2,.08-.15.79,1.15.72.07.72.44.64-1.5.64-1.64.22-1.07.65-.29,1.07-1.65,1.07-.86.58-.29.86-1.5.36-2.72.36-2.36.36-1.86,1-1.08.07-1.22.72,1.29.72-.57,1.15-3.66,1.07-2.86,1.29.57.49-.87.86-6.23,1.29-3.94,1.14a38.73,38.73,0,0,0,6.45-1.36c1.22-.29.93.29,1.86.15s2.51-1.87,3.3-2.08-.43,1,0,1,1.5-.07,1.14.93.79,0,1.37-.57,1-1.65,2.29-1.65,2.07-1.79,2.79-1.36.64,1.36,1.72-.22,1.29-1.07,2.08-1.57a18.38,18.38,0,0,1,2.86-1.87c1.07-.43,1.65-1.21,3.22-2.93s4.59-4.23,5.95-4.73,2.36-.93,1.86-1.36,1.08-.28,1.51.72.86-.36,1.5.36.43-1.36,1.64-.79.94-.58,2.08-.15,2.79,1.15,2.08.22,2.29,1.72,1.72.36-3.87-1.51-2.94-2.43-.14-1.44-1.57-1.23-3.15.08-4,.65-1.51.07-2.3.58-.71.14-1.5.7-.72-.21-.5-1.21-.72-1.43-.93-.93-1.36-1.29-1.22.86-.72,3.44-.72,2.15-.57-.94-1,.21-.78,3.65-2.87,4.3C123.47,104.93,123.33,103.92,123.33,103.92Z"/><path d="M97.79,193.92a2.88,2.88,0,0,1-.47-2.22c.31-1.17,1.48-2.29.16-2s-1.45,1.56-1.41-.51,1.83-4.13,1.33-4.36a.86.86,0,0,1,.11-1.52c.75-.47.39-1.44.39-1.68s1.29-1.17.86-1.59-.93.42-1.25.62-.73-.08-1,.74-.24,1.52-1.36,2.18-1,.86-1,2,.43,2.38-.31,1.09-.62-1-.62-1.87-.31-.24-.28-1.37-.38-.62-.69,0-.48.35-.55,1.49-.16,2.06-.43.73-.74-1.79-.82-2.37-.54-1.48-.54-.16-.55.74-.55.08a23.84,23.84,0,0,0-.93-3.12c-.12-.5-.67-.7-.71-.27s-.78.24-1-.19-.39.35-.27.81,1.2,2-.59.2-1.9-1.21-1.71-.85.93,1.94-1.87-.44-3.2-2.38-4.83-3.7-2.38-1.36-1.76-.7a13.29,13.29,0,0,0,2.11,2c1,.74,1.32,1.44.9,1.4s-.51.2,1,1.29,3.58,2.53,2.57,2.26-1.13.11-.35.5,2.1,1.33,1.56,1.29-1.44.15-.32.74,2.19,1.21.66,1.13-5.49-.23-3.34.35,0,.62,1.4.7,2.33.43,2.18.82-.39.86,1.09.82,3.12.12,2.77.46-.55.67-.24.94.24.39-.38.51-1.84.93-1,1a8.81,8.81,0,0,1,2.57.35c.39.24-.51.35.2.66s-2,.2-.9.71-.62.31.62.5a3.24,3.24,0,0,1,2,.74,19.6,19.6,0,0,1,1.71,1.6c.86.74,1.1,1.09-.31.35s-2.61-1.87-3.42-2.1a2.49,2.49,0,0,1-1.53-.78c-.66-.63-2.53-2-2.26-1.41s1.41,1.49,1,1.72-1.28.15-.93.39-.15.35-1.63.19-.16.51-1.29.47-1.79.23-1.13.51,1,.7-.31.74-1.72.31-1.25.5-.51.2-1.13.2-1.44-.12-1.71.12-.16.38-1,.46-1.21.59,0,.59.12.74,1.91.78.59.35,2.07.35,2.53-.43,2.06.46.63.55,1.17.2a5.27,5.27,0,0,1,2.5-.55c.35.12-1,.86,0,.9a14.09,14.09,0,0,0,2.89-.47c.51-.08,0,.35.78.27s1.44.08.35.4-3.2.42-3.66.81,1.08.9-.67,1-5.18.67-3.51.94,0,.35,1.06.7.93,1.17.12,1.52-1.64.59-1.45,1.13.67.58-.51,1.91-.73,2.07.67.9,1.91-1.76,2.61-2,1.6-.31,1.13.51,0,.46,1-.59,2.34-2,2.22-1.21.51.71,1.25-.46,2.1-3,2-1.6a4.18,4.18,0,0,1-.55,2.22c-.27.55-.62,1.44.39.39s2.06-3.47,1.87-2.3.43.43,1-.23,1.25-1.41,1.25-1.41l1.64-3a33.57,33.57,0,0,1,4-.42c1.48,0,1.4.61,1.83,1.94s2.1,4.76,2.22,3.63.43-2.42,1.09-2.11,1.76,2,3,2.34-.19-1.6,1.32,0,3.86,3,3.31,1.83-.34-1.56.74-1.13.9-.58,0-1.17-1.09-1.87-.42-1.72,1.4.43,2.88,2.15,1.41.23,1.21-.31,1.52,0,1.28-.94,2.14,1.52,2.23.51.77-.7,1.44-.47,1.63.74,1.75-.12-6.82-2.14-6.32-2.45,1.53-.47.09-.82-2.34.05-4.06-.43-2.41-.85-1-1,1.75.55,2.65.2.39-.63,1.36-.9,3-1.05.75-1.29a18,18,0,0,0-5.38.2c-.9.23-1.64.39-1.41-.35s-.12-.47-1.24-.28-.82.31-1.52.24a5.21,5.21,0,0,0-2,0c-1.09.15,1.13-.78.23-.9a31.82,31.82,0,0,0-5.88.66,16.23,16.23,0,0,0-3.94,1.48c-1.12.63,1.88-1.9,3.86-2.76s2.5-.94,3.43-.58,2.18.7,1.87-.36,1-.35,2.69.24,2.61.74,2.84.23,1.83-.54,2.81-.54,2.81.85,3.31.58-1.09-.82-1.17-1.13.82-.7-.93-1.09-3.12-.16-3.28-.35,0-.89-.58-.94-2.69-.46-2.06-.7,1.48,0,3.34.12.51-.74,1.76-.86a16.83,16.83,0,0,1,4.36.78c.62.15,1.6-.16,1.05-1.28s1.1-.71,2.42-.67,1.87-.31,2.61-.19,1.4.93,2-.12,3.11-.46,3.77-.46,2.46-.08,2.07-.87-.94-.3-2.07-.81-.34-1-1.79-1-2.06.67-4-.58-2.11-.74-2.57-.78-.12-.7-.94-.58-2.53.46-3,0-.9.19-1.17-.35-.63-.74-1.29,0-1.17.58-1,0,0-1.56-.74-.27a12,12,0,0,1-3.83,3.54c-1.39.9-1.47.63-1.59.12s-1-.12-.9-.7,1.49-.9,2.61-1.56.9-.7.51-.86-2.14,1.8-1.36-.07.27-1.49.12-1.92-.16-1.4-.82-.35a37.51,37.51,0,0,1-4.17,5c-.71.51-1,.35-1.09-.08s-.78.24-1.13,1.79a9,9,0,0,1-1.33,3.43,42,42,0,0,1-4.09,4.37C98,194.93,97.79,193.92,97.79,193.92Z"/><path d="M124.72,160.18s-.2-3-1.24-4.17a3.93,3.93,0,0,1-1-2.73c0-.49-.25-.45-.59,0s-.3,2-1.49-.2-1.34-1.93-1.74-2-.35-.94-.5-1.34-1.24-1.54-1.24-1.19.11,2.38-.44,1-1.24-1.73-1.19-1,.15,2.38-.85,2.13a13.35,13.35,0,0,1-2.72-.89,7.74,7.74,0,0,1-2.18-1.69c-.7-.74-1.79-.3-2.09-.49s-.2.35.45.64.84.5-.45.4-1.58.15-2.82.05-2.23-.1-.8.44a8.54,8.54,0,0,0,3.23.75c1.19.05,2.48.54,2.18.6s-2.23-.5-2-.06,1.05.45,1.2.8,1.53.44,2.08.44a9,9,0,0,1,2.23.05c1.14.2,1.59.75.94.75s-1.84.44.2,1,0,.64,1.39.94,1.63.69,1.83,1.29-1.09.4.1.69a16.58,16.58,0,0,1,2.43.9c1.49.54,2.38,1.63,2.09,1.78s-2.49-1.44-3.08-1.64-.4.7-1.69.2-2.08-1-2.18-.69-.64.25-1.48.25-3.38.2-1.94,1-.75.84-1.34.94-.4.4-1.39.35-1.83.24-1.29.44,2.19.45,1.79.55-1.84.15-2.18.6-1.1.39-1.54.54-.55.69.39.69a25.77,25.77,0,0,0,4.67-.79,19.11,19.11,0,0,1,5.06-.84c2.18-.05,6.1-.2,7.69.84s1.48-.64,1.48-.64l.64-.75s0,.8,1.49.4a29,29,0,0,0,4.77-1.69c1.73-.79,5-2.13,5.6-2.77s1.19-.65,2.23-1.14,1.74-1.05.2-.94-1.79-.55-2.53-.25-.44-1-1.24-.3-1.34.64-1.24.19,0-1.18-.7-.44-.84,1.39-1.29,1.44-1-.3-1.48.85c-.9,2.12-1.05.49-1.64,1.53s-.49-.15-1.39.89-1,.74-1.58,1A15,15,0,0,0,124.72,160.18Z"/><path d="M129.73,54.75c1.06,5.45,2.55,19.33-4.06,38.68-3.91,11.47-5.18,20.91-6.41,30-1.53,11.36-3.11,23.12-9.88,38.92l-.85,2c-11.46,26.72-15.32,35.72-20.85,98.94l1.52.13c5.5-63,9.34-71.92,20.73-98.47l.86-2c6.85-16,8.44-27.85,10-39.32,1.22-9,2.47-18.41,6.35-29.75,6.88-20.16,5.21-34.28,4.08-39.73a6.83,6.83,0,0,1-1-.29A5.31,5.31,0,0,1,129.73,54.75Z"/><path d="M124.83,49.12a2.58,2.58,0,0,1-.19-.37A6.41,6.41,0,0,1,124,47c-.74,1.82-2.49,4.07-6.51,5.79a4.4,4.4,0,0,0-.59,2c0,3.69,1.59,5.34,2.23,5.15s-.39-.83,1.65-2.23A14.94,14.94,0,0,0,124,54.85a8.81,8.81,0,0,0,1.87-4.22A11.69,11.69,0,0,1,124.83,49.12Z"/><path d="M116,43.82A12.26,12.26,0,0,1,112.12,42a10.88,10.88,0,0,1-.86-.72,11,11,0,0,0-4-.42c-3.5.31-6.1,2.22-6.3,4.06.51.51,1-.31,2.35.26s1.35,1,4.76,1.07a17.31,17.31,0,0,1,1.85-1A19.24,19.24,0,0,1,116,43.82Z"/><path d="M124.08,44.53c-1.62,1.63-6.38,5.46-7.94,1.87-.17-.58.63-.16,1.13,0s3.15.84,5.41-2.25a12.72,12.72,0,0,1-6.71-.33,19.24,19.24,0,0,0-6,1.43,17.31,17.31,0,0,0-1.85,1c-3.21,2.07-3.58,4.33-4.12,5.09s-.57.95.57,1.08,2.61,4.13,11.83.76l1.09-.43c4-1.72,5.77-4,6.51-5.79a5.05,5.05,0,0,1-.1-.84A4.94,4.94,0,0,1,124.08,44.53Z"/><path d="M123.81,40s-3.65-7.59-2.1-8.76c1,.2,1,4.65,4.61,8,0,0,0-4.69-.79-6.33s-2.18-3-.88-2.43a9.41,9.41,0,0,1,3.1,2.55,15.27,15.27,0,0,1-.27-4.3,13.3,13.3,0,0,0-2.85-2c-1.65-.82-2.86-1.27-3.11-.82a16.36,16.36,0,0,1-1.78,3.3,9,9,0,0,0-.76,5.54,13.29,13.29,0,0,0,1.22,1.75C123.1,40,123.81,40,123.81,40Z"/><path d="M150.69,32.09c.25-.63.51-.76-.38-.89s-.07-.89-5-1.65c-3-.47-5.45,1.37-6.83,2.82A7.48,7.48,0,0,1,136,36.19a12.75,12.75,0,0,1,9,1.16A6.17,6.17,0,0,0,150.69,32.09Z"/><path d="M127.75,33.07a3.78,3.78,0,0,1,.67,1.26c.33,1.43.58,3.74.58,3.74a25.91,25.91,0,0,0,1.18-9.56c1.42.46,1.63,4.06.88,8.59,1.67-1.8,3.69-4.86,4.06-7.24s1,1.21.3,3.81a7.06,7.06,0,0,1-1.68,3.22c.28-.11.57-.23.85-.32.46-.15.92-.28,1.36-.38a7.48,7.48,0,0,0,2.57-3.82,12.46,12.46,0,0,0,.48-2.69c.06-5.91-4.33-6.23-4.84-7.7s-.82-1.33-1.46-.82-3.17,1.52-4.38,3.75a10.63,10.63,0,0,0-.84,3.86A15.27,15.27,0,0,0,127.75,33.07Z"/><path d="M136,36.19c-.44.1-.9.23-1.36.38-.28.09-.57.21-.85.32l-.21.18s-3.93,2.84-6.67,5c5.45-1,9,.65,10.72,3.26,2.92.53,5.75.92,7.45.29,3.24-1.21,2.8-2.1,3.82-2.42s1.58-1.27.82-1.65-1.21-1-2.22-2.29A8.79,8.79,0,0,0,145,37.35,12.75,12.75,0,0,0,136,36.19Z"/><path d="M129.49,53.61a9.89,9.89,0,0,1-3.64-3A8.81,8.81,0,0,1,124,54.85a7.2,7.2,0,0,0,.91,1.52c1.58,2,1.9,2.22,2.47,1.2.39-.69,1.59-1.62,2.37-2.82a5.31,5.31,0,0,0,.45-.85A6.76,6.76,0,0,1,129.49,53.61Z"/><path d="M138.17,46.46a6.64,6.64,0,0,0-.59-1.12c-1.7-2.61-5.27-4.23-10.72-3.26a25.46,25.46,0,0,0-2.46,2.1l-.32.35a4.94,4.94,0,0,0-.2,1.6,5.05,5.05,0,0,0,.1.84,6.41,6.41,0,0,0,.66,1.78,2.58,2.58,0,0,0,.19.37,11.69,11.69,0,0,0,1,1.51,9.89,9.89,0,0,0,3.64,3,6.76,6.76,0,0,0,.69.29,6.83,6.83,0,0,0,1,.29,8,8,0,0,0,1.76.21c2.41,0,3.43.57,3.75,1s.38-.12.45-.89S139.63,50,138.17,46.46Z"/><path d="M135.12,29.86c-.37,2.38-2.39,5.44-4.06,7.24.75-4.53.54-8.13-.88-8.59A25.91,25.91,0,0,1,129,38.07s-.25-2.31-.58-3.74a3.78,3.78,0,0,0-.67-1.26,9.41,9.41,0,0,0-3.1-2.55c-1.3-.58.12.8.88,2.43s.79,6.33.79,6.33c-3.64-3.39-3.64-7.84-4.61-8-1.55,1.17,2.1,8.76,2.1,8.76s-.71,0-3.61-3.48A13.29,13.29,0,0,1,119,34.77c-1.6-2.67-1.53-4.84-2.3-6.09-1.63.5-1.08,6.41,4,11.48-4.49-1.63-5.91-4.86-7.42-6.7s-1.63.41-.79,2.22a13.93,13.93,0,0,0,8.17,6.79c-3.86,1.21-8.85-2.64-10.52-3.82-1.48-1-.9.81,1.11,2.64a10.88,10.88,0,0,0,.86.72A12.26,12.26,0,0,0,116,43.82a12.72,12.72,0,0,0,6.71.33c-2.26,3.09-4.91,2.43-5.41,2.25s-1.3-.58-1.13,0c1.56,3.59,6.32-.24,7.94-1.87l.32-.35a25.46,25.46,0,0,1,2.46-2.1c2.74-2.17,6.67-5,6.67-5l.21-.18a7.06,7.06,0,0,0,1.68-3.22C136.13,31.07,135.5,27.47,135.12,29.86Z"/><g id="菊-2" data-name="菊"><path d="M32.16,160a105.15,105.15,0,0,1,20.61,30.18,4.81,4.81,0,0,1-.06,3.92,100.21,100.21,0,0,0-21.59-32.86c-15.79-16-16.33-32.28-16.35-33l1.53,0C16.3,128.38,16.87,144.46,32.16,160Z"/><path d="M17.85,129.11l.29-.14s0,.08,0,.12Z"/><path d="M5.83,125.54v0a30.4,30.4,0,0,0,4.08.43,4.92,4.92,0,0,1,1.95.55,13.16,13.16,0,0,0,.88,1.09,7.24,7.24,0,0,0,1.93,1.54c-3.42,3.7-7.47-.07-8.26-1.22A3.26,3.26,0,0,1,5.83,125.54Z"/><path d="M16.23,129.5a5.32,5.32,0,0,1,1.62-.39l.28,0a5.32,5.32,0,0,1,2.74.72A5.39,5.39,0,0,1,23.39,133a6.25,6.25,0,0,1-7.63-3.24Z"/><path d="M4.62,118.68c.77-.14,2-1.48,4.46-.42a2.72,2.72,0,0,1,.82.6,8.36,8.36,0,0,1,1.34,2,3.3,3.3,0,0,0-.47.79,4.59,4.59,0,0,0,.09,3.24,14,14,0,0,0,1,1.54,4.92,4.92,0,0,0-1.95-.55,30.4,30.4,0,0,1-4.08-.43v0a9.47,9.47,0,0,1-2.73-5,12.45,12.45,0,0,1-.26-2A4.86,4.86,0,0,0,4.62,118.68Z"/><path d="M18.14,129a8.53,8.53,0,0,1,.67-2.06,20.4,20.4,0,0,1,2-4.48c.16-.25.33-.49.5-.72A6.45,6.45,0,0,1,23,120.1a4.08,4.08,0,0,1,.72-.37c3.12-1.12,3.57-.91,4-1.54s.77-.49.77-.49a4.77,4.77,0,0,0,.38,2.53c.57.91,1.27,7.94-3.63,8.93a35.65,35.65,0,0,1-4.37.65,5.32,5.32,0,0,0-2.74-.72S18.14,129,18.14,129Z"/><path d="M16.64,118c-.19.11-.59.34-1.06.58a5.79,5.79,0,0,0-.71-3.34,1.54,1.54,0,0,1-.26-.48,2.25,2.25,0,0,1,.45-.5c.44-.33,1.6,0,2.11.18a8.08,8.08,0,0,1-.26,1.71A7.59,7.59,0,0,0,16.64,118Z"/><path d="M10.86,116.14a5.9,5.9,0,0,1,3.5-2.32,6,6,0,0,0,.25.93,1.54,1.54,0,0,0,.26.48,5.79,5.79,0,0,1,.71,3.34c-.26.13-.54.27-.82.39l-.34.14a6.79,6.79,0,0,0-3.18,1.81,8.36,8.36,0,0,0-1.34-2A5.16,5.16,0,0,1,10.86,116.14Z"/><path d="M16.91,116.14a8.6,8.6,0,0,0,.25-2.74c.57-.13,4.13.85,5.15,3.52A9.68,9.68,0,0,1,23,120.1a6.45,6.45,0,0,0-1.65,1.61c-.56-1.38-1.83-1.39-2.52-1.83a8.16,8.16,0,0,1-1.43-1.28c-.36-.38-.61-.7-.61-.7l-.14.09A7.59,7.59,0,0,1,16.91,116.14Z"/><path d="M10.77,121.7a3.3,3.3,0,0,1,.47-.79,6.79,6.79,0,0,1,3.18-1.81l.34-.14c.28-.12.56-.26.82-.39.47-.24.87-.47,1.06-.58l.14-.09s.25.32.61.7a8.16,8.16,0,0,0,1.43,1.28c.69.44,2,.45,2.52,1.83-.17.23-.34.47-.5.72a20.4,20.4,0,0,0-2,4.48,8.53,8.53,0,0,0-.67,2.06l-.29.14a5.32,5.32,0,0,0-1.62.39h-.15a3.13,3.13,0,0,1-1.41-.4,7.24,7.24,0,0,1-1.93-1.54,13.16,13.16,0,0,1-.88-1.09,14,14,0,0,1-1-1.54A4.59,4.59,0,0,1,10.77,121.7Z"/><path d="M27.63,92s.57-4.28,1.22-4.67.86-.09.93-2c0,0,0-1,.51-.79s.64,1.43.92,1.19,2.09-3,3.95-4,2.3-.87,1.58-.4a19.49,19.49,0,0,0-2.51,2.93c-.65.8-1.22,1.19-.79,1.27s.36.87-.36,1.59-.86.31-.64,1.58A4,4,0,0,1,30.93,92c-.93.95-.5,1.43-.5,1.43a16,16,0,0,0,2.94-2.54c.64-.94,2-2.85,2.58-2.77a4.53,4.53,0,0,0,2.15.16c1-.24,1.72-2.22,2.66-2.3s1.36.39,2.51-.64,2.14-1.58,2.36-.31.65,1.27,1.36,1.19,3.59.39,1.87.63-3.73,1-3.73,1.66.29.8,1.29,1.67,1.36,1.27-.28,1-3.38-.64-3.38,0-.64.87-1.79.55-2.72.08-2.51.64.14.56-1.29.63a8,8,0,0,0-3.8,1.83c-.86.63-.36,1.11.36.71s1.57-1.11,1.93-.71.51.31,1.29.23,2,.08.15.88-1.15.79-.07.79-.43.71,1.5.71,1.65.24,1.08.71.28,1.19,1.65,1.19.86.64.29,1,1.5.4,2.72.4,2.37.39,1.87,1.11,1.07.08,1.21.79-1.29.8.58,1.27,3.66,1.19,2.86,1.43-.57.55.87,1,6.23,1.43,3.94,1.26a35.45,35.45,0,0,1-6.45-1.5c-1.22-.32-.94.32-1.87.16s-2.5-2.06-3.3-2.3.43,1.11,0,1.11-1.5-.08-1.14,1-.79,0-1.37-.64-1-1.82-2.29-1.82-2.08-2-2.79-1.5-.65,1.5-1.73-.24-1.29-1.19-2.08-1.75A18.42,18.42,0,0,0,29.71,98c-1.07-.47-1.65-1.34-3.22-3.25s-4.59-4.67-6-5.22-2.36-1-1.86-1.51-1.08-.32-1.51.79-.86-.39-1.5.4-.43-1.51-1.65-.87-.93-.64-2.08-.16-2.79,1.27-2.08.24-2.29,1.9-1.72.39S12,87.13,11.07,86.1s.14-1.59,1.58-1.35,3.15.08,4,.71,1.51.08,2.3.64.71.16,1.5.79.72-.24.5-1.35.72-1.58.94-1,1.36-1.42,1.22.95.71,3.81.71,2.38.58-1,1,.24.78,4,2.87,4.75C27.49,93.07,27.63,92,27.63,92Z"/><path d="M53.2,191.55a3.46,3.46,0,0,0,.47-2.46c-.31-1.3-1.48-2.54-.15-2.2s1.44,1.72,1.4-.56-1.83-4.57-1.33-4.83a1,1,0,0,0-.11-1.68c-.74-.52-.39-1.59-.39-1.86s-1.29-1.28-.86-1.76.93.48,1.25.69.74-.08,1,.82.24,1.68,1.37,2.41,1,.95,1,2.2-.43,2.63.31,1.21.63-1.08.63-2.07S58,181.2,58,180s.39-.69.7,0,.47.39.55,1.64.16,2.28.43.82.74-2,.82-2.63.55-1.64.55-.17.54.81.54.08a26.57,26.57,0,0,1,.94-3.45c.12-.56.66-.78.7-.3s.78.26,1-.21.4.38.28.9-1.21,2.25.58.22,1.91-1.34,1.72-.95-.93,2.15,1.87-.48,3.2-2.63,4.84-4.09,2.38-1.51,1.76-.78a13.57,13.57,0,0,1-2.11,2.16c-1,.82-1.33,1.59-.9,1.55s.51.22-1,1.42-3.59,2.81-2.58,2.51,1.14.12.35.55-2.1,1.47-1.56,1.43,1.45.17.32.82-2.19,1.33-.66,1.25,5.5-.26,3.35.38,0,.69-1.41.78-2.34.47-2.18.91.39.94-1.09.9-3.12.13-2.77.52.54.73.23,1-.23.43.39.56,1.84,1,1,1.08a7.71,7.71,0,0,0-2.57.39c-.4.26.5.39-.21.73s2,.22.9.78.63.34-.62.56a3,3,0,0,0-2,.82,22.58,22.58,0,0,0-1.72,1.76c-.85.82-1.09,1.21.32.39s2.61-2.07,3.43-2.33a2.29,2.29,0,0,0,1.52-.86c.66-.69,2.54-2.24,2.26-1.55s-1.4,1.64-1,1.9,1.29.17.93.42.16.39,1.64.22.16.56,1.29.52,1.8.26,1.13.56-1,.78.32.82,1.71.34,1.24.56.51.21,1.14.21,1.44-.12,1.71.14.16.42,1,.51,1.21.65,0,.65-.12.82-1.91.86-.59.39-2.07.39-2.54-.47-2.07.52-.62.6-1.17.21a4.85,4.85,0,0,0-2.5-.6c-.35.13,1,.94,0,1a12.91,12.91,0,0,1-2.88-.52c-.51-.08,0,.39-.78.3s-1.45.09-.35.44,3.2.47,3.66.9-1.09,1,.66,1.08,5.19.73,3.52,1,0,.39-1,.78-.94,1.29-.13,1.68,1.64.65,1.45,1.25-.66.64.51,2.11.74,2.29-.67,1-1.91-1.94-2.61-2.19-1.6-.35-1.13.56,0,.51-1-.65-2.33-2.2-2.22-1.34-.5.78-1.25-.51-2.1-3.33-2-1.77a4.94,4.94,0,0,0,.55,2.45c.27.61.62,1.6-.39.44s-2.07-3.84-1.87-2.55-.43.47-1.06-.26-1.25-1.55-1.25-1.55l-1.63-3.27a29.77,29.77,0,0,0-4.06-.48c-1.48,0-1.4.69-1.83,2.15s-2.11,5.27-2.23,4-.43-2.67-1.09-2.32-1.76,2.19-3,2.58.19-1.77-1.33,0-3.86,3.32-3.31,2,.35-1.73-.74-1.25-.9-.65,0-1.29,1.09-2.08.43-1.9-1.41.47-2.89,2.37-1.41.26-1.21-.35-1.52,0-1.29-1-2.14,1.68-2.22.56-.78-.77-1.44-.52-1.64.82-1.76-.13,6.83-2.37,6.32-2.71-1.52-.52-.08-.91,2.34,0,4.06-.47,2.42-1,1-1.12-1.75.6-2.65.21-.39-.69-1.37-1-3-1.16-.74-1.42a16.74,16.74,0,0,1,5.39.21c.9.26,1.64.44,1.4-.38s.12-.52,1.25-.31.82.35,1.52.26a5,5,0,0,1,2,0c1.1.18-1.13-.86-.23-1a28.69,28.69,0,0,1,5.89.73,15.16,15.16,0,0,1,3.94,1.64c1.13.7-1.88-2.11-3.86-3.06s-2.5-1-3.43-.64-2.19.78-1.88-.39-1-.39-2.69.25-2.62.83-2.85.26-1.83-.6-2.81-.6-2.81.95-3.31.65,1.09-.91,1.17-1.25-.82-.78.93-1.21,3.13-.17,3.28-.39,0-1,.58-1,2.7-.52,2.07-.78-1.48,0-3.35.13-.51-.82-1.76-1a15.91,15.91,0,0,0-4.37.86c-.62.17-1.59-.17-1.05-1.42s-1.09-.78-2.42-.73-1.87-.35-2.61-.21-1.4,1-2-.14-3.12-.51-3.78-.51-2.46-.09-2.07-.95.94-.35,2.07-.9.35-1.09,1.79-1.09,2.07.74,4-.64S27,180,27.42,180s.12-.78.94-.65,2.53.52,3,0,.9.21,1.17-.39.63-.82,1.29,0,1.17.65,1-.05,0-1.72.74-.3a12.67,12.67,0,0,0,3.83,3.93c1.4,1,1.48.68,1.6.13s1-.13.9-.78-1.49-1-2.62-1.73-.9-.77-.51-.94,2.15,2,1.37-.09-.28-1.64-.12-2.11.16-1.56.82-.39A42,42,0,0,0,45.09,182c.71.56,1.06.39,1.1-.09s.78.26,1.13,2a10.34,10.34,0,0,0,1.33,3.79,46.23,46.23,0,0,0,4.09,4.84C53,192.66,53.2,191.55,53.2,191.55Z"/><path d="M26.24,154.2s.2-3.29,1.24-4.61a4.63,4.63,0,0,0,1-3c.05-.54.25-.49.6,0s.3,2.2,1.49-.22,1.34-2.13,1.73-2.19.35-1,.5-1.48S34,141,34,141.37s-.11,2.63.44,1.15,1.24-1.92,1.19-1.15-.15,2.63.85,2.35a12.55,12.55,0,0,0,2.73-1,7.78,7.78,0,0,0,2.18-1.86c.7-.82,1.79-.33,2.09-.55s.2.39-.45.72-.84.54.45.43,1.59.17,2.83.06,2.23-.11.8.49a8.12,8.12,0,0,1-3.24.83c-1.19.05-2.48.59-2.18.65s2.24-.55,2-.06-1.05.5-1.2.89-1.53.49-2.08.49a8.13,8.13,0,0,0-2.23.05c-1.15.22-1.59.83-.95.83s1.84.49-.2,1.15,0,.71-1.39,1-1.64.77-1.84,1.43,1.1.44-.09.77a14.8,14.8,0,0,0-2.43,1c-1.5.6-2.39,1.81-2.09,2s2.48-1.59,3.08-1.81.39.77,1.69.22,2.08-1.1,2.18-.77.65.27,1.49.27,3.38.22,1.93,1.16.75.93,1.35,1,.39.44,1.39.38,1.83.27,1.29.5-2.19.49-1.79.6,1.84.16,2.18.66,1.1.44,1.54.61.55.76-.39.76a23.73,23.73,0,0,1-4.67-.88,17.73,17.73,0,0,0-5.07-.93c-2.18-.06-6.1-.22-7.69.93s-1.49-.71-1.49-.71l-.65-.82s0,.87-1.49.44a27.69,27.69,0,0,1-4.76-1.87c-1.74-.88-5-2.36-5.61-3.07s-1.2-.72-2.24-1.26-1.74-1.16-.2-1.05,1.79-.6,2.53-.27.45-1.1,1.25-.33,1.34.71,1.24.22,0-1.32.69-.5.85,1.54,1.3,1.59,1-.32,1.49.94c.89,2.36,1,.55,1.63,1.7s.5-.16,1.39,1,1,.82,1.59,1.1A14.72,14.72,0,0,1,26.24,154.2Z"/><path d="M21.23,37.55c-1.07,6-2.56,21.39,4.06,42.8,3.92,12.7,5.19,23.14,6.42,33.24,1.53,12.58,3.11,25.58,9.89,43.06l.85,2.19c11.48,29.57,15.34,39.53,20.87,109.48l-1.51.15c-5.51-69.68-9.36-79.58-20.77-109l-.85-2.19c-6.86-17.69-8.45-30.81-10-43.51-1.22-10-2.48-20.37-6.36-32.92-6.9-22.31-5.22-37.93-4.09-44a6.61,6.61,0,0,0,1-.31A5.36,5.36,0,0,0,21.23,37.55Z"/><path d="M26.13,31.33a3.75,3.75,0,0,0,.19-.41,7.54,7.54,0,0,0,.66-2c.74,2,2.5,4.51,6.52,6.41a5.27,5.27,0,0,1,.59,2.24c0,4.08-1.59,5.91-2.23,5.7s.38-.92-1.65-2.47A15.35,15.35,0,0,1,27,37.67,10.19,10.19,0,0,1,25.11,33,13.21,13.21,0,0,0,26.13,31.33Z"/><path d="M35,25.46a11.87,11.87,0,0,0,3.86-2,10.88,10.88,0,0,0,.86-.79,10.31,10.31,0,0,1,4-.47c3.51.35,6.11,2.46,6.31,4.5-.51.56-1-.35-2.36.28s-1.35,1.14-4.76,1.19A15.58,15.58,0,0,0,41,27,17.72,17.72,0,0,0,35,25.46Z"/><path d="M26.88,26.24c1.62,1.81,6.39,6,8,2.08.17-.65-.63-.18-1.13,0s-3.15.93-5.41-2.5A11.55,11.55,0,0,0,35,25.46,17.72,17.72,0,0,1,41,27a15.58,15.58,0,0,1,1.85,1.12C46.09,30.45,46.46,33,47,33.79c.64,1,.58,1.06-.57,1.2s-2.6,4.57-11.84.84c-.37-.16-.73-.31-1.09-.48-4-1.9-5.78-4.39-6.52-6.41a6.14,6.14,0,0,0,.1-.93A6.07,6.07,0,0,0,26.88,26.24Z"/><path d="M27.15,21.23s3.65-8.4,2.1-9.69c-1,.23-1,5.15-4.61,8.9,0,0,0-5.19.79-7s2.18-3.34.88-2.69a9.45,9.45,0,0,0-3.1,2.81,19,19,0,0,0,.27-4.75,13.33,13.33,0,0,1,2.85-2.24c1.65-.91,2.86-1.4,3.12-.91a17.6,17.6,0,0,0,1.78,3.66A10.94,10.94,0,0,1,32,15.45a14.33,14.33,0,0,1-1.23,1.93C27.86,21.23,27.15,21.23,27.15,21.23Z"/><path d="M.24,12.48c-.25-.7-.51-.84.38-1s.07-1,5-1.83c3.06-.52,5.46,1.51,6.85,3.13A8.47,8.47,0,0,0,15,17a11.65,11.65,0,0,0-9,1.29C.81,17.51.49,13.19.24,12.48Z"/><path d="M23.21,13.56A4,4,0,0,0,22.54,15C22.2,16.54,22,19.1,22,19.1A31.5,31.5,0,0,1,20.77,8.52C19.35,9,19.14,13,19.9,18c-1.68-2-3.7-5.38-4.08-8s-1,1.34-.29,4.22a8,8,0,0,0,1.68,3.56c-.28-.12-.57-.25-.85-.35A13.29,13.29,0,0,0,15,17a8.47,8.47,0,0,1-2.56-4.22,14,14,0,0,1-.48-3c-.07-6.54,4.32-6.89,4.83-8.51s.83-1.47,1.47-.91,3.18,1.68,4.38,4.15a12.53,12.53,0,0,1,.85,4.27A19,19,0,0,1,23.21,13.56Z"/><path d="M15,17a13.29,13.29,0,0,1,1.37.42c.28.1.57.23.85.35l.21.2s3.93,3.15,6.68,5.54c-5.46-1.07-9,.73-10.73,3.62-2.93.58-5.76,1-7.47.31-3.24-1.33-2.8-2.32-3.82-2.67S.5,23.38,1.26,23s1.21-1.05,2.22-2.53A8.75,8.75,0,0,1,6,18.31,11.65,11.65,0,0,1,15,17Z"/><path d="M21.46,36.29A10,10,0,0,0,25.11,33,10.19,10.19,0,0,0,27,37.67a8.23,8.23,0,0,1-.91,1.67c-1.59,2.19-1.91,2.47-2.47,1.34-.4-.77-1.6-1.8-2.37-3.13a5.36,5.36,0,0,1-.46-.93C21,36.52,21.24,36.41,21.46,36.29Z"/><path d="M12.77,28.38a8.24,8.24,0,0,1,.6-1.23c1.7-2.89,5.27-4.69,10.73-3.62a26.84,26.84,0,0,1,2.46,2.33l.32.38a6.07,6.07,0,0,1,.2,1.77,6.14,6.14,0,0,1-.1.93,7.54,7.54,0,0,1-.66,2,3.75,3.75,0,0,1-.19.41,13.21,13.21,0,0,1-1,1.67,10,10,0,0,1-3.65,3.29c-.22.12-.46.23-.69.33a6.61,6.61,0,0,1-1,.31,7.07,7.07,0,0,1-1.76.24c-2.42,0-3.44.63-3.76,1s-.38-.14-.44-1S11.31,32.25,12.77,28.38Z"/><path d="M15.82,10c.38,2.64,2.4,6,4.08,8-.76-5-.55-9,.87-9.51A31.5,31.5,0,0,0,22,19.1s.25-2.56.59-4.13a4,4,0,0,1,.67-1.41,9.45,9.45,0,0,1,3.1-2.81c1.3-.65-.12.88-.88,2.69s-.79,7-.79,7c3.65-3.75,3.65-8.67,4.61-8.9,1.55,1.29-2.1,9.69-2.1,9.69s.71,0,3.61-3.85A14.33,14.33,0,0,0,32,15.45c1.59-3,1.53-5.36,2.29-6.74,1.64.56,1.1,7.1-4,12.71,4.5-1.81,5.92-5.39,7.43-7.42s1.64.46.8,2.45S34.66,22.66,30.3,24c3.86,1.35,8.85-2.92,10.53-4.22,1.48-1.14.9.9-1.11,2.92a10.88,10.88,0,0,1-.86.79,11.87,11.87,0,0,1-3.86,2,11.55,11.55,0,0,1-6.71.36c2.26,3.43,4.91,2.69,5.41,2.5s1.3-.65,1.13,0c-1.56,4-6.33-.27-7.95-2.08l-.32-.38a26.84,26.84,0,0,0-2.46-2.33C21.35,21.14,17.42,18,17.42,18l-.21-.2a8,8,0,0,1-1.68-3.56C14.82,11.35,15.45,7.37,15.82,10Z"/></g><path d="M87.92,204.34a67.46,67.46,0,0,0-16,19.11,2.57,2.57,0,0,0,0,2.49c0-.11,4.78-10.9,16.72-20.81C101,195,101.37,184.68,101.39,184.25l-1.19,0C100.2,184.32,99.76,194.51,87.92,204.34Z"/><path d="M99,184.79l-.23-.09a.22.22,0,0,1,0,.08Z"/><path d="M108.31,182.53v0a26,26,0,0,1-3.16.27,4.54,4.54,0,0,0-1.51.36c-.2.22-.43.45-.68.68a5.55,5.55,0,0,1-1.5,1c2.65,2.34,5.79,0,6.4-.77A1.77,1.77,0,0,0,108.31,182.53Z"/><path d="M100.25,185a4.21,4.21,0,0,0-1.25-.25h-.22a4.86,4.86,0,0,0-2.12.45,3.66,3.66,0,0,0-2,2c4.29,1,5.91-2,5.91-2A2.35,2.35,0,0,0,100.25,185Z"/><path d="M109.25,178.18c-.6-.08-1.53-.93-3.45-.26a1.84,1.84,0,0,0-.64.38,5.16,5.16,0,0,0-1,1.3,2,2,0,0,1,.36.5,2.38,2.38,0,0,1-.07,2.05,9.6,9.6,0,0,1-.77,1,4.54,4.54,0,0,1,1.51-.36,26,26,0,0,0,3.16-.27v0a5.79,5.79,0,0,0,2.12-3.19,6.45,6.45,0,0,0,.19-1.24A4.61,4.61,0,0,1,109.25,178.18Z"/><path d="M98.77,184.7a4.62,4.62,0,0,0-.51-1.3,11.92,11.92,0,0,0-1.58-2.84c-.12-.16-.25-.31-.38-.46a4.76,4.76,0,0,0-1.28-1,3.5,3.5,0,0,0-.56-.24c-2.41-.71-2.76-.58-3.11-1s-.59-.31-.59-.31a2.54,2.54,0,0,1-.29,1.61c-.45.57-1,5,2.81,5.65a30.32,30.32,0,0,0,3.38.41,4.86,4.86,0,0,1,2.12-.45A.22.22,0,0,0,98.77,184.7Z"/><path d="M99.94,177.75l.82.37a3.09,3.09,0,0,1,.55-2.12,1,1,0,0,0,.2-.3,1.45,1.45,0,0,0-.35-.32c-.34-.21-1.24,0-1.63.12a3.83,3.83,0,0,0,.2,1.08A4.39,4.39,0,0,1,99.94,177.75Z"/><path d="M104.41,176.58a4.8,4.8,0,0,0-2.71-1.47,3.56,3.56,0,0,1-.19.59,1,1,0,0,1-.2.3,3.09,3.09,0,0,0-.55,2.12l.63.24.26.09a5.7,5.7,0,0,1,2.47,1.15,5.16,5.16,0,0,1,1-1.3A2.91,2.91,0,0,0,104.41,176.58Z"/><path d="M99.73,176.58a3.83,3.83,0,0,1-.2-1.08,5.91,5.91,0,0,1,0-.66c-.44-.08-3.2.54-4,2.23a5.35,5.35,0,0,0-.52,2,4.76,4.76,0,0,1,1.28,1c.43-.87,1.41-.88,2-1.16a6.18,6.18,0,0,0,1.11-.81c.27-.24.47-.44.47-.44l.11.06A4.39,4.39,0,0,0,99.73,176.58Z"/><path d="M104.48,180.1a2,2,0,0,0-.36-.5,5.7,5.7,0,0,0-2.47-1.15l-.26-.09-.63-.24-.82-.37-.11-.06s-.2.2-.47.44a6.18,6.18,0,0,1-1.11.81c-.54.28-1.52.29-2,1.16.13.15.26.3.38.46a11.92,11.92,0,0,1,1.58,2.84,4.62,4.62,0,0,1,.51,1.3l.23.09a4.21,4.21,0,0,1,1.25.25h.12a2.75,2.75,0,0,0,1.09-.25,5.55,5.55,0,0,0,1.5-1c.25-.23.48-.46.68-.68a9.6,9.6,0,0,0,.77-1A2.38,2.38,0,0,0,104.48,180.1Z"/><path d="M91.42,161.26s-.44-2.71-.94-3-.67-.05-.72-1.25c0,0,0-.65-.39-.5s-.5.9-.72.75a11.87,11.87,0,0,0-3.06-2.51c-1.45-.6-1.78-.55-1.22-.25a12.49,12.49,0,0,1,1.94,1.86c.5.5,1,.75.61.8s-.28.55.28,1,.67.2.5,1,.44,1.51,1.17,2.11.39.91.39.91A11.9,11.9,0,0,1,87,160.61c-.5-.6-1.56-1.8-2-1.76a4.18,4.18,0,0,1-1.67.11c-.77-.15-1.33-1.41-2-1.46s-1.06.25-2-.4-1.66-1-1.83-.2-.5.8-1,.75-2.79.25-1.45.4,2.89.66,2.89,1.06-.23.5-1,1-1.06.81.22.6,2.61-.4,2.61,0,.5.55,1.39.35,2.11,0,1.94.41-.1.35,1,.4a6.94,6.94,0,0,1,3,1.15c.66.4.28.7-.28.45s-1.22-.7-1.5-.45-.39.2-1,.15-1.55.05-.11.55.89.51,0,.51.34.45-1.16.45-1.28.15-.83.45-.22.75-1.28.75-.67.4-.23.6-1.16.25-2.11.25-1.83.25-1.44.71-.83,0-.94.5,1,.5-.45.8-2.83.75-2.22.91.45.34-.67.6-4.83.9-3,.8a33.94,33.94,0,0,0,5-.95c.94-.2.72.2,1.44.1s1.94-1.31,2.56-1.46-.33.7,0,.7,1.17,0,.88.66.62,0,1.06-.41.78-1.15,1.78-1.15,1.61-1.26,2.16-1,.5,1,1.34-.15,1-.75,1.61-1.11a14.29,14.29,0,0,1,2.22-1.3c.83-.3,1.28-.85,2.5-2.06a18.14,18.14,0,0,1,4.61-3.31c1.06-.35,1.83-.65,1.44-1s.84-.21,1.17.5.67-.25,1.17.25.33-1,1.27-.55.73-.41,1.62-.11,2.16.81,1.61.16,1.77,1.2,1.33.25-3-1.06-2.28-1.71-.11-1-1.22-.86-2.44.06-3.11.46-1.17,0-1.78.4-.55.1-1.16.5-.56-.15-.39-.85-.56-1-.72-.65-1.06-.91-1,.6-.56,2.41-.56,1.5-.44-.65-.77.16-.61,2.55-2.23,3C91.53,162,91.42,161.26,91.42,161.26Z"/><path d="M71.62,224.33a1.88,1.88,0,0,1-.37-1.56c.24-.82,1.15-1.61.12-1.39s-1.12,1.09-1.09-.35,1.42-2.9,1-3.06-.48-.74.09-1.06.3-1,.3-1.18,1-.82.67-1.12-.72.3-1,.44-.57-.05-.75.52-.19,1.06-1.06,1.53-.79.59-.76,1.39.34,1.66-.24.76-.48-.68-.48-1.31-.24-.16-.21-.95-.31-.44-.55,0-.36.24-.42,1-.12,1.45-.33.52-.58-1.26-.64-1.66-.42-1-.42-.11-.42.51-.42,0a14.66,14.66,0,0,0-.73-2.18c-.09-.36-.51-.49-.54-.19s-.61.16-.75-.14-.31.25-.22.57.94,1.43-.45.14-1.48-.84-1.33-.6.72,1.37-1.45-.3-2.48-1.67-3.75-2.59-1.84-1-1.36-.5a9.71,9.71,0,0,0,1.63,1.37c.79.52,1,1,.7,1s-.4.14.81.9,2.79,1.78,2,1.59-.88.08-.27.35,1.63.93,1.21.91-1.12.1-.25.51,1.7.85.52.79-4.27-.16-2.6.25,0,.43,1.09.49,1.81.3,1.69.57-.3.6.85.58,2.41.08,2.14.32-.42.47-.18.66.18.27-.3.35-1.43.66-.76.69a7.16,7.16,0,0,1,2,.24c.31.17-.39.25.16.47s-1.58.13-.7.49-.48.22.48.35a2.77,2.77,0,0,1,1.55.52,15.59,15.59,0,0,1,1.32,1.12c.67.52.85.77-.24.25s-2-1.31-2.65-1.48a2,2,0,0,1-1.19-.54c-.51-.44-2-1.42-1.75-1s1.09,1,.82,1.21-1,.1-.72.27-.13.24-1.27.13-.13.36-1,.33-1.39.17-.88.36.79.49-.24.52-1.33.21-1,.35-.39.14-.88.14-1.11-.08-1.32.08-.12.27-.76.33-.94.41,0,.41.09.52,1.48.54.45.25,1.6.25,2-.3,1.61.33.48.38.9.13a4.57,4.57,0,0,1,1.94-.38c.27.08-.76.6,0,.63a11.44,11.44,0,0,0,2.23-.33c.4,0,0,.25.61.19s1.11.06.27.28a17.78,17.78,0,0,0-2.84.57c-.37.27.84.63-.51.68s-4,.47-2.73.66,0,.24.82.48.73.82.09,1.07-1.27.41-1.12.79.52.41-.39,1.34-.57,1.45.51.63a8,8,0,0,1,2-1.39c.54-.17,1.24-.22.87.35s0,.33.76-.41,1.81-1.39,1.72-.85.39.5,1-.32S67,230,67,231a2.73,2.73,0,0,1-.42,1.55c-.21.39-.49,1,.3.28s1.6-2.43,1.45-1.62.33.3.82-.16,1-1,1-1L71.34,228a28.1,28.1,0,0,1,3.14-.3c1.15,0,1.09.43,1.42,1.36s1.63,3.33,1.73,2.54.33-1.69.84-1.48,1.36,1.39,2.33,1.64-.15-1.12,1,0,3,2.1,2.57,1.28-.27-1.09.58-.79.69-.41,0-.82-.85-1.31-.34-1.2a4.06,4.06,0,0,1,2.24,1.5c1.15,1.2,1.09.17.94-.22s1.18,0,1-.65,1.66,1.06,1.72.35.6-.48,1.12-.32,1.26.52,1.35-.08-5.28-1.5-4.89-1.72,1.18-.33.06-.58-1.81,0-3.14-.3-1.87-.6-.76-.71,1.36.39,2.06.14.3-.44,1.06-.63,2.32-.74.57-.9a15.39,15.39,0,0,0-4.17.14c-.7.16-1.27.27-1.09-.25s-.09-.33-1-.19-.64.22-1.18.16a4.68,4.68,0,0,0-1.51,0c-.85.11.87-.54.18-.62a25.76,25.76,0,0,0-4.57.46,13.2,13.2,0,0,0-3,1c-.87.44,1.45-1.34,3-1.94s1.94-.66,2.66-.41,1.69.49,1.46-.25.81-.24,2.08.17,2,.52,2.2.16,1.42-.38,2.18-.38,2.18.6,2.57.41-.85-.57-.91-.79.63-.49-.72-.77-2.42-.11-2.54-.24,0-.63-.45-.66-2.09-.33-1.6-.49a9.41,9.41,0,0,1,2.59.08c1.45.08.4-.52,1.36-.6a14.78,14.78,0,0,1,3.39.55c.48.1,1.23-.11.81-.9s.85-.5,1.87-.47,1.45-.22,2-.13,1.09.65,1.54-.09,2.42-.32,2.93-.32,1.91-.06,1.6-.61-.72-.21-1.6-.57-.27-.68-1.39-.68-1.6.46-3.11-.41-1.64-.52-2-.54-.08-.5-.72-.42-2,.33-2.36,0-.69.13-.9-.25-.49-.51-1,0-.91.42-.82,0,0-1.08-.57-.18a9,9,0,0,1-3,2.48c-1.08.63-1.14.44-1.23.08s-.76-.08-.7-.49,1.15-.63,2-1.09.69-.49.39-.6-1.66,1.25-1.06-.06.22-1,.1-1.33-.13-1-.64-.25a27,27,0,0,1-3.23,3.49c-.55.36-.82.25-.85,0s-.6.16-.88,1.25a5.83,5.83,0,0,1-1,2.41A31.65,31.65,0,0,1,72,225C71.79,225,71.62,224.33,71.62,224.33Z"/><path d="M92.5,200.68a5.88,5.88,0,0,0-1-2.92,2.57,2.57,0,0,1-.77-1.91c0-.35-.19-.31-.46,0s-.23,1.39-1.15-.14-1-1.35-1.35-1.39-.27-.66-.39-.94-1-1.08-1-.83.08,1.67-.34.73-1-1.22-.93-.73.12,1.67-.65,1.49a11,11,0,0,1-2.12-.62,6,6,0,0,1-1.69-1.18c-.54-.52-1.38-.21-1.62-.35s-.15.24.35.45.66.35-.35.28-1.22.1-2.18,0-1.73-.06-.62.31a7.25,7.25,0,0,0,2.5.53c.92,0,1.92.38,1.69.42s-1.73-.35-1.57,0,.8.31.92.56,1.19.31,1.61.31a7.29,7.29,0,0,1,1.73,0c.89.14,1.23.53.74.53s-1.43.31.15.72,0,.46,1.08.66,1.26.49,1.42.91-.85.28.08.48a14.73,14.73,0,0,1,1.88.63c1.15.38,1.85,1.15,1.62,1.25s-1.93-1-2.39-1.15-.31.49-1.31.14-1.61-.69-1.69-.48-.5.17-1.15.17-2.62.14-1.5.73-.58.59-1,.66-.31.28-1.08.24-1.42.17-1,.32,1.69.31,1.39.38-1.43.1-1.7.42-.84.27-1.19.38-.42.48.31.48a21.77,21.77,0,0,0,3.61-.55,15.76,15.76,0,0,1,3.93-.59c1.69,0,4.73-.14,6,.59s1.15-.45,1.15-.45l.5-.52s0,.55,1.16.27a23.21,23.21,0,0,0,3.69-1.18,30.62,30.62,0,0,0,4.34-1.94c.5-.46.93-.46,1.73-.8s1.35-.74.16-.66-1.39-.39-2-.18-.35-.69-1-.21-1,.46-1,.14,0-.83-.53-.31-.66,1-1,1-.77-.21-1.16.59c-.69,1.49-.81.35-1.27,1.08s-.38-.11-1.07.62-.81.52-1.23.7A11.22,11.22,0,0,0,92.5,200.68Z"/><path d="M96.39,126.81c.82,3.81,2,13.54-3.15,27.1-3,8-4,14.65-5,21.05-1.18,8-2.4,16.2-7.65,27.27L80,203.62c-8.89,18.72-11.89,25-16.17,69.33L65,273c4.27-44.12,7.25-50.39,16.08-69l.66-1.39c5.32-11.2,6.55-19.51,7.75-27.55.94-6.34,1.92-12.9,4.92-20.85,5.34-14.12,4-24,3.16-27.83a6.65,6.65,0,0,1-.79-.21A3,3,0,0,1,96.39,126.81Z"/><path d="M92.58,122.87a1.65,1.65,0,0,1-.14-.26,4.62,4.62,0,0,1-.52-1.26c-.57,1.28-1.93,2.86-5,4.06a3,3,0,0,0-.45,1.42c0,2.58,1.24,3.74,1.73,3.61s-.3-.58,1.28-1.56a11.1,11.1,0,0,0,2.49-2,5.75,5.75,0,0,0,1.45-3A10.26,10.26,0,0,1,92.58,122.87Z"/><path d="M85.72,119.15a9.87,9.87,0,0,1-3-1.27,6.15,6.15,0,0,1-.67-.5,9.44,9.44,0,0,0-3.08-.3c-2.71.22-4.73,1.56-4.88,2.85.39.35.74-.22,1.82.18a6.63,6.63,0,0,0,3.69.75,12.91,12.91,0,0,1,1.44-.71A16.09,16.09,0,0,1,85.72,119.15Z"/><path d="M92,119.64c-1.25,1.15-5,3.83-6.15,1.32-.13-.41.49-.11.87,0a3.94,3.94,0,0,0,4.2-1.58,10.88,10.88,0,0,1-5.2-.23,16.09,16.09,0,0,0-4.67,1,12.91,12.91,0,0,0-1.44.71,7.52,7.52,0,0,0-3.19,3.57c-.5.62-.45.66.44.76s2,2.89,9.17.53c.29-.1.57-.2.84-.31,3.12-1.2,4.48-2.78,5-4.06a4,4,0,0,1-.07-.58A3.33,3.33,0,0,1,92,119.64Z"/><path d="M91.79,116.47s-2.82-5.32-1.62-6.14c.75.15.75,3.26,3.57,5.64,0,0,0-3.29-.61-4.43s-1.69-2.12-.68-1.71a7.33,7.33,0,0,1,2.4,1.79,9.67,9.67,0,0,1-.21-3,10.75,10.75,0,0,0-2.21-1.41c-1.28-.58-2.22-.89-2.41-.58a11.23,11.23,0,0,1-1.38,2.32,5.75,5.75,0,0,0-.59,3.88A8.12,8.12,0,0,0,89,114C91.24,116.47,91.79,116.47,91.79,116.47Z"/><path d="M112.64,110.93c.2-.44.4-.53-.29-.62s0-.63-3.85-1.16a6.49,6.49,0,0,0-5.3,2,5.23,5.23,0,0,1-2,2.67,10.77,10.77,0,0,1,7,.82C112.2,114.11,112.45,111.38,112.64,110.93Z"/><path d="M94.85,111.62a2.48,2.48,0,0,1,.52.88,24.82,24.82,0,0,1,.45,2.62,16.33,16.33,0,0,0,.91-6.7c1.11.33,1.27,2.85.69,6a11.23,11.23,0,0,0,3.15-5.08c.29-1.67.78.85.23,2.68a4.7,4.7,0,0,1-1.31,2.25c.22-.07.45-.16.66-.22s.72-.2,1.06-.27a5.23,5.23,0,0,0,2-2.67,7.28,7.28,0,0,0,.37-1.89c.05-4.14-3.35-4.37-3.74-5.39s-.64-.94-1.14-.58-2.46,1.07-3.4,2.63a7,7,0,0,0-.65,2.7A9.67,9.67,0,0,0,94.85,111.62Z"/><path d="M101.21,113.8c-.34.07-.7.16-1.06.27s-.44.15-.66.22l-.16.13s-3,2-5.17,3.51c4.23-.68,7,.46,8.31,2.29,2.27.37,4.46.64,5.78.2,2.52-.85,2.17-1.48,3-1.7s1.23-.89.64-1.15a5,5,0,0,1-1.72-1.61,6.56,6.56,0,0,0-1.93-1.34A10.77,10.77,0,0,0,101.21,113.8Z"/><path d="M96.2,126a7.59,7.59,0,0,1-2.83-2.09,5.75,5.75,0,0,1-1.45,3,4.9,4.9,0,0,0,.71,1.06c1.23,1.38,1.48,1.56,1.92.85.3-.49,1.23-1.14,1.84-2a3,3,0,0,0,.34-.6Z"/><path d="M102.94,121a4.37,4.37,0,0,0-.47-.78c-1.32-1.83-4.08-3-8.31-2.29a20.21,20.21,0,0,0-1.91,1.47l-.25.24a3.33,3.33,0,0,0-.15,1.13,4,4,0,0,0,.07.58,4.62,4.62,0,0,0,.52,1.26,1.65,1.65,0,0,0,.14.26,10.26,10.26,0,0,0,.79,1A7.59,7.59,0,0,0,96.2,126l.53.2a6.65,6.65,0,0,0,.79.21,7.67,7.67,0,0,0,1.37.14c1.87,0,2.66.41,2.91.67s.29-.09.35-.62S104.06,123.45,102.94,121Z"/><path d="M100.57,109.36a11.23,11.23,0,0,1-3.15,5.08c.58-3.17.42-5.69-.69-6a16.33,16.33,0,0,1-.91,6.7,24.82,24.82,0,0,0-.45-2.62,2.48,2.48,0,0,0-.52-.88,7.33,7.33,0,0,0-2.4-1.79c-1-.41.09.56.68,1.71s.61,4.43.61,4.43c-2.82-2.38-2.82-5.49-3.57-5.64-1.2.82,1.62,6.14,1.62,6.14s-.55,0-2.79-2.44a8.12,8.12,0,0,1-1-1.22c-1.24-1.87-1.19-3.4-1.78-4.27-1.27.35-.85,4.49,3.12,8-3.48-1.15-4.58-3.41-5.75-4.7s-1.27.29-.62,1.55a10.54,10.54,0,0,0,6.34,4.76c-3,.85-6.86-1.85-8.16-2.67s-.69.56.86,1.85a6.15,6.15,0,0,0,.67.5,9.87,9.87,0,0,0,3,1.27,10.88,10.88,0,0,0,5.2.23,3.94,3.94,0,0,1-4.2,1.58c-.38-.11-1-.41-.87,0,1.2,2.51,4.9-.17,6.15-1.32l.25-.24a20.21,20.21,0,0,1,1.91-1.47c2.13-1.52,5.17-3.51,5.17-3.51l.16-.13A4.7,4.7,0,0,0,100.8,112C101.35,110.21,100.86,107.69,100.57,109.36Z"/></g></g></g></svg>