<svg xmlns="http://www.w3.org/2000/svg" viewBox="0 0 146.24 130.14"><defs><style>.cls-1{fill:#040000;}</style></defs><title>3</title><g id="图层_2" data-name="图层 2"><g id="图层_1-2" data-name="图层 1"><path id="蝉" class="cls-1" d="M20.17,0a18.28,18.28,0,0,1,4.51,3.72,45.9,45.9,0,0,1-.27,7.16c7.59,4.24,16.45,9.19,25,13.8,4,2.18,8.2,5.56,13.26,3.18-1.7-3-5.62-6.05-8-9.28V5.31l4.25,1.06c.64,3.87-.62,6.79.27,9.55.58,1.83,4,3.53,5.57,4.78,2.11,1.72,3.76,3.51,5.57,4.51,10.68.11,19.4-3.25,31.32-2.39a41.23,41.23,0,0,1,14.59,4c3,1.42,10,4.6,10.35,8.23.18,1.86-1.59,4.19-2.65,5.31-5.9,6.17-18.42,7.23-26.54,11.14,10.23,3.93,21.2,7.11,30.52,11.94,6.08-2.15,12.36-5.51,18.31-6.9.16,1.84-.49,2.87-.8,4.25-2.7,1.61-5.4,2.69-8.49,4.24-2.28,1.15-5.58,4.13-8.23,4.25-2.34.11-7.47-2.49-10.08-3.18-3.76-1-7.14-1.37-10.88-2.39-.87,8.15-2.12,14.22-7.17,18.84-.91.84-4.77,3.53-4.77,4.25s5.21,4.79,6.1,5.57c2.46,2.13,4.24,3.37,6.11,5.31.77,6.12,2.09,11.7,2.91,17.78-1.07.17-1.34,1.13-2.65,1.06-1.43-5-2.68-10.23-4-15.39-4.25-2.83-9.3-4.85-13.8-7.43-.88,9.41-5.71,19.4-10.08,27.86-2.49,4.82-6.4,11.27-14.33,7.43a16.73,16.73,0,0,1-3.72-2.65c-10.53-10-17.71-29-25.47-41.14-4-.41-8.13-.71-11.95-1.32-2.07,2.52-2.89,6.3-4.77,9-.64.16-1.93-.33-2.12.27-.18-3.9,3-9.31,3.71-14.07,4.39-.21,8.61-.59,13.27-.53.54-2.35-1.31-4.5-1.59-6.9C26.15,68.94,18,67.13,10.61,64.49c-1.89,1.91-3.49,4.11-5.3,6.1H0c2.61-4,5.66-7.61,8.49-11.41,7.76,1.44,14.38,4,22,5.57-2-4.68-7.74-9.22-6.11-17.51-3.22.22-8.73,2.49-10.88-.27.63-3.08,3.18-4.25,6.11-5-1.5-1.79-5.88-9.07-.8-9,3.21,0,4.27,6.12,6.9,6.9,3.93-6.25,9.91-10.43,21-9.56-7.94-5.59-18.31-11.06-27.06-16.72C19.68,8.89,19.76,4.28,20.17,0ZM92.08,29.46c-11.61.8-24.65,2.7-30.78,8.22,15.49-.51,31.4-2,46.17-2.39-13.25,4.88-31.55,4.72-48,6.37,18,6.65,48.56,4.56,59.44-6.9C113.85,28.82,102.83,28.72,92.08,29.46ZM85.45,50.15c-8-.36-16.56-.25-24.42-.79C66.41,52.71,79.26,53,85.45,50.15ZM75.1,87c-5.64-4-10.93-8.35-16.46-12.47C63,84.56,69.11,94.18,72.71,104c-5.83-3.21-9-9.35-12.74-14.6S52.31,78.71,48.83,73.24c4.44,18.3,6.63,41.39,22,48,4.08-8,11.47-15.36,10.88-28.39-.24-5.27-.38-13.35-2.92-17.25-3.86-5.94-12.8-8.8-21-10.88-.16,0-.31,0-.27.26A55.14,55.14,0,0,1,75.1,87ZM49.89,95.27a201.7,201.7,0,0,0-7.17-21C43,83.37,45.83,90,49.89,95.27Z"/></g></g></svg>