<svg xmlns="http://www.w3.org/2000/svg" viewBox="0 0 146.54 127.74"><title>金陵</title><g id="图层_2" data-name="图层 2"><g id="图层_1-2" data-name="图层 1"><path d="M146.78,109.84c0,.06,0,.12,0,.17a.6.6,0,0,0-.6.61V114l-.16.26a.3.3,0,0,0,.16.26V126.2a.65.65,0,0,0,.06.29c-.54,0-1.06.11-1.56.18h-5.08a1.16,1.16,0,0,0-.64,0h-.71a2.05,2.05,0,0,0,.22-.5,6.46,6.46,0,0,1-1.14.5h-3.87a1.09,1.09,0,0,0,.6-.5c-.38.23-1.81.25-2.25.5h-1.17a.49.49,0,0,1,0-.19.75.75,0,0,0-.67.19h-.89a1.09,1.09,0,0,1,0-.19.93.93,0,0,0-.75.19H124.5l-.19-.19a.44.44,0,0,0-.31.19H4.76c-.28-1.64-.66-3.26-1-4.88a79.66,79.66,0,0,1-1.34-11.72C2,102.83,1.86,95.54.25,88.44H12.16a.64.64,0,0,0,.25-1.22,1.23,1.23,0,0,0,0-.2V84.87c.4-.2.23-.51,0-.8v-.71h.16l-.16-.26V78.42l.3-.67c.14-.35-.16-.66-.44-.78-2.08-.84-4.16,0-6.31,0a.55.55,0,0,0-.57.37,5.72,5.72,0,0,1-1.93-.22c-.33-.15-.65-.33-1-.52a3.07,3.07,0,0,1-.92-1.4c1.34-.61.74-.89.31-2.2,6.46-.06,13.47-4.69,20.14-6.61.19-2.75-.44-5.33.32-6.92A1.39,1.39,0,0,0,22,59a.49.49,0,0,0-.45-.56C18.93,58,16.32,57.49,13.7,57h-.18A4.32,4.32,0,0,0,13,55.6a.43.43,0,0,0,.24.07c-.47-.3-.48-1.06-.79-1.53h0a.53.53,0,0,0-.1-.32,20.36,20.36,0,0,0,6.24-1.28c.05-.37-.07-.56-.31-.63C22.89,50.65,25.68,47.57,29,45c0-.56-.39-.66-.32-1.26,1.92.71,1.11-2.44,2.2-1.57-.13-.6-.67-.79-.62-1.57.88,0,.9-.77.94-1.58.83-.09.81.66.94,1.26-1.12,0,0,.81-.63,1.58.06.25.32.31.32.62,3.67-.83,12.74-1.08,12-5.35-.06-.29-.35-.25-.63-.31a1.76,1.76,0,0,0,.31-1.26c1-.45.77,1.91,1.26.95-.19.37.29,1.29.39,1.91a.57.57,0,0,0-.15.16.69.69,0,0,0-.07.42l-.17,0,.19.07a.55.55,0,0,0,.28.35l.2.11.07,0h0c.14.12.26.25.39.37a.66.66,0,0,0,.28.16,4.08,4.08,0,0,1,.18.42.54.54,0,0,0,0,.25,7.72,7.72,0,0,0,.53,1.51h0a1.11,1.11,0,0,0,.07.16,1.46,1.46,0,0,0,.2.37,14.19,14.19,0,0,0,1.6,2.28.69.69,0,0,1-.23.19c.17.39.72.55.65.35.67,1.1.76,2.49,2.5,2.79v1c2.52.28,5.3,3.51,8.81,3.46,2.25,0,3.7-1.88,6.29-2.2V47.49A1.36,1.36,0,0,0,66,47a8.33,8.33,0,0,0-2.59-1.85,2.21,2.21,0,0,1-.18-.51,3.66,3.66,0,0,1-1,0,7.73,7.73,0,0,0-4.57-.84,1.75,1.75,0,0,0-.46-.56l0,0c.39-.94-.22-1.49-.55-3,5.52-.25,8-3.56,12-5.35l0-.11c1,0,.9-1.64.89-2.36,0-1.56.31-3.67-.47-5.05a.62.62,0,0,0-.29-.27.53.53,0,0,0-.41-.33h0l-.13-.09a1.19,1.19,0,0,0-.73-.13c-1.38-.41-2.68-1.07-4.07-1.46a15.39,15.39,0,0,1-1-1.52c.87.51.87-1.36.31-1.26,4-.44,6.87-1.94,9.76-3.46l0,0c3-1.12,4.25-6,5.34-8.58a.49.49,0,0,0,0-.5s0,0,.06,0a.25.25,0,0,0-.06-.17c1-1.84,2.15-4.26,1.75-6.1a1.36,1.36,0,0,1,.51,0V.91c1,.24.6-.86,1.57-.63-.22.24-.78,1.54.32,1.26-.28.56-1.28.4-1,1.58s.59.15,1.58.31c-1.2,1,5.11,2.25,6.29,2.83.07,0-.07.61,0,.63.41.13,1.1-.37,1.58-.31,1,.13,2.6,1,4.09,1.26a9.39,9.39,0,0,0,4.09,0c-.43-1.88.41-1.77,0-3.47,1.93.64.8,3.32,1.57,4.1s-.06,1.48,1.57,2.2c0,.79-.56.79,0,1.57,1.29,1.78,4.75,5.22,7.83,6.1.27.21.53.4.81.58a3.93,3.93,0,0,0,1,.42c1.73,1.28,5,2,6.74,1.09.45.63-.94,1.94.31,2.83a2.05,2.05,0,0,1-1.57.31,1.76,1.76,0,0,1,.32,1.26c-2.7.55-4.15,1.45-6.3,1.89a.49.49,0,0,1,.13.12.61.61,0,0,0-.13.39c0,1.73.15,3.46.16,5.19a.78.78,0,0,0,0,.16l-.07.05c-.46.39,0,1.27.59,1.06a26.07,26.07,0,0,0,13.15,4.67c-.78.5-.8.86-.7,1.15-.07.31-.12.62-.18.93v0c-.24.22-.21.17-.06.37l-.06.33,0,.19a.56.56,0,0,0-.07.24.92.92,0,0,0-.15.53c-4.54.07-5.48,1-9.76,1.89a1.21,1.21,0,0,1,0,.14.59.59,0,0,0-.2.46v.07c0,.11,0,.18,0,.2v0a.62.62,0,0,0-.13,1l.21.17s0,.09.07.14c0,.24.26.31.53.34.41.41.85.81,1.26,1.22a1,1,0,0,1-.39,0,.32.32,0,0,0-.14,0l.14,0c.65.2,1.13,1.65,1.68,1l.13.13c.87,2.52,9.72,4.11,13.16,5.45.75-.19,2.28.4,2.52-.31a2.4,2.4,0,0,1,.08,1.76.67.67,0,0,0-.22.31l-.63,1.89a.55.55,0,0,0,0,.44c-3.93-.21-6,1-7.75,1-.19,1.2,0,2.85,0,6,6.26,2,12,5.9,19.2,6a3.1,3.1,0,0,0-.68.78s0,0,0,0c-.63.93-1.48,2-1.31,3.1a3,3,0,0,0-1.13-.46c-.39,0-.15.6-.32.63-1.7.24-4.45-.42-6,.63a10.36,10.36,0,0,1,0,6.29c.05.26.31.32.31.63,1.52-.34,3.16.75,4.72,1s3-.42,3.87.13l-.1.06a.83.83,0,0,0-.44.46l0,.08a.82.82,0,0,0-.29.39v0a2,2,0,0,0-.21.25,4.2,4.2,0,0,0-.72,2c-.09.15-.18.29-.26.44a.61.61,0,0,0-.05.12,1.23,1.23,0,0,1-.83-.46c.16,1-3.24.29-5,.94-.64,2.31,1.4,5.73,2.52,8.18-.12,1.2-2.08-.39-2.52,1a.56.56,0,0,0-.13,1c2.31,2,4.29,4.28,6.74,6.08a.52.52,0,0,0,.36.12,4.51,4.51,0,0,1,1.21,2,5.21,5.21,0,0,1,1,.15.68.68,0,0,0,.14.48,14.21,14.21,0,0,0,2.05,2C146.27,109.46,146.53,109.64,146.78,109.84ZM56.65,63.23c-.36-1,1-1.94,0-2.52-1,.45-2.09-.57-3.46,0,.46.7.84.89.31,2.2C54.76,62.81,55.25,63.47,56.65,63.23Z" transform="translate(-0.25 -0.25)"/><path d="M142.25,87.48v.29l-.12-.08Z" transform="translate(-0.25 -0.25)"/><path d="M75.31,127.94s0,0,0,0l-.16,0Z" transform="translate(-0.25 -0.25)"/><path d="M68.41,33.52h0Z" transform="translate(-0.25 -0.25)"/><path d="M5,127.93,5,128H5v-.06Z" transform="translate(-0.25 -0.25)"/><path d="M1,87.18H.93l0-.05Z" transform="translate(-0.25 -0.25)"/></g></g></svg>