<svg xmlns="http://www.w3.org/2000/svg" viewBox="0 0 263.52 135.45"><defs><style>.cls-1{fill:#727171;}.cls-2{fill:#221f20;stroke:#221f20;stroke-width:0.07px;fill-rule:evenodd;}</style></defs><title>资源 33</title><g id="图层_2" data-name="图层 2"><g id="图层_1-2" data-name="图层 1"><g id="长亭"><path id="长亭-2" data-name="长亭" class="cls-1" d="M89,13.77S30,13.57,0,0L11.31,15.21h5.34v8.64H46.46l-2,14.39H21v11.1H44.51l-8.74,76.48h14.6l2.7-42.93C55.43,67.55,73.22,55.61,89,55.61c16.36,0,35.34,12.8,36.66,28.93l.06,1.21c0,.19,0,.38,0,.57h0l1.91,39.5h14.6l-8.74-76.48h23.54V38.24H133.53l-1.95-14.39h29.81V15.21h5.34L178,0C148,13.57,89,13.77,89,13.77Zm6,10.69h27.14l1,14.81H95Zm-39.06,0H83.06V39.27H54.89ZM54.18,65.14l1-15.18H79A48,48,0,0,0,54.18,65.14ZM99.09,50H124l.77,15.87A49,49,0,0,0,99.09,50Z"/><path class="cls-2" d="M130,66.19c2.38.21,4.79.1,7.17.16,3,.09,6,.27,9,.27,2.16,0,4.33-.27,6.47-.16,2.49.12,4.61-.44,6.7,1.21a3.7,3.7,0,0,1,1.06,1.1c.32.6,0,1.09-.09,1.7-.14,1.16.25,2.5-.09,3.62-.12.36-.44.2-.65.42s-.16.61-.16.83c-.14,2.39,0,4.79-.11,7.18-.12,2.64-.19,5.25-.21,7.89,0,1-.12,2-.05,3.09.12,1.79,0,3.64,0,5.45,0,.43-.25,1.61.28,1.79a4.21,4.21,0,0,0,1.24.07c1.18,0,2.35-.07,3.53-.14.57,0,1.13.25,1.7.27,1.52.09,3,0,4.54,0,1.08,0,2.67.31,3.45-.56.4-.43,0-.85.19-1.32a7,7,0,0,1,1-1.93c.24-.29.72-.64.79-1s-1-.34-.74-1c.46-1.21,2-1.9,3-2.69.42-.35.28-.82.69-1.18s1.39-.69,1.85-1.21c.23-.22-.12-.45,0-.69.18-.45,1.1-.72,1.54-.85a10,10,0,0,1,3.18-.31c.5,0,1.17.35,1.68.22A27.89,27.89,0,0,0,189.76,87a26.14,26.14,0,0,1,9.58-2.26,22.93,22.93,0,0,1,4.26.69c1.13.25,2.33.34,3.48.54a21.32,21.32,0,0,0,5.28.58,52.69,52.69,0,0,0,6.1-1.1c1.15-.24,2.33-.24,3.48-.44.94-.18,1.84-.52,2.79-.7a10.83,10.83,0,0,1,2.18-.27,5.08,5.08,0,0,0,1.78.07,5.15,5.15,0,0,0,1.15-.67,8.22,8.22,0,0,1,2.72-1.21,2.29,2.29,0,0,1,1.54.27c.44.25.67.63,1.24.49A29.18,29.18,0,0,0,240,81a49.19,49.19,0,0,0,5.62-2.26c.6-.36.53-1.16,1.15-1.47s.88.46,1.34.53a5.48,5.48,0,0,0,2.28-.53c.69-.32.09-1.5.78-1.68s.83.78,1.34.74c.25,0,.46-.45.57-.63.37-.56,1.13-2.37,2.08-2,.43.2.43.74.36,1.14a6.08,6.08,0,0,1-.57,2c-.21.31-.46.72-.18,1.07.73,1,2.23,1.3,3,2.26.26.32.12.61.28.92.39.74,1,1.39,1.38,2.17.28.6.21,1.32.51,1.92,1,2,3,3.6,3.43,5.88a3.78,3.78,0,0,1-.05,2.33c-.2.4-.78.69-1.1,1-.16.15-.19.4-.35.56-.44.38-1,.17-1.52.13-1.29-.09-2.05.13-2.92-1-.26-.31-.26-.71-.58-1a7.44,7.44,0,0,0-2.53-1,15.15,15.15,0,0,1-3.39-1.93c-.53-.38-1.38-1-2.09-.91-2.63.53-4.17,2.88-5.49,4.94a8.5,8.5,0,0,0-1.08,1.56c-.23.74.44,1.48.07,2.26s-1.11.56-1.68.9-.62,1.31-.53,1.81.87.27,1.17.27c1.09,0,2.74.09,2.42,1.58-.39,1.79-2.53.72-3.68,1.14-.3.09-.37.54-.51.79-.39.71-1.15,1.23-1.5,2-.21.43.23.94.39,1.32a15.85,15.85,0,0,1,1.09,3.4,19.62,19.62,0,0,0,2.37,6.62c.39.65,1.13,1,1.5,1.72.5.94.48,2.06.94,3a27,27,0,0,0,2,3,17.87,17.87,0,0,0,1.5,2.21c.46.47,1.08.74,1.56,1.19s.62,1,1.06,1.48c.67.69,1.52,1,2,2a1.17,1.17,0,0,1-.88,1.81,4.5,4.5,0,0,1-4.28-2.14c-.28-.52-.14-1.14-.39-1.61-.37-.72-1.43-1-1.87-1.77-1.49-2.53-2.55-5.34-4.3-7.76-1.34-1.83-3.39-3.22-4.47-5.21-.49-.89-.79-2-1.32-2.84a23.76,23.76,0,0,0-2-2.23c-.39-.5-.76-1.61-1.52-1.64-.92,0-1.13,1.12-1.32,1.75-.62,2-1.54,4-2.25,6a8,8,0,0,0-.46,1.88,6.16,6.16,0,0,1-.49,2.66c-.92,1.65-2.72,2.39-4.12,3.53-1.15.94-2.33,1.94-3.39,3a6.9,6.9,0,0,1-2.12,1.84c-.87.33-1.72-.07-2.62.06a6.39,6.39,0,0,1-2.6.21c-.4-.14-1.09-.43-1.2-.85-.07-.27.14-.5.25-.72a3.76,3.76,0,0,1,1.31-1.43,10.17,10.17,0,0,1,2.29-.6,8.27,8.27,0,0,1,1.28-.47c.4-.07.86.2,1.2,0a10,10,0,0,0,1.18-.78c1.66-1,3.61-2.73,4.07-4.67.42-1.73.07-3.52.46-5.26.12-.56.42-1.07.58-1.63a11.22,11.22,0,0,0,.25-2.66,3.28,3.28,0,0,0-.09-1.43,1.84,1.84,0,0,0-1.2-.92c-.48,0-.94.18-1.42-.07-1.34-.67-3.07-.58-4.54-.78a44.84,44.84,0,0,1-6.2-1.39,35,35,0,0,1-4.17-1.58,6.72,6.72,0,0,0-2.92-.92,5.13,5.13,0,0,0-1.66,0c-.48.21-.65,1.08-.79,1.5a39.62,39.62,0,0,0-.8,4.63c-.55,2.59-1.54,5.52-.85,8.16.44,1.77,1.89,3,3,4.34,1.56,1.86,2.8,3.94,4.35,5.81.57.7,1.47,1.05,2,1.79a7.42,7.42,0,0,1,1,2.08c.07.25.21.58.07.83-.3.58-1.31.56-1.87.56a3.92,3.92,0,0,1-3.5-2.3c-.21-.43-.21-.94-.46-1.35-.41-.62-1.22-.91-1.5-1.65s-.41-1.37-.62-2a1.74,1.74,0,0,0-.11-.61,7.69,7.69,0,0,0-.86-.85c-1-1.2-2-2.32-3-3.55a18.68,18.68,0,0,0-1.26-1.61c-.7-.7-1.82-1.43-1.94-2.46-.09-.85.46-1.66.58-2.46a10.6,10.6,0,0,0-.83-6.4c-.26-.44-.62-1.83-1.18-2-.36-.09-.85,1-1,1.28a18.75,18.75,0,0,1-3.46,3.55,28.3,28.3,0,0,0-2.83,2.75c-.67.81-1.2,1.68-1.86,2.46a28.65,28.65,0,0,0-2.86,3.47c-.67,1.09-.83,2.37-1.45,3.46-.78,1.35-2.12,2.38-2.77,3.83-.29.65-.29,1.36-.59,2a10.57,10.57,0,0,0-.88,1.7c-.14.65.09,1.36-.09,2s-.46,1.57-1.13,1.72c-.48.12-.85-.42-1.11-.71-.64-.81-1.36-1.9-.8-2.93.37-.63,1.24-.76,1.54-1.41a3.3,3.3,0,0,0,.14-1.25c0-.09,0-.4-.09-.4s-.35.33-.42.44c-.37.45-.73.9-1.13,1.32a16.93,16.93,0,0,1-4.81,3.71,17.84,17.84,0,0,1-6.89,1.88c-1.15.07-2.32-.09-3.47,0-.93,0-1.85.31-2.79.36a19.34,19.34,0,0,1-8.2-1.21,17.47,17.47,0,0,1-9.29-8.88,14.77,14.77,0,0,1-1.15-4.22c0-.4.07-1.48-.27-1.73-.58-.4-2,0-2.61,0s-1.12-.11-1.68-.11c-1.29,0-2.58,0-3.87,0-.94,0-1.89.2-2.83.14-.39,0-1.11-.14-1.43.11s-.32.89-.41,1.23a18.33,18.33,0,0,1-1.18,3,19.32,19.32,0,0,1-5.13,6.26,18.82,18.82,0,0,1-9.82,4.09c-1.7.18-3.36,0-5.06.07-1,.06-2,.35-3,.4A20.85,20.85,0,0,1,88,132.92a19.56,19.56,0,0,1-9.17-8.68,18.06,18.06,0,0,1,1.73-18.94A20.79,20.79,0,0,1,86,100.45a20.44,20.44,0,0,1,9.79-2.79,23.83,23.83,0,0,0,3.27,0c.28,0,.83-.09,1-.33.28-.45.12-1.41.12-1.93.07-1.56.07-3.15.09-4.74.11-5.83,0-11.67.3-17.48.07-1.37,0-2.75,0-4.12a4.31,4.31,0,0,1,.28-2.12c.39-.67,1.27-.4,1.91-.38,1.73,0,3.46-.14,5.21-.14,4.65,0,9.33-.06,14-.2q3.28-.11,6.57,0c.48,0,.94-.11,1.42-.07Zm15.25,7.52c-1.22-.11-2.44,0-3.66,0-.28,0-1-.16-1.2.14s.16.73.23,1,.07,1.05.37,1.3,1,.15,1.43.17,1.24,0,1.06.47c-.09.32-.55.27-.81.27-.62,0-1.24,0-1.84,0-.21,0-.55,0-.67.15-.23.41.62,1.14.55,1.64,0,.31-.39.42-.48.71-.18.45,0,1-.25,1.45-.12.25-.46.41-.48.68a6.42,6.42,0,0,0,.52,2.28,4.55,4.55,0,0,1-.07,2,19.33,19.33,0,0,1-.85,2.26c-.11.24-.3.67-.11.94a1.59,1.59,0,0,0,.85.38,15.52,15.52,0,0,1,1.8.56c.89.31,1.89.38,2.74.76.46.2.73.69,1.17.85s.83,0,1.25.11a4.63,4.63,0,0,1,2,1.07c.66.58.87,1.72-.14,2.13-.16.06-.92,0-1,.11s.35.49.46.62c.49.52,1,1,1.45,1.5.14.16.35.49.6.49s.21-.38.23-.53c0-.61.16-1.21.16-1.84,0-2.59.6-5.14.65-7.76,0-3.4.39-6.88.76-10.28.07-.85.21-1.68.3-2.51,0-.26.16-.76-.07-.94s-1.38-.08-1.8-.11c-1.7-.06-3.45,0-5.16-.13Zm9.19.24c-.25,0-.73-.11-.94.09s-.16.88-.21,1.19a28.48,28.48,0,0,0-.27,3.47c0,3-.54,5.92-.77,8.87-.16,2.35,0,4.7-.34,7-.23,1.46-.14,3-.28,4.43-.07.65-.11,1.26.72,1.37a23.3,23.3,0,0,0,3.54.33c.35,0,1,.18,1.23-.11s.18-1.36.16-1.83c0-1.48.16-2.93.16-4.39,0-3,.34-5.92.53-8.87.09-1.7,0-3.4.13-5.1.12-1.41.12-2.82.26-4.21a4.19,4.19,0,0,0,0-1.83c-.14-.29-.69-.29-1-.29-1-.07-2,0-3-.16Zm31.21,17.24c-.6-.13-1.1.92-1.22,1.35a13.76,13.76,0,0,0-.5,2.9,4.52,4.52,0,0,1-.21,2.08c-.19.32-.51.09-.67-.11a7,7,0,0,1-.67-1.3c-.07-.13-.2-.38-.39-.26s-.44.71-.55,1a16,16,0,0,0-.53,1.88,3.85,3.85,0,0,1-.23,1.14c-.42.67-.9-.42-1.15-.15s-.46,1.07-.14,1.18a4.42,4.42,0,0,0,1.36,0h3.11c.27,0,1.19.13,1.36-.16s-.05-1-.07-1.37a32.43,32.43,0,0,1-.23-3.57,14,14,0,0,1,.53-3.58c.06-.18.48-1,.2-1.1ZM94.15,99.36c-.14-.21-1.59,0-1.2.53.21.29,1.27-.42,1.2-.53Zm5.3,0c-1.43-.18-3.21.87-4.43,1.45-.3.13-1.26.49-1.26.87s.41.65.6.87c.55.79,1.12,1.55,1.68,2.31s1,1.4,1.56,2.12c.12.18.37.69.63.72s.25-.32.27-.43l.51-1.45a19,19,0,0,0,1.06-3.22,14.66,14.66,0,0,0-.07-1.48c0-.67.34-1.65-.55-1.76Zm-8.36.67c-.26-.09-.7.13-.93.22-.69.29-1.35.56-2,.87a18.1,18.1,0,0,0-4.08,2.71c-.28.27-1.08.8-1.08,1.23,0,.24.46.44.64.56A10.89,10.89,0,0,0,86,107.09c.23.07.34-.15.44-.31.3-.47.57-.89.87-1.34a38.32,38.32,0,0,1,4.12-4.23,1,1,0,0,0-.29-1.18Zm.94,2.79c-.37-.11-1.08.74-1.31.94a17.73,17.73,0,0,0-2.49,3.06c-.19.29-.65.81-.62,1.21s1.31,1,1.7,1.3c1.48.94,2.93,1.92,4.42,2.86.42.27,1.16,1,1.66,1,.28,0,.07-.45,0-.56-.19-.58-.4-1.16-.58-1.77-.62-2-1.41-4-2-6-.14-.52-.33-1-.51-1.55,0-.15-.12-.44-.3-.49Zm93.28.87a5,5,0,0,0-1.82,0h-4.6c-.44,0-1.59-.2-1.94.09-.2.18-.2.58-.25.83a4.51,4.51,0,0,1-.62,2.1c-.55.6-.74-.56-1.11-.43s-.34.58-.41.79a9.36,9.36,0,0,0-.79,2.59c0,.36.3.54.47.8s.43,1,.64,1.39a15.5,15.5,0,0,1,1.34,4.52A17.19,17.19,0,0,1,176,122a13.77,13.77,0,0,1-.35,1.37c0,.09-.16.38,0,.44s.6-.71.67-.82a9.44,9.44,0,0,0,1.08-3.11c.25-1,.67-2,.87-3a8.24,8.24,0,0,1,.46-2.3,21.43,21.43,0,0,1,3.23-3.58,15.56,15.56,0,0,0,2.14-3,11.63,11.63,0,0,0,1.27-3.18c0-.27.3-.94,0-1.12Zm-13.89,0a2.71,2.71,0,0,0-1,0H168c-.16,0-1-.09-1,.09s.72.47.86.56a13.68,13.68,0,0,1,1.84,1.18,3.25,3.25,0,0,0,1,.74c.3.11.46-.25.55-.45s.83-1.76.27-2.08Zm-5.32,1.39c-.52-.07-.64.54-.82.89-.49,1-.3,1.19.48,2,.18.18.44.58.69.61s.42-.27.55-.41c.3-.33,1.43-1.23,1.39-1.7,0-.2-.35-.35-.51-.44a4.88,4.88,0,0,0-1.78-.92Zm-71,1.12c-.16,0,.21,1,.23,1.16.37,1.1.69,2.24,1.11,3.33.09.2.18.94.41,1s.23-.34.28-.43a5.87,5.87,0,0,0,.48-1.54c0-.31-.32-.62-.51-.87-.43-.63-.92-1.25-1.36-1.88-.16-.2-.39-.69-.64-.78ZM82,106.49c-.42-.09-.74.67-.92,1A22.1,22.1,0,0,0,79.38,111c-.11.31-.6,1.32-.09,1.45a28.7,28.7,0,0,0,3.57.52c.28,0,1,.26,1.2.11s.16-.41.21-.58a14.3,14.3,0,0,1,.32-1.41,9.71,9.71,0,0,1,.51-1.64c.06-.22.25-.46.2-.71s-.48-.49-.73-.65A9.93,9.93,0,0,0,82,106.49Zm87.78,1c-.4,0-1,.83-1.18,1.1s-1,.87-1.08,1.34.41.83.58,1.12a15.92,15.92,0,0,1,1.19,2.59,15.5,15.5,0,0,1,.46,1.57c0,.22.07.51.3.53a11.93,11.93,0,0,0,3.23-.49c.3,0,.85,0,1.08-.24s0-.54-.07-.74a13.44,13.44,0,0,0-.64-1.63c-.07-.18-.16-.52-.35-.61s-.28.34-.32.43c-.14.31-.9,1.76-1.34,1.16a1.73,1.73,0,0,1-.09-.78,8.05,8.05,0,0,1,0-1.7,3.61,3.61,0,0,0,.09-1.17c-.14-.49-1.08.41-1.27-.26-.11-.43.44-.79.42-1.21s-.35-.52-.56-.7a.81.81,0,0,0-.43-.31Zm-5.42,1.08c-.27-.09-.5.73-.59.93-.51,1.12-1.09,2.2-1.66,3.29,0,.14-.67,1.17-.51,1.23s.25-.18.32-.22c.3-.31.58-.63.88-1l1.75-1.95a3.72,3.72,0,0,0,.8-1c.17-.38-.64-1.27-1-1.36Zm-77.41,1.18c-.35-.09-.42.54-.51.76a17.36,17.36,0,0,0-.6,2.17c-.07.27-.18.65.16.78a13.3,13.3,0,0,0,2.54.38c1.29.16,2.58.43,3.87.58l1.45.18c.09,0,.44.14.51,0s-.26-.3-.33-.34c-.43-.29-.89-.56-1.33-.85l-4-2.59a7.08,7.08,0,0,0-1.77-1.1Zm79.46,1.48c-.27-.09-.62.44-.76.6-.66.74-1.33,1.48-2,2.21-.09.12-.81.79-.57.9s.73-.14,1-.18l2.59-.67c.25-.07.82-.09,1-.34s-.07-.44-.14-.62c-.18-.43-.62-1.77-1.11-1.9Zm-87.5,2.86c-.46,0-.41,1.3-.41,1.63a16.6,16.6,0,0,0,.55,4.45c.09.31.21,1.37.64,1.34a4.5,4.5,0,0,0,1.25-.42c.73-.32,1.52-.61,2.28-.87.3-.09,1-.23,1.1-.54a1.5,1.5,0,0,0-.09-.78c-.07-.61-.18-1.21-.21-1.82s0-1,0-1.56c0-.2.09-.47,0-.63s-.85-.17-1.15-.26c-.78-.16-1.57-.21-2.37-.34a6.1,6.1,0,0,0-1.5-.2Zm66.15.4a3.18,3.18,0,0,0-1.38.07c-.28.2-.67,1.65-.34,1.88a3.85,3.85,0,0,0,1.61.29,15.73,15.73,0,0,0,4.53.27c.65-.12-.73-.88-.92-1a16.52,16.52,0,0,0-1.72-.78c-.33-.16-.42-.47-.67-.63a2.9,2.9,0,0,0-1.11-.09Zm-3.38,0c-.53-.07-1.06,0-1.59,0a7.29,7.29,0,0,0-2,0c-.3.09-1.36.76-.67,1.1a13,13,0,0,0,3.08.47c.28,0,.81.22,1.09.09s.6-1.61.07-1.68Zm-5.88.09c-.18-.13-.6,0-.83,0h-2.18c-2.4,0-4.79-.09-7.17.07a8.26,8.26,0,0,0-2.39.06c-.21.07-.21.25-.19.45a8.78,8.78,0,0,1,0,1.45c0,.18-.07.45.07.59s.6,0,.81,0a18.76,18.76,0,0,1,2,0c2.09.13,4.26-.07,6.38-.09a11.82,11.82,0,0,0,3,0c.44-.13.2-.71.25-1s.23-.65.3-1c0-.17.18-.46,0-.6Zm-14.46.16a2.72,2.72,0,0,0-1.36,0c-.88,0-1.8,0-2.7.06-.32,0-.9-.22-1.17,0s-.12.42-.09.6a7.21,7.21,0,0,1,0,1.54c0,.18-.07.45.11.56s.9,0,1.2,0c1,0,2.05,0,3-.07.28,0,.74.07,1-.06s.16-.38.18-.56c.07-.43.28-1.72-.18-2Zm28.31,0c-.17,0,.78.87,1.1.85s-.07-.47-.11-.56a1.6,1.6,0,0,0-1-.29Zm-35.27.07a1.16,1.16,0,0,0-1,0c-.12.16-.07.52-.33.54s-.27-.52-.6-.54a13,13,0,0,0-2.71.4c-.44.07-.9.16-1.36.25-.16,0-.44.09-.28.27a4.51,4.51,0,0,0,1.13.69,4.86,4.86,0,0,0,3,1c.37,0,.6-.39.92-.41s.62.61,1.2.38c.2-.09.2-.38.23-.56,0-.4.2-1.81-.19-2Zm-28.67.27c-.3,0-.21.49-.21.71a8.07,8.07,0,0,0,.14,1.83c0,.23,0,.54.36.54a9.33,9.33,0,0,0,1.73-.29A19.78,19.78,0,0,0,91.8,117c.41-.16.85-.31,1.29-.49.07-.05.34-.12.34-.23s-.29-.18-.39-.18c-.46-.09-.92-.13-1.38-.2-1.2-.15-2.44-.29-3.64-.51a8.05,8.05,0,0,0-2.32-.31Zm82.41.2c-.42-.14-1.2.22-1.61.33-1.32.36-2.63.69-3.94,1-.42.11-.86.2-1.25.31-.06,0-.41.13-.25.23.32.17,1.36-.18,1.75-.25l3.64-.58a9.2,9.2,0,0,0,1.73-.29.44.44,0,0,0-.07-.76Zm6.56,1.27a2.71,2.71,0,0,0-1,.11l-2.47.4c-.27,0-.87,0-1.05.25s0,1,0,1.28a12,12,0,0,1-.14,2.61c0,.34-.25.9-.11,1.21s.6.47.87.63a14.46,14.46,0,0,0,2.63,1.47c.48.16.81-1.25.92-1.59a15.12,15.12,0,0,0,.69-4.8c0-.32.07-1.43-.3-1.57Zm-6.56,1.1c-.28-.16-.85,0-1.13.09l-3,.47c-.19,0-1.24.11-.85.42a28.9,28.9,0,0,0,3.87,2.24c.27.18,1,.78,1.33.69s.3-.87.33-1.12a16.9,16.9,0,0,0,.09-1.74,1.36,1.36,0,0,0-.09-.72,2.67,2.67,0,0,0-.58-.33Zm-71.57.6c-.2-.13-.57.6-.67.74-.55.91-1.15,1.79-1.75,2.68-.06.11-.69.9-.5,1s1.08-.65,1.27-.79c.5-.35,1.79-.89,2-1.47a3.13,3.13,0,0,0-.11-1.16c0-.21,0-.88-.24-1Zm-2.35.16c-.18-.16-.8.09-1,.11a21.52,21.52,0,0,0-3,.78c-.9.31-1.82.65-2.72,1-.25.11-.76.2-.92.42s.18,1,.32,1.3a22.87,22.87,0,0,0,1.36,2.59,3.82,3.82,0,0,0,.76,1c.46.34,1.13-.71,1.34-1,1-1.52,2-3,3-4.54.27-.43.55-.83.83-1.25,0-.12.25-.36.13-.47Zm53.24.47c-1-.07-1.89.13-2.84.11a4.41,4.41,0,0,0-1.45,0c-.35.11-.18,1.61.21,1.68a6.35,6.35,0,0,0,1.54-.25,22.91,22.91,0,0,0,3.52-.74c.4-.13.79-.29,1.16-.44.09,0,.36-.12.3-.25s-.46-.09-.6-.09c-.6,0-1.22,0-1.84,0Zm-6,.22a2.73,2.73,0,0,0-1.06.07c-.85,0-1.73,0-2.58,0-.27,0-.8-.07-1,.15s-.05.74,0,1a14.65,14.65,0,0,0,.48,2.46c.07.22.14.67.37.8s.76-.15,1-.26c.74-.29,1.5-.56,2.26-.85.28-.09.74-.18.9-.43s-.07-1-.12-1.34,0-1.5-.23-1.61Zm-21.81.45c-1-.09-1.94.09-2.93.06-.25,0-.8-.17-1,.07-.3.45.25.74.57.92.83.45,1.64,1,2.47,1.43.27.16.69.51,1,.51s.35-.4.44-.58c.18-.47.9-1.74.67-2.23-.1-.23-1-.16-1.27-.18Zm42.68.38c-.32,0,.05.71.16.8a10.06,10.06,0,0,0,2.28.87c.16.05.58.29.74.21s-.6-.47-.67-.5l-1.79-1c-.19-.11-.49-.36-.72-.33Zm-54.27.27c-.62,0-.13,1.11-.09,1.43.28,1.52.6,3.08,1,4.6.11.43.18.88.27,1.32,0,.11.07.34.24.36.36,0,.92-.85,1.12-1.12a16.1,16.1,0,0,0,2.19-3.37c.14-.3.56-.9.46-1.23s-.94-.5-1.22-.59c-.83-.26-1.68-.55-2.49-.89a4.92,4.92,0,0,0-1.45-.51Zm-2.18.11a1.54,1.54,0,0,0-.88,0c-.81,0-1.59.24-1.45,1.29,0,.38.51.74.74,1,.64.71,1.24,1.47,1.86,2.19.23.22.53.83.85.92s-.09-1.1-.11-1.23c-.19-1-.39-2.13-.67-3.13-.07-.29,0-.9-.34-1Zm-5.65.15c-.44-.17-1.38.45-1.47.88a3.65,3.65,0,0,0,.16,1.2c.16.85.3,1.72.39,2.57,0,.25.07,1.48.3,1.57s.23-.31.25-.38c.16-.45.35-.9.53-1.34.28-.65.49-1.34.79-2a2.41,2.41,0,0,0,.32-1c0-.32-.44-.65-.65-.87a1.85,1.85,0,0,0-.62-.59Zm52.5.38c-.19-.09-.47.5-.56.61-.48.76-1,1.5-1.47,2.26-.07.11-.6.76-.46.87s.9-.52,1-.61c.46-.31,1.55-.78,1.76-1.31a3,3,0,0,0-.07-1c0-.15,0-.78-.23-.85Zm-2.15.14c-.16-.23-1.33.13-1.59.18a25.92,25.92,0,0,0-3.82,1.27c-.35.14-1.13.27-1.36.58s.19.9.3,1.14a10.73,10.73,0,0,0,1.75,3.09c.44.47,1-.43,1.25-.74q1.27-2,2.6-4c.25-.38.5-.76.73-1.14.07-.09.24-.31.14-.42Zm7.7.09c-.12-.09-.4.15-.49.22-.37.27-.64.58-.13.92.36.24.8-1,.62-1.14Zm-73.57.33c-.26-.09-.74.2-1,.29-.87.32-1.75.67-2.63,1-.27.09-.89.2-.89.58,0,.58.71,1.43,1,1.9a17,17,0,0,0,3.29,3.73A6.24,6.24,0,0,0,86.13,130c.3.12.49-.2.65-.4.32-.47.67-1,1-1.43.14-.2.39-.45.39-.69,0-.45-.67-1-.92-1.39a16.49,16.49,0,0,1-1.84-3.24c-.14-.34-.35-1.32-.69-1.48Zm75.34.07c-.42,0-.67,1.12-.78,1.45a1.68,1.68,0,0,0-.23.83c.07.29.39.56.57.78l1.48,1.73c.16.2.66,1,1,1,.14,0,.07-.32.05-.36-.07-.38-.16-.76-.23-1.14-.19-.85-.37-1.7-.55-2.55a5,5,0,0,0-.33-1.32,1.23,1.23,0,0,0-.94-.45Zm-44.73.42c-.23,0-.3.32-.37.47a15.16,15.16,0,0,1-.67,1.59,17.25,17.25,0,0,1-2.85,4.21,17.79,17.79,0,0,0-1.57,1.56c-.18.25,0,1.74.39,1.79a5.69,5.69,0,0,0,2.19-1,18.27,18.27,0,0,0,5.23-4.25c.39-.49,1.38-1.48,1.4-2.12,0-.3-.57-.52-.8-.63-.69-.38-1.36-.8-2.05-1.21a3.16,3.16,0,0,0-.9-.45Zm-18.22.52c-.34-.16-1.36.78-1.64,1-1.29.87-2.57,1.75-3.87,2.62-.39.27-1.15.83-1.15,1.36s.92,1,1.25,1.28a19.67,19.67,0,0,0,4.63,2.75c.32.13.9.47,1.24.38s.76-1.41.78-1.77a29.78,29.78,0,0,0-.76-5.1c-.07-.62-.13-1.25-.25-1.87,0-.16,0-.54-.23-.63Zm65.83.11c-.35,0,0,1,.05,1.28.27,1.36.57,2.72.85,4.07.07.22.18,1.45.48,1.43s.76-.72.95-1a16.28,16.28,0,0,0,1.91-2.94c.11-.24.5-.8.41-1.09s-.78-.43-1.06-.54l-2.53-.91a2.8,2.8,0,0,0-1.06-.34Zm-6.89.18c-.34-.13-1.15.49-1.24.8a3.31,3.31,0,0,0,.11,1.12c.14.78.26,1.59.35,2.37.05.23.05,1,.25,1.08s.23-.2.26-.27c.16-.4.3-.79.46-1.17l.69-1.81a1.68,1.68,0,0,0,.23-.78c0-.31-.39-.6-.6-.83a1.65,1.65,0,0,0-.51-.51Zm-53.18.8c-.21,0-.28.27-.32.41-.19.51-.37,1-.58,1.49-.42,1-.74,1.95-1.15,2.91a4.78,4.78,0,0,0-.62,2.57c0,.43,0,1.64.57,1.73a3.62,3.62,0,0,0,1.5-.32,17.51,17.51,0,0,0,4-1.85c.37-.23,1.38-.67,1.47-1.1s-.73-1.09-1-1.39c-1-1.11-1.91-2.25-2.91-3.37-.2-.25-.69-1-1-1.08Zm39.41.16c-.23-.13-.65.11-.88.18-.78.31-1.54.58-2.32.87-.23.09-.81.2-.81.49,0,.52.62,1.3.9,1.73,1,1.52,2.51,3.48,4.26,4.27.28.13.44-.07.6-.27.32-.45,1.27-1.37,1.27-1.92s-.58-.9-.81-1.21a18.35,18.35,0,0,1-1.64-2.89c-.13-.31-.27-1.09-.57-1.25Zm27.27.4c-.25,0-.32.27-.39.43a12.67,12.67,0,0,1-.72,1.59,16.42,16.42,0,0,1-2.18,3.26A17,17,0,0,0,164.7,131c-.18.27,0,1.52.3,1.59s.53-.16.74-.25a20,20,0,0,0,1.79-.91,15,15,0,0,0,4.29-3.8c.2-.25,1-1.28.94-1.57-.11-.47-1.4-.94-1.82-1.19a5,5,0,0,0-1.38-.76Zm-16.31.45c-.39-.07-1.1.65-1.4.85-1.15.78-2.33,1.57-3.48,2.37-.35.22-1,.72-1,1.19s.92,1,1.27,1.25a17.4,17.4,0,0,0,3.31,2,5.66,5.66,0,0,0,1.55.6c.46.07.8-1.14.83-1.49a7.36,7.36,0,0,0-.23-1.84c-.16-1-.3-2.1-.46-3.15-.1-.47-.14-.92-.21-1.39,0-.13-.05-.38-.21-.4Zm5.18,1c-.18,0-.25.24-.3.37-.18.45-.34.9-.52,1.35-.37,1-.76,1.9-1.13,2.86A3.76,3.76,0,0,0,156,132c.07.4,0,1.45.53,1.52a3.24,3.24,0,0,0,1.43-.31,16.11,16.11,0,0,0,3.47-1.61c.33-.2,1.23-.58,1.27-1s-.64-.94-.85-1.21l-2.49-2.91c-.21-.24-.64-1-1-1Zm-68.87,3.33c-.25-.07-.43.27-.55.42-.25.34-1.45,1.59-.94,1.9a15.57,15.57,0,0,0,6.31,1.95c.48,0,1,.13,1.49.15.1,0,.44.05.49-.06s-.3-.21-.37-.23a9.48,9.48,0,0,1-1.27-.58,19.3,19.3,0,0,1-3.5-2.14c-.46-.38-1.1-1.23-1.66-1.41Zm57,1.38c-.21,0-.35.25-.44.38-.21.29-1.2,1.3-.88,1.63a5,5,0,0,0,1.62.74,17.19,17.19,0,0,0,4,1,5.55,5.55,0,0,0,1.47.11c.37-.07-.83-.58-1-.65a18.22,18.22,0,0,1-3.47-2.17c-.33-.26-.88-1-1.29-1Zm-38.31,1c-.18,0-.44.18-.57.27-.44.29-.88.56-1.34.83,0,0-.58.29-.39.36s.44,0,.6,0c.48-.09,1.52-.16,1.86-.5.16-.13.09-.89-.16-.94Zm54.94,1.17c-.3-.14-1.32.69-1.59.85-.07,0-.51.26-.37.36a.88.88,0,0,0,.48,0,3.76,3.76,0,0,0,1.57-.4A.57.57,0,0,0,163.16,132.34Z"/></g></g></g></svg>