<svg xmlns="http://www.w3.org/2000/svg" viewBox="0 0 131.54 65.94"><defs><style>.cls-1{fill:#040000;}</style></defs><title>青鸟</title><g id="图层_2" data-name="图层 2"><g id="图层_1-2" data-name="图层 1"><g id="青鸟"><path class="cls-1" d="M51.72,62.76c-.3-.94-.88-1.6-.8-2.91-1.35-.45-1.6,1.56-2.12,1.06-1.47-7.4,8.49-9.59,14.05-10.88-5.92-.79-13.92.49-16.7-3.45-5.63,4-13.84,5.3-21.75,6.37-4.88.66-8,5.06-12.47,5.83-1.14.18-1.48-.45-2.12-.79-.85.38-1.48,1-2.38,1.32-2.59-1.58-5.21-.16-7.43.8C2,52.2,8.92,47.93,14.59,43.67s11.64-9.94,20.68-10.35c-2.67-2.94-1.3-6.79-2.39-10.6-.9-3.2-5.94-4.68-5-9A34.8,34.8,0,0,0,21.75,10c1.51-1.15,5.57-1,7.42-.27,2.31-4.54,9.68-5.89,14.06-2.65a22.38,22.38,0,0,1,4,4.51c1.32,1.86,1.79,4.39,3.18,5.3,3.13,2.05,8.19-.06,9.28,4,3.27-.77,1.38-3.83,1.59-5.84.28-2.61,3.76-6.48,6.37-8.22C74.24,2.41,86.61.62,96.27.17,108.34-.39,121,.11,127,6.27c-3.78-.51-5.17,1.37-6.1,3.72a23.43,23.43,0,0,0-2.65.53c-.75.31-1,1.13-1.59,1.59-7,3.3-15.81,2.27-20.16,8-1.64,2.15-2.57,4.45-4.24,6.37a49.57,49.57,0,0,0-4.77,5.83,5.07,5.07,0,0,1-2.12.27C87.63,35,87.62,39.34,90.7,41c2.42,1.32,6.46,1.78,10.08,2.66,9.38,2.28,22.42,4.4,30.76,7.16-.14,2.6-2.57,2.91-4.77,3.44-.87,1.42,1.76,1.35,1.32,3.19-1.11,1.13-2.52.62-3.71,1.32-1.42.84-1.51,2.54-2.65,3.72-1.51,1.55-3.67,1.72-4.51,3.44-8.77-.89-17.19-4.08-24.93-6.89a173.68,173.68,0,0,1-20.16-8.49c-3.92,1.74-9.08,2.23-11.67,5.31.44,1.86,2.94,1.66,3.19,3.71-1.65-.48-2.36-1.88-4-2.39.24,3.82,1.9,6.23,4.77,7.43-2.16.83-3-1.91-4.51-2.65-.63.48-.14,2.07,0,2.65-1.54-1.63-2.78-5-2.38-7.16.79-4.25,8.33-5.21,11.4-7.16-5.23.33-11.57,1.86-15.64,4.24-.53,3,2.39,2.56,2.65,4.77-1,.67-2.46-2.63-3.72-3.44-1.72,2.88-.31,8.06,3.45,8C54.47,64.42,53.08,62.9,51.72,62.76Z"/></g></g></g></svg>