<svg xmlns="http://www.w3.org/2000/svg" viewBox="0 0 168.54 138.19"><defs><style>.cls-1{fill:#040000;}</style></defs><title>马</title><g id="图层_2" data-name="图层 2"><g id="图层_1-2" data-name="图层 1"><path id="马" class="cls-1" d="M166.44.65c.85.42.89,1.65,2.1,1.72-.79,2.88-4.22,3.09-5.54,5.34-1.52,2.59-.57,10.06-.57,15.08,0,5.78.28,11.18-.19,15.27-.39,3.36-4.81,8.54-9.54,7.06-2.79-.87-3.42-4.85-3.63-8.59a20,20,0,0,0,0-3.63c-.34-1.35-2.19-3.13-3.06-4.2-1.25-1.54-2.19-2.53-3.43-3.81-3,3.88-1.26,10.54-2.67,15.46-1.57,5.44-5.57,11.33-7.64,16.6,1.25,2.4,1,5.95,1,10.12,0,2.14-.51,5.06,0,6.3.57,1.41,3.94,2.37,5.91,3,6.34,2.19,11.68,2.71,13.36,9.35a48,48,0,0,0-3.05,17.56c0,2.09.52,4.85,0,6.68-.27.94-2.34,2.34-3.63,3.44-1.51,1.29-2.47,2.45-3.62,3.43-2.69,2.31-8,6.43-11.45,3.63.27-4.34,2.4-8,3.62-12a6.73,6.73,0,0,1,6.11,1.33c3-4.53,5.1-14.79,2.29-21-6.12-1.73-13.91-1.19-20.23-3.06-1.56-.45-4.55-1.83-6.3-1.33-4.12,1.17-1.64,10.38-2.48,15.08-.24,1.32-1.19,2.56-1.53,4-1,4.08-1.76,13.67-.19,18,1.45,3.94,5.15,5.74,8,8.59.3,2.49,1.34,4.25,2.1,6.29-2.84,1.79-6.93-.16-10.69.19-.13-4.83-2.34-7.59-6.49-8.39,1.14-17.49-2.12-29.91-5.35-43.71-2.39-1.79-6.22-1.28-9.16-1.72C85.62,82,80.94,79.65,76.54,78s-8.9-3.62-13.17-5.35c-8.6,5.59-12.31,16.07-17.56,25,4.54,2.73,11.38,2.29,14.51,6.49a18.31,18.31,0,0,1,3,9.54c-.09,3.33-2.62,6-3.63,9-1.56-2.4-7.2-4.91-6.49-9,.32-1.79,1.78-2.09,2.68-3.63a25.37,25.37,0,0,0-12.22-5.15c-.26,4.23,1.79,7.92,3.24,11.45,3.39,8.21,9.82,13.37,14.13,20.62-3.29,1.92-10.34,1.47-13.36-.19,2.46-4,.59-7.11-4.2-7.07-1.59-7.79-5.4-15-9-22.14-.95-1.89-2-4.75-3.06-5.91S28,99.88,26.34,99.13,22.78,97.59,21,96.84a3.73,3.73,0,0,0-1.34-2.09c2.25-4.45,7.38-7.36,9.16-12.22,1.32-3.62-.37-5.65-2.1-8.78-3.89-7-9.34-18.68-4.2-28.44-3.34-4.4-11-1.08-16.22-.76C2.77,41.27.93,36.3,0,30.42c12.27-1.2,19.54,2.61,24.81,8.4C30.9,34.49,36.46,30,45.43,29.28a62.89,62.89,0,0,1,15.07.95c4.54.73,8.79,2.33,13,2.87a62.37,62.37,0,0,0,13,0c5.88-.52,10.69-3.64,15.46-5.35,1.75-.63,3.69-.72,5.54-1.34,7.14-2.36,10.35-9.81,15.08-15.26S133.81.76,142.58.08c6.77-.53,10.58,1.81,16,3.62C161.27,2.74,164,1.81,166.44.65ZM34.36,93.22h1.53c-.21-.5-.13-1.28-.58-1.53C35.29,92.5,34.62,92.66,34.36,93.22Z"/></g></g></svg>